<svg version="1.1" id="Layer_2" xmlns="http://www.w3.org/2000/svg" x="0" y="0" viewBox="0 0 398 90" xml:space="preserve"><style type="text/css">.st0{fill:#737373}</style><path class="st0" d="M233.1 51.1h18v4.8h-12.5v4.3h12.2v4.2h-12.2v4.5h12.5v4.7h-18zm52.8 8.8c6.8.3 7.3 3.7 7.3 7.3 0 4.2-3.5 6.5-7.1 6.5h-11.6v-4.8h9c1.5 0 3.8 0 3.8-2.2 0-1-.4-1.7-2-1.8-.7-.1-3.4-.3-3.8-.3-6.1-.2-7.5-3.2-7.5-6.9 0-4.2 3-6.5 6.6-6.5h11.6V56h-8.5c-1.9 0-4-.2-4 2 0 1.4 1 1.7 2.3 1.8.5-.1 3.5.1 3.9.1zm-20.7 0c6.8.3 7.3 3.7 7.3 7.3 0 4.2-3.5 6.5-7.1 6.5h-11.6v-4.8h9c1.5 0 3.8 0 3.8-2.2 0-1-.4-1.7-2-1.8-.7-.1-3.4-.3-3.8-.3-6.1-.2-7.5-3.2-7.5-6.9 0-4.2 3-6.5 6.6-6.5h11.6V56H263c-1.9 0-4-.2-4 2 0 1.4 1 1.7 2.3 1.8.5-.1 3.5.1 3.9.1zm-65.4-8.7h-19.4l-6.3 7-6.1-7h-21.7v22.5h21l6.6-7.4 6.5 7.5H191V66h7.4c2.9 0 8.1-.1 8.1-8 0-5.6-4-6.8-6.7-6.8zm-35.4 17.7h-12.7v-4.4h12.2v-4.3h-12.2V56h13.4l5.4 6.1-6.1 6.8zm21.1 2.6l-7.9-9.4 7.9-8.8v18.2zm12.4-10.1H191V56h6.9c2.3 0 3 1.5 3 2.6.1 1.5-.7 2.8-3 2.8zm28.5 2c3-1.5 3.8-3.5 3.8-6.2 0-4.8-3.9-6-6.6-6h-14.3v22.5h5.5v-7.9h7.2c1.9 0 2.7 1.9 2.7 3.8l.2 4.1h5.4L230 69c0-3.6-1-5.3-3.6-5.6zm-4.7-2.3h-6.9V56h6.9c2.3 0 3 1.5 3 2.6 0 1.5-.8 2.5-3 2.5zm-10.2-44.8h5.5v22.5h-5.5zm-45.2.1h18.1v4.8h-12.5v4.2H184v4.3h-12.1v4.4h12.5v4.7h-18.1zm38.5 12.2c3-1.5 3.8-3.5 3.8-6.2 0-4.8-3.9-6-6.6-6h-14.3v22.5h5.5V31h7.2c1.9 0 2.7 1.9 2.7 3.8l.2 4.1h5.4l-.2-4.6c-.1-3.7-1.1-5.4-3.7-5.7zm-4.8-2.3h-6.9v-5.1h6.9c2.3 0 3 1.5 3 2.6.1 1.5-.7 2.5-3 2.5zm-46.4-9.9l-6.8 15.1-6.7-15.1h-8.6V38l-9.6-21.6h-7.3l-9.8 22.5h5.8l2.2-5h11l2.2 5h11V22.1l7.4 16.7h5l7.5-16.4v16.4h5.5V16.4h-8.8zM114.8 29l3.3-7.9 3.4 7.9h-6.7zm159.1-12.7v15.6l-9.3-15.6h-8.1v21.1l-9.4-21.1h-7.3l-7.6 17.4s-3.2 0-3.5-.1c-1.3-.3-3.4-1.2-3.4-5.2v-1.6c0-5.3 2.9-5.6 6.5-5.6h3.4v-4.9H228c-2.5 0-8 1.9-8.1 11.1-.1 6.2 2.6 11.3 8.7 11.3h7.3l2.2-5h11l2.2 5H262V22.4l9.9 16.4h7.5V16.3h-5.5zM240 29l3.3-7.9 3.5 7.9H240z"/></svg>