<svg version="1.1" xmlns="http://www.w3.org/2000/svg" x="0" y="0" viewBox="0 0 398 90" xml:space="preserve"><g id="vauxhall" fill="#838997"><path id="path3311_1_" d="M107.771 51.081l6.811-17.627h6.102c1.43 0 1.929.798 1.435 2.102l-8.013 18.853c-.729 1.716-1.856 1.834-3.313 1.834h-6.144c-1.457 0-2.625-.149-3.31-1.834l-7.133-18.846c-.512-1.346-.029-2.109 1.459-2.109h6.104l6.002 17.627"/><path id="path3313_1_" d="M162.63 56.802c11.046-.062 12.15-6.927 12.15-11.397v-9.862c0-1.437-.61-2.089-2.022-2.089h-5.78v12.323c0 2.55-1.098 5.031-4.348 5.031-3.337 0-4.328-2.328-4.328-5.031V33.454h-5.441c-1.794 0-2.359.738-2.359 2.089v9.862c-.001 4.47 1.081 11.459 12.128 11.397"/><path id="path3315_1_" d="M189.866 39.208l4.472-5.754h6.867c1.836 0 1.707 1.335 1.133 2.015l-7.851 8.585 7.865 10.139c.532.652.692 2.053-1.242 2.053h-6.774l-4.674-6.57-5.131 6.57h-6.809c-1.936 0-1.774-1.401-1.242-2.053l8.612-10.284-7.14-8.441c-.572-.681-.703-2.015 1.133-2.015h6.774l4.007 5.755"/><path id="path3317_1_" d="M221.808 47.374v8.869h5.454c.455 0 2.361.186 2.361-2.053V35.292c0-1.896-1.925-1.836-2.361-1.836h-5.454v7.902h-8.798v-7.902h-5.452c-.439 0-2.364-.06-2.364 1.836v19.039c0 2.015 1.942 1.916 2.364 1.916h5.452v-8.873h8.798"/><path id="path3319_1_" d="M282.431 50.092h-11.397V33.459h-5.59c-.927 0-2.304.082-2.304 2.073v18.66c0 1.991 1.299 2.055 2.053 2.055h14.92c.898 0 2.317-.14 2.317-2.004v-4.151"/><path id="path3321_1_" d="M303.992 50.092h-11.397V33.459h-5.59c-.927 0-2.304.082-2.304 2.073v18.66c0 1.991 1.299 2.055 2.053 2.055h14.92c.898 0 2.317-.14 2.317-2.004v-4.151"/><path id="path3323_1_" d="M129.052 52.598l-1.47 3.645h-5.896c-.605 0-2.357.033-1.452-2.337l7.869-18.534c.379-.814.783-1.918 3.162-1.918h7.337c2.268 0 2.765.716 3.399 2.235l6.991 18.235c.898 2.355-.971 2.319-1.53 2.319H141.6l-1.319-3.645h-11.229zm9.077-5.942l-3.162-8.738-3.523 8.738h6.685"/><path id="path3325_1_" d="M240.747 52.6l-1.47 3.645h-5.898c-.603 0-2.355.031-1.45-2.339l7.869-18.534c.379-.814.783-1.918 3.162-1.918h7.339c2.266 0 2.763.716 3.397 2.237l6.991 18.232c.898 2.355-.971 2.321-1.53 2.321h-5.862l-1.319-3.645h-11.229v.001zm9.078-5.944l-3.162-8.738-3.523 8.738h6.685"/></g></svg>