<svg version="1.1" xmlns="http://www.w3.org/2000/svg" x="0" y="0" viewBox="0 0 398 90" xml:space="preserve"><path d="M290.613 42.787h-14.656c.179-1.836 1.476-3.673 3.817-3.673h17.284v-3.529h-18.077c-7.202 0-10.154 5.474-10.154 10.731h20.164c.684 0 2.305.143 2.305 1.8s-1.404 1.801-3.816 1.873h-21.029V35.585h-6.193v14.403h-11.811c-3.565 0-3.961-2.628-3.961-4.033v-10.37h-11.27l-9.182 6.121-8.283-6.121H191.59c-7.202 0-11.522 5.006-12.135 9.362h4.98c-1.991 1.343-3.402 3.162-4.168 5.035l-14.063.006c-3.565 0-3.961-2.628-3.961-4.033v-10.37h-6.193v9.831c0 6.77 4.753 8.101 7.058 8.101h49.511l9.254-6.193 8.39 6.193h9.758l-12.998-9.577 10.693-7.166v9.47c0 6.122 5.978 7.274 7.634 7.274h45.19c2.233 0 8.39-.288 8.39-5.185 0-4.897-4.536-5.546-8.317-5.546zm-79.001 7.202h-23.297c.18-1.836 2.196-3.672 4.537-3.672h13.755v-3.529h-18.796c.18-1.836 2.197-3.673 4.537-3.673h15.699v-2.052l10.875 8.066-7.31 4.86zm-87.984 11.414c8.132 0 15.344-2.84 19.815-7.213l-4.028.018c-3.808 3.204-9.376 5.219-15.686 5.219-11.772 0-20.961-7.016-20.961-15.67 0-9.98 9.19-15.668 20.961-15.668.749.002 1.347.347.898.996-2.445 2.945-9.41 12.42-10.68 14.474-2.506 4.048-2.445 9.033 3.694 9.382h25.816c1.319 0 1.654-.62 2.13-1.264a13.178 13.178 0 0 0 2.604-7.919c-.005-7.437-5.239-13.012-12.94-15.753l-1.192 1.78c6.399 2.36 10.63 7.132 10.63 13.972 0 1.188-.173 2.346-.502 3.458-.286.966-.845 1.783-1.904 1.783h-20.607c-2.639 0-1.62-2.723-.642-4.043 1.418-2.541 9.183-13.126 11.052-15.097.476-.724 1.812-2.221-.029-2.795-2.628-.624-5.467-.951-8.428-.951-13.564 0-24.554 6.965-24.561 17.644-.009 10.782 10.995 17.647 24.56 17.647z" id="lexus" fill-rule="evenodd" clip-rule="evenodd" fill="#727c81"/></svg>