<svg version="1.1" xmlns="http://www.w3.org/2000/svg" x="0" y="0" viewBox="0 0 398 90" xml:space="preserve"><path d="M122.126 59.882c-2.667-1.671-4.632-7.435-4.632-14.285 0-.252.002-.5.007-.748l.003.004c-7.418-1.166-12.778-4.36-12.915-8.136l-.022.043c-1.815 2.256-2.851 4.864-2.851 7.642 0 8.177 8.976 14.877 20.361 15.469l.049.011zM98.287 45c0-9.149 11.386-16.568 25.432-16.568S149.151 35.85 149.151 45c0 9.15-11.387 16.568-25.432 16.568-14.045 0-25.432-7.419-25.432-16.568zm25.433-14.177c2.712 0 5.018 4.113 5.872 9.853l.003-.009c5.275-.821 8.969-2.716 8.969-4.92 0-2.958-6.647-5.354-14.844-5.354-8.198 0-14.844 2.396-14.844 5.354 0 2.204 3.693 4.098 8.969 4.92l.003.009c.854-5.74 3.161-9.853 5.872-9.853zm1.642 29.05c11.385-.592 20.362-7.292 20.362-15.469 0-2.779-1.037-5.387-2.852-7.642l-.022-.043c-.137 3.777-5.495 6.971-12.914 8.136l.003-.004c.005.248.008.496.008.748 0 6.849-1.966 12.614-4.632 14.285l.047-.011zm-1.642-18.771c1.215 0 2.396-.052 3.526-.151l-.002.001c-.562-3.679-1.928-6.275-3.524-6.275s-2.962 2.597-3.524 6.275l-.002-.001c1.13.099 2.311.151 3.526.151zm0 13.624c2.041 0 3.707-4.248 3.795-9.577l.011.004c-1.23.114-2.503.174-3.806.174-1.304 0-2.576-.06-3.806-.174l.011-.004c.088 5.329 1.753 9.577 3.795 9.577zM228.061 45c0-6.993 5.669-12.663 12.663-12.663 6.995 0 12.665 5.669 12.665 12.663 0 6.994-5.669 12.663-12.665 12.663-6.994-.001-12.663-5.669-12.663-12.663zm12.662 8.019c3.906 0 7.072-3.591 7.072-8.02 0-4.428-3.166-8.02-7.072-8.02-3.904 0-7.069 3.591-7.069 8.02.001 4.429 3.166 8.02 7.069 8.02zm27.033-15.406v19.475h-5.335V37.613h.017-7.461V33.21h20.221v4.403h-7.442zm13.897 14.102l-.005.005-2.046 5.367h-6.231l9.851-23.877h6.64l9.852 23.877h-6.232l-2.047-5.367-.005-.005h-9.777zm4.889-4.03h3.357l-.002.001-3.332-8.739h-.047l-3.334 8.739-.001-.001h3.359zM169.406 37.613v19.475h-5.335V37.613h.018-7.462V33.21h20.222v4.403h-7.443zM178.214 45c0-6.993 5.67-12.663 12.664-12.663S203.541 38.006 203.541 45c0 6.994-5.669 12.663-12.663 12.663-6.994-.001-12.664-5.669-12.664-12.663zm12.664 8.019c3.904 0 7.07-3.591 7.07-8.02 0-4.428-3.166-8.02-7.07-8.02-3.905 0-7.071 3.591-7.071 8.02 0 4.429 3.167 8.02 7.071 8.02zm24.923 4.069h2.705v-9.067l9.308-14.811h-6.23l-5.783 10.036-5.782-10.036h-6.232l9.309 14.811v9.067h2.705z" id="toyota" fill-rule="evenodd" clip-rule="evenodd" fill="#838997"/></svg>