<svg version="1.1" xmlns="http://www.w3.org/2000/svg" x="0" y="0" viewBox="0 0 398 90" xml:space="preserve"><path d="M108.721 55.405h-6.534L92 27.76h6.611l5.25 15.593a73.165 73.165 0 0 1 1.633 5.571 57.749 57.749 0 0 1 1.594-5.376l5.445-15.787h6.534l-10.346 27.644zm22.747-8.568c0 2.295-1.625 4.357-4.062 4.357-2.127 0-4.101-1.79-4.101-4.279 0-2.332 1.548-4.395 4.062-4.395 2.283.001 4.101 1.869 4.101 4.317zm5.589 0c0-5.243-4.075-9.104-9.651-9.104-5.781 0-9.689 4.018-9.689 9.067 0 5.366 4.142 9.181 9.418 9.181 6.351 0 9.922-4.517 9.922-9.144zm4.232 8.568V26.232h5.53v29.173h-5.53zm21.378 0l-5.374-7.995v7.995h-5.529V26.232h5.529v19.119l5.374-7.002h6.775l-6.58 7.858 7.047 9.198h-7.242zm15.543.511c-3.921 0-5.951-1.285-7.004-4.047l4.683-1.824c.43 1.125 1.331 1.94 2.48 1.94 1.109 0 1.782-.426 1.782-1.166 0-2.485-8.36-1.398-8.36-7.344 0-3.109 2.537-5.676 6.894-5.676 3.213 0 5.467 1.167 6.593 4.006l-4.428 1.712c-.544-1.36-1.492-1.79-2.403-1.79-.713 0-1.504.43-1.504 1.207 0 2.717 8.374 1.476 8.374 7.459.001 3.46-3.069 5.523-7.107 5.523zm33.818-.511h-5.22l-2.921-8.39c-.273-.781-.506-1.483-.702-2.571a22.69 22.69 0 0 1-.7 2.608l-2.921 8.353h-5.453L186.75 38.31h5.764l3.233 8.234c.39.938.662 1.988.973 3 .273-1.013.546-2.104.818-2.922l2.883-8.313h5.686l2.687 7.767c.39 1.169.741 2.26.974 3.389.39-1.285.779-2.414 1.169-3.389l3.038-7.767h5.647l-7.594 17.096zm22.411-8.258c0 2.335-1.52 4.476-4.093 4.476-2.652 0-4.25-2.141-4.25-4.671 0-2.608 1.754-4.357 4.055-4.357 2.613.001 4.288 2.101 4.288 4.552zm5.264 8.254V38.35h-5.457v1.986c-.936-1.44-2.964-2.531-5.342-2.531-5.295 0-8.483 3.932-8.483 9.305 0 5.179 3.032 8.878 7.975 8.878 2.652 0 4.446-.938 5.85-2.339v1.752h5.457zm17.885-8.748c0 2.298-1.437 4.32-3.888 4.32-2.567 0-4.124-1.752-4.124-4.282 0-2.257 1.596-4.163 3.929-4.163 2.802 0 4.083 2.298 4.083 4.125zm5.304 7.122V38.337h-5.456v1.941c-1.05-1.669-2.996-2.406-5.369-2.406-4.627 0-8.164 3.804-8.164 8.938 0 4.514 2.565 8.445 8.009 8.445 2.139 0 4.007-.621 5.524-2.295v2.414c0 2.775-1.246 4.258-3.812 4.258-1.672 0-3.268-1.053-3.268-2.54h-5.481c0 3.75 3.07 6.675 8.399 6.675 3.113 0 5.479-.743 7.374-2.574 1.702-1.718 2.244-3.63 2.244-7.418zm16.441-8.844h-6.846c.196-1.892 1.526-3.283 3.52-3.283 2.073 0 3.326 1.661 3.326 3.283zm5.457 1.712c0-5.659-3.561-8.91-8.743-8.91-5.312 0-8.932 3.994-8.932 9.261 0 6.021 4.284 8.987 8.893 8.987 3.945 0 6.421-1.367 8.395-3.941l-3.561-2.342c-1.121 1.493-2.487 2.223-4.246 2.223-2.387 0-4.03-1.609-4.146-3.72h12.301c.039-.662.039-1.244.039-1.558zm15.682 8.762v-9.451c0-1.561-.504-3.355-2.596-3.355-1.086 0-3.372.624-3.372 3.822v8.983h-5.528V38.333h5.528v2.252c.815-1.127 2.402-2.641 5.503-2.641 2.179 0 3.58.776 4.475 1.669 1.091 1.088 1.519 2.482 1.519 4.978v10.814h-5.529z" id="volkswagen" fill-rule="evenodd" clip-rule="evenodd" fill="#838997"/></svg>