<svg version="1.1" xmlns="http://www.w3.org/2000/svg" x="0" y="0" viewBox="0 0 398 90" xml:space="preserve"><path d="M30.579 32.853l-8.107 17.822-6.939-17.822H8.55v24.042h4.514V39.254l7.498 17.537h3.44l7.419-16.006v16.11h5.507V32.853zm53.998 0v16.311L71.269 32.922l-.017-.069h-.037l-.022-.027v.027h-4.896v24.042h5.509V40.867l12.771 16.028h5.51V32.853zm220.477 0v16.311l-13.308-16.242-.018-.069h-.037l-.021-.027v.027h-4.896v24.042h5.509V40.867l12.771 16.028h5.509V32.853zm-169.077 0v10.171h-10.938V32.853h-5.507v24.042h5.507V45.781h10.938v11.114h5.507V32.853zm69.413 0h-20.042v3.236h7.264v20.806h5.514V36.089h7.264zm139.036 0h-20.037v3.236h7.264v20.806h5.509V36.089h7.264zM152.651 53.658v-7.7h8.104v-3.237h-8.104v-6.632h8.104v-3.236h-13.612v24.042h15.529v-3.237zm61.188 0v-7.7h8.105v-3.237h-8.105v-6.632h8.105v-3.236H208.33v24.042h15.53v-3.237zm138.62 0v-7.7h8.104v-3.237h-8.104v-6.632h8.104v-3.236h-13.611v24.042h15.528v-3.237zm-237.945-1.233a9.637 9.637 0 0 1-5.07 1.419c-5.11 0-9.251-3.866-9.251-8.636s4.141-8.64 9.251-8.64c1.866 0 3.599.523 5.053 1.413l2.025-2.605c-2.353-1.527-5.258-2.445-8.423-2.445-7.797 0-14.111 5.497-14.111 12.277 0 6.78 6.315 12.273 14.111 12.273 3.375 0 6.465-1.032 8.895-2.748l-2.48-2.308zm65.903-14.22l2.447-2.265s-2.349-3.113-7.443-3.113c-5.103 0-10.097 2.924-10.097 6.795s4.894 6.136 6.524 6.797c1.631.661 3.673 2.168 3.673 2.168s2.371 1.633.819 3.968c-1.29 1.934-7.094 1.697-9.281-1.226-1.637 2.077-2.043 2.924-2.043 2.924s1.936 2.645 8.508 2.645c6.574 0 9.571-4.202 9.571-6.75 0-2.546-1.072-4.459-3.525-5.946-1.751-1.069-5.966-3.402-5.966-3.402s-2.674-1.624-1.452-3.538c.917-1.414 4.44-1.487 6.048-.634 1.453.766 2.217 1.577 2.217 1.577zM54.615 32.853h-5.699l-9.617 24.043h4.758l2.251-6.579h8.353l2.443 6.579h6.675l-9.164-24.043zm-7.413 14.849l3.11-9.087 3.377 9.087h-6.487zm194.967-.646c1.884-.258 4.992-2.552 4.992-7.087 0-7.037-8.563-7.116-8.563-7.116h-10.761v24.043h5.505v-9.181h3.671l3.829 9.181h7.583c0-.001-3.964-6.734-6.256-9.84zm-6.072-2.399h-2.755v-8.77h2.346c.921 0 4.793.816 4.793 4.872.001 4.048-4.384 3.898-4.384 3.898zm40.385-11.881v16.137h-.033c0 3.215-2.538 5.164-5.477 5.164-2.934 0-5.477-1.949-5.477-5.164h-.031V32.776h-5.503v17.362h.004c.068 3.739 4.966 6.758 11.005 6.758 6.086 0 11.016-3.06 11.016-6.832V32.776h-5.504zm39.466.155h5.509v23.86h-5.509zm63.023 0h-12.54v23.86h11.088c1.53 0 11.931-.686 11.931-12.082s-10.479-11.778-10.479-11.778zm-2.751 20.193h-4.287V36.598h4.442c4.435 0 6.727 3.521 6.727 8.873 0 8.032-6.882 7.653-6.882 7.653z" id="manchester-united" fill="#737373"/></svg>