<svg version="1.1" id="Layer_1" xmlns="http://www.w3.org/2000/svg" x="0" y="0" viewBox="0 0 398 90" xml:space="preserve"><style type="text/css">.st0{fill:#737373}</style><path class="st0" d="M279.9 61.2h5.6v-8.6l3.7-4.1 7.4 12.7h6.6l-10.4-17 9.8-11.2h-7l-10.1 12.2V33h-5.6zM260.5 56c-.7-.2-1.3-.6-1.8-1.1-.5-.5-.9-1.1-1.2-1.9-.3-.8-.5-1.6-.5-2.7V33h-5.6v18.3c0 1.6.3 3 .9 4.3.6 1.3 1.4 2.3 2.4 3.2 1 .9 2.2 1.6 3.6 2.1s2.9.7 4.6.7 3.2-.2 4.6-.7c1.4-.5 2.6-1.2 3.6-2.1 1-.9 1.8-2 2.4-3.2.6-1.3.9-2.7.9-4.3V33h-5.6v17.4c0 1-.2 1.9-.5 2.7-.3.8-.7 1.4-1.2 1.9s-1.1.9-1.8 1.1-1.5.4-2.3.4-1.7-.2-2.5-.5M240 59.4c.2.4.4.8.8 1.1s.7.6 1.1.8c.4.2.9.3 1.4.3.5 0 .9-.1 1.4-.3.4-.2.8-.4 1.1-.8s.6-.7.8-1.1c.2-.4.3-.9.3-1.4 0-.5-.1-.9-.3-1.4-.2-.4-.4-.8-.8-1.1s-.7-.6-1.1-.8-.9-.3-1.4-.3c-.5 0-.9.1-1.4.3-.4.2-.8.4-1.1.8-.3.3-.6.7-.8 1.1s-.3.9-.3 1.4c0 .5.1.9.3 1.4m-9 1.8l7.9-28.2h-6.3l-5.3 21.2h-.2L221.7 33h-6.4l7.9 28.2zm-34.6-5.5c-.9-.5-1.7-1.1-2.4-1.9-.6-.8-1.1-1.8-1.4-2.9s-.5-2.4-.5-3.7V47c0-1.3.2-2.5.5-3.7.3-1.1.8-2.1 1.4-2.9.6-.8 1.4-1.5 2.4-1.9s2-.7 3.3-.7c1.2 0 2.3.2 3.2.7.9.5 1.7 1.1 2.4 1.9.6.8 1.1 1.8 1.5 2.9.3 1.1.5 2.4.5 3.7v.2c0 1.3-.2 2.6-.5 3.7s-.8 2.1-1.5 2.9c-.6.8-1.4 1.5-2.4 1.9-.9.5-2 .7-3.2.7-1.2 0-2.3-.2-3.3-.7M194 33.8c-1.7.8-3.1 1.8-4.2 3.1-1.2 1.3-2 2.8-2.6 4.6-.6 1.8-.9 3.6-.9 5.7 0 2 .3 3.9.9 5.7.6 1.8 1.5 3.3 2.6 4.6 1.2 1.3 2.6 2.3 4.2 3.1 1.7.7 3.5 1.1 5.6 1.1 2.1 0 4-.4 5.6-1.1 1.7-.7 3.1-1.8 4.2-3.1 1.2-1.3 2-2.8 2.6-4.6.6-1.8.9-3.6.9-5.7 0-2-.3-3.9-.9-5.7-.6-1.8-1.5-3.3-2.6-4.6-1.2-1.3-2.6-2.3-4.2-3.1-1.7-.8-3.5-1.1-5.6-1.1-2-.1-3.9.3-5.6 1.1M163 47c0-1.2.1-2.3.5-3.5.3-1.1.8-2.1 1.4-3s1.4-1.5 2.4-2 2.1-.8 3.4-.8c.8 0 1.6.1 2.3.3.7.2 1.3.5 1.8.9s1 .8 1.4 1.3c.4.5.8 1.1 1.1 1.7l5-2.8c-.5-1-1.1-1.9-1.8-2.7-.8-.8-1.6-1.5-2.6-2.1s-2.1-1-3.3-1.3-2.5-.5-3.8-.5c-2.1 0-3.9.4-5.6 1.1-1.7.8-3.1 1.8-4.2 3.1-1.2 1.3-2.1 2.8-2.7 4.6-.6 1.8-1 3.6-1 5.7 0 2 .3 3.9.9 5.7.6 1.8 1.4 3.3 2.5 4.6 1.1 1.3 2.4 2.3 4 3.1 1.6.7 3.4 1.1 5.5 1.1.9 0 1.7-.1 2.5-.3s1.5-.4 2.1-.8c.7-.3 1.2-.7 1.8-1.2s1-1 1.3-1.5V61h5V45.7h-12.7V50h7.2v.3c0 .6-.1 1.3-.3 2-.2.7-.6 1.4-1.1 2s-1.2 1.1-2 1.5c-.8.4-1.9.6-3.2.6-1.3 0-2.5-.3-3.4-.8-1-.5-1.7-1.2-2.4-2s-1.1-1.8-1.4-2.9c-.3-1.1-.5-2.3-.5-3.5l-.1-.2zm-59.5-8.3c1.3.5 2.7-.1 3.2-1.3.5-1.3-.1-2.7-1.3-3.2s-2.7.1-3.2 1.4c-.5 1.2.1 2.6 1.3 3.1M97.9 42c1.3.5 2.7-.1 3.2-1.3.5-1.3-.1-2.7-1.3-3.2s-2.7.1-3.2 1.4c-.5 1.2.1 2.6 1.3 3.1m-1.6 6.2c1.3.5 2.7-.1 3.2-1.3.5-1.3-.1-2.7-1.3-3.2s-2.7.1-3.2 1.4c-.6 1.2 0 2.6 1.3 3.1m13.5-7.5c1.3.5 2.7-.1 3.2-1.3.5-1.3-.1-2.7-1.3-3.2s-2.7.1-3.2 1.4c-.6 1.2 0 2.6 1.3 3.1m22.6-2c-1.3.5-2.7-.1-3.2-1.3-.5-1.3.1-2.7 1.3-3.2s2.7.1 3.2 1.4c.5 1.2-.1 2.6-1.3 3.1M138 42c-1.3.5-2.7-.1-3.2-1.3-.5-1.3.1-2.7 1.3-3.2s2.7.1 3.2 1.4c.5 1.2-.1 2.6-1.3 3.1m1.6 6.2c-1.3.5-2.7-.1-3.2-1.3-.5-1.3.1-2.7 1.3-3.2s2.7.1 3.2 1.4c.6 1.2 0 2.6-1.3 3.1m-13.5-7.5c-1.3.5-2.7-.1-3.2-1.3-.5-1.3.1-2.7 1.3-3.2s2.7.1 3.2 1.4c.6 1.2 0 2.6-1.3 3.1m-6.8-6.4l3.1 1.6v-4.6l-3.1 1-.3-.3 1.3-4h-4.6l1.3 4-.3.3-3.1-1V36l3.1-1.6.3.3-1.8 5.4c-.1.3-.1.6-.1.9 0 1.5 1.1 2.7 2.5 2.9h1c1.4-.2 2.5-1.4 2.5-2.9 0-.3 0-.6-.1-.9l-1.8-5.4c-.1-.1 0-.2.1-.4m-1.4 26.5c5.9 0 11.5.4 16.5 1.1 1.4-6 3.1-9.4 4.9-11.8l-3.4-1.2c.3 1.7.4 2.5 0 3.6-.6-.5-1.1-1.5-1.5-3.1l-1.6 5.4c1-.7 1.8-1.1 2.6-1.1-1.5 3.3-3.5 4.2-4.7 4-1.5-.3-2.2-1.6-2-2.8.4-1.6 2-2.1 2.8-.2 1.5-3.1-1-4-2.7-3.1 2.5-2.5 2.8-4.8.8-7.5-2.8 2.2-2.9 4.3-1.6 7.3-1.7-1.9-4.2-.9-3.3 2.2 1.2-1.8 2.8-.7 2.5 1.1-.2 1.5-2.2 2.8-4.7 2.5-3.6-.3-3.8-2.8-3.9-4.9.9-.2 2.5.7 3.8 2.6l.5-5.7c-1.5 1.5-2.8 1.8-4.3 1.9.5-1.6 2.8-4.1 2.8-4.1h-7.1s2.3 2.5 2.8 4.1c-1.5 0-2.8-.3-4.3-1.9l.5 5.7c1.4-1.9 3-2.7 3.8-2.6-.1 2.1-.3 4.5-3.9 4.9-2.5.2-4.5-1-4.7-2.5-.2-1.8 1.3-2.9 2.5-1.1.9-3.1-1.6-4.1-3.3-2.2 1.3-3 1.2-5.2-1.6-7.3-2 2.7-1.7 4.9.8 7.5-1.6-.9-4.2 0-2.7 3.1.8-1.9 2.5-1.5 2.8.2.2 1.2-.5 2.5-2 2.8-1.3.2-3.2-.6-4.7-4 .9 0 1.6.5 2.6 1.1l-1.6-5.4c-.4 1.5-.9 2.5-1.5 3.1-.4-1.1-.3-1.9 0-3.6l-3.4 1.2c1.8 2.4 3.5 5.9 4.9 11.8 5.1-.7 10.7-1.1 16.6-1.1" id="gov.uk"/></svg>