<svg version="1.1" xmlns="http://www.w3.org/2000/svg" x="0" y="0" viewBox="0 0 398 90" xml:space="preserve"><g id="tesco" fill="#727c81" stroke="#727c81"><path id="path3996_1_" d="M143.717 57.681c-2.61 0-4.724 1.494-5.745 2.553 0 0-2.483 2.461-4.165 3.313-.074.04-.072.122.03.122h15.198c3.004 0 4.417-1.018 6.2-2.614 0 0 2.596-2.413 4.377-3.192.179-.068.137-.182 0-.182h-15.895zm26.109 0c-2.61 0-4.722 1.494-5.745 2.553 0 0-2.483 2.461-4.164 3.313-.074.04-.073.122.03.122h15.228c3.004 0 4.418-1.018 6.2-2.614 0 0 2.567-2.413 4.347-3.192.179-.068.166-.182.03-.182h-15.926zm26.14 0c-2.61 0-4.723 1.494-5.745 2.553 0 0-2.483 2.461-4.165 3.313-.073.04-.071.122.031.122h15.228c3.004 0 4.386-1.018 6.17-2.614 0 0 2.596-2.413 4.376-3.192.18-.068.167-.182.031-.182h-15.926zm26.109 0c-2.609 0-4.692 1.494-5.715 2.553 0 0-2.513 2.461-4.195 3.313-.073.04-.071.122.031.122h15.227c3.004 0 4.418-1.018 6.201-2.614 0 0 2.598-2.413 4.377-3.192.181-.068.136-.182 0-.182h-15.926zm26.138 0c-2.61 0-4.724 1.494-5.745 2.553 0 0-2.484 2.461-4.165 3.313-.074.04-.072.122.03.122h15.229c3.004 0 4.416-1.018 6.201-2.614 0 0 2.568-2.413 4.345-3.192.179-.068.168-.182.031-.182h-15.926z" stroke-width=".079" stroke-miterlimit="11.474"/><path id="path4006_1_" d="M196.908 28.776c-5.555 0-10.973 1.649-10.973 7.173 0 9.565 16.686 4.512 16.686 10.365 0 1.908-2.959 2.675-5.349 2.675-4.293 0-7.252-.639-11.003-2.888v4.802c2.796.922 6.601 1.368 10.729 1.368 5.763 0 11.155-1.488 11.155-7.143 0-9.988-16.687-5.5-16.687-10.395 0-1.971 2.678-2.644 5.016-2.644 3.935 0 8.183 1.152 10.517 3.312v-5.106c-3.019-.953-7.029-1.519-10.091-1.519zm29.483.061c-10.021 0-16.656 4.817-16.656 12.158 0 6.737 6.09 11.246 15.197 11.246 2.95 0 5.584-.387 8.662-1.125v-5.684c-2.176 2.299-4.762 3.222-7.538 3.222-5.379 0-9.058-3.351-9.058-8.176 0-4.76 3.814-8.237 9.148-8.237 2.907 0 5.236 1.057 7.112 2.888v-5.684c-1.95-.403-4.396-.608-6.867-.608zm23.372 0c-8.635 0-14.741 4.971-14.741 11.975 0 6.871 5.483 11.429 13.648 11.429 8.674 0 14.649-4.846 14.649-11.884.002-6.905-5.432-11.52-13.556-11.52zm-115.103.699v5.38c1.877-1.455 5.803-2.004 10.091-2.036v14.68c0 2.135-.189 2.743-1.094 3.86h8.48c-.952-1.118-1.095-1.726-1.095-3.86V32.757c3.716.033 8.153.703 10.03 2.16v-5.38l-26.412-.001zm28.692 0c.887 1.117 1.063 1.754 1.063 3.89v14.133c0 2.135-.16 2.776-1.003 3.86h20.486V46.1c-2.811 2.001-8.16 2.008-10.334 1.975h-2.978v-6.109h2.188c1.483 0 4.159.176 5.714.639v-4.559c-1.533.493-4.236.639-5.714.639h-2.188v-5.804h2.978c2.661 0 7.29.551 9.027 2.006v-5.349h-19.24v-.002zm85.835 2.614c4.523 0 7.507 3.742 7.507 8.358s-2.984 8.359-7.507 8.359c-4.596 0-7.54-3.742-7.54-8.359.002-4.616 2.944-8.358 7.54-8.358z" stroke-width=".03" stroke-miterlimit="3.864"/></g></svg>