<svg width="710" height="241" viewBox="0 0 710 241" version="1.1" xmlns="http://www.w3.org/2000/svg" xmlns:xlink="http://www.w3.org/1999/xlink"><defs><path d="M25 111h32c13.807 0 25 11.193 25 25v45H0v-45c0-13.807 11.193-25 25-25z" id="path-1"/><rect id="path-2" x="1" y="1" width="708" height="59" rx="10"/><rect id="path-4" x="0" y="0" width="710" height="61" rx="10"/><rect id="path-6" x="0" y="0" width="710" height="61" rx="10"/></defs><g id="Page-1" stroke="none" stroke-width="1" fill="none" fill-rule="evenodd"><g transform="translate(450 1)" id="plant" opacity=".8"><path d="M9.781 121c-1.666-58.667-.666-88 3-88 3.667 0 7 29.333 10 88h-13z" id="leaf-6" stroke="#C3C7CA" stroke-width="2" fill="#FFF"/><path d="M27 121.5C48.333 71.833 63.5 44.333 72.5 39c-4 13.667-6.333 41.167-7 82.5H27z" id="leaf-5" stroke="#C3C7CA" stroke-width="2" fill="#FFF"/><path d="M26 121.044C30 58.681 33.333 28 36 29s1.542 31.681-3.375 92.044H26z" id="leaf-3" stroke="#C3C7CA" stroke-width="2" fill="#FFF"/><path d="M27 121.5C36.333 46.5 44.667 6 52 0c4.667 0 6.167 40.5 4.5 121.5H27z" id="leaf-2" stroke="#C3C7CA" stroke-width="2" fill="#FFF"/><path d="M17 121C19.856 45.667 22.596 8 25.219 8c3.934 0 10.281 108 15 113H17z" id="leaf-1" stroke="#C3C7CA" stroke-width="2" fill="#FFF"/><g id="pot"><use fill="#FFF" fill-rule="evenodd" xlink:href="#path-1"/><path stroke="#C3C7CA" stroke-width="2" d="M1 180h80v-44c0-13.255-10.745-24-24-24H25c-13.255 0-24 10.745-24 24v44z"/></g></g><g id="table" transform="translate(0 180)"><mask id="mask-3" fill="#fff"><use xlink:href="#path-2"/></mask><use id="d" fill="#FFF" fill-rule="evenodd" xlink:href="#path-2"/><g id="grain" stroke-width="1" fill-rule="evenodd" mask="url(#mask-3)"><mask id="mask-5" fill="#fff"><use xlink:href="#path-4"/></mask><g id="Group-2" mask="url(#mask-5)" stroke-linecap="square" stroke="#DBDEDF" stroke-width="2"><g transform="translate(-16 -5)"><path d="M1.5 28.5C90.167 23.167 142.667 21.667 159 24c20.173 2.522 27.432 8.315 55.5 8.5 12.557.083 51.298-11.617 58-12 17.5-1 42.5 2.5 85.5 0 25.228-1.467 42.289 9.034 68.5 9.5 18.249.324 73.599-9.274 104.5-9.5 29.954-.22 74.618 7.1 142 5 12.769-.398 35.436-2.065 68-5" id="Line-2"/><path d="M1 34.5C80.667 31.833 133.333 31 159 32c20.173 2.522 27.432 8.315 55.5 8.5 12.557.083 51.298-11.617 58-12 17.5-1 51.5 5.5 93.5 0 23.5-1.5 34.289 9.034 60.5 9.5 18.249.324 69-7 104.5-11s70.118 7.1 137.5 5c12.769-.398 36.269-1.565 70.5-3.5M1 63c24.333-.841 50.167-3.341 77.5-7.5 21 0 42 1.944 72 0 3.74-.242 34.023 7.855 61.5 7.5 29.003-.375 59.558-7.303 63-7.5 17.5-1 49.5-3.123 91.5-8.623 23.5-1.5 47.289 8.157 73.5 8.623 18.249.324 79 11.5 114.5 7.5s13.618-5.4 81-7.5c12.769-.398 47.269 2.102 103.5 7.5" id="Line-2"/><path d="M1.5 53.5c13.988.187 21.82.187 23.5 0 63-7 136.518-2.572 148.5-2.397 6.223.09 11.633 4.246 40 4.397 17.621.094 42.563-8.39 86-8.5 10.066-.025 58.515-4.606 73.5-4.5 19.703.14 49.116 7.407 92 8.603 12.747.355 28.761 5.612 50 5.897 10.613.142 28.706-9.82 47.5-10 13.194-.126 37.87-3.514 66-2.5 12.883.465 32.86 6.63 60 9 9.902.865 26.902.865 51 0" id="Line-3"/><path d="M545.5 55.5c11.513-1.811 20.18-2.978 26-3.5 3.52-.316 12.558.787 24.5 0 5.203-.343 14.37-1.51 27.5-3.5" id="Line-10"/><path d="M487.5 46.5c16.58-2.892 28.913-4.559 37-5 8.087-.441 32.42-.774 73-1" id="Line-11"/><path d="M739 34c-22.354 4.313-38.854 6.48-49.5 6.5-31.396.06-58.778-3.816-73-4-32.103-.415-55.719-2.91-70-2.5-33.925.973-55.376 5.792-62 8-15 5-42 4.5-81-1.5" id="Line-12"/><path d="M1 6c51.835 4.251 87.001 6.751 105.5 7.5 11.12.45 54.586-15.522 91-12 6.736.652 54.62 6.77 119.5 9 54.104 1.86 178.533-1.498 209.5 0 41.333 2 112.167-.333 212.5-7" id="Line"/><path d="M253.5 13.5c-15 3-30.167 7-45.5 12-22.657 0-40.5-5-45.5-12 0-9.5 47.75-7 53-5.5s10 5 0 9.5c-6.667 3-17 2.667-31-1" id="Line-5"/><path d="M1.5 22.5c17.57-3.083 32.237-4.75 44-5 17.645-.375 55.74 2.812 73.5 2.5 11.84-.208 21.173-1.374 28-3.5 7.667 0 13 1 16 3" id="Line-6"/><path d="M186.5 11.5c2.542.667 4.376 1 5.5 1 1.124 0 2.958-.333 5.5-1" id="Line-7"/><path d="M.5 43.5c12.014-1.125 21.014-1.625 27-1.5 5.986.125 12.986.958 21 2.5" id="Line-8"/><path id="Line-9" d="M.5 38.5l80.5-2 66.5 3.5"/><path d="M739 41c-17.312 5.667-28.812 8.5-34.5 8.5-5.688 0-19.688-1.667-42-5" id="Line-13"/><path d="M487.5 49.5c9.85 1.333 17.016 2 21.5 2 4.484 0 11.65-.667 21.5-2" id="Line-14"/><path d="M513.5 46.5h5" id="Line-15"/><path d="M398.5 16.5c33.333 4.667 61.167 3.864 83.5-2.41 12.808-2.164 123.646 5.842 160.5 5.41 53.48-.627 85.813-2.96 97-7" id="Line-16"/><path d="M1 73c48-11.667 86-15.667 114-12s73.167 6.5 135.5 8.5c51.449-8 89.949-12 115.5-12 19.018 0 90.374 7.568 220.5 12 16.006.545 38.498-5.579 67.5-5.62 16.667-.023 46.5 1.85 89.5 5.62" id="Line-17"/><path d="M161.5 36.5c31.975 7.562 50.975 11.062 57 10.5 20.625-1.925 40.412-8.885 57.5-10.5 13.98-1.321 26.077 2.5 36 2.5 33.286 0 59.453-.833 78.5-2.5" id="Line-18"/></g></g></g><mask id="mask-7" fill="#fff"><use xlink:href="#path-6"/></mask><rect stroke="#C3C7CA" stroke-width="2" x="1" y="1" width="708" height="59" rx="10"/></g></g></svg>