<svg width="1162" height="172" viewBox="0 0 1162 172" version="1.1" xmlns="http://www.w3.org/2000/svg"><g id="Symbols" stroke="none" stroke-width="1" fill="none" fill-rule="evenodd" fill-opacity=".1"><g id="wave" fill="#FFF"><path d="M0 99c81.997-38.245 141.663-57.579 179-58 56.669-.637 132.788 57.663 224 59 91.99.567 473.875-78.63 565-78 60.812.426 125.478 31.759 194 94v56H0V99z"/><path d="M0 50c69.324 14.047 137.99 21.047 206 21 102.865-.975 345.327-73.102 469-71 123.176 2.197 282.318 66.249 350 66 45.446.166 91.113-11.5 137-35v141H0V50z"/><path d="M0 68.562c72.996 15.756 143.616 23.521 211.859 23.294 102.364-.341 226.04-38.659 349.373-37.256 123.334 1.402 345.528 66.281 413.404 66.281 45.25 0 107.705-9.675 187.364-29.025V172H0V68.562z"/></g></g></svg>