
<svg width="710px" height="241px" viewBox="0 0 710 241" version="1.1" xmlns="http://www.w3.org/2000/svg" xmlns:xlink="http://www.w3.org/1999/xlink">
    <!-- Generator: Sketch 47 (45396) - http://www.bohemiancoding.com/sketch -->
    <desc>Created with Sketch.</desc>
    <defs>
        <path d="M25,111 L57,111 L57,111 C70.8071187,111 82,122.192881 82,136 L82,181 L0,181 L0,136 L0,136 C-1.69088438e-15,122.192881 11.1928813,111 25,111 Z" id="path-1"></path>
        <rect id="path-2" x="1" y="1" width="708" height="59" rx="10"></rect>
        <rect id="path-4" x="0" y="0" width="710" height="61" rx="10"></rect>
        <rect id="path-6" x="0" y="0" width="710" height="61" rx="10"></rect>
    </defs>
    <g id="Page-1" stroke="none" stroke-width="1" fill="none" fill-rule="evenodd">
        <g id="plant" opacity="0.8" transform="translate(450.000000, 1.000000)">
            <g>
                <path d="M9.78125,121 C8.11458333,62.3333333 9.11458333,33 12.78125,33 C16.4479167,33 19.78125,62.3333333 22.78125,121 L9.78125,121 Z" id="leaf-6" stroke="#C3C7CA" stroke-width="2" fill="#FBFBFB"></path>
                <path d="M27,121.5 C48.3333333,71.8333333 63.5,44.3333333 72.5,39 C68.5,52.6666667 66.1666667,80.1666667 65.5,121.5 L27,121.5 Z" id="leaf-5" stroke="#C3C7CA" stroke-width="2" fill="#FBFBFB"></path>
                <path d="M26,121.043956 C30,58.6813187 33.3333333,28 36,29 C38.6666667,30 37.5416667,60.6813187 32.625,121.043956 L26,121.043956 Z" id="leaf-3" stroke="#C3C7CA" stroke-width="2" fill="#FBFBFB"></path>
                <path d="M27,121.5 C36.3333333,46.5 44.6666667,6 52,0 C56.6666667,0 58.1666667,40.5 56.5,121.5 L27,121.5 Z" id="leaf-2" stroke="#C3C7CA" stroke-width="2" fill="#FBFBFB"></path>
                <path d="M17,121 C19.8561153,45.6666667 22.5956986,8 25.21875,8 C29.153327,8 35.5,116 40.21875,121 C34.0729167,121 26.3333333,121 17,121 Z" id="leaf-1" stroke="#C3C7CA" stroke-width="2" fill="#FBFBFB"></path>
                <g id="pot">
                    <use fill="#FBFBFB" fill-rule="evenodd" xlink:href="#path-1"></use>
                    <path stroke="#C3C7CA" stroke-width="2" d="M1,180 L81,180 L81,136 C81,122.745166 70.254834,112 57,112 L25,112 C11.745166,112 1,122.745166 1,136 L1,180 Z"></path>
                </g>
            </g>
        </g>
        <g id="table" transform="translate(0.000000, 180.000000)">
            <mask id="mask-3" fill="white">
                <use xlink:href="#path-2"></use>
            </mask>
            <use id="d" fill="#FFFFFF" fill-rule="evenodd" xlink:href="#path-2"></use>
            <g id="grain" stroke-width="1" fill-rule="evenodd" mask="url(#mask-3)">
                <mask id="mask-5" fill="white">
                    <use xlink:href="#path-4"></use>
                </mask>
                <g id="Mask"></g>
                <g id="Group-2" mask="url(#mask-5)" stroke-linecap="square" stroke="#DBDEDF" stroke-width="2">
                    <g transform="translate(-16.000000, -5.000000)">
                        <path d="M1.5,28.5 C90.1666667,23.1666667 142.666667,21.6666667 159,24 C179.173499,26.5216874 186.431505,32.3147211 214.5,32.5 C227.057327,32.5828904 265.797555,20.8829969 272.5,20.5 C290,19.5 315,23 358,20.5 C383.227759,19.0332698 400.288883,29.5342568 426.5,30 C444.748857,30.3242625 500.098996,20.726267 531,20.5 C560.953659,20.2806698 605.618162,27.6009192 673,25.5 C685.768994,25.1018716 708.43566,23.4352049 741,20.5" id="Line-2"></path>
                        <path d="M1,34.5 C80.6666667,31.8333333 133.333333,31 159,32 C179.173499,34.5216874 186.431505,40.3147211 214.5,40.5 C227.057327,40.5828904 265.797555,28.8829969 272.5,28.5 C290,27.5 324,34 366,28.5 C389.5,27 400.288883,37.5342568 426.5,38 C444.748857,38.3242625 495.5,31 531,27 C566.5,23 601.118162,34.1009192 668.5,32 C681.268994,31.6018716 704.768994,30.4352049 739,28.5" id="Line-2"></path>
                        <path d="M1,63 C25.3333333,62.1588804 51.1666667,59.6588804 78.5,55.5 C99.5,55.5 120.5,57.4437074 150.5,55.5 C154.239643,55.2577076 184.523121,63.3550161 212,63 C241.003107,62.6252643 271.558219,55.6966732 275,55.5 C292.5,54.5 324.5,52.3769973 366.5,46.8769973 C390,45.3769973 413.788883,55.0342568 440,55.5 C458.248857,55.8242625 519,67 554.5,63 C590,59 568.118162,57.6009192 635.5,55.5 C648.268994,55.1018716 682.768994,57.6018716 739,63" id="Line-2"></path>
                        <path d="M1.5,53.5 C15.4876045,53.6865625 23.3209378,53.6865625 25,53.5 C88,46.5 161.51841,50.9279412 173.5,51.102947 C179.723326,51.1938463 185.132559,55.3487914 213.5,55.5 C231.121126,55.5939269 256.062744,47.1092206 299.5,47 C309.566258,46.974689 358.014776,42.3940764 373,42.5 C392.702577,42.6392684 422.116014,49.9071275 465,51.102947 C477.746841,51.4583926 493.761343,56.7149528 515,57 C525.612998,57.1424386 543.705708,47.1792263 562.5,47 C575.69363,46.8741828 600.370197,43.4856072 628.5,44.5 C641.383184,44.9645823 661.359268,51.1296874 688.5,53.5 C698.402016,54.3647841 715.402016,54.3647841 739.5,53.5" id="Line-3"></path>
                        <path d="M545.5,55.5 C557.012663,53.6890345 565.67933,52.5223678 571.5,52 C575.020183,51.6840862 584.058302,52.7872186 596,52 C601.202708,51.657028 610.369375,50.4903613 623.5,48.5" id="Line-10"></path>
                        <path d="M487.5,46.5 C504.079872,43.6077646 516.413205,41.9410979 524.5,41.5 C532.586795,41.0589021 556.920128,40.7255688 597.5,40.5" id="Line-11"></path>
                        <path d="M739,34 C716.64622,38.3130241 700.14622,40.4796907 689.5,40.5 C658.104187,40.5598923 630.72243,36.6838919 616.5,36.5 C584.397209,36.0849201 560.781243,33.5904346 546.5,34 C512.574536,34.9729332 491.123998,39.7920005 484.5,42 C469.5,47 442.5,46.5 403.5,40.5" id="Line-12"></path>
                        <path d="M1,6 C52.8346553,10.2510657 88.001322,12.7510657 106.5,13.5 C117.619672,13.9501891 161.086357,-2.02225398 197.5,1.5 C204.236045,2.1515707 252.120713,8.27059472 317,10.5 C371.103941,12.359139 495.533174,9.00160521 526.5,10.5 C567.833333,12.5 638.666667,10.1666667 739,3.5" id="Line"></path>
                        <path d="M253.5,13.5 C238.5,16.5 223.333333,20.5 208,25.5 C185.34268,25.5 167.5,20.5 162.5,13.5 C162.5,4 210.25,6.5 215.5,8 C220.75,9.5 225.5,13 215.5,17.5 C208.833333,20.5 198.5,20.1666667 184.5,16.5" id="Line-5"></path>
                        <path d="M1.5,22.5 C19.0702423,19.4169452 33.736909,17.7502785 45.5,17.5 C63.1446365,17.1245822 101.240695,20.3115667 119,20 C130.839536,19.7922888 140.17287,18.6256222 147,16.5 C154.666667,16.5 160,17.5 163,19.5" id="Line-6"></path>
                        <path d="M186.5,11.5 C189.042441,12.1666667 190.875774,12.5 192,12.5 C193.124226,12.5 194.957559,12.1666667 197.5,11.5" id="Line-7"></path>
                        <path d="M0.5,43.5 C12.5141476,42.3752947 21.5141476,41.8752947 27.5,42 C33.4858524,42.1247053 40.4858524,42.9580386 48.5,44.5" id="Line-8"></path>
                        <polyline id="Line-9" points="0.5 38.5 81 36.5 147.5 40"></polyline>
                        <path d="M739,41 C721.687987,46.6666667 710.187987,49.5 704.5,49.5 C698.812013,49.5 684.812013,47.8333333 662.5,44.5" id="Line-13"></path>
                        <path d="M487.5,49.5 C497.349633,50.8333333 504.516299,51.5 509,51.5 C513.483701,51.5 520.650367,50.8333333 530.5,49.5" id="Line-14"></path>
                        <path d="M513.5,46.5 L518.5,46.5" id="Line-15"></path>
                        <path d="M398.5,16.5 C431.833333,21.1666667 459.666667,20.3635625 482,14.0906874 C494.807547,11.9256865 605.646066,19.9323042 642.5,19.5 C695.979812,18.8726708 728.313146,16.5393375 739.5,12.5" id="Line-16"></path>
                        <path d="M1,73 C49,61.3333333 87,57.3333333 115,61 C143,64.6666667 188.166667,67.5 250.5,69.5 C301.948824,61.5 340.448824,57.5 366,57.5 C385.017647,57.5 456.374328,65.0681837 586.5,69.5 C602.505624,70.0451191 624.998262,63.9210253 654,63.8806386 C670.667203,63.8574285 700.500537,65.730549 743.5,69.5" id="Line-17"></path>
                        <path d="M161.5,36.5 C193.474541,44.0623762 212.474541,47.5623762 218.5,47 C239.125336,45.0749687 258.912062,38.1149438 276,36.5 C289.980535,35.1787301 302.076515,39 312,39 C345.286426,39 371.453093,38.1666667 390.5,36.5" id="Line-18"></path>
                    </g>
                </g>
            </g>
            <mask id="mask-7" fill="white">
                <use xlink:href="#path-6"></use>
            </mask>
            <rect stroke="#C3C7CA" stroke-width="2" x="1" y="1" width="708" height="59" rx="10"></rect>
        </g>
    </g>
</svg>
