<svg width="1162px" height="172px" viewBox="0 0 1162 172" version="1.1" xmlns="http://www.w3.org/2000/svg" xmlns:xlink="http://www.w3.org/1999/xlink">
    <g id="Symbols" stroke="none" stroke-width="1" fill="none" fill-rule="evenodd" fill-opacity="0.1">
        <g id="wave" fill="#FFFFFF">
            <path d="M0,99 C81.9967355,60.7545925 141.663402,41.4212591 179,41 C235.668648,40.3625002 311.787798,98.6633156 403,100 C494.98982,100.567398 876.875407,21.3691003 968,22 C1028.81155,22.4256592 1093.47822,53.7589926 1162,116 L1162,172 L0,172 L0,99 Z"></path>
            <path d="M0,50 C69.3235037,64.046824 137.99017,71.046824 206,71 C308.865009,70.025343 551.326592,-2.10231031 675,0 C798.176265,2.19651216 957.317591,66.2489671 1025,66 C1070.44635,66.165978 1116.11302,54.4993114 1162,31 L1162,172 L0,172 L0,50 Z"></path>
            <path d="M0,68.5620247 C72.9963948,84.3184195 143.615971,92.0830132 211.858728,91.8558059 C314.222863,91.514995 437.898669,53.1974467 561.232249,54.599586 C684.565828,56.0017253 906.760347,120.881001 974.636095,120.881001 C1019.88659,120.881001 1082.34123,111.205936 1162,91.8558059 L1162,172 L0,172 L0,68.5620247 Z"></path>
        </g>
    </g>
</svg>
