<svg viewBox="0 0 24 24" version="1.1" xmlns="http://www.w3.org/2000/svg"><title>medium</title><path d="M22.933 6.407a.08.08 0 0 1 .02.106l-6.67 10.837-4.793-7.79 3.82-6.209a.76.76 0 0 1 .967-.275l6.636 3.318.008.004c.005.002.009.007.013.01zM9.384 8.145l6.283 10.208-6.283-3.14V8.144zm7.226 10.68L23 8.442v12.443c0 .627-.546.862-1.218.526l-5.172-2.586zM8.294 6.417c.024.012.04.037.04.064v14.404c0 .46-.25.735-.604.735a.928.928 0 0 1-.412-.108L1.61 18.658c-.336-.168-.61-.611-.61-.986V3.678c0-.368.2-.588.483-.588.1 0 .212.028.33.086l6.48 3.241z"/></svg>