<svg width="31" height="32" viewBox="0 0 31 32" version="1.1" xmlns="http://www.w3.org/2000/svg"><g id="Page-1" stroke="none" stroke-width="1" fill="none" fill-rule="evenodd"><g id="Desktop" transform="translate(-168 -392)" fill="#4F575A"><g id="Hero"><g id="channels" transform="translate(115 48)"><path d="M55 355.5c0-5.246 4.753-9.5 11-9.5 4.973 0 10 4.254 10 9.5 0 5.247-3.925 9.5-10 9.5-.893 0-2.756-.102-3.587-.275L59 367v-3.544c-2.439-1.979-4-4.622-4-7.956zm7.637 11.236c.777.127 2.544.264 3.363.264 7.18 0 12-5.343 12-11.625S71.977 344 66 344c-7.189 0-13 5.093-13 11.375 0 3.64 1.387 6.729 4 8.954V370l5.637-3.264zm17.312-13.597c.019.286.051.57.051.861 0 .636-.062 1.259-.151 1.874C81.195 357.45 82 359.392 82 361.5c0 3.334-1.992 6.261-5 7.956V373l-3.413-2.275c-.831.173-1.694.275-2.587.275-2.59 0-3.966-.778-5.846-2.071A20.51 20.51 0 0 1 63.5 369c-.398 0-.788-.028-1.18-.051 2.381 2.327 4.829 3.801 8.68 3.801.819 0 1.618-.074 2.395-.201L79 376v-5.671c3.04-2.083 5-5.314 5-8.954 0-3.244-1.561-6.164-4.051-8.236zM71.5 357a1.5 1.5 0 1 0 .001-2.999A1.5 1.5 0 0 0 71.5 357zm-12 0a1.5 1.5 0 1 0 .001-2.999A1.5 1.5 0 0 0 59.5 357zm6 0a1.5 1.5 0 1 0 .001-2.999A1.5 1.5 0 0 0 65.5 357z" id="Fill-189"/></g></g></g></g></svg>