<svg width="23" height="32" viewBox="0 0 23 32" version="1.1" xmlns="http://www.w3.org/2000/svg"><g id="Page-1" stroke="none" stroke-width="1" fill="none" fill-rule="evenodd"><g id="Desktop" transform="translate(-702 -158)" fill="#4F575A"><g id="Hero"><g id="channels" transform="translate(115 48)"><path d="M598.5 139a1.5 1.5 0 1 0-.001-3.001A1.5 1.5 0 0 0 598.5 139zm9.5-24h-19v-1a2 2 0 0 1 2-2h15a2 2 0 0 1 2 2v1zm-19 2h19v16h-19v-16zm19 21a2 2 0 0 1-2 2h-15a2 2 0 0 1-2-2v-3h19v3zm-2-28h-15a4 4 0 0 0-4 4v24a4 4 0 0 0 4 4h15a4 4 0 0 0 4-4v-24a4 4 0 0 0-4-4z" id="Fill-144"/></g></g></g></g></svg>