<svg version="1.1" xmlns="http://www.w3.org/2000/svg" x="0" y="0" viewBox="0 0 398 90" xml:space="preserve"><g id="johnlewis" fill="#727c81"><path id="path130_1_" d="M107.226 62.237h1.453c4.498 0 4.906-2.231 4.906-7.005V23.496l4.589 4.563v28.447c0 5.044-1.724 9.045-6.405 9.998l-4.543-4.267"/><path id="path134_1_" d="M132.557 39.279c3.908 0 6.727 2.774 6.727 6.596 0 4.266-2.588 6.906-6.727 6.906-3.771 0-6.36-2.773-6.36-6.954 0-3.774 2.681-6.548 6.36-6.548zm.046 17.365c6.544 0 11.045-4.364 11.045-10.816 0-6.047-4.635-10.411-11.045-10.411-6.089 0-10.77 4.549-10.77 10.411 0 6.274 4.497 10.816 10.77 10.816"/><path id="path138_1_" d="M160.231 43.551c0-2.906-1.459-4.768-3.776-4.768-1.678 0-3.044.771-4.861 2.859v14.592h-4.272V26.008h4.272v12.228c1.498-1.817 3.725-2.912 5.91-2.912 4.042 0 6.998 2.773 6.998 8.366v12.545h-4.271V43.551"/><path id="path142_1_" d="M182.353 43.643c0-2.951-1.453-4.773-3.776-4.773-1.678 0-3.044.773-4.861 2.819v14.546h-4.271v-20.47h4.271v2.563c1.5-1.822 3.725-2.912 5.91-2.912 3.91 0 6.999 2.681 6.999 8.274v12.545h-4.272V43.643"/><path id="path146_1_" d="M199.314 23.496l4.109 4.2v24.312h9.209l3.996 4.227h-17.314V23.496"/><path id="path150_1_" d="M224.148 39.147c2.681 0 4.364 1.817 4.544 4.385h-9.813c.588-2.708 2.359-4.385 5.269-4.385zm8.387 14.974c-.681-.593-2.661-2.567-2.661-2.567-1.544.68-2.998.997-4.496.997-3.73 0-5.956-1.954-6.589-5.515h14.136c0-7.889-3.459-11.619-8.867-11.619-5.633 0-9.542 4.181-9.542 10.366 0 5.633 3.546 10.862 9.905 10.862 3.412-.001 5.627-.769 8.114-2.524"/><path id="path154_1_" d="M256.223 56.644l-6.049-14.586-6.005 14.586H242.9l-9.174-20.9h4.558l5.26 12.254 5.04-12.254h3.181l5.061 12.254 5.234-12.265h4.533l-9.098 20.911h-1.272"/><path id="path158_1_" d="M268.675 28.32c0-1.366 1.09-2.502 2.41-2.502 1.315 0 2.41 1.136 2.41 2.502 0 1.407-1.095 2.544-2.41 2.544-1.32 0-2.41-1.137-2.41-2.544zm.365 7.413h4.276v20.502h-4.276V35.733z"/><path id="path162_1_" d="M276.955 54.736v-4.641c2.773 1.954 5.229 2.783 6.779 2.783 1.483 0 2.639-.578 2.69-1.914.031-.706-.516-1.458-1.38-2.046-.861-.639-2.047-1.229-3.223-1.954-2.324-1.366-4.728-3.137-4.728-5.956 0-3.5 2.477-5.593 6.723-5.593 1.908 0 3.822.547 6.001 1.73v4.271c-2.41-1.637-4.665-2.282-6.119-2.282-1.591 0-2.338.701-2.287 1.734.046 1.039 1.248 1.847 4.912 3.924 3.443 1.955 4.452 3.669 4.452 5.802 0 3.637-2.866 6.047-6.728 6.047-2.503.003-4.411-.499-7.092-1.905"/></g></svg>