<svg xmlns="http://www.w3.org/2000/svg" xmlns:xlink="http://www.w3.org/1999/xlink" preserveAspectRatio="xMidYMid" width="374" height="417.719" viewBox="0 0 374 417.719">
   <defs>
      <style>.cls-1 { fill: #ff8000; } .cls-2 { fill: #383860; } .cls-10, .cls-11, .cls-12, .cls-13, .cls-2, .cls-3, .cls-4, .cls-5, .cls-6, .cls-7, .cls-8, .cls-9 { fill-rule: evenodd; } .cls-3 { fill: url(#linear-gradient-skin); } .cls-4 { fill: #d5a98a; } .cls-5 { fill: #d3a788; } .cls-6 { fill: url(#linear-gradient-skin); } .cls-7 { fill: #c09980; } .cls-8 { fill: #bb874e; } .cls-9 { fill: #9a6f40; } .cls-10 { fill: url(#linear-gradient-glasses); } .cls-11 { fill: #392109; } .cls-12 { fill: #fff; } .cls-13 { fill: #c5c4c4; }</style>
      
      
      <linearGradient id="linear-gradient-glasses" x1="0%" y1="0%" x2="0%" y2="100%">
         <stop offset="0" stop-color="#d0cfcf" />
         <stop offset="60%" stop-color="#d0cfcf" />
         <stop offset="60%" stop-color="#c5c4c4" />
         <stop offset="100%" stop-color="#c5c4c4" />
      </linearGradient>

      <linearGradient id="linear-gradient-skin">
        <stop stop-color="#e1be9b" offset="0"/>
        <stop stop-color="#e1be9b" offset="50%"/>
        <stop stop-color="#f1d1ac" offset="50%"/>
        <stop stop-color="#f1d1ac" offset="100%"/> 
      </linearGradient>
    </defs>
  <g>
    <g>
      <circle cx="187" cy="230.719" r="187" class="cls-1"/>
      <path d="M187.000,417.719 C147.757,417.719 111.344,405.621 81.267,384.965 C86.922,357.502 102.294,340.175 144.000,334.719 C146.907,334.719 146.908,331.623 150.012,331.623 C169.000,331.719 204.304,331.809 224.000,331.719 C227.000,331.719 227.014,334.719 230.000,334.719 C271.765,340.267 287.128,357.585 292.763,384.943 C262.681,405.613 226.257,417.719 187.000,417.719 Z" class="cls-2"/>
      <path d="M159.000,306.719 C161.071,306.719 211.964,306.719 215.000,306.719 C215.000,310.719 215.000,328.719 224.000,333.719 C224.000,340.385 199.000,378.719 186.964,378.719 C175.000,378.719 150.000,340.385 150.000,333.719 C159.000,328.719 159.000,310.719 159.000,306.719 Z" class="cls-3"/>
      <path d="M187.000,302.719 C215.000,302.719 215.000,302.435 215.000,310.719 C215.000,319.003 191.000,325.719 187.000,325.719 C183.000,325.719 159.000,319.003 159.000,310.719 C159.000,302.435 159.000,302.719 187.000,302.719 Z" class="cls-4"/>
      <path d="M292.414,230.080 C300.010,227.828 323.000,219.008 323.000,194.719 C323.000,175.769 305.000,168.172 295.984,181.208 C295.708,75.876 290.370,25.719 187.000,25.719 C84.578,25.719 78.289,75.876 78.016,181.208 C68.000,168.172 51.000,175.769 51.000,194.719 C51.000,219.503 74.171,228.027 81.676,230.138 M292.414,230.080 C276.561,294.863 215.000,310.719 187.000,310.719 C159.000,310.719 97.677,294.158 81.676,230.138 " class="cls-5"/>
      <path d="M285.000,230.719 C269.000,295.719 211.891,310.719 187.000,310.719 C162.154,310.719 105.000,295.719 89.000,230.719 C93.000,198.719 84.016,198.719 84.016,181.208 C78.000,83.719 84.578,25.719 187.000,25.719 C290.370,25.719 296.000,83.719 289.984,181.208 C289.984,198.719 281.000,198.719 285.000,230.719 Z" class="cls-6"/>
      <path d="M297.000,188.719 C297.400,183.067 312.376,175.850 317.000,191.719 C321.624,207.587 299.917,223.362 291.000,220.719 C286.484,209.175 299.307,211.557 300.000,202.719 C300.693,193.880 296.160,200.570 297.000,188.719 ZM76.929,188.360 C76.522,182.695 61.326,175.460 56.634,191.367 C51.942,207.274 73.969,223.086 83.017,220.437 C87.599,208.865 74.587,211.253 73.885,202.393 C73.182,193.534 77.781,200.240 76.929,188.360 Z" class="cls-7"/>
    </g>
    <path d="M296.000,167.719 C296.000,167.719 299.000,111.542 299.000,83.719 C299.000,69.251 296.000,49.613 281.000,52.719 C284.918,47.059 255.004,34.325 243.000,29.719 C93.991,-22.434 111.471,3.248 78.000,36.719 C70.753,43.966 64.000,31.719 64.000,31.719 C64.000,31.719 63.462,49.574 81.000,58.719 C68.000,85.719 78.000,167.719 78.000,167.719 L81.000,167.719 C81.000,167.719 81.431,141.717 82.026,135.777 C82.442,131.624 81.905,114.337 84.000,110.719 C85.693,107.795 89.604,104.781 91.000,102.719 C95.282,96.395 98.000,89.660 98.000,84.719 C98.000,78.061 99.592,68.957 105.000,71.719 C117.201,77.950 136.762,89.719 187.000,89.719 C213.467,89.719 229.000,65.719 271.000,65.719 C276.463,65.719 276.826,73.212 276.011,82.262 C276.011,93.327 279.722,96.464 283.000,102.719 C284.849,106.246 285.978,109.122 287.982,112.574 C289.125,114.544 288.101,131.573 289.000,133.719 C291.791,140.380 292.000,167.719 292.000,167.719 L296.000,167.719 Z" class="cls-8"/>
    <path d="M81.000,58.719 C81.636,59.161 99.324,70.719 103.000,70.719 C96.869,70.719 89.639,70.586 78.000,68.719 C79.137,60.651 80.364,58.276 81.000,58.719 Z" class="cls-9"/>
    <g>
      <path d="M285.537,208.601 C284.244,212.877 281.825,216.662 277.812,218.828 C274.949,220.374 271.683,221.300 268.498,222.126 C262.907,223.575 257.137,223.931 251.386,224.261 C249.019,224.397 246.641,224.342 244.268,224.374 C238.292,224.690 232.350,224.314 226.426,223.469 C222.176,222.862 218.545,221.209 215.853,217.854 C212.831,214.089 210.469,209.913 208.520,205.522 C206.417,200.784 204.468,195.983 203.311,190.912 C202.392,186.884 202.247,182.868 203.296,178.812 C204.937,172.464 209.239,168.689 215.193,166.465 C219.105,165.004 223.211,164.342 227.333,163.854 C237.815,162.614 248.345,162.059 258.896,161.998 C265.143,161.962 271.401,161.996 277.550,163.368 C279.994,163.914 282.270,164.824 284.289,166.323 C287.772,168.910 289.284,172.555 289.470,176.664 C289.961,187.513 288.683,198.192 285.537,208.601 ZM165.621,205.572 C163.665,209.982 161.295,214.175 158.263,217.956 C155.562,221.324 151.919,222.984 147.656,223.593 C141.712,224.442 135.750,224.820 129.754,224.502 C127.373,224.470 124.987,224.525 122.612,224.389 C116.842,224.058 111.053,223.700 105.444,222.245 C102.248,221.415 98.971,220.485 96.099,218.933 C92.072,216.758 89.645,212.958 88.348,208.664 C85.191,198.213 83.909,187.489 84.402,176.596 C84.589,172.470 86.106,168.810 89.601,166.212 C91.626,164.707 93.909,163.793 96.362,163.245 C102.531,161.867 108.810,161.833 115.077,161.869 C125.663,161.931 136.229,162.488 146.745,163.733 C150.881,164.223 155.001,164.888 158.926,166.355 C164.900,168.588 169.215,172.379 170.862,178.753 C171.915,182.825 171.769,186.858 170.847,190.903 C169.686,195.994 167.731,200.815 165.621,205.572 Z" class="cls-10"/>
      <path d="M301.666,171.920 C301.617,172.830 301.218,173.505 300.397,174.034 C298.396,175.324 297.503,177.397 296.955,179.553 C295.501,185.279 294.217,191.047 292.776,196.776 C291.665,201.195 290.609,205.642 289.190,209.967 C286.364,218.585 280.211,223.830 271.396,225.838 C267.059,226.825 262.602,227.435 258.164,227.813 C252.187,228.323 246.179,228.560 240.180,228.694 C234.194,228.829 230.535,228.421 224.656,227.452 C218.611,226.455 214.151,223.284 210.662,218.465 C206.589,212.841 203.542,206.679 200.850,200.332 C199.610,197.407 198.520,194.420 197.314,191.481 C196.883,190.431 196.389,189.389 195.786,188.428 C193.972,185.531 190.253,183.931 187.000,183.845 C183.747,183.931 180.028,185.531 178.214,188.428 C177.611,189.389 177.117,190.431 176.686,191.481 C175.480,194.420 174.390,197.407 173.150,200.332 C170.458,206.679 167.411,212.841 163.338,218.465 C159.849,223.284 155.389,226.455 149.344,227.452 C143.465,228.421 139.806,228.829 133.820,228.694 C127.821,228.560 121.813,228.323 115.836,227.813 C111.398,227.435 106.941,226.825 102.604,225.838 C93.789,223.830 87.636,218.585 84.810,209.967 C83.391,205.642 82.335,201.195 81.224,196.776 C79.783,191.047 78.499,185.279 77.045,179.553 C76.497,177.397 75.604,175.324 73.603,174.034 C72.782,173.505 72.383,172.830 72.334,171.920 C72.201,169.442 71.997,166.962 71.997,164.484 C71.998,162.214 72.106,162.233 74.339,161.590 C85.753,158.302 97.467,157.062 109.291,156.794 C115.743,156.648 122.214,156.723 128.660,157.031 C136.744,157.417 144.821,158.050 152.884,158.760 C157.829,159.196 162.476,160.685 166.725,163.372 C168.948,164.778 171.302,166.044 173.735,167.045 C178.013,168.805 182.419,169.194 186.998,169.121 L186.998,169.121 C186.999,169.121 187.000,169.121 187.000,169.121 C187.000,169.121 187.001,169.121 187.002,169.121 L187.002,169.121 C191.581,169.194 195.987,168.805 200.265,167.045 C202.698,166.044 205.052,164.778 207.275,163.372 C211.524,160.685 216.171,159.196 221.116,158.760 C229.179,158.050 237.256,157.417 245.340,157.031 C251.786,156.723 258.257,156.648 264.709,156.794 C276.533,157.062 288.247,158.302 299.661,161.590 C301.894,162.233 302.002,162.214 302.003,164.484 C302.003,166.962 301.799,169.442 301.666,171.920 ZM170.704,178.812 C169.063,172.464 164.761,168.689 158.807,166.465 C154.895,165.004 150.789,164.342 146.667,163.854 C136.185,162.614 125.655,162.059 115.104,161.998 C108.857,161.962 102.599,161.996 96.450,163.368 C94.006,163.914 91.730,164.824 89.711,166.323 C86.228,168.910 84.716,172.555 84.530,176.664 C84.039,187.513 85.317,198.192 88.463,208.601 C89.756,212.877 92.175,216.662 96.188,218.828 C99.051,220.374 102.317,221.300 105.502,222.126 C111.093,223.575 116.863,223.931 122.614,224.261 C124.981,224.397 127.359,224.342 129.732,224.374 C135.708,224.690 141.650,224.314 147.574,223.469 C151.824,222.862 155.455,221.209 158.147,217.854 C161.169,214.089 163.531,209.913 165.480,205.522 C167.583,200.784 169.532,195.983 170.689,190.912 C171.608,186.884 171.753,182.868 170.704,178.812 ZM289.470,176.664 C289.284,172.555 287.772,168.910 284.289,166.323 C282.270,164.824 279.994,163.914 277.550,163.368 C271.401,161.996 265.143,161.962 258.896,161.998 C248.345,162.059 237.815,162.614 227.333,163.854 C223.211,164.342 219.105,165.004 215.193,166.465 C209.239,168.689 204.937,172.464 203.296,178.812 C202.247,182.868 202.392,186.884 203.311,190.912 C204.468,195.983 206.417,200.784 208.520,205.522 C210.469,209.913 212.831,214.089 215.853,217.854 C218.545,221.209 222.176,222.862 226.426,223.469 C232.350,224.314 238.292,224.690 244.268,224.374 C246.641,224.342 249.019,224.397 251.386,224.261 C257.137,223.931 262.907,223.575 268.498,222.126 C271.683,221.300 274.949,220.374 277.812,218.828 C281.825,216.662 284.244,212.877 285.537,208.601 C288.683,198.192 289.961,187.513 289.470,176.664 Z" class="cls-11"/>
      <path d="M296.053,170.419 L294.303,168.490 C293.917,168.064 293.917,167.373 294.303,166.947 L296.053,165.019 C296.505,164.720 296.505,164.719 297.000,164.719 C297.000,167.410 297.000,168.002 297.000,170.719 C296.505,170.719 296.505,170.725 296.053,170.419 ZM76.947,170.419 C76.495,170.725 76.495,170.719 76.000,170.719 C76.000,168.002 76.000,167.410 76.000,164.719 C76.495,164.719 76.495,164.720 76.947,165.019 L78.697,166.947 C79.083,167.373 79.083,168.064 78.697,168.490 L76.947,170.419 Z" class="cls-12"/>
    </g>
    <g>
      <path d="M150.000,316.719 L172.000,330.719 C172.000,330.719 180.494,364.027 187.000,378.719 C176.083,378.719 162.825,356.799 158.000,349.719 C157.050,350.955 155.000,353.719 155.000,353.719 L146.000,336.719 L150.000,316.719 Z" class="cls-12"/>
      <path d="M171.000,329.719 C171.000,329.719 159.000,347.599 159.000,348.719 C159.000,352.270 161.000,353.719 161.000,353.719 L171.000,329.719 Z" class="cls-13"/>
    </g>
    <g>
      <path d="M224.000,316.719 L202.000,330.719 C202.000,330.719 193.506,364.027 187.000,378.719 C197.917,378.719 211.175,356.799 216.000,349.719 C216.950,350.955 219.000,353.719 219.000,353.719 L228.000,336.719 L224.000,316.719 Z" class="cls-12"/>
      <path d="M203.000,329.719 C203.000,329.719 215.000,347.599 215.000,348.719 C215.000,352.270 213.000,353.719 213.000,353.719 L203.000,329.719 Z" class="cls-13"/>
    </g>
  </g>
</svg>
