<svg width="460" height="285" viewBox="0 0 460 285" version="1.1" xmlns="http://www.w3.org/2000/svg" xmlns:xlink="http://www.w3.org/1999/xlink" preserveAspectRatio="xMidYMid slice"><defs><circle id="path-1" cx="15" cy="15" r="5"/><circle id="path-2" cx="30" cy="15" r="5"/><circle id="path-3" cx="45" cy="15" r="5"/><linearGradient x1="30.526%" y1="0%" x2="73.577%" y2="94.72%" id="linearGradient-4"><stop stop-color="#0089D2" offset="0%"/><stop stop-color="#0070D2" offset="100%"/></linearGradient></defs><g id="Ill" stroke="none" stroke-width="1" fill="none" fill-rule="evenodd"><g id="Data" transform="translate(-25 -28)"><g id="Browser" transform="translate(25 28)"><g id="header"><path d="M0 5.007A5.001 5.001 0 0 1 5.01 0h449.98A5.002 5.002 0 0 1 460 5.007V285H0V5.007z" id="bar" fill="#E4E8EC"/><g id="button-close"><use fill="#FF5F57" fill-rule="evenodd" xlink:href="#path-1"/><circle stroke="#E0443E" stroke-width=".5" cx="15" cy="15" r="4.75"/></g><g id="button-minimise"><use fill="#FFBD2E" fill-rule="evenodd" xlink:href="#path-2"/><circle stroke="#DF9F22" stroke-width=".5" cx="30" cy="15" r="4.75"/></g><g id="button-full"><use fill="#29C941" fill-rule="evenodd" xlink:href="#path-3"/><circle stroke="#1AAB2B" stroke-width=".5" cx="45" cy="15" r="4.75"/></g></g><path id="Rectangle" fill="#FFF" d="M0 30h460v255H0z"/><path id="Rectangle-2" fill="url(#linearGradient-4)" d="M120 30h340v118H120z"/><g id="illustration/prototype" transform="translate(140 44)"><g id="table" transform="translate(0 132)"><rect id="Rectangle-Copy-6" fill="#DBDEDF" x="110" y="0" width="140" height="10" rx="5"/><rect id="Rectangle-Copy-12" fill="#DBDEDF" x="110" y="22" width="140" height="10" rx="5"/><rect id="Rectangle-Copy-15" fill="#DBDEDF" x="110" y="44" width="140" height="10" rx="5"/><rect id="Rectangle-Copy-18" fill="#DBDEDF" x="110" y="66" width="140" height="10" rx="5"/><rect id="Rectangle-Copy-6" fill="#FD5257" x="110" y="0" width="15" height="10" rx="5"/><rect id="Rectangle-Copy-13" fill="#59BB67" x="110" y="22" width="90" height="10" rx="5"/><rect id="Rectangle-Copy-16" fill="#EF8C00" x="110" y="44" width="49" height="10" rx="5"/><rect id="Rectangle-Copy-19" fill="#59BB67" x="110" y="66" width="125" height="10" rx="5"/><rect id="Rectangle-Copy-11" fill="#A9B0B4" x="0" y="2" width="60" height="6" rx="2"/><rect id="Rectangle-Copy-25" fill="#A9B0B4" x="268" y="2" width="37" height="6" rx="2"/><rect id="Rectangle-Copy-14" fill="#A9B0B4" x="0" y="24" width="95" height="6" rx="2"/><rect id="Rectangle-Copy-26" fill="#A9B0B4" x="283" y="24" width="22" height="6" rx="2"/><rect id="Rectangle-Copy-17" fill="#A9B0B4" x="0" y="46" width="80" height="6" rx="2"/><rect id="Rectangle-Copy-27" fill="#A9B0B4" x="275" y="46" width="30" height="6" rx="2"/><rect id="Rectangle-Copy-20" fill="#A9B0B4" x="0" y="68" width="55" height="6" rx="2"/><rect id="Rectangle-Copy-28" fill="#A9B0B4" x="268" y="68" width="37" height="6" rx="2"/></g><g id="graph" transform="translate(110)" fill="#FFF"><rect id="Rectangle-Copy-10" fill-opacity=".5" opacity=".4" x="32" y="0" width="10" height="80" rx="2"/><rect id="Rectangle-Copy-8" fill-opacity=".5" opacity=".4" x="0" y="0" width="10" height="80" rx="2"/><rect id="Rectangle-Copy-9" fill-opacity=".5" opacity=".4" x="16" y="0" width="10" height="80" rx="2"/><rect id="Rectangle-Copy-5" fill-opacity=".5" opacity=".4" x="48" y="0" width="10" height="80" rx="2"/><rect id="Rectangle-Copy-10" fill-opacity=".5" opacity=".4" x="128" y="0" width="10" height="80" rx="2"/><rect id="Rectangle-Copy-6" fill-opacity=".5" opacity=".4" x="64" y="0" width="10" height="80" rx="2"/><rect id="Rectangle-Copy-7" fill-opacity=".5" opacity=".4" x="80" y="0" width="10" height="80" rx="2"/><rect id="Rectangle-Copy-8" fill-opacity=".5" opacity=".4" x="96" y="0" width="10" height="80" rx="2"/><rect id="Rectangle-Copy-23" fill-opacity=".5" opacity=".4" x="160" y="0" width="10" height="80" rx="2"/><rect id="Rectangle-Copy-9" fill-opacity=".5" opacity=".4" x="112" y="0" width="10" height="80" rx="2"/><rect id="Rectangle-Copy-21" fill-opacity=".5" opacity=".4" x="144" y="0" width="10" height="80" rx="2"/><rect id="Rectangle-Copy-30" fill-opacity=".5" opacity=".4" x="176" y="0" width="10" height="80" rx="2"/><rect id="Rectangle-Copy-10" x="32" y="32" width="10" height="48" rx="2"/><rect id="Rectangle-Copy-8" x="0" y="53" width="10" height="27" rx="2"/><rect id="Rectangle-Copy-9" x="16" y="40" width="10" height="40" rx="2"/><rect id="Rectangle-Copy-5" x="48" y="40" width="10" height="40" rx="2"/><rect id="Rectangle-Copy-10" x="128" y="35" width="10" height="45" rx="2"/><rect id="Rectangle-Copy-6" x="64" y="60" width="10" height="20" rx="2"/><rect id="Rectangle-Copy-7" x="80" y="22" width="10" height="58" rx="2"/><rect id="Rectangle-Copy-8" x="96" y="35" width="10" height="45" rx="2"/><rect id="Rectangle-Copy-24" x="160" y="35" width="10" height="45" rx="2"/><rect id="Rectangle-Copy-9" x="112" y="45" width="10" height="36" rx="2"/><rect id="Rectangle-Copy-22" x="144" y="60" width="10" height="20" rx="2"/><rect id="Rectangle-Copy-31" x="176" y="22" width="10" height="58" rx="2"/></g></g><g id="side-navigation" transform="translate(0 30)"><path id="Rectangle-5" fill="#42526A" d="M0 0h120v255H0z"/><path id="Rectangle-6" fill-opacity=".2" fill="#000" d="M0 57h120v17H0z"/><rect id="Rectangle-15" fill-opacity=".5" fill="#FFF" x="10" y="25" width="40" height="4" rx="2"/><rect id="Rectangle-15-Copy" fill-opacity=".5" fill="#FFF" x="10" y="44" width="35" height="4" rx="2"/><rect id="Rectangle-15-Copy" fill="#FFF" x="10" y="63" width="45" height="4" rx="2"/><rect id="Rectangle-15-Copy-2" fill-opacity=".5" fill="#FFF" x="10" y="82" width="65" height="4" rx="2"/><rect id="Rectangle-15-Copy-3" fill-opacity=".5" fill="#FFF" x="10" y="101" width="70" height="4" rx="2"/></g></g><rect id="Rectangle-8-Copy" fill="#FFF" x="182" y="72" width="78" height="12" rx="2"/><rect id="Rectangle-Copy-11" fill="#FFF" x="165" y="94" width="95" height="4" rx="2"/><rect id="Rectangle-Copy-11" fill="#FFF" x="165" y="104" width="95" height="4" rx="2"/><rect id="Rectangle-Copy-29" fill="#FFF" x="165" y="114" width="95" height="4" rx="2"/><rect id="Rectangle-Copy-32" fill="#FFF" x="165" y="124" width="30" height="4" rx="2"/><g id="tabs" transform="translate(165 73)"><path d="M2 85h43a2 2 0 0 1 2 2v16H0V87a2 2 0 0 1 2-2z" id="Rectangle-3" fill="#FFF"/><rect id="Rectangle-4" fill="#0089D2" x="6" y="91" width="35" height="6" rx="2"/><rect id="Rectangle-4-Copy" fill="#339BDB" x="60" y="91" width="35" height="6" rx="2"/><path d="M11.7 2.65c-.1 4.6-3 7.8-7.4 8-1.8.1-3.1-.5-4.3-1.2 1.3.2 3-.3 3.9-1.1-1.3-.1-2.1-.8-2.5-1.9.4.1.8 0 1.1 0-1.2-.4-2-1.1-2.1-2.7.3.2.7.3 1.1.3C.6 3.55 0 1.65.7.45c1.3 1.4 2.9 2.6 5.5 2.8-.7-2.8 3.1-4.3 4.6-2.4.7-.1 1.2-.4 1.7-.6-.2.7-.6 1.1-1.1 1.5.5-.1 1-.2 1.4-.4-.1.5-.6.9-1.1 1.3z" id="twitter" fill="#FFF"/></g></g></g></svg>