<svg width="60" height="60" viewBox="0 0 60 60" version="1.1" xmlns="http://www.w3.org/2000/svg" xmlns:xlink="http://www.w3.org/1999/xlink"><defs><path d="M16.99 8.646c9.624-5.875 22.362-4.65 30.688 3.676 9.763 9.763 9.763 25.593 0 35.356-9.763 9.763-25.593 9.763-35.356 0-8.065-8.066-9.468-20.27-4.207-29.776l-6.608-7.709a2 2 0 0 1 .104-2.716l5.16-5.159a2 2 0 0 1 2.715-.104l7.503 6.432z" id="path-1"/></defs><g id="Symbols" stroke="none" stroke-width="1" fill="none" fill-rule="evenodd"><g id="illustration/design/coffee"><g id="mug"><use fill="#00A9D0" fill-rule="evenodd" xlink:href="#path-1"/><path stroke="#0097BA" stroke-width="1" d="M17.25 9.072l-.31.19-7.78-6.668a1.5 1.5 0 0 0-2.036.078L1.964 7.83a1.5 1.5 0 0 0-.078 2.037L8.72 17.84l-.168.304c-5.245 9.478-3.65 21.405 4.124 29.18 9.568 9.568 25.08 9.568 34.648 0 9.568-9.568 9.568-25.08 0-34.648-8.042-8.042-20.498-9.448-30.074-3.604z"/></g><circle id="mug-inner" fill="#FFF" cx="30" cy="30" r="23"/><circle id="coffee" fill="#694620" cx="30" cy="30" r="20"/><path d="M29 12c7.625.041 12.894.735 17 8 4.347 8.194 1.645 16.31-8 19-16.866 4.481-23.35-22.289-6-22 20.866-.459 2.175 29.734-6 13-2.716-4.627 1.415-11.994 7-9 10.425 3.844-1.801 11.655-3 8 .053.745 6.368-1.892 5-4-.718-2-6.494-.664-7 2-2.229 6.641 10.105 7.572 11 0 1.049-9.745-12.598-10.688-16-3-2.657 6.346 2.703 12.526 9 14 19.334 3.112 17.254-24.828 0-24-9.45.473-15.035 7.314-14 16 1.036 9.161 5.114 12 12 18-10.947-5-19.11-7.554-18-19 1.086-9.5 6.825-16.404 17-17" id="swirl" fill-opacity=".1" fill="#FFF"/><path d="M19.178 46.822C13.656 43.262 10 37.058 10 30c0-11.046 8.954-20 20-20 7.058 0 13.262 3.656 16.822 9.178A19.906 19.906 0 0 0 36 16c-11.046 0-20 8.954-20 20 0 3.988 1.167 7.702 3.178 10.822z" id="shadow" fill-opacity=".4" fill="#000"/></g></g></svg>