<svg width="459" height="336" viewBox="0 0 459 336" version="1.1" xmlns="http://www.w3.org/2000/svg" xmlns:xlink="http://www.w3.org/1999/xlink" preserveAspectRatio="xMidYMid slice"><defs><path d="M0 0h294v193a5 5 0 0 1-5 5H5a5 5 0 0 1-5-5V0z" id="path-1"/><path id="path-2" d="M0 0h9v37H0z"/><path id="path-4" d="M0 0h9v37H0z"/><path id="path-6" d="M0 0h9v37H0z"/></defs><g id="Page-1" stroke="none" stroke-width="1" fill="none" fill-rule="evenodd"><g id="Desktop-Copy" transform="translate(-155 -1134)"><g id="2---Design" transform="translate(0 1060)"><g id="Design-with-paper-and-people" transform="translate(155 70)"><path d="M144.698 50.7h294v193a5 5 0 0 1-5 5h-284a5 5 0 0 1-5-5v-193z" id="Rectangle" fill-opacity=".1" fill="#000" fill-rule="evenodd" transform="rotate(-15 291.698 149.7)"/><g transform="rotate(-15 356.825 -359.037)" id="doughnuts" stroke-width="1" fill-rule="evenodd"><g id="Rectangle"><use fill="#FFF" fill-rule="evenodd" xlink:href="#path-1"/><path stroke="#DBDEDF" stroke-width="1" d="M.5.5V193a4.5 4.5 0 0 0 4.5 4.5h284a4.5 4.5 0 0 0 4.5-4.5V.5H.5z"/></g><g id="dots" transform="translate(12 12)" fill="#007550"><circle id="Oval-2" cx="3" cy="3" r="3"/><circle id="Oval-2-Copy-90" cx="3" cy="51" r="3"/><circle id="Oval-2-Copy-180" cx="3" cy="99" r="3"/><circle id="Oval-2-Copy-23" cx="3" cy="27" r="3"/><circle id="Oval-2-Copy-91" cx="3" cy="75" r="3"/><circle id="Oval-2-Copy-181" cx="3" cy="123" r="3"/><circle id="Oval-2-Copy-270" cx="3" cy="147" r="3"/><circle id="Oval-2-Copy-293" cx="3" cy="171" r="3"/><circle id="Oval-2-Copy-8" cx="99" cy="3" r="3"/><circle id="Oval-2-Copy-92" cx="99" cy="51" r="3"/><circle id="Oval-2-Copy-182" cx="99" cy="99" r="3"/><circle id="Oval-2-Copy-46" cx="99" cy="27" r="3"/><circle id="Oval-2-Copy-93" cx="99" cy="75" r="3"/><circle id="Oval-2-Copy-183" cx="99" cy="123" r="3"/><circle id="Oval-2-Copy-271" cx="99" cy="147" r="3"/><circle id="Oval-2-Copy-294" cx="99" cy="171" r="3"/><circle id="Oval-2-Copy-24" cx="93" cy="15" r="3"/><circle id="Oval-2-Copy-94" cx="93" cy="63" r="3"/><circle id="Oval-2-Copy-184" cx="93" cy="111" r="3"/><circle id="Oval-2-Copy-47" cx="93" cy="39" r="3"/><circle id="Oval-2-Copy-95" cx="93" cy="87" r="3"/><circle id="Oval-2-Copy-185" cx="93" cy="135" r="3"/><circle id="Oval-2-Copy-295" cx="93" cy="159" r="3"/><circle id="Oval-2-Copy-4" cx="51" cy="3" r="3"/><circle id="Oval-2-Copy-96" cx="51" cy="51" r="3"/><circle id="Oval-2-Copy-186" cx="51" cy="99" r="3"/><circle id="Oval-2-Copy-48" cx="51" cy="27" r="3"/><circle id="Oval-2-Copy-97" cx="51" cy="75" r="3"/><circle id="Oval-2-Copy-187" cx="51" cy="123" r="3"/><circle id="Oval-2-Copy-272" cx="51" cy="147" r="3"/><circle id="Oval-2-Copy-296" cx="51" cy="171" r="3"/><circle id="Oval-2-Copy-25" cx="45" cy="15" r="3"/><circle id="Oval-2-Copy-98" cx="45" cy="63" r="3"/><circle id="Oval-2-Copy-188" cx="45" cy="111" r="3"/><circle id="Oval-2-Copy-49" cx="45" cy="39" r="3"/><circle id="Oval-2-Copy-99" cx="45" cy="87" r="3"/><circle id="Oval-2-Copy-189" cx="45" cy="135" r="3"/><circle id="Oval-2-Copy-297" cx="45" cy="159" r="3"/><circle id="Oval-2-Copy-9" cx="147" cy="3" r="3"/><circle id="Oval-2-Copy-100" cx="147" cy="51" r="3"/><circle id="Oval-2-Copy-190" cx="147" cy="99" r="3"/><circle id="Oval-2-Copy-50" cx="147" cy="27" r="3"/><circle id="Oval-2-Copy-101" cx="147" cy="75" r="3"/><circle id="Oval-2-Copy-191" cx="147" cy="123" r="3"/><circle id="Oval-2-Copy-273" cx="147" cy="147" r="3"/><circle id="Oval-2-Copy-298" cx="147" cy="171" r="3"/><circle id="Oval-2-Copy-26" cx="141" cy="15" r="3"/><circle id="Oval-2-Copy-102" cx="141" cy="63" r="3"/><circle id="Oval-2-Copy-192" cx="141" cy="111" r="3"/><circle id="Oval-2-Copy-51" cx="141" cy="39" r="3"/><circle id="Oval-2-Copy-103" cx="141" cy="87" r="3"/><circle id="Oval-2-Copy-193" cx="141" cy="135" r="3"/><circle id="Oval-2-Copy-299" cx="141" cy="159" r="3"/><circle id="Oval-2-Copy-16" cx="231" cy="3" r="3"/><circle id="Oval-2-Copy-104" cx="231" cy="51" r="3"/><circle id="Oval-2-Copy-194" cx="231" cy="99" r="3"/><circle id="Oval-2-Copy-52" cx="231" cy="27" r="3"/><circle id="Oval-2-Copy-105" cx="231" cy="75" r="3"/><circle id="Oval-2-Copy-195" cx="231" cy="123" r="3"/><circle id="Oval-2-Copy-274" cx="231" cy="147" r="3"/><circle id="Oval-2-Copy-300" cx="231" cy="171" r="3"/><circle id="Oval-2-Copy-27" cx="225" cy="15" r="3"/><circle id="Oval-2-Copy-106" cx="225" cy="63" r="3"/><circle id="Oval-2-Copy-196" cx="225" cy="111" r="3"/><circle id="Oval-2-Copy-53" cx="225" cy="39" r="3"/><circle id="Oval-2-Copy-107" cx="225" cy="87" r="3"/><circle id="Oval-2-Copy-197" cx="225" cy="135" r="3"/><circle id="Oval-2-Copy-301" cx="225" cy="159" r="3"/><circle id="Oval-2-Copy-2" cx="27" cy="3" r="3"/><circle id="Oval-2-Copy-108" cx="27" cy="51" r="3"/><circle id="Oval-2-Copy-198" cx="27" cy="99" r="3"/><circle id="Oval-2-Copy-54" cx="27" cy="27" r="3"/><circle id="Oval-2-Copy-109" cx="27" cy="75" r="3"/><circle id="Oval-2-Copy-199" cx="27" cy="123" r="3"/><circle id="Oval-2-Copy-275" cx="27" cy="147" r="3"/><circle id="Oval-2-Copy-302" cx="27" cy="171" r="3"/><circle id="Oval-2-Copy-28" cx="21" cy="15" r="3"/><circle id="Oval-2-Copy-110" cx="21" cy="63" r="3"/><circle id="Oval-2-Copy-200" cx="21" cy="111" r="3"/><circle id="Oval-2-Copy-55" cx="21" cy="39" r="3"/><circle id="Oval-2-Copy-111" cx="21" cy="87" r="3"/><circle id="Oval-2-Copy-201" cx="21" cy="135" r="3"/><circle id="Oval-2-Copy-303" cx="21" cy="159" r="3"/><circle id="Oval-2-Copy-10" cx="123" cy="3" r="3"/><circle id="Oval-2-Copy-112" cx="123" cy="51" r="3"/><circle id="Oval-2-Copy-202" cx="123" cy="99" r="3"/><circle id="Oval-2-Copy-56" cx="123" cy="27" r="3"/><circle id="Oval-2-Copy-113" cx="123" cy="75" r="3"/><circle id="Oval-2-Copy-203" cx="123" cy="123" r="3"/><circle id="Oval-2-Copy-276" cx="123" cy="147" r="3"/><circle id="Oval-2-Copy-304" cx="123" cy="171" r="3"/><circle id="Oval-2-Copy-29" cx="117" cy="15" r="3"/><circle id="Oval-2-Copy-114" cx="117" cy="63" r="3"/><circle id="Oval-2-Copy-204" cx="117" cy="111" r="3"/><circle id="Oval-2-Copy-57" cx="117" cy="39" r="3"/><circle id="Oval-2-Copy-115" cx="117" cy="87" r="3"/><circle id="Oval-2-Copy-205" cx="117" cy="135" r="3"/><circle id="Oval-2-Copy-305" cx="117" cy="159" r="3"/><circle id="Oval-2-Copy-17" cx="207" cy="3" r="3"/><circle id="Oval-2-Copy-116" cx="207" cy="51" r="3"/><circle id="Oval-2-Copy-206" cx="207" cy="99" r="3"/><circle id="Oval-2-Copy-58" cx="207" cy="27" r="3"/><circle id="Oval-2-Copy-117" cx="207" cy="75" r="3"/><circle id="Oval-2-Copy-207" cx="207" cy="123" r="3"/><circle id="Oval-2-Copy-277" cx="207" cy="147" r="3"/><circle id="Oval-2-Copy-306" cx="207" cy="171" r="3"/><circle id="Oval-2-Copy-30" cx="201" cy="15" r="3"/><circle id="Oval-2-Copy-118" cx="201" cy="63" r="3"/><circle id="Oval-2-Copy-208" cx="201" cy="111" r="3"/><circle id="Oval-2-Copy-59" cx="201" cy="39" r="3"/><circle id="Oval-2-Copy-119" cx="201" cy="87" r="3"/><circle id="Oval-2-Copy-209" cx="201" cy="135" r="3"/><circle id="Oval-2-Copy-307" cx="201" cy="159" r="3"/><circle id="Oval-2-Copy-5" cx="75" cy="3" r="3"/><circle id="Oval-2-Copy-120" cx="75" cy="51" r="3"/><circle id="Oval-2-Copy-210" cx="75" cy="99" r="3"/><circle id="Oval-2-Copy-60" cx="75" cy="27" r="3"/><circle id="Oval-2-Copy-121" cx="75" cy="75" r="3"/><circle id="Oval-2-Copy-211" cx="75" cy="123" r="3"/><circle id="Oval-2-Copy-278" cx="75" cy="147" r="3"/><circle id="Oval-2-Copy-308" cx="75" cy="171" r="3"/><circle id="Oval-2-Copy-31" cx="69" cy="15" r="3"/><circle id="Oval-2-Copy-122" cx="69" cy="63" r="3"/><circle id="Oval-2-Copy-212" cx="69" cy="111" r="3"/><circle id="Oval-2-Copy-61" cx="69" cy="39" r="3"/><circle id="Oval-2-Copy-123" cx="69" cy="87" r="3"/><circle id="Oval-2-Copy-213" cx="69" cy="135" r="3"/><circle id="Oval-2-Copy-309" cx="69" cy="159" r="3"/><circle id="Oval-2-Copy-11" cx="171" cy="3" r="3"/><circle id="Oval-2-Copy-124" cx="171" cy="51" r="3"/><circle id="Oval-2-Copy-214" cx="171" cy="99" r="3"/><circle id="Oval-2-Copy-62" cx="171" cy="27" r="3"/><circle id="Oval-2-Copy-125" cx="171" cy="75" r="3"/><circle id="Oval-2-Copy-215" cx="171" cy="123" r="3"/><circle id="Oval-2-Copy-279" cx="171" cy="147" r="3"/><circle id="Oval-2-Copy-310" cx="171" cy="171" r="3"/><circle id="Oval-2-Copy-32" cx="165" cy="15" r="3"/><circle id="Oval-2-Copy-126" cx="165" cy="63" r="3"/><circle id="Oval-2-Copy-216" cx="165" cy="111" r="3"/><circle id="Oval-2-Copy-63" cx="165" cy="39" r="3"/><circle id="Oval-2-Copy-127" cx="165" cy="87" r="3"/><circle id="Oval-2-Copy-217" cx="165" cy="135" r="3"/><circle id="Oval-2-Copy-311" cx="165" cy="159" r="3"/><circle id="Oval-2-Copy-18" cx="255" cy="3" r="3"/><circle id="Oval-2-Copy-128" cx="255" cy="51" r="3"/><circle id="Oval-2-Copy-218" cx="255" cy="99" r="3"/><circle id="Oval-2-Copy-64" cx="255" cy="27" r="3"/><circle id="Oval-2-Copy-129" cx="255" cy="75" r="3"/><circle id="Oval-2-Copy-219" cx="255" cy="123" r="3"/><circle id="Oval-2-Copy-280" cx="255" cy="147" r="3"/><circle id="Oval-2-Copy-312" cx="255" cy="171" r="3"/><circle id="Oval-2-Copy-33" cx="249" cy="15" r="3"/><circle id="Oval-2-Copy-130" cx="249" cy="63" r="3"/><circle id="Oval-2-Copy-220" cx="249" cy="111" r="3"/><circle id="Oval-2-Copy-65" cx="249" cy="39" r="3"/><circle id="Oval-2-Copy-131" cx="249" cy="87" r="3"/><circle id="Oval-2-Copy-221" cx="249" cy="135" r="3"/><circle id="Oval-2-Copy-313" cx="249" cy="159" r="3"/><circle id="Oval-2-Copy" cx="15" cy="3" r="3"/><circle id="Oval-2-Copy-132" cx="15" cy="51" r="3"/><circle id="Oval-2-Copy-222" cx="15" cy="99" r="3"/><circle id="Oval-2-Copy-66" cx="15" cy="27" r="3"/><circle id="Oval-2-Copy-133" cx="15" cy="75" r="3"/><circle id="Oval-2-Copy-223" cx="15" cy="123" r="3"/><circle id="Oval-2-Copy-281" cx="15" cy="147" r="3"/><circle id="Oval-2-Copy-314" cx="15" cy="171" r="3"/><circle id="Oval-2-Copy-34" cx="9" cy="15" r="3"/><circle id="Oval-2-Copy-134" cx="9" cy="63" r="3"/><circle id="Oval-2-Copy-224" cx="9" cy="111" r="3"/><circle id="Oval-2-Copy-67" cx="9" cy="39" r="3"/><circle id="Oval-2-Copy-135" cx="9" cy="87" r="3"/><circle id="Oval-2-Copy-225" cx="9" cy="135" r="3"/><circle id="Oval-2-Copy-315" cx="9" cy="159" r="3"/><circle id="Oval-2-Copy-12" cx="111" cy="3" r="3"/><circle id="Oval-2-Copy-136" cx="111" cy="51" r="3"/><circle id="Oval-2-Copy-226" cx="111" cy="99" r="3"/><circle id="Oval-2-Copy-68" cx="111" cy="27" r="3"/><circle id="Oval-2-Copy-137" cx="111" cy="75" r="3"/><circle id="Oval-2-Copy-227" cx="111" cy="123" r="3"/><circle id="Oval-2-Copy-282" cx="111" cy="147" r="3"/><circle id="Oval-2-Copy-316" cx="111" cy="171" r="3"/><circle id="Oval-2-Copy-35" cx="105" cy="15" r="3"/><circle id="Oval-2-Copy-138" cx="105" cy="63" r="3"/><circle id="Oval-2-Copy-228" cx="105" cy="111" r="3"/><circle id="Oval-2-Copy-69" cx="105" cy="39" r="3"/><circle id="Oval-2-Copy-139" cx="105" cy="87" r="3"/><circle id="Oval-2-Copy-229" cx="105" cy="135" r="3"/><circle id="Oval-2-Copy-317" cx="105" cy="159" r="3"/><circle id="Oval-2-Copy-19" cx="195" cy="3" r="3"/><circle id="Oval-2-Copy-140" cx="195" cy="51" r="3"/><circle id="Oval-2-Copy-230" cx="195" cy="99" r="3"/><circle id="Oval-2-Copy-70" cx="195" cy="27" r="3"/><circle id="Oval-2-Copy-141" cx="195" cy="75" r="3"/><circle id="Oval-2-Copy-231" cx="195" cy="123" r="3"/><circle id="Oval-2-Copy-283" cx="195" cy="147" r="3"/><circle id="Oval-2-Copy-318" cx="195" cy="171" r="3"/><circle id="Oval-2-Copy-36" cx="189" cy="15" r="3"/><circle id="Oval-2-Copy-142" cx="189" cy="63" r="3"/><circle id="Oval-2-Copy-232" cx="189" cy="111" r="3"/><circle id="Oval-2-Copy-71" cx="189" cy="39" r="3"/><circle id="Oval-2-Copy-143" cx="189" cy="87" r="3"/><circle id="Oval-2-Copy-233" cx="189" cy="135" r="3"/><circle id="Oval-2-Copy-319" cx="189" cy="159" r="3"/><circle id="Oval-2-Copy-6" cx="63" cy="3" r="3"/><circle id="Oval-2-Copy-144" cx="63" cy="51" r="3"/><circle id="Oval-2-Copy-234" cx="63" cy="99" r="3"/><circle id="Oval-2-Copy-72" cx="63" cy="27" r="3"/><circle id="Oval-2-Copy-145" cx="63" cy="75" r="3"/><circle id="Oval-2-Copy-235" cx="63" cy="123" r="3"/><circle id="Oval-2-Copy-284" cx="63" cy="147" r="3"/><circle id="Oval-2-Copy-320" cx="63" cy="171" r="3"/><circle id="Oval-2-Copy-37" cx="57" cy="15" r="3"/><circle id="Oval-2-Copy-146" cx="57" cy="63" r="3"/><circle id="Oval-2-Copy-236" cx="57" cy="111" r="3"/><circle id="Oval-2-Copy-73" cx="57" cy="39" r="3"/><circle id="Oval-2-Copy-147" cx="57" cy="87" r="3"/><circle id="Oval-2-Copy-237" cx="57" cy="135" r="3"/><circle id="Oval-2-Copy-321" cx="57" cy="159" r="3"/><circle id="Oval-2-Copy-13" cx="159" cy="3" r="3"/><circle id="Oval-2-Copy-148" cx="159" cy="51" r="3"/><circle id="Oval-2-Copy-238" cx="159" cy="99" r="3"/><circle id="Oval-2-Copy-74" cx="159" cy="27" r="3"/><circle id="Oval-2-Copy-149" cx="159" cy="75" r="3"/><circle id="Oval-2-Copy-239" cx="159" cy="123" r="3"/><circle id="Oval-2-Copy-285" cx="159" cy="147" r="3"/><circle id="Oval-2-Copy-322" cx="159" cy="171" r="3"/><circle id="Oval-2-Copy-38" cx="153" cy="15" r="3"/><circle id="Oval-2-Copy-150" cx="153" cy="63" r="3"/><circle id="Oval-2-Copy-240" cx="153" cy="111" r="3"/><circle id="Oval-2-Copy-75" cx="153" cy="39" r="3"/><circle id="Oval-2-Copy-151" cx="153" cy="87" r="3"/><circle id="Oval-2-Copy-241" cx="153" cy="135" r="3"/><circle id="Oval-2-Copy-323" cx="153" cy="159" r="3"/><circle id="Oval-2-Copy-20" cx="243" cy="3" r="3"/><circle id="Oval-2-Copy-152" cx="243" cy="51" r="3"/><circle id="Oval-2-Copy-242" cx="243" cy="99" r="3"/><circle id="Oval-2-Copy-76" cx="243" cy="27" r="3"/><circle id="Oval-2-Copy-153" cx="243" cy="75" r="3"/><circle id="Oval-2-Copy-243" cx="243" cy="123" r="3"/><circle id="Oval-2-Copy-286" cx="243" cy="147" r="3"/><circle id="Oval-2-Copy-324" cx="243" cy="171" r="3"/><circle id="Oval-2-Copy-39" cx="237" cy="15" r="3"/><circle id="Oval-2-Copy-154" cx="237" cy="63" r="3"/><circle id="Oval-2-Copy-244" cx="237" cy="111" r="3"/><circle id="Oval-2-Copy-77" cx="237" cy="39" r="3"/><circle id="Oval-2-Copy-155" cx="237" cy="87" r="3"/><circle id="Oval-2-Copy-245" cx="237" cy="135" r="3"/><circle id="Oval-2-Copy-325" cx="237" cy="159" r="3"/><circle id="Oval-2-Copy-3" cx="39" cy="3" r="3"/><circle id="Oval-2-Copy-156" cx="39" cy="51" r="3"/><circle id="Oval-2-Copy-246" cx="39" cy="99" r="3"/><circle id="Oval-2-Copy-78" cx="39" cy="27" r="3"/><circle id="Oval-2-Copy-157" cx="39" cy="75" r="3"/><circle id="Oval-2-Copy-247" cx="39" cy="123" r="3"/><circle id="Oval-2-Copy-287" cx="39" cy="147" r="3"/><circle id="Oval-2-Copy-326" cx="39" cy="171" r="3"/><circle id="Oval-2-Copy-40" cx="33" cy="15" r="3"/><circle id="Oval-2-Copy-158" cx="33" cy="63" r="3"/><circle id="Oval-2-Copy-248" cx="33" cy="111" r="3"/><circle id="Oval-2-Copy-79" cx="33" cy="39" r="3"/><circle id="Oval-2-Copy-159" cx="33" cy="87" r="3"/><circle id="Oval-2-Copy-249" cx="33" cy="135" r="3"/><circle id="Oval-2-Copy-327" cx="33" cy="159" r="3"/><circle id="Oval-2-Copy-14" cx="135" cy="3" r="3"/><circle id="Oval-2-Copy-160" cx="135" cy="51" r="3"/><circle id="Oval-2-Copy-250" cx="135" cy="99" r="3"/><circle id="Oval-2-Copy-80" cx="135" cy="27" r="3"/><circle id="Oval-2-Copy-161" cx="135" cy="75" r="3"/><circle id="Oval-2-Copy-251" cx="135" cy="123" r="3"/><circle id="Oval-2-Copy-288" cx="135" cy="147" r="3"/><circle id="Oval-2-Copy-328" cx="135" cy="171" r="3"/><circle id="Oval-2-Copy-41" cx="129" cy="15" r="3"/><circle id="Oval-2-Copy-162" cx="129" cy="63" r="3"/><circle id="Oval-2-Copy-252" cx="129" cy="111" r="3"/><circle id="Oval-2-Copy-81" cx="129" cy="39" r="3"/><circle id="Oval-2-Copy-163" cx="129" cy="87" r="3"/><circle id="Oval-2-Copy-253" cx="129" cy="135" r="3"/><circle id="Oval-2-Copy-329" cx="129" cy="159" r="3"/><circle id="Oval-2-Copy-21" cx="219" cy="3" r="3"/><circle id="Oval-2-Copy-164" cx="219" cy="51" r="3"/><circle id="Oval-2-Copy-254" cx="219" cy="99" r="3"/><circle id="Oval-2-Copy-82" cx="219" cy="27" r="3"/><circle id="Oval-2-Copy-165" cx="219" cy="75" r="3"/><circle id="Oval-2-Copy-255" cx="219" cy="123" r="3"/><circle id="Oval-2-Copy-289" cx="219" cy="147" r="3"/><circle id="Oval-2-Copy-330" cx="219" cy="171" r="3"/><circle id="Oval-2-Copy-42" cx="213" cy="15" r="3"/><circle id="Oval-2-Copy-166" cx="213" cy="63" r="3"/><circle id="Oval-2-Copy-256" cx="213" cy="111" r="3"/><circle id="Oval-2-Copy-83" cx="213" cy="39" r="3"/><circle id="Oval-2-Copy-167" cx="213" cy="87" r="3"/><circle id="Oval-2-Copy-257" cx="213" cy="135" r="3"/><circle id="Oval-2-Copy-331" cx="213" cy="159" r="3"/><circle id="Oval-2-Copy-7" cx="87" cy="3" r="3"/><circle id="Oval-2-Copy-168" cx="87" cy="51" r="3"/><circle id="Oval-2-Copy-258" cx="87" cy="99" r="3"/><circle id="Oval-2-Copy-84" cx="87" cy="27" r="3"/><circle id="Oval-2-Copy-169" cx="87" cy="75" r="3"/><circle id="Oval-2-Copy-259" cx="87" cy="123" r="3"/><circle id="Oval-2-Copy-290" cx="87" cy="147" r="3"/><circle id="Oval-2-Copy-332" cx="87" cy="171" r="3"/><circle id="Oval-2-Copy-43" cx="81" cy="15" r="3"/><circle id="Oval-2-Copy-170" cx="81" cy="63" r="3"/><circle id="Oval-2-Copy-260" cx="81" cy="111" r="3"/><circle id="Oval-2-Copy-85" cx="81" cy="39" r="3"/><circle id="Oval-2-Copy-171" cx="81" cy="87" r="3"/><circle id="Oval-2-Copy-261" cx="81" cy="135" r="3"/><circle id="Oval-2-Copy-333" cx="81" cy="159" r="3"/><circle id="Oval-2-Copy-15" cx="183" cy="3" r="3"/><circle id="Oval-2-Copy-172" cx="183" cy="51" r="3"/><circle id="Oval-2-Copy-262" cx="183" cy="99" r="3"/><circle id="Oval-2-Copy-86" cx="183" cy="27" r="3"/><circle id="Oval-2-Copy-173" cx="183" cy="75" r="3"/><circle id="Oval-2-Copy-263" cx="183" cy="123" r="3"/><circle id="Oval-2-Copy-291" cx="183" cy="147" r="3"/><circle id="Oval-2-Copy-334" cx="183" cy="171" r="3"/><circle id="Oval-2-Copy-44" cx="177" cy="15" r="3"/><circle id="Oval-2-Copy-174" cx="177" cy="63" r="3"/><circle id="Oval-2-Copy-264" cx="177" cy="111" r="3"/><circle id="Oval-2-Copy-87" cx="177" cy="39" r="3"/><circle id="Oval-2-Copy-175" cx="177" cy="87" r="3"/><circle id="Oval-2-Copy-265" cx="177" cy="135" r="3"/><circle id="Oval-2-Copy-335" cx="177" cy="159" r="3"/><circle id="Oval-2-Copy-22" cx="267" cy="3" r="3"/><circle id="Oval-2-Copy-176" cx="267" cy="51" r="3"/><circle id="Oval-2-Copy-266" cx="267" cy="99" r="3"/><circle id="Oval-2-Copy-88" cx="267" cy="27" r="3"/><circle id="Oval-2-Copy-177" cx="267" cy="75" r="3"/><circle id="Oval-2-Copy-267" cx="267" cy="123" r="3"/><circle id="Oval-2-Copy-292" cx="267" cy="147" r="3"/><circle id="Oval-2-Copy-336" cx="267" cy="171" r="3"/><circle id="Oval-2-Copy-45" cx="261" cy="15" r="3"/><circle id="Oval-2-Copy-178" cx="261" cy="63" r="3"/><circle id="Oval-2-Copy-268" cx="261" cy="111" r="3"/><circle id="Oval-2-Copy-89" cx="261" cy="39" r="3"/><circle id="Oval-2-Copy-179" cx="261" cy="87" r="3"/><circle id="Oval-2-Copy-269" cx="261" cy="135" r="3"/><circle id="Oval-2-Copy-337" cx="261" cy="159" r="3"/></g><g id="logo/doughnuts" transform="translate(86 76)"><g id="Krispy_Kreme_logo"><path d="M61.64 7.263C34.18 4.007 21.377 2.63 1.59.286.918.286.32.176.417 1.278 4.684 15.929 5.303 18.348 10.85 37.33c1.19 3.432 3.133 4.342 5.015 4.342h45.63l45.617.002c1.88 0 3.826-.91 5.015-4.343 5.548-18.982 6.166-21.401 10.432-36.052.097-1.102-.5-.993-1.171-.993C101.6 2.632 89.102 4.007 61.64 7.263" id="green" fill="#007550" fill-rule="nonzero"/><path d="M61.483 9.31c24.772-2.786 39.524-4.676 57.279-6.726.638-.064 1.213-.417.915.622-2.448 8.666-3.21 11.367-7.648 26.71-.863 2.787-2.128 2.44-4.102 2.449-16.675 0-28.331-.006-46.444-.01-18.113.004-29.758.009-46.432.009-1.974-.01-3.24.337-4.102-2.448-4.44-15.345-5.201-18.045-7.65-26.71-.296-1.04.278-.688.917-.624C21.97 4.632 36.71 6.522 61.483 9.31" id="white" fill="#FFF" fill-rule="nonzero"/><path d="M38.88 11.42c9.445-.001 20.944-.002 21.438.004 1.496.014 2.175-.667 2.448-.91.273-.245.585-.232.576.052-.002.123-1.62 3.883-3.858 3.878-1.372-.003-11.683-.004-20.62-.004a2.37 2.37 0 0 0 .549-1.519c0-.569-.2-1.092-.533-1.5zm8.146 8.941c-.174.351-1.537 3.745-1.537 3.745-.365.938.17 1.414.564 1.514.88.226 1.729-.426 2.645-2.842 1.453-3.836-1.23-3.304-1.672-2.417zm-9.623 3.14c1.304.582.78 2.399-.13 2.62-.421.33 1.339 1.195 2.113-.584.788-1.812-.217-3.575-.336-4.003-.316.264-.866.945-1.647 1.966zm10.983 2.946c2.2-.685 4.067-3.575 4.45-4.534.847-2.27 1.569-4.029 1.569-4.029l2.634-.006s-1.884 4.52-2.694 6.814c-.776 2.192 1.41.35 2.295-2.082a389.337 389.337 0 0 1 1.766-4.651l2.732-.005s-3.17 7.94-3.497 8.628c1.02-.279 2.3.51 2.176.891-.447 1.367-.72-.676-2.6-.086-1.035 2.515-3.338 4.712-5.146 4.44-2.342-.35-.976-3.554 2.974-4.713l.343-.957c-2.03 1.691-3.985.665-3.523-1.326-1.703 2.078-3.705 2.374-4.978 2.281-.957.144-1.774-.27-2.2-.904-.648 1.705-1.533 3.893-1.533 3.893h-2.617l1.338-3.427c-1.122.662-2.224.79-3.082.759-1.731.476-2.796-.685-3.102-1.533-1.932 2.568-4.067 1.647-4.358.07-.825.86-1.728 1.505-2.547 1.475-1.992-.074-1.504-3.065-1.159-4.067.902-2.608 1.88-3.652.052-3.71-.304-.009-2.495 8.521-6.48 8.892-3.692.341-2.27-2.607-1.657-4.293.979-2.7 2.018-4.049 1.497-5.055-.404-.781-2.644.836-3.331 2.56a881.68 881.68 0 0 0-2.68 6.86l-3.456.075s2.85-7.23 5.62-14.505c.904-2.37-.474-2.44-1.552-2.376-.889.053-.54-.737.112-.787 3.318-.253 4.522-.203 4.922.058.681.446.65 1.366.527 1.58-.61 1.592-1.73 4.411-1.882 4.855-.484 1.425.52.057.815-.313.294-.37 2.386-2.729 2.802-3.287.433-.58 2.35-2.51 3.635-2.51h8.65a2.367 2.367 0 0 0-.533 1.5c0 .577.207 1.107.55 1.518-5.374.001-9.586.002-9.888.004-.669.004-2.167.83-3.301 2.2-.977 1.182.296.754.296.754 1.905-.184 3.678-.614.638 6.055-2.907 6.38 1.433 3.392 3.971-4.327.092-.281-.652-.647-.676-1.176-.034-.676-.235-1.454.946-1.454 1.18 0 .79 1.2 1.789 1.507 2.021.62 3.121-.016 2.06 2.563-1.017 2.472-2.14 5.547-.811 5.177.638-.178 1.006-.646 1.242-1.077a235.312 235.312 0 0 1 2.605-6.795h2.609l-2.848 7.208c-.658 1.664.654.73 1.627-.34.113-.877.765-1.207.962-1.239 1.033-1.497 4.346-6.195 4.346-6.195s.253.184.041.52c-.284.447.244 2.664.476 3.367.368 1.12.959 3.887-.59 5.157a6.891 6.891 0 0 1-.896.631 5.44 5.44 0 0 0 2.327-1.043l3.145-8.06H47.9s-.112.246-.26.627c.746-.572 1.67-.877 2.38-.687.725.191 3.12.378.427 5.913-.641 1.315-1.356 2.184-2.062 2.717zm4.265 3.771c.85-.559 1.44-1.163 1.959-2.122-.634.135-1.72.732-2.284 1.263-.737.693-.376 1.32.325.86zm-17.02-17.296a1.42 1.42 0 0 1 1.419-1.423 1.42 1.42 0 0 1 1.418 1.423 1.42 1.42 0 0 1-1.418 1.421 1.42 1.42 0 0 1-1.419-1.421zm47.956 9.846c1.33.029 2.931-.78 3.28-1.385.349-.604.307-1.787-.58-1.831-.751-.036-2.24.652-2.7 3.216zm26.453 2.244c-2.575 3.493-6.38 3.053-7.282-.17-.627 1.276-1.538 2.533-3.21 2.68-2.006.177-2.213-1.812-1.991-2.922.22-1.11.566-1.555 1.375-3.849.571-1.617-1.108-.79-2.063.769-.687 1.86-2.242 6.011-2.242 6.011s-.804-.06-2.597-.083c.221-1.11 1.703-4.369 2.515-6.663.58-1.64-1.16-.767-2.105.838-.03.053-.06.102-.09.15l-2.32 5.759h-2.71l.85-2.152c-.27.296-.581.58-.946.839-3.475 2.463-5.128.681-5.668-1.066-.994 1.229-2.2 2.332-3.265 2.293-1.992-.075-1.503-3.065-1.158-4.066.9-2.61 1.879-3.653.052-3.71-.305-.01-2.497 8.519-6.48 8.89-3.692.341-2.271-2.605-1.66-4.293.98-2.7 2.02-4.049 1.499-5.055-.405-.78-2.644.836-3.332 2.56-.887 2.22-2.68 6.863-2.68 6.863l-3.455.072s2.85-7.229 5.621-14.504c.904-2.371-.474-2.44-1.552-2.376-.89.052-.54-.738.11-.788 3.32-.252 4.523-.203 4.922.058.681.447.65 1.367.528 1.58-.61 1.593-1.73 4.412-1.882 4.855-.483 1.426.52.057.815-.313.296-.37 2.385-2.728 2.801-3.286.434-.58 2.352-2.509 3.638-2.509 1.128 0 32.917-.009 33.748 0 1.495.015 2.174-.665 2.447-.91.273-.243.585-.232.577.053-.002.122-1.62 3.882-3.86 3.878-2.445-.005-33.297-.006-34.136 0-.666.003-2.166.83-3.3 2.2-.978 1.182.296.753.296.753 1.905-.183 3.677-.612.639 6.055-2.909 6.38 1.432 3.392 3.97-4.327.093-.281-.65-.647-.676-1.175-.033-.677-.235-1.454.945-1.454 1.182 0 .791 1.2 1.79 1.507 2.023.62 3.122-.016 2.06 2.563-1.016 2.471-2.138 5.547-.81 5.176 1.075-.3 1.385-1.425 1.582-1.802a2.862 2.862 0 0 1 .005-.297c.184-2.555 1.677-4.753 2.948-5.31 3.046-1.334 4.22.367 4.12 1.99-.123 1.988-2.345 3.32-4.855 3.392-.044-.035-.051-.009 0 .371.394 2.852 3.632 1.299 5.36-.624l2.225-5.626 2.788-.015-.677 1.685c2.06-2.476 4.283-1.78 4.095.338l.08-.108c2.362-3.108 5.058-1.918 4.132.89-.136.412-1.477 4.238-1.477 4.238s-.416 1.285.396 1.285c.7 0 1.658-1.24 2.086-2.406l-.006-.1c-.127-2.537 1.439-4.726 2.702-5.279 3.03-1.326 4.325.366 4.316 1.977-.01 1.978-2.2 3.302-4.756 3.376-.049-.037-.055-.01.021.367.677 3.39 4.062 1.165 4.56.555 1.26-1.543 1.217-.427.627.372zm-5.244-2.237c1.357.027 2.946-.777 3.266-1.378.321-.601.21-1.777-.697-1.821-.767-.035-2.248.649-2.57 3.199z" id="Shape" fill="#CE1041" fill-rule="nonzero"/><path d="M52.027 36.507v.971h.896c-.05.55-.46.827-.994.827-.811 0-1.252-.75-1.252-1.489 0-.726.422-1.501 1.233-1.501.498 0 .857.302 1.025.757l1.17-.494c-.409-.89-1.163-1.33-2.138-1.33-1.528 0-2.572 1.015-2.572 2.561 0 1.495 1.037 2.51 2.528 2.51.793 0 1.491-.283 1.956-.932.422-.594.472-1.186.484-1.88h-2.336" id="g" fill="#FFF" fill-rule="nonzero"/><path id="t" fill="#FFF" fill-rule="nonzero" d="M95.896 35.453h1.386v-1.048h-4.041v1.048h1.386v3.711h1.269v-3.711"/><path d="M17.966 35.452h.29c.792 0 1.353.48 1.353 1.332 0 .928-.63 1.331-1.366 1.331h-.277v-2.663zm-1.233 3.71h1.749c1.314 0 2.41-1.04 2.41-2.378 0-1.337-1.089-2.379-2.409-2.379h-1.75v4.757z" id="d" fill="#FFF"/><path d="M29.71 35.447c.736 0 1.34.599 1.34 1.255 0 .82-.604 1.42-1.34 1.42-.736 0-1.34-.6-1.34-1.42 0-.656.604-1.255 1.34-1.255zm0-1.2c-1.365 0-2.623 1.01-2.623 2.448 0 1.54 1.1 2.625 2.623 2.625 1.523 0 2.623-1.084 2.623-2.625 0-1.438-1.258-2.447-2.623-2.447z" id="o" fill="#FFF"/><path d="M41.722 34.34v2.505c0 .619-.045 1.294-.836 1.294-.792 0-.837-.675-.837-1.294V34.34h-1.233v2.676c0 .612.026 1.217.497 1.677.397.392 1.019.53 1.573.53s1.176-.139 1.573-.53c.47-.46.496-1.065.496-1.677V34.34h-1.233" id="u" fill="#FFF"/><path id="h" fill="#FFF" d="M62.06 36.241v-1.836h-1.233v4.76h1.233v-1.95h1.78v1.95h1.233v-4.76H63.84v1.836h-1.78"/><path id="n" fill="#FFF" d="M71.777 39.164h1.233V36.25h.013l2.258 2.915h1.233v-4.759h-1.233v2.91h-.013l-2.258-2.91h-1.233v4.76"/><path d="M86.098 34.405v2.506c0 .618-.043 1.294-.836 1.294-.792 0-.837-.676-.837-1.294v-2.506h-1.233v2.676c0 .612.025 1.218.497 1.679.397.391 1.02.53 1.573.53.554 0 1.176-.139 1.573-.53.47-.461.496-1.067.496-1.679v-2.676h-1.233" id="u" fill="#FFF"/><path d="M106.354 34.67a3.228 3.228 0 0 0-1.483-.39c-.95 0-1.635.631-1.635 1.595 0 .921.508 1.123 1.283 1.344.263.076.748.196.748.545 0 .332-.31.477-.597.477-.422 0-.786-.22-1.094-.491l-.529.996a2.915 2.915 0 0 0 1.667.543c.478 0 .975-.133 1.346-.448.378-.322.491-.807.491-1.281 0-.77-.511-1.104-1.17-1.3l-.315-.095c-.214-.07-.548-.177-.548-.454 0-.265.302-.397.528-.397.302 0 .591.126.817.315l.491-.958" id="s" fill="#FFF"/></g></g></g><g id="post-it" stroke-width="1" fill-rule="evenodd" transform="translate(365.084 120.026)"><path id="Fill-1" fill-opacity=".1" fill="#000" d="M2.15.008L0 44l44.845-2.436z"/><path id="Fill-4" fill="#F9EB77" d="M2.785 42H44L43.994.096 2 0z"/><path d="M12.567 8.564l-1.47.772c-.228.114-.38.171-.458.171-.141 0-.245-.044-.31-.133-.067-.09-.1-.227-.1-.414 0-.214.046-.461.137-.741.09-.28.196-.487.314-.62.123-.136.411-.324.865-.563.453-.24 1-.48 1.637-.721a15.376 15.376 0 0 1 1.996-.602 8.527 8.527 0 0 1 1.9-.24c.402 0 .698.065.89.192.19.128.286.465.286 1.012 0 .296-.101.625-.304.988a6.967 6.967 0 0 1-.731 1.056 96.55 96.55 0 0 1-1.583 1.818c.41-.063.711-.105.903-.123a73.86 73.86 0 0 0 1.073-.116c.606-.875 1.096-1.573 1.47-2.095.373-.522.69-.955.95-1.299s.414-.541.465-.591c.09-.105.167-.145.229-.12.061.025.092.12.092.284 0 .187-.02.34-.058.458a1.37 1.37 0 0 1-.181.352 4.935 4.935 0 0 0-.13.188c-.119.196-.29.452-.513.769-.223.317-.442.63-.656.94-.214.31-.458.677-.732 1.1.51.019 1.014.085 1.511.199l-1.23 1.668a10.514 10.514 0 0 0-1.347-.069c-.137.274-.243.488-.318.643a5.288 5.288 0 0 0-.191.44 1.1 1.1 0 0 0-.079.387c0 .073.022.17.065.29.043.121.065.19.065.209 0 .091-.067.188-.202.29a2.223 2.223 0 0 1-.471.27c-.18.078-.32.117-.42.117-.17 0-.254-.128-.254-.383 0-.529.271-1.265.814-2.208a31.2 31.2 0 0 0-2.482.321 26.938 26.938 0 0 0-1.268 1.819 3.739 3.739 0 0 1-.307.437c-.066.073-.138.11-.216.11a.415.415 0 0 1-.335-.171.326.326 0 0 1-.078-.137.62.62 0 0 1-.017-.15v-.144a.57.57 0 0 1 .088-.24 9.78 9.78 0 0 1 .424-.625c.224-.312.388-.548.493-.707-.119.013-.272.02-.458.02-.237 0-.43-.043-.578-.13-.148-.086-.222-.193-.222-.321 0-.146.038-.302.116-.468a1.29 1.29 0 0 1 .3-.417c.124-.112.247-.168.37-.168.082 0 .18.025.294.075l1.763-.437c.985-1.067 1.719-1.91 2.202-2.53.483-.62.724-1.018.724-1.196a.38.38 0 0 0-.082-.25.528.528 0 0 0-.229-.153.967.967 0 0 0-.338-.055c-.15 0-.389.041-.715.123-.325.082-.714.203-1.165.363-.451.16-1.014.38-1.689.663-.5.205-.751.335-.751.39 0 .063.034.104.102.122.068.019.156.032.263.041.107.01.16.026.16.048 0 .019-.025.044-.078.076-.052.031-.124.07-.215.116zm8.682 4.094v.171c0 .27.066.479.198.63.132.15.305.225.52.225.223 0 .454-.053.693-.157.24-.105.478-.244.715-.417.237-.174.526-.406.868-.698v.417c-.515.62-.998 1.095-1.45 1.426-.45.33-.909.495-1.374.495-.405 0-.726-.157-.963-.471-.237-.315-.356-.746-.356-1.292 0-.479.112-.913.335-1.303.223-.39.588-.8 1.094-1.234.346-.296.69-.52 1.032-.67.342-.15.647-.225.916-.225.214 0 .384.049.51.147.125.098.187.245.187.44 0 .288-.107.574-.32.859-.215.285-.542.567-.982.847-.44.28-.98.55-1.623.81zm.068-.444c.41-.16.761-.358 1.053-.595.291-.237.507-.463.646-.68.139-.216.208-.375.208-.475 0-.105-.048-.157-.143-.157-.082 0-.216.052-.4.157a3.298 3.298 0 0 0-.56.41c-.19.169-.36.367-.51.595-.15.228-.249.476-.294.745zm6.193.123v.506c-.952 1.262-1.727 1.894-2.324 1.894-.324 0-.578-.177-.762-.53-.185-.353-.277-.817-.277-1.391 0-.465.11-1.018.328-1.658.219-.64.512-1.29.879-1.948.366-.659.747-1.233 1.141-1.723s.76-.833 1.097-1.029c.137-.082.244-.123.322-.123.095 0 .16.042.191.127.032.084.048.229.048.434 0 .633-.258 1.411-.773 2.334s-1.232 1.865-2.153 2.827c-.045.237-.068.42-.068.547 0 .291.062.528.188.71a.6.6 0 0 0 .523.274.673.673 0 0 0 .369-.133c.132-.089.271-.2.417-.332.146-.132.43-.394.854-.786zm-2.044-1.23c.237-.233.466-.497.687-.793.221-.297.43-.613.626-.95.196-.338.35-.64.461-.91.112-.269.168-.471.168-.608 0-.105-.037-.157-.11-.157-.027 0-.08.025-.157.075-.278.228-.59.673-.936 1.336a7.963 7.963 0 0 0-.739 2.007zm1.9 1.88v-.479a26.845 26.845 0 0 0 1.652-1.955c.462-.61.828-1.096 1.097-1.456.269-.36.506-.614.71-.762.206-.148.463-.222.773-.222.155 0 .233.059.233.177 0 .096-.063.237-.188.424a3.881 3.881 0 0 1-.482.574c-.26.256-.514.576-.763.96-.248.386-.53.877-.844 1.474.246-.191.53-.418.851-.68.322-.262.584-.467.786-.615a3.19 3.19 0 0 1 .602-.353c.198-.086.398-.13.598-.13.128 0 .21.023.25.069.038.046.058.134.058.267 0 .346-.085.684-.253 1.015-.169.33-.41.673-.725 1.028a15.46 15.46 0 0 1-1.162 1.163c.16.059.324.088.492.088.529 0 1.238-.403 2.126-1.21v.493c-.346.31-.684.601-1.015.875a6.43 6.43 0 0 1-.933.656c-.292.164-.56.246-.807.246-.09 0-.188-.01-.29-.03a2.226 2.226 0 0 1-.284-.076 7.34 7.34 0 0 1-.335-.126 4.68 4.68 0 0 0-.314-.117 2.264 2.264 0 0 1-.246.055c-.16 0-.347-.064-.56-.191-.151.291-.316.668-.496 1.131-.18.463-.332.83-.455 1.104a3.527 3.527 0 0 1-.492.786c-.114.114-.194.171-.24.171-.195 0-.293-.173-.293-.52 0-.3.06-.614.18-.94a5.6 5.6 0 0 1 .445-.926c.175-.291.368-.586.578-.885.21-.298.357-.52.444-.666.72-1.24 1.28-2.295 1.682-3.165-1.049 1.276-1.842 2.192-2.38 2.748zm2.776.335c.451-.474.787-.878 1.008-1.21.221-.333.332-.588.332-.766 0-.169-.084-.253-.253-.253-.228 0-.548.188-.96.564-.413.376-.838.883-1.275 1.521.337-.036.563-.049.676-.038.114.012.272.072.472.182zM7.99 24.679l-1.217 1.032c-.578.506-.966.759-1.162.759-.177 0-.364-.204-.56-.612-.196-.408-.294-.764-.294-1.07 0-.26.04-.48.12-.66.08-.18.217-.413.413-.7.278-.387.545-.716.8-.984.255-.27.48-.478.677-.626.196-.148.332-.222.41-.222.123 0 .242.064.359.191.116.128.174.26.174.397 0 .086-.063.225-.188.417a6.023 6.023 0 0 1-.595.728c-.27.294-.648.646-1.131 1.056l-.13.376a.44.44 0 0 0-.055.191c0 .123.062.185.185.185.128 0 .427-.162.899-.485.472-.324.983-.76 1.535-1.306a10.675 10.675 0 0 0 .916-1.029c.113-.143.208-.252.283-.325.075-.072.143-.111.202-.116.114-.013.203.034.266.144.064.11.096.27.096.485 0 .123-.054.277-.164.462-.11.184-.314.499-.615.943-.3.444-.6.905-.899 1.38a22.956 22.956 0 0 0-.913 1.61 191.965 191.965 0 0 1 1.265-1.223 16.992 16.992 0 0 1 1.449-1.278v.458a50.846 50.846 0 0 0-1.671 1.88 40.086 40.086 0 0 0-1.63 2.044 11.53 11.53 0 0 0-.332.447 4.01 4.01 0 0 1-.246.322c-.066.075-.12.112-.16.112-.097 0-.182-.094-.257-.283a1.386 1.386 0 0 1-.113-.503.77.77 0 0 1 .075-.348c.328-.739 1.064-2.022 2.208-3.849zm6.494-.28v.458c-.3.273-.542.455-.724.547-.182.09-.445.127-.786.109-.593.702-1.115 1.053-1.566 1.053a1.09 1.09 0 0 1-.697-.253 1.752 1.752 0 0 1-.502-.69 2.452 2.452 0 0 1-.188-.978c0-.292.096-.615.29-.97.194-.356.444-.688.752-.996a4.25 4.25 0 0 1 .988-.745c.35-.189.677-.283.977-.283.215 0 .383.033.506.099s.185.158.185.277c0 .09-.053.196-.157.314.173.037.291.097.355.181.064.085.096.238.096.462 0 .218-.052.494-.154.827a4.13 4.13 0 0 1-.42.936l.123.123h.102a.497.497 0 0 0 .23-.058c.074-.038.142-.08.2-.123.06-.043.19-.14.39-.29zM13.076 22.6a19.72 19.72 0 0 0-.97.618 4.689 4.689 0 0 0-.684.561 1.51 1.51 0 0 0-.376.57c-.114.511-.171.787-.171.828 0 .3.21.451.629.451.196 0 .524-.168.984-.506a1.807 1.807 0 0 1-.116-.615c0-.287.06-.58.178-.878.118-.299.294-.642.526-1.03zm4.614 1.347c-.66.875-1.163 1.497-1.507 1.866-.344.369-.625.553-.844.553a.671.671 0 0 1-.479-.215 1.417 1.417 0 0 1-.338-.581 2.503 2.503 0 0 1-.12-.783c0-.182.017-.346.052-.492a1.98 1.98 0 0 1 .194-.482 4.5 4.5 0 0 1 .38-.57c.157-.206.35-.438.577-.698l.346-.403a.798.798 0 0 1 .273-.222c.089-.04.234-.058.434-.058.146 0 .285.019.417.058.132.038.198.078.198.12 0 .081-.067.23-.201.444a5.095 5.095 0 0 1-.65.782c-.298.308-.643.61-1.035.906-.087.269-.13.474-.13.615 0 .196.075.294.225.294.055 0 .146-.046.274-.14.127-.093.343-.273.646-.54s.575-.502.817-.707c.178-.155.384-.387.618-.694.235-.308.425-.54.571-.694.337-.356.568-.587.69-.694.124-.107.242-.16.356-.16.11 0 .184.034.222.102.039.068.058.207.058.417a.81.81 0 0 1-.027.232c-.018.06-.056.136-.113.23a13.22 13.22 0 0 1-.345.515l-.615.89c-.128.181-.24.38-.335.597-.096.217-.144.38-.144.489 0 .237.094.356.28.356.156 0 .336-.064.54-.192a12.1 12.1 0 0 0 .944-.69v.458c-.533.492-.927.85-1.183 1.073a5.045 5.045 0 0 1-.663.506 1.03 1.03 0 0 1-.533.17c-.383 0-.574-.227-.574-.683 0-.173.057-.407.17-.7.115-.295.3-.72.554-1.275zm2.1.99v-.444a6.72 6.72 0 0 0 .56-.745.755.755 0 0 1-.318-.184c-.066-.073-.1-.183-.1-.328 0-.164.069-.372.206-.623a3.57 3.57 0 0 1 .506-.704c.2-.218.382-.36.546-.423a.412.412 0 0 1 .185-.048c.091 0 .137.043.137.13 0 .077-.07.234-.212.471.939-.146 1.531-.218 1.777-.218.096 0 .162.009.198.027.078.04.142.137.192.287.05.15.075.3.075.451a.53.53 0 0 1-.126.311 6.21 6.21 0 0 1-.435.489 4.07 4.07 0 0 0-.608.848c-.164.305-.246.535-.246.69 0 .214.132.321.396.321.278 0 .762-.282 1.45-.847v.458c-.379.396-.69.708-.937.936a5.021 5.021 0 0 1-.683.544c-.21.134-.397.201-.561.201-.191 0-.35-.087-.478-.263-.128-.175-.192-.43-.192-.762 0-.196.05-.42.15-.67.1-.25.248-.523.441-.817.194-.294.412-.587.653-.878-.127.027-.27.056-.43.085l-.506.092c-.178.032-.315.057-.41.076a4.93 4.93 0 0 1-1.23 1.538zm4.128-.334v-.164a132.155 132.155 0 0 0 2.427-2.605c.1-.56.342-.84.724-.84.096 0 .199.027.308.081l.041.13a.769.769 0 0 0-.027.233c0 .086.033.247.099.482.066.234.117.431.154.591.036.16.054.34.054.54 0 .3-.068.589-.205.865-.137.275-.335.54-.595.793-.26.253-.594.511-1.004.776.164.027.294.04.39.04.186 0 .388-.046.604-.14.217-.093.438-.218.663-.376.226-.157.49-.36.79-.611v.458c-.583.57-1.105 1.001-1.566 1.295-.46.294-.856.441-1.189.441-.428 0-.825-.182-1.19-.547-.214-.219-.347-.428-.4-.629a3.346 3.346 0 0 1-.078-.813zm2.55-1.046l-.123-.998c-.283.319-.887.932-1.812 1.839.274.059.46.139.56.239.101.1.242.294.425.581.31-.128.548-.302.714-.523.166-.221.25-.523.25-.906a1.99 1.99 0 0 0-.014-.232zm2.94 1.1v.171c0 .27.065.479.197.63.133.15.306.225.52.225.223 0 .455-.053.694-.157.24-.105.477-.244.714-.417.237-.174.527-.406.868-.698v.417c-.515.62-.998 1.095-1.449 1.426-.451.33-.909.495-1.374.495-.405 0-.727-.157-.964-.471-.237-.315-.355-.746-.355-1.292 0-.479.111-.913.335-1.303.223-.39.588-.8 1.094-1.234.346-.296.69-.52 1.032-.67.342-.15.647-.225.916-.225.214 0 .384.049.51.147.124.098.187.245.187.44 0 .288-.107.574-.321.859-.214.285-.541.567-.981.847-.44.28-.981.55-1.624.81zm.068-.444c.41-.16.76-.358 1.052-.595.292-.237.507-.463.646-.68.14-.216.209-.375.209-.475 0-.105-.048-.157-.144-.157-.082 0-.215.052-.4.157a3.298 3.298 0 0 0-.56.41c-.19.169-.359.367-.51.595-.15.228-.248.476-.293.745zm6.193.123v.506c-.953 1.262-1.727 1.894-2.324 1.894-.324 0-.578-.177-.762-.53-.185-.353-.277-.817-.277-1.391 0-.465.11-1.018.328-1.658.219-.64.511-1.29.878-1.948.367-.659.748-1.233 1.142-1.723.394-.49.76-.833 1.097-1.029.137-.082.244-.123.321-.123.096 0 .16.042.192.127.032.084.048.229.048.434 0 .633-.258 1.411-.773 2.334s-1.233 1.865-2.153 2.827c-.046.237-.069.42-.069.547 0 .291.063.528.188.71a.6.6 0 0 0 .523.274.673.673 0 0 0 .37-.133c.132-.089.27-.2.416-.332.146-.132.431-.394.855-.786zm-2.044-1.23c.237-.233.466-.497.687-.793.221-.297.43-.613.626-.95.195-.338.35-.64.461-.91.112-.269.167-.471.167-.608 0-.105-.036-.157-.109-.157-.027 0-.08.025-.157.075-.278.228-.59.673-.937 1.336a7.963 7.963 0 0 0-.738 2.007zm5.79 1.305v.472c-.273.273-.48.472-.622.595a2.987 2.987 0 0 1-.581.376c0 .414-.02.768-.062 1.06a3.509 3.509 0 0 1-.273.919 5.19 5.19 0 0 1-.656 1.056c-.292.378-.579.669-.862.871-.282.203-.503.305-.663.305-.177 0-.341-.146-.492-.438-.15-.291-.225-.654-.225-1.087 0-.414.07-.852.211-1.312.142-.46.36-1.055.657-1.784-.224-.292-.335-.581-.335-.869 0-.232.059-.41.177-.533.119-.123.288-.234.506-.335.16-.25.311-.463.455-.639.143-.175.338-.409.584-.7a28.157 28.157 0 0 1 1.668-3.419c.178-.31.306-.518.383-.625.078-.107.16-.16.246-.16.078 0 .146.056.205.17.06.114.09.262.09.445 0 .223-.025.428-.073.615a3.184 3.184 0 0 1-.205.564 7.952 7.952 0 0 1-.369.68c-.157.264-.254.428-.29.492-.228.401-.486.845-.773 1.333l-.68 1.155c-.166.283-.286.495-.359.636.246.214.441.399.585.554.143.155.267.34.372.554a2.3 2.3 0 0 0 .424-.212 4.67 4.67 0 0 0 .451-.339c.173-.143.342-.277.506-.4zm-2.044 1.832l-.014-.143a1.69 1.69 0 0 1-.307.01 1.843 1.843 0 0 1-.51-.147 3.074 3.074 0 0 0-.187-.082c-.347.848-.52 1.552-.52 2.112 0 .278.042.515.127.711.084.196.183.294.297.294.118 0 .268-.105.448-.314.18-.21.336-.52.468-.93.132-.41.198-.914.198-1.51z" id="Help-yourself" fill="#CF3922" transform="rotate(-15 22.291 17.77)"/></g><g id="sharpie/small" transform="rotate(-105 78.327 -32.537)" stroke-width="1" fill-rule="evenodd"><g id="sharpie"><path id="Barrel" fill="#DBDEDF" fill-rule="nonzero" d="M0 18h9v37.963H0z"/><path d="M0 55.963h9c-.155 0 0 .167 0 0V76.05c0 1.079-.775 1.913-1.8 1.913H1.8c-1.025 0-1.8-.834-1.8-1.913V55.963c0 .167.155 0 0 0z" id="Cap" fill="#4F575A" fill-rule="nonzero"/><rect id="Cap-thing" fill="#393F41" fill-rule="nonzero" x="3" y="61" width="3" height="19" rx="1"/><path d="M0 19v-2C0 15.815 1.402 5.699 2 6h1V3h3v3h1c.598-.301 2 9.815 2 11v2H0z" id="Top" fill="#4F575A"/><path d="M3 1c0-.167 1.29-1 2-1h1v3H3V1z" id="Nib" fill="#393F41" fill-rule="nonzero"/></g><g id="Group-2" transform="translate(0 19)"><mask id="mask-3" fill="#fff"><use xlink:href="#path-2"/></mask><g mask="url(#mask-3)" id="Shape" fill-rule="nonzero" fill="#0C0E0F"><path d="M5.95.014c.758-.065 2.187.086 2.23.8.066 1.062-1.364 1.712-1.819 1.907-.411.108-.78-.152-.498-.52 1.278-.845 1.95-.996 1.581-1.3-.888-.693-4.331.347-4.461 1.018-.065.39.498.672 1.646 1.105 1.56.585 3.162 1.343 2.469 2.75-.628 1.3-2.556 1.668-3.834 1.863C2.29 7.81.275 7.594.08 7.226c-.13-.152-.108-.499.109-.542.433-.065 1.386.585 3.66.13.628-.13 2.252-.758 2.469-1.45.325-1.192-3.769-1.517-4.093-2.86C1.813.772 4.867.1 5.95.014z" transform="rotate(90 -.348 5.652)"/><path d="M9.586.122c.195.26-.325 2.599-.325 2.599.672-.043 1.365-.303 1.582.281.26.737-.802 2.426-.52 2.99 1.256-.13.736-1.907 1.71-3.011.672-.78 1.603-.78 1.863.216.758.152-.693 2.361-.151 2.6.411.194.693-.326.888-.824.108-.325.346-1.04.281-1.386-.346-.065-.563-.282-.433-.606.043-.13.433-.217.672-.217.346-.606.281-.758.693-.801.238-.022.108.476.108.714.715-.13 1.104-.281 1.213.39.108 1.192-.975 2.166-.563 2.773.086-.022.887-.174 1.299-1.755.325-1.32.65-2.924 1.083-2.079.151.282-.152.563-.087.845.022 0 1.061-1.04 1.581-.217.087.174.304 1.3-.13 2.426-.108.325-.498 1.364-1.018 1.516-.65.195-1.191-.672-.455-1.408.347-.173.044.368.13.585.412.996 1.408-2.404.867-2.6-.455-.064-.693.326-.91.716-.91 1.516-.693 4.245-1.04 4.31-.671.151-.671-.282-.39-2.123-.26.065-1.126 1.061-1.624.173-.498-.823 1.04-2.772.498-2.924-.151-.043-.346.044-.476.109-.26.086-.347 1.386-.996 2.447-.455.845-1.386 1.126-1.755.26-.758.628-1.646.996-1.819 0-.52.13-1.105 1.126-1.754.455-.563-.585.281-1.625.498-3.14-.217-.13-.996 0-1.126.26-.13.26-.238 2.902-.65 3.14-.975.563-.325-1.603-.152-2.837-.368-.217-.8-.26-.563-.737.065-.13.585-.065.737-.281.368-.563.39-2.296.758-2.859.065-.173.368-.152.476 0zm2.578 5.761c.714-.108.693-1.018 1.32-2.642-.15-.065-.237-.13-.367-.087-.715.195-1.408 2.1-.953 2.73zm9.789-4.44c.13-.346.433-.541.671-.476.239.086.325.411.173.758-.13.324-.433.541-.67.455-.24-.066-.326-.412-.174-.737zm1.69.888c.78-.217 1.234.758.78 2.036-.477 1.213-1.495 1.408-1.192 1.84.281.412.974.542 1.386.217.281-.216.281-.563.585-1.104.606-.152.216 1.43-.433 1.754-.693.347-1.776.087-2.123-.671-.455 0-1.408.476-1.82-.195-.324-.477-.259-.931.087-1.993.282-.823.802-1.754 1.127-1.71.714.064-.455 1.234-.672 2.598-.108.672.282.715.932.65-.087-.325-.173-.693-.109-1.213.109-.823.563-1.97 1.451-2.209zm-.65 2.816c.93-.867.91-1.798.8-1.971-.086-.022-.13-.022-.194 0-.39.151-.845 1.516-.606 1.97z" transform="rotate(90 -.348 5.652)"/></g></g></g><g id="sharpie/small" transform="translate(107 251)" stroke-width="1" fill-rule="evenodd"><g id="sharpie"><path id="Barrel" fill="#DBDEDF" fill-rule="nonzero" d="M0 18h9v37.963H0z"/><path d="M0 55.963h9c-.155 0 0 .167 0 0V76.05c0 1.079-.775 1.913-1.8 1.913H1.8c-1.025 0-1.8-.834-1.8-1.913V55.963c0 .167.155 0 0 0z" id="Cap" fill="#4F575A" fill-rule="nonzero"/><rect id="Cap-thing" fill="#393F41" fill-rule="nonzero" x="3" y="61" width="3" height="19" rx="1"/><path d="M0 19v-2C0 15.815 1.402 5.699 2 6h1V3h3v3h1c.598-.301 2 9.815 2 11v2H0z" id="Top" fill="#4F575A"/><path d="M3 1c0-.167 1.29-1 2-1h1v3H3V1z" id="Nib" fill="#393F41" fill-rule="nonzero"/></g><g id="Group-2" transform="translate(0 19)"><mask id="mask-5" fill="#fff"><use xlink:href="#path-4"/></mask><g mask="url(#mask-5)" id="Shape" fill-rule="nonzero" fill="#0C0E0F"><path d="M5.95.014c.758-.065 2.187.086 2.23.8.066 1.062-1.364 1.712-1.819 1.907-.411.108-.78-.152-.498-.52 1.278-.845 1.95-.996 1.581-1.3-.888-.693-4.331.347-4.461 1.018-.065.39.498.672 1.646 1.105 1.56.585 3.162 1.343 2.469 2.75-.628 1.3-2.556 1.668-3.834 1.863C2.29 7.81.275 7.594.08 7.226c-.13-.152-.108-.499.109-.542.433-.065 1.386.585 3.66.13.628-.13 2.252-.758 2.469-1.45.325-1.192-3.769-1.517-4.093-2.86C1.813.772 4.867.1 5.95.014z" transform="rotate(90 -.348 5.652)"/><path d="M9.586.122c.195.26-.325 2.599-.325 2.599.672-.043 1.365-.303 1.582.281.26.737-.802 2.426-.52 2.99 1.256-.13.736-1.907 1.71-3.011.672-.78 1.603-.78 1.863.216.758.152-.693 2.361-.151 2.6.411.194.693-.326.888-.824.108-.325.346-1.04.281-1.386-.346-.065-.563-.282-.433-.606.043-.13.433-.217.672-.217.346-.606.281-.758.693-.801.238-.022.108.476.108.714.715-.13 1.104-.281 1.213.39.108 1.192-.975 2.166-.563 2.773.086-.022.887-.174 1.299-1.755.325-1.32.65-2.924 1.083-2.079.151.282-.152.563-.087.845.022 0 1.061-1.04 1.581-.217.087.174.304 1.3-.13 2.426-.108.325-.498 1.364-1.018 1.516-.65.195-1.191-.672-.455-1.408.347-.173.044.368.13.585.412.996 1.408-2.404.867-2.6-.455-.064-.693.326-.91.716-.91 1.516-.693 4.245-1.04 4.31-.671.151-.671-.282-.39-2.123-.26.065-1.126 1.061-1.624.173-.498-.823 1.04-2.772.498-2.924-.151-.043-.346.044-.476.109-.26.086-.347 1.386-.996 2.447-.455.845-1.386 1.126-1.755.26-.758.628-1.646.996-1.819 0-.52.13-1.105 1.126-1.754.455-.563-.585.281-1.625.498-3.14-.217-.13-.996 0-1.126.26-.13.26-.238 2.902-.65 3.14-.975.563-.325-1.603-.152-2.837-.368-.217-.8-.26-.563-.737.065-.13.585-.065.737-.281.368-.563.39-2.296.758-2.859.065-.173.368-.152.476 0zm2.578 5.761c.714-.108.693-1.018 1.32-2.642-.15-.065-.237-.13-.367-.087-.715.195-1.408 2.1-.953 2.73zm9.789-4.44c.13-.346.433-.541.671-.476.239.086.325.411.173.758-.13.324-.433.541-.67.455-.24-.066-.326-.412-.174-.737zm1.69.888c.78-.217 1.234.758.78 2.036-.477 1.213-1.495 1.408-1.192 1.84.281.412.974.542 1.386.217.281-.216.281-.563.585-1.104.606-.152.216 1.43-.433 1.754-.693.347-1.776.087-2.123-.671-.455 0-1.408.476-1.82-.195-.324-.477-.259-.931.087-1.993.282-.823.802-1.754 1.127-1.71.714.064-.455 1.234-.672 2.598-.108.672.282.715.932.65-.087-.325-.173-.693-.109-1.213.109-.823.563-1.97 1.451-2.209zm-.65 2.816c.93-.867.91-1.798.8-1.971-.086-.022-.13-.022-.194 0-.39.151-.845 1.516-.606 1.97z" transform="rotate(90 -.348 5.652)"/></g></g></g><g id="sharpie/small-red" transform="translate(88 251)" stroke-width="1" fill-rule="evenodd"><g id="sharpie"><path id="Barrel" fill="#DBDEDF" fill-rule="nonzero" d="M0 18h9v37.963H0z"/><path d="M0 55.963h9c-.155 0 0 .167 0 0V76.05c0 1.079-.775 1.913-1.8 1.913H1.8c-1.025 0-1.8-.834-1.8-1.913V55.963c0 .167.155 0 0 0z" id="Cap" fill="#CF3922" fill-rule="nonzero"/><rect id="Cap-thing" fill="#80281B" fill-rule="nonzero" x="3" y="61" width="3" height="19" rx="1"/><path d="M0 19v-2C0 15.815 1.402 5.699 2 6h1V3h3v3h1c.598-.301 2 9.815 2 11v2H0z" id="Top" fill="#CF3922"/><path d="M3 1c0-.167 1.29-1 2-1h1v3H3V1z" id="Nib" fill="#80281B" fill-rule="nonzero"/></g><g id="Group-2" transform="translate(0 19)"><mask id="mask-7" fill="#fff"><use xlink:href="#path-6"/></mask><g mask="url(#mask-7)" id="Shape" fill-rule="nonzero" fill="#0C0E0F"><path d="M5.95.014c.758-.065 2.187.086 2.23.8.066 1.062-1.364 1.712-1.819 1.907-.411.108-.78-.152-.498-.52 1.278-.845 1.95-.996 1.581-1.3-.888-.693-4.331.347-4.461 1.018-.065.39.498.672 1.646 1.105 1.56.585 3.162 1.343 2.469 2.75-.628 1.3-2.556 1.668-3.834 1.863C2.29 7.81.275 7.594.08 7.226c-.13-.152-.108-.499.109-.542.433-.065 1.386.585 3.66.13.628-.13 2.252-.758 2.469-1.45.325-1.192-3.769-1.517-4.093-2.86C1.813.772 4.867.1 5.95.014z" transform="rotate(90 1.152 7.152)"/><path d="M9.586.122c.195.26-.325 2.599-.325 2.599.672-.043 1.365-.303 1.582.281.26.737-.802 2.426-.52 2.99 1.256-.13.736-1.907 1.71-3.011.672-.78 1.603-.78 1.863.216.758.152-.693 2.361-.151 2.6.411.194.693-.326.888-.824.108-.325.346-1.04.281-1.386-.346-.065-.563-.282-.433-.606.043-.13.433-.217.672-.217.346-.606.281-.758.693-.801.238-.022.108.476.108.714.715-.13 1.104-.281 1.213.39.108 1.192-.975 2.166-.563 2.773.086-.022.887-.174 1.299-1.755.325-1.32.65-2.924 1.083-2.079.151.282-.152.563-.087.845.022 0 1.061-1.04 1.581-.217.087.174.304 1.3-.13 2.426-.108.325-.498 1.364-1.018 1.516-.65.195-1.191-.672-.455-1.408.347-.173.044.368.13.585.412.996 1.408-2.404.867-2.6-.455-.064-.693.326-.91.716-.91 1.516-.693 4.245-1.04 4.31-.671.151-.671-.282-.39-2.123-.26.065-1.126 1.061-1.624.173-.498-.823 1.04-2.772.498-2.924-.151-.043-.346.044-.476.109-.26.086-.347 1.386-.996 2.447-.455.845-1.386 1.126-1.755.26-.758.628-1.646.996-1.819 0-.52.13-1.105 1.126-1.754.455-.563-.585.281-1.625.498-3.14-.217-.13-.996 0-1.126.26-.13.26-.238 2.902-.65 3.14-.975.563-.325-1.603-.152-2.837-.368-.217-.8-.26-.563-.737.065-.13.585-.065.737-.281.368-.563.39-2.296.758-2.859.065-.173.368-.152.476 0zm2.578 5.761c.714-.108.693-1.018 1.32-2.642-.15-.065-.237-.13-.367-.087-.715.195-1.408 2.1-.953 2.73zm9.789-4.44c.13-.346.433-.541.671-.476.239.086.325.411.173.758-.13.324-.433.541-.67.455-.24-.066-.326-.412-.174-.737zm1.69.888c.78-.217 1.234.758.78 2.036-.477 1.213-1.495 1.408-1.192 1.84.281.412.974.542 1.386.217.281-.216.281-.563.585-1.104.606-.152.216 1.43-.433 1.754-.693.347-1.776.087-2.123-.671-.455 0-1.408.476-1.82-.195-.324-.477-.259-.931.087-1.993.282-.823.802-1.754 1.127-1.71.714.064-.455 1.234-.672 2.598-.108.672.282.715.932.65-.087-.325-.173-.693-.109-1.213.109-.823.563-1.97 1.451-2.209zm-.65 2.816c.93-.867.91-1.798.8-1.971-.086-.022-.13-.022-.194 0-.39.151-.845 1.516-.606 1.97z" transform="rotate(90 1.152 7.152)"/></g></g></g><g id="coffee/mug/dark" transform="translate(381 260)" stroke-width="1" fill-rule="evenodd"><g id="Group" transform="translate(11.429 11.429)"><g id="Group-2" transform="rotate(45 -28.879 85.058)"><path d="M0 9.524V0h7.959c1.162 0 3.5.818 3.5.818.404.133.731.67.731 1.193v5.501c0 .527-.33 1.065-.736 1.196 0 0-2.321.816-3.495.816H0z" id="handle" fill="#4D4D4D"/><path d="M6.646 0H0v9.524h6.646-1.313V0h1.313zm4.02.562c.469.142.794.256.794.256.403.133.73.67.73 1.193v5.501c0 .527-.33 1.065-.736 1.196 0 0-.322.114-.787.256V.562z" id="hadle-shadow" fill="#393F41"/></g><g id="cup"><circle id="outer-cup" fill="#4D4D4D" cx="28.571" cy="28.571" r="28.571"/><circle id="inner-rim" fill="#393F41" cx="28.571" cy="28.571" r="25.524"/><circle id="coffee" fill="#B27738" cx="28.571" cy="28.571" r="24"/><path d="M27.359 9.905c8.344.043 13.863.77 18.093 8.505 4.625 8.46 1.795 16.962-7.998 19.61-17.98 4.865-24.773-23.18-6.44-23.262 21.702-.096 2.121 31.535-6.697 14.236-2.591-5.08 1.737-12.797 7.945-10.145 10.564 4.511-2.244 12.694-3.547 9.388.102.258 6.718-2.505 5.597-4.713-1.064-2.095-7.115-.696-7.802 1.64-2.178 7.412 10.742 8.388 11.663.187 1.116-9.941-13.18-10.929-16.607-2.993-2.921 6.766 2.695 13.24 9.263 14.416 20.283 3.629 18.104-25.641-.464-24.736-9.408.458-15.259 7.624-14.203 16.719 1.114 9.602 5.386 12.576 12.812 18.862-11.68-5.238-20.231-7.914-18.94-20.234 1.008-9.623 7.02-16.856 17.325-17.48" id="coffee-swirl" fill-opacity=".1" fill="#FFF"/><path d="M15.841 48.92c-6.769-4.243-11.27-11.77-11.27-20.349 0-13.254 10.746-24 24-24 8.579 0 16.106 4.501 20.35 11.27a23.888 23.888 0 0 0-12.73-3.65c-13.255 0-24 10.745-24 24a23.89 23.89 0 0 0 3.65 12.73z" id="coffee-shadow-deep" fill-opacity=".4" fill="#393F41"/></g></g></g><g id="coffee" transform="translate(14 3)"><path d="M21.948 19.972L17.172 9.959a.876.876 0 0 1 .321-1.197l6.26-3.615a.876.876 0 0 1 1.198.32l6.309 9.184c11.127-3.534 23.598.997 29.675 11.523 7.016 12.154 2.851 27.696-9.303 34.714-12.154 7.017-27.694 2.854-34.71-9.3-6.117-10.595-3.736-23.763 5.026-31.616z" id="mug" stroke="#0097BA" stroke-width="1" fill="#00A9D0" fill-rule="evenodd"/><circle id="inner-mug" fill="#FBFBFB" fill-rule="nonzero" cx="39" cy="39" r="24.362"/><circle id="drink" fill="#694620" fill-rule="nonzero" cx="39" cy="39" r="22.161"/><path d="M38.66 22c7.965.041 13.234.735 17.271 8.119 4.416 8.075 1.714 16.191-7.634 18.719-17.163 4.643-23.647-22.127-6.148-22.205 20.717-.092 2.026 30.101-6.392 13.589-2.473-4.849 1.658-12.216 7.584-9.684 10.084 4.306-2.142 12.117-3.386 8.961.098.246 6.413-2.391 5.342-4.499-1.015-2-6.79-.664-7.446 1.566-2.08 7.075 10.254 8.006 11.132.178 1.066-9.489-12.581-10.432-15.851-2.857-2.79 6.459 2.571 12.639 8.841 13.761 19.361 3.464 17.281-24.476-.443-23.612-8.98.437-14.565 7.278-13.557 15.959C29.036 49.161 33.114 52 40.203 58c-11.15-5-19.312-7.554-18.08-19.314.963-9.186 6.702-16.09 16.538-16.686" id="swirl" fill-opacity=".1" fill="#FFF" fill-rule="evenodd"/><path d="M43.715 21.554c-12.24 0-22.16 9.922-22.16 22.161 0 4.917 1.603 9.457 4.312 13.133-5.475-4.035-9.028-10.525-9.028-17.848 0-12.24 9.922-22.161 22.161-22.161 7.323 0 13.813 3.553 17.848 9.028a22.057 22.057 0 0 0-13.133-4.313z" id="shadow" fill-opacity=".4" fill="#393F41" fill-rule="evenodd"/></g><g id="notebook" transform="translate(0 241)" fill-rule="evenodd"><path d="M0 .75h65c5.523 0 10 4.477 10 10v77.5c0 5.523-4.477 10-10 10H0V.75z" id="Rectangle-21" fill="#4D4D4D"/><path id="Rectangle" fill="#484A4A" d="M4.125.75h1.5v97.5h-1.5z"/><path id="Rectangle" fill="#393F41" d="M56.25 0h7.5v99h-7.5z"/><path id="Rectangle" fill-opacity=".1" fill="#000" d="M57 0h1v99h-1z"/><path id="Rectangle-Copy" fill-opacity=".1" fill="#000" d="M58.5 0h1v99h-1z"/><path id="Rectangle-Copy-2" fill-opacity=".1" fill="#000" d="M60 0h1v99h-1z"/><path id="Rectangle-Copy-3" fill-opacity=".1" fill="#000" d="M61.5 0h1v99h-1z"/><path id="Rectangle-Copy-4" fill-opacity=".1" fill="#000" d="M63 0h1v99h-1z"/></g></g></g></g></g></svg>