<svg width="60" height="60" viewBox="0 0 60 60" version="1.1" xmlns="http://www.w3.org/2000/svg"><g id="Symbols" stroke="none" stroke-width="1" fill="none" fill-rule="evenodd"><g id="illustration/design/drink-swirl"><path d="M29 12c7.625.041 12.894.735 17 8 4.347 8.194 1.645 16.31-8 19-16.866 4.481-23.35-22.289-6-22 20.866-.459 2.175 29.734-6 13-2.716-4.627 1.415-11.994 7-9 10.425 3.844-1.801 11.655-3 8 .053.745 6.368-1.892 5-4-.718-2-6.494-.664-7 2-2.229 6.641 10.105 7.572 11 0 1.049-9.745-12.598-10.688-16-3-2.657 6.346 2.703 12.526 9 14 19.334 3.112 17.254-24.828 0-24-9.45.473-15.035 7.314-14 16 1.036 9.161 5.114 12 12 18-10.947-5-19.11-7.554-18-19 1.086-9.5 6.825-16.404 17-17" id="swirl" fill-opacity=".1" fill="#FFF"/></g></g></svg>