<svg width="9" height="80" viewBox="0 0 9 80" version="1.1" xmlns="http://www.w3.org/2000/svg" xmlns:xlink="http://www.w3.org/1999/xlink"><defs><path id="path-1" d="M0 19h9v37H0z"/></defs><g id="Symbols" stroke="none" stroke-width="1" fill="none" fill-rule="evenodd"><g id="illustration/design/sharpie/black"><g id="pen"><path id="barrel" fill="#DBDEDF" fill-rule="nonzero" d="M0 18h9v37.963H0z"/><path d="M0 55.963h9c-.155 0 0 .167 0 0V76.05c0 1.079-.775 1.913-1.8 1.913H1.8c-1.025 0-1.8-.834-1.8-1.913V55.963c0 .167.155 0 0 0z" id="cap" fill="#4F575A" fill-rule="nonzero"/><rect id="cap-thing" fill="#393F41" fill-rule="nonzero" x="3" y="61" width="3" height="19" rx="1"/><path d="M0 19v-2C0 15.815 1.402 5.699 2 6h1V3h3v3h1c.598-.301 2 9.815 2 11v2H0z" id="top" fill="#4F575A"/><path d="M3 1c0-.167 1.29-1 2-1h1v3H3V1z" id="nib" fill="#393F41" fill-rule="nonzero"/></g><mask id="mask-2" fill="#fff"><use xlink:href="#path-1"/></mask><path d="M4.536 34.438c-.26.194-2.599-.325-2.599-.325.044.671.304 1.364-.281 1.58-.737.26-2.426-.8-2.989-.519.13 1.256 1.906.736 3.01 1.711.78.672.78 1.603-.216 1.863-.152.758-2.36-.693-2.599-.152-.195.412.325.693.823.888.325.108 1.04.347 1.386.282.065-.347.282-.563.607-.434.13.044.216.434.216.672.607.346.758.281.801.693.022.238-.476.108-.714.108.13.715.281 1.105-.39 1.213-1.191.108-2.166-.975-2.772-.563.021.086.173.888 1.754 1.3 1.321.324 2.924.65 2.08 1.082-.282.152-.564-.152-.846-.087 0 .022 1.04 1.062.217 1.582-.173.086-1.3.303-2.426-.13-.325-.109-1.364-.499-1.516-1.018-.195-.65.672-1.192 1.408-.455.173.346-.368.043-.585.13-.996.411 2.404 1.407 2.6.866.064-.455-.326-.693-.715-.91-1.517-.91-4.245-.693-4.31-1.04-.152-.67.281-.67 2.122-.39-.065-.26-1.061-1.125-.173-1.623.823-.499 2.772 1.039 2.924.498.043-.152-.044-.347-.109-.477-.086-.26-1.386-.346-2.447-.996-.845-.455-1.126-1.386-.26-1.754-.628-.758-.996-1.646 0-1.82-.13-.52-1.126-1.104-.455-1.754.585-.563 1.625.282 3.14.498.13-.216 0-.996-.26-1.126-.26-.13-2.901-.238-3.14-.65-.563-.974 1.603-.325 2.837-.151.217-.368.26-.802.737-.563.13.065.065.584.281.736.563.368 2.296.39 2.86.758.173.065.15.368 0 .477zm-5.76 2.577c.107.715 1.017.693 2.641 1.321.065-.151.13-.238.087-.368-.195-.715-2.1-1.408-2.729-.953zm4.44 9.79c.346.13.54.433.476.67-.087.239-.412.325-.758.174-.325-.13-.542-.433-.455-.671.065-.239.411-.325.736-.174zm-.889 1.689c.217.78-.758 1.234-2.036.78-1.212-.477-1.407-1.495-1.84-1.192-.412.281-.542.975-.217 1.386.216.282.563.282 1.104.585.152.606-1.43.217-1.754-.433-.346-.693-.087-1.776.672-2.123 0-.454-.477-1.407.194-1.819.477-.325.931-.26 1.993.087.823.281 1.754.801 1.711 1.126-.065.715-1.235-.455-2.599-.671-.671-.108-.715.281-.65.931.325-.087.693-.173 1.213-.108.823.108 1.97.563 2.21 1.45zm-2.815-.65c.866.931 1.797.91 1.97.801.022-.087.022-.13 0-.195-.151-.39-1.516-.844-1.97-.606zM4.645 30.8c.064.758-.087 2.188-.802 2.23-1.06.066-1.71-1.364-1.906-1.818-.108-.412.152-.78.52-.499.845 1.278.996 1.95 1.3 1.581.693-.887-.347-4.331-1.018-4.461-.39-.065-.672.498-1.105 1.646-.584 1.56-1.342 3.162-2.75 2.469-1.3-.628-1.668-2.556-1.863-3.833-.173-.975.043-2.99.412-3.184.151-.13.498-.109.541.108.065.433-.585 1.386-.13 3.66.13.628.758 2.253 1.451 2.47 1.191.324 1.516-3.77 2.859-4.094 1.733-.412 2.404 2.642 2.49 3.725z" id="logo" fill="#0C0E0F" fill-rule="nonzero" mask="url(#mask-2)"/></g></g></svg>