<svg width="425" height="315" viewBox="0 0 425 315" version="1.1" xmlns="http://www.w3.org/2000/svg" xmlns:xlink="http://www.w3.org/1999/xlink" preserveAspectRatio="xMidYMid slice"><defs><path d="M0 0h294v193a5 5 0 0 1-5 5H5a5 5 0 0 1-5-5V0z" id="path-1"/><path id="path-2" d="M0 0h9v37H0z"/><path id="path-4" d="M0 0h9v37H0z"/><path id="path-6" d="M0 0h9v37H0z"/><path id="path-8" d="M0 0h9v37H0z"/></defs><g id="Page-1" stroke="none" stroke-width="1" fill="none" fill-rule="evenodd"><g id="Desktop" transform="translate(-139 -1132)"><g id="2---Design" transform="translate(-1 1060)"><g id="Design-with-paper-and-people" transform="translate(115 70)"><path d="M64.614 84.673h294v193a5 5 0 0 1-5 5h-284a5 5 0 0 1-5-5v-193z" id="Rectangle" fill-opacity=".1" fill="#000" fill-rule="evenodd" transform="rotate(-15 211.614 183.673)"/><g transform="rotate(-15 445.81 -37.9)" id="doughnuts" stroke-width="1" fill-rule="evenodd"><g id="Rectangle"><use fill="#FFF" fill-rule="evenodd" xlink:href="#path-1"/><path stroke="#DBDEDF" stroke-width="1" d="M.5.5V193a4.5 4.5 0 0 0 4.5 4.5h284a4.5 4.5 0 0 0 4.5-4.5V.5H.5z"/></g><g id="dots" transform="translate(12 12)" fill="#007550"><circle id="Oval-2" cx="3" cy="3" r="3"/><circle id="Oval-2-Copy-90" cx="3" cy="51" r="3"/><circle id="Oval-2-Copy-180" cx="3" cy="99" r="3"/><circle id="Oval-2-Copy-23" cx="3" cy="27" r="3"/><circle id="Oval-2-Copy-91" cx="3" cy="75" r="3"/><circle id="Oval-2-Copy-181" cx="3" cy="123" r="3"/><circle id="Oval-2-Copy-270" cx="3" cy="147" r="3"/><circle id="Oval-2-Copy-293" cx="3" cy="171" r="3"/><circle id="Oval-2-Copy-8" cx="99" cy="3" r="3"/><circle id="Oval-2-Copy-92" cx="99" cy="51" r="3"/><circle id="Oval-2-Copy-182" cx="99" cy="99" r="3"/><circle id="Oval-2-Copy-46" cx="99" cy="27" r="3"/><circle id="Oval-2-Copy-93" cx="99" cy="75" r="3"/><circle id="Oval-2-Copy-183" cx="99" cy="123" r="3"/><circle id="Oval-2-Copy-271" cx="99" cy="147" r="3"/><circle id="Oval-2-Copy-294" cx="99" cy="171" r="3"/><circle id="Oval-2-Copy-24" cx="93" cy="15" r="3"/><circle id="Oval-2-Copy-94" cx="93" cy="63" r="3"/><circle id="Oval-2-Copy-184" cx="93" cy="111" r="3"/><circle id="Oval-2-Copy-47" cx="93" cy="39" r="3"/><circle id="Oval-2-Copy-95" cx="93" cy="87" r="3"/><circle id="Oval-2-Copy-185" cx="93" cy="135" r="3"/><circle id="Oval-2-Copy-295" cx="93" cy="159" r="3"/><circle id="Oval-2-Copy-4" cx="51" cy="3" r="3"/><circle id="Oval-2-Copy-96" cx="51" cy="51" r="3"/><circle id="Oval-2-Copy-186" cx="51" cy="99" r="3"/><circle id="Oval-2-Copy-48" cx="51" cy="27" r="3"/><circle id="Oval-2-Copy-97" cx="51" cy="75" r="3"/><circle id="Oval-2-Copy-187" cx="51" cy="123" r="3"/><circle id="Oval-2-Copy-272" cx="51" cy="147" r="3"/><circle id="Oval-2-Copy-296" cx="51" cy="171" r="3"/><circle id="Oval-2-Copy-25" cx="45" cy="15" r="3"/><circle id="Oval-2-Copy-98" cx="45" cy="63" r="3"/><circle id="Oval-2-Copy-188" cx="45" cy="111" r="3"/><circle id="Oval-2-Copy-49" cx="45" cy="39" r="3"/><circle id="Oval-2-Copy-99" cx="45" cy="87" r="3"/><circle id="Oval-2-Copy-189" cx="45" cy="135" r="3"/><circle id="Oval-2-Copy-297" cx="45" cy="159" r="3"/><circle id="Oval-2-Copy-9" cx="147" cy="3" r="3"/><circle id="Oval-2-Copy-100" cx="147" cy="51" r="3"/><circle id="Oval-2-Copy-190" cx="147" cy="99" r="3"/><circle id="Oval-2-Copy-50" cx="147" cy="27" r="3"/><circle id="Oval-2-Copy-101" cx="147" cy="75" r="3"/><circle id="Oval-2-Copy-191" cx="147" cy="123" r="3"/><circle id="Oval-2-Copy-273" cx="147" cy="147" r="3"/><circle id="Oval-2-Copy-298" cx="147" cy="171" r="3"/><circle id="Oval-2-Copy-26" cx="141" cy="15" r="3"/><circle id="Oval-2-Copy-102" cx="141" cy="63" r="3"/><circle id="Oval-2-Copy-192" cx="141" cy="111" r="3"/><circle id="Oval-2-Copy-51" cx="141" cy="39" r="3"/><circle id="Oval-2-Copy-103" cx="141" cy="87" r="3"/><circle id="Oval-2-Copy-193" cx="141" cy="135" r="3"/><circle id="Oval-2-Copy-299" cx="141" cy="159" r="3"/><circle id="Oval-2-Copy-16" cx="231" cy="3" r="3"/><circle id="Oval-2-Copy-104" cx="231" cy="51" r="3"/><circle id="Oval-2-Copy-194" cx="231" cy="99" r="3"/><circle id="Oval-2-Copy-52" cx="231" cy="27" r="3"/><circle id="Oval-2-Copy-105" cx="231" cy="75" r="3"/><circle id="Oval-2-Copy-195" cx="231" cy="123" r="3"/><circle id="Oval-2-Copy-274" cx="231" cy="147" r="3"/><circle id="Oval-2-Copy-300" cx="231" cy="171" r="3"/><circle id="Oval-2-Copy-27" cx="225" cy="15" r="3"/><circle id="Oval-2-Copy-106" cx="225" cy="63" r="3"/><circle id="Oval-2-Copy-196" cx="225" cy="111" r="3"/><circle id="Oval-2-Copy-53" cx="225" cy="39" r="3"/><circle id="Oval-2-Copy-107" cx="225" cy="87" r="3"/><circle id="Oval-2-Copy-197" cx="225" cy="135" r="3"/><circle id="Oval-2-Copy-301" cx="225" cy="159" r="3"/><circle id="Oval-2-Copy-2" cx="27" cy="3" r="3"/><circle id="Oval-2-Copy-108" cx="27" cy="51" r="3"/><circle id="Oval-2-Copy-198" cx="27" cy="99" r="3"/><circle id="Oval-2-Copy-54" cx="27" cy="27" r="3"/><circle id="Oval-2-Copy-109" cx="27" cy="75" r="3"/><circle id="Oval-2-Copy-199" cx="27" cy="123" r="3"/><circle id="Oval-2-Copy-275" cx="27" cy="147" r="3"/><circle id="Oval-2-Copy-302" cx="27" cy="171" r="3"/><circle id="Oval-2-Copy-28" cx="21" cy="15" r="3"/><circle id="Oval-2-Copy-110" cx="21" cy="63" r="3"/><circle id="Oval-2-Copy-200" cx="21" cy="111" r="3"/><circle id="Oval-2-Copy-55" cx="21" cy="39" r="3"/><circle id="Oval-2-Copy-111" cx="21" cy="87" r="3"/><circle id="Oval-2-Copy-201" cx="21" cy="135" r="3"/><circle id="Oval-2-Copy-303" cx="21" cy="159" r="3"/><circle id="Oval-2-Copy-10" cx="123" cy="3" r="3"/><circle id="Oval-2-Copy-112" cx="123" cy="51" r="3"/><circle id="Oval-2-Copy-202" cx="123" cy="99" r="3"/><circle id="Oval-2-Copy-56" cx="123" cy="27" r="3"/><circle id="Oval-2-Copy-113" cx="123" cy="75" r="3"/><circle id="Oval-2-Copy-203" cx="123" cy="123" r="3"/><circle id="Oval-2-Copy-276" cx="123" cy="147" r="3"/><circle id="Oval-2-Copy-304" cx="123" cy="171" r="3"/><circle id="Oval-2-Copy-29" cx="117" cy="15" r="3"/><circle id="Oval-2-Copy-114" cx="117" cy="63" r="3"/><circle id="Oval-2-Copy-204" cx="117" cy="111" r="3"/><circle id="Oval-2-Copy-57" cx="117" cy="39" r="3"/><circle id="Oval-2-Copy-115" cx="117" cy="87" r="3"/><circle id="Oval-2-Copy-205" cx="117" cy="135" r="3"/><circle id="Oval-2-Copy-305" cx="117" cy="159" r="3"/><circle id="Oval-2-Copy-17" cx="207" cy="3" r="3"/><circle id="Oval-2-Copy-116" cx="207" cy="51" r="3"/><circle id="Oval-2-Copy-206" cx="207" cy="99" r="3"/><circle id="Oval-2-Copy-58" cx="207" cy="27" r="3"/><circle id="Oval-2-Copy-117" cx="207" cy="75" r="3"/><circle id="Oval-2-Copy-207" cx="207" cy="123" r="3"/><circle id="Oval-2-Copy-277" cx="207" cy="147" r="3"/><circle id="Oval-2-Copy-306" cx="207" cy="171" r="3"/><circle id="Oval-2-Copy-30" cx="201" cy="15" r="3"/><circle id="Oval-2-Copy-118" cx="201" cy="63" r="3"/><circle id="Oval-2-Copy-208" cx="201" cy="111" r="3"/><circle id="Oval-2-Copy-59" cx="201" cy="39" r="3"/><circle id="Oval-2-Copy-119" cx="201" cy="87" r="3"/><circle id="Oval-2-Copy-209" cx="201" cy="135" r="3"/><circle id="Oval-2-Copy-307" cx="201" cy="159" r="3"/><circle id="Oval-2-Copy-5" cx="75" cy="3" r="3"/><circle id="Oval-2-Copy-120" cx="75" cy="51" r="3"/><circle id="Oval-2-Copy-210" cx="75" cy="99" r="3"/><circle id="Oval-2-Copy-60" cx="75" cy="27" r="3"/><circle id="Oval-2-Copy-121" cx="75" cy="75" r="3"/><circle id="Oval-2-Copy-211" cx="75" cy="123" r="3"/><circle id="Oval-2-Copy-278" cx="75" cy="147" r="3"/><circle id="Oval-2-Copy-308" cx="75" cy="171" r="3"/><circle id="Oval-2-Copy-31" cx="69" cy="15" r="3"/><circle id="Oval-2-Copy-122" cx="69" cy="63" r="3"/><circle id="Oval-2-Copy-212" cx="69" cy="111" r="3"/><circle id="Oval-2-Copy-61" cx="69" cy="39" r="3"/><circle id="Oval-2-Copy-123" cx="69" cy="87" r="3"/><circle id="Oval-2-Copy-213" cx="69" cy="135" r="3"/><circle id="Oval-2-Copy-309" cx="69" cy="159" r="3"/><circle id="Oval-2-Copy-11" cx="171" cy="3" r="3"/><circle id="Oval-2-Copy-124" cx="171" cy="51" r="3"/><circle id="Oval-2-Copy-214" cx="171" cy="99" r="3"/><circle id="Oval-2-Copy-62" cx="171" cy="27" r="3"/><circle id="Oval-2-Copy-125" cx="171" cy="75" r="3"/><circle id="Oval-2-Copy-215" cx="171" cy="123" r="3"/><circle id="Oval-2-Copy-279" cx="171" cy="147" r="3"/><circle id="Oval-2-Copy-310" cx="171" cy="171" r="3"/><circle id="Oval-2-Copy-32" cx="165" cy="15" r="3"/><circle id="Oval-2-Copy-126" cx="165" cy="63" r="3"/><circle id="Oval-2-Copy-216" cx="165" cy="111" r="3"/><circle id="Oval-2-Copy-63" cx="165" cy="39" r="3"/><circle id="Oval-2-Copy-127" cx="165" cy="87" r="3"/><circle id="Oval-2-Copy-217" cx="165" cy="135" r="3"/><circle id="Oval-2-Copy-311" cx="165" cy="159" r="3"/><circle id="Oval-2-Copy-18" cx="255" cy="3" r="3"/><circle id="Oval-2-Copy-128" cx="255" cy="51" r="3"/><circle id="Oval-2-Copy-218" cx="255" cy="99" r="3"/><circle id="Oval-2-Copy-64" cx="255" cy="27" r="3"/><circle id="Oval-2-Copy-129" cx="255" cy="75" r="3"/><circle id="Oval-2-Copy-219" cx="255" cy="123" r="3"/><circle id="Oval-2-Copy-280" cx="255" cy="147" r="3"/><circle id="Oval-2-Copy-312" cx="255" cy="171" r="3"/><circle id="Oval-2-Copy-33" cx="249" cy="15" r="3"/><circle id="Oval-2-Copy-130" cx="249" cy="63" r="3"/><circle id="Oval-2-Copy-220" cx="249" cy="111" r="3"/><circle id="Oval-2-Copy-65" cx="249" cy="39" r="3"/><circle id="Oval-2-Copy-131" cx="249" cy="87" r="3"/><circle id="Oval-2-Copy-221" cx="249" cy="135" r="3"/><circle id="Oval-2-Copy-313" cx="249" cy="159" r="3"/><circle id="Oval-2-Copy" cx="15" cy="3" r="3"/><circle id="Oval-2-Copy-132" cx="15" cy="51" r="3"/><circle id="Oval-2-Copy-222" cx="15" cy="99" r="3"/><circle id="Oval-2-Copy-66" cx="15" cy="27" r="3"/><circle id="Oval-2-Copy-133" cx="15" cy="75" r="3"/><circle id="Oval-2-Copy-223" cx="15" cy="123" r="3"/><circle id="Oval-2-Copy-281" cx="15" cy="147" r="3"/><circle id="Oval-2-Copy-314" cx="15" cy="171" r="3"/><circle id="Oval-2-Copy-34" cx="9" cy="15" r="3"/><circle id="Oval-2-Copy-134" cx="9" cy="63" r="3"/><circle id="Oval-2-Copy-224" cx="9" cy="111" r="3"/><circle id="Oval-2-Copy-67" cx="9" cy="39" r="3"/><circle id="Oval-2-Copy-135" cx="9" cy="87" r="3"/><circle id="Oval-2-Copy-225" cx="9" cy="135" r="3"/><circle id="Oval-2-Copy-315" cx="9" cy="159" r="3"/><circle id="Oval-2-Copy-12" cx="111" cy="3" r="3"/><circle id="Oval-2-Copy-136" cx="111" cy="51" r="3"/><circle id="Oval-2-Copy-226" cx="111" cy="99" r="3"/><circle id="Oval-2-Copy-68" cx="111" cy="27" r="3"/><circle id="Oval-2-Copy-137" cx="111" cy="75" r="3"/><circle id="Oval-2-Copy-227" cx="111" cy="123" r="3"/><circle id="Oval-2-Copy-282" cx="111" cy="147" r="3"/><circle id="Oval-2-Copy-316" cx="111" cy="171" r="3"/><circle id="Oval-2-Copy-35" cx="105" cy="15" r="3"/><circle id="Oval-2-Copy-138" cx="105" cy="63" r="3"/><circle id="Oval-2-Copy-228" cx="105" cy="111" r="3"/><circle id="Oval-2-Copy-69" cx="105" cy="39" r="3"/><circle id="Oval-2-Copy-139" cx="105" cy="87" r="3"/><circle id="Oval-2-Copy-229" cx="105" cy="135" r="3"/><circle id="Oval-2-Copy-317" cx="105" cy="159" r="3"/><circle id="Oval-2-Copy-19" cx="195" cy="3" r="3"/><circle id="Oval-2-Copy-140" cx="195" cy="51" r="3"/><circle id="Oval-2-Copy-230" cx="195" cy="99" r="3"/><circle id="Oval-2-Copy-70" cx="195" cy="27" r="3"/><circle id="Oval-2-Copy-141" cx="195" cy="75" r="3"/><circle id="Oval-2-Copy-231" cx="195" cy="123" r="3"/><circle id="Oval-2-Copy-283" cx="195" cy="147" r="3"/><circle id="Oval-2-Copy-318" cx="195" cy="171" r="3"/><circle id="Oval-2-Copy-36" cx="189" cy="15" r="3"/><circle id="Oval-2-Copy-142" cx="189" cy="63" r="3"/><circle id="Oval-2-Copy-232" cx="189" cy="111" r="3"/><circle id="Oval-2-Copy-71" cx="189" cy="39" r="3"/><circle id="Oval-2-Copy-143" cx="189" cy="87" r="3"/><circle id="Oval-2-Copy-233" cx="189" cy="135" r="3"/><circle id="Oval-2-Copy-319" cx="189" cy="159" r="3"/><circle id="Oval-2-Copy-6" cx="63" cy="3" r="3"/><circle id="Oval-2-Copy-144" cx="63" cy="51" r="3"/><circle id="Oval-2-Copy-234" cx="63" cy="99" r="3"/><circle id="Oval-2-Copy-72" cx="63" cy="27" r="3"/><circle id="Oval-2-Copy-145" cx="63" cy="75" r="3"/><circle id="Oval-2-Copy-235" cx="63" cy="123" r="3"/><circle id="Oval-2-Copy-284" cx="63" cy="147" r="3"/><circle id="Oval-2-Copy-320" cx="63" cy="171" r="3"/><circle id="Oval-2-Copy-37" cx="57" cy="15" r="3"/><circle id="Oval-2-Copy-146" cx="57" cy="63" r="3"/><circle id="Oval-2-Copy-236" cx="57" cy="111" r="3"/><circle id="Oval-2-Copy-73" cx="57" cy="39" r="3"/><circle id="Oval-2-Copy-147" cx="57" cy="87" r="3"/><circle id="Oval-2-Copy-237" cx="57" cy="135" r="3"/><circle id="Oval-2-Copy-321" cx="57" cy="159" r="3"/><circle id="Oval-2-Copy-13" cx="159" cy="3" r="3"/><circle id="Oval-2-Copy-148" cx="159" cy="51" r="3"/><circle id="Oval-2-Copy-238" cx="159" cy="99" r="3"/><circle id="Oval-2-Copy-74" cx="159" cy="27" r="3"/><circle id="Oval-2-Copy-149" cx="159" cy="75" r="3"/><circle id="Oval-2-Copy-239" cx="159" cy="123" r="3"/><circle id="Oval-2-Copy-285" cx="159" cy="147" r="3"/><circle id="Oval-2-Copy-322" cx="159" cy="171" r="3"/><circle id="Oval-2-Copy-38" cx="153" cy="15" r="3"/><circle id="Oval-2-Copy-150" cx="153" cy="63" r="3"/><circle id="Oval-2-Copy-240" cx="153" cy="111" r="3"/><circle id="Oval-2-Copy-75" cx="153" cy="39" r="3"/><circle id="Oval-2-Copy-151" cx="153" cy="87" r="3"/><circle id="Oval-2-Copy-241" cx="153" cy="135" r="3"/><circle id="Oval-2-Copy-323" cx="153" cy="159" r="3"/><circle id="Oval-2-Copy-20" cx="243" cy="3" r="3"/><circle id="Oval-2-Copy-152" cx="243" cy="51" r="3"/><circle id="Oval-2-Copy-242" cx="243" cy="99" r="3"/><circle id="Oval-2-Copy-76" cx="243" cy="27" r="3"/><circle id="Oval-2-Copy-153" cx="243" cy="75" r="3"/><circle id="Oval-2-Copy-243" cx="243" cy="123" r="3"/><circle id="Oval-2-Copy-286" cx="243" cy="147" r="3"/><circle id="Oval-2-Copy-324" cx="243" cy="171" r="3"/><circle id="Oval-2-Copy-39" cx="237" cy="15" r="3"/><circle id="Oval-2-Copy-154" cx="237" cy="63" r="3"/><circle id="Oval-2-Copy-244" cx="237" cy="111" r="3"/><circle id="Oval-2-Copy-77" cx="237" cy="39" r="3"/><circle id="Oval-2-Copy-155" cx="237" cy="87" r="3"/><circle id="Oval-2-Copy-245" cx="237" cy="135" r="3"/><circle id="Oval-2-Copy-325" cx="237" cy="159" r="3"/><circle id="Oval-2-Copy-3" cx="39" cy="3" r="3"/><circle id="Oval-2-Copy-156" cx="39" cy="51" r="3"/><circle id="Oval-2-Copy-246" cx="39" cy="99" r="3"/><circle id="Oval-2-Copy-78" cx="39" cy="27" r="3"/><circle id="Oval-2-Copy-157" cx="39" cy="75" r="3"/><circle id="Oval-2-Copy-247" cx="39" cy="123" r="3"/><circle id="Oval-2-Copy-287" cx="39" cy="147" r="3"/><circle id="Oval-2-Copy-326" cx="39" cy="171" r="3"/><circle id="Oval-2-Copy-40" cx="33" cy="15" r="3"/><circle id="Oval-2-Copy-158" cx="33" cy="63" r="3"/><circle id="Oval-2-Copy-248" cx="33" cy="111" r="3"/><circle id="Oval-2-Copy-79" cx="33" cy="39" r="3"/><circle id="Oval-2-Copy-159" cx="33" cy="87" r="3"/><circle id="Oval-2-Copy-249" cx="33" cy="135" r="3"/><circle id="Oval-2-Copy-327" cx="33" cy="159" r="3"/><circle id="Oval-2-Copy-14" cx="135" cy="3" r="3"/><circle id="Oval-2-Copy-160" cx="135" cy="51" r="3"/><circle id="Oval-2-Copy-250" cx="135" cy="99" r="3"/><circle id="Oval-2-Copy-80" cx="135" cy="27" r="3"/><circle id="Oval-2-Copy-161" cx="135" cy="75" r="3"/><circle id="Oval-2-Copy-251" cx="135" cy="123" r="3"/><circle id="Oval-2-Copy-288" cx="135" cy="147" r="3"/><circle id="Oval-2-Copy-328" cx="135" cy="171" r="3"/><circle id="Oval-2-Copy-41" cx="129" cy="15" r="3"/><circle id="Oval-2-Copy-162" cx="129" cy="63" r="3"/><circle id="Oval-2-Copy-252" cx="129" cy="111" r="3"/><circle id="Oval-2-Copy-81" cx="129" cy="39" r="3"/><circle id="Oval-2-Copy-163" cx="129" cy="87" r="3"/><circle id="Oval-2-Copy-253" cx="129" cy="135" r="3"/><circle id="Oval-2-Copy-329" cx="129" cy="159" r="3"/><circle id="Oval-2-Copy-21" cx="219" cy="3" r="3"/><circle id="Oval-2-Copy-164" cx="219" cy="51" r="3"/><circle id="Oval-2-Copy-254" cx="219" cy="99" r="3"/><circle id="Oval-2-Copy-82" cx="219" cy="27" r="3"/><circle id="Oval-2-Copy-165" cx="219" cy="75" r="3"/><circle id="Oval-2-Copy-255" cx="219" cy="123" r="3"/><circle id="Oval-2-Copy-289" cx="219" cy="147" r="3"/><circle id="Oval-2-Copy-330" cx="219" cy="171" r="3"/><circle id="Oval-2-Copy-42" cx="213" cy="15" r="3"/><circle id="Oval-2-Copy-166" cx="213" cy="63" r="3"/><circle id="Oval-2-Copy-256" cx="213" cy="111" r="3"/><circle id="Oval-2-Copy-83" cx="213" cy="39" r="3"/><circle id="Oval-2-Copy-167" cx="213" cy="87" r="3"/><circle id="Oval-2-Copy-257" cx="213" cy="135" r="3"/><circle id="Oval-2-Copy-331" cx="213" cy="159" r="3"/><circle id="Oval-2-Copy-7" cx="87" cy="3" r="3"/><circle id="Oval-2-Copy-168" cx="87" cy="51" r="3"/><circle id="Oval-2-Copy-258" cx="87" cy="99" r="3"/><circle id="Oval-2-Copy-84" cx="87" cy="27" r="3"/><circle id="Oval-2-Copy-169" cx="87" cy="75" r="3"/><circle id="Oval-2-Copy-259" cx="87" cy="123" r="3"/><circle id="Oval-2-Copy-290" cx="87" cy="147" r="3"/><circle id="Oval-2-Copy-332" cx="87" cy="171" r="3"/><circle id="Oval-2-Copy-43" cx="81" cy="15" r="3"/><circle id="Oval-2-Copy-170" cx="81" cy="63" r="3"/><circle id="Oval-2-Copy-260" cx="81" cy="111" r="3"/><circle id="Oval-2-Copy-85" cx="81" cy="39" r="3"/><circle id="Oval-2-Copy-171" cx="81" cy="87" r="3"/><circle id="Oval-2-Copy-261" cx="81" cy="135" r="3"/><circle id="Oval-2-Copy-333" cx="81" cy="159" r="3"/><circle id="Oval-2-Copy-15" cx="183" cy="3" r="3"/><circle id="Oval-2-Copy-172" cx="183" cy="51" r="3"/><circle id="Oval-2-Copy-262" cx="183" cy="99" r="3"/><circle id="Oval-2-Copy-86" cx="183" cy="27" r="3"/><circle id="Oval-2-Copy-173" cx="183" cy="75" r="3"/><circle id="Oval-2-Copy-263" cx="183" cy="123" r="3"/><circle id="Oval-2-Copy-291" cx="183" cy="147" r="3"/><circle id="Oval-2-Copy-334" cx="183" cy="171" r="3"/><circle id="Oval-2-Copy-44" cx="177" cy="15" r="3"/><circle id="Oval-2-Copy-174" cx="177" cy="63" r="3"/><circle id="Oval-2-Copy-264" cx="177" cy="111" r="3"/><circle id="Oval-2-Copy-87" cx="177" cy="39" r="3"/><circle id="Oval-2-Copy-175" cx="177" cy="87" r="3"/><circle id="Oval-2-Copy-265" cx="177" cy="135" r="3"/><circle id="Oval-2-Copy-335" cx="177" cy="159" r="3"/><circle id="Oval-2-Copy-22" cx="267" cy="3" r="3"/><circle id="Oval-2-Copy-176" cx="267" cy="51" r="3"/><circle id="Oval-2-Copy-266" cx="267" cy="99" r="3"/><circle id="Oval-2-Copy-88" cx="267" cy="27" r="3"/><circle id="Oval-2-Copy-177" cx="267" cy="75" r="3"/><circle id="Oval-2-Copy-267" cx="267" cy="123" r="3"/><circle id="Oval-2-Copy-292" cx="267" cy="147" r="3"/><circle id="Oval-2-Copy-336" cx="267" cy="171" r="3"/><circle id="Oval-2-Copy-45" cx="261" cy="15" r="3"/><circle id="Oval-2-Copy-178" cx="261" cy="63" r="3"/><circle id="Oval-2-Copy-268" cx="261" cy="111" r="3"/><circle id="Oval-2-Copy-89" cx="261" cy="39" r="3"/><circle id="Oval-2-Copy-179" cx="261" cy="87" r="3"/><circle id="Oval-2-Copy-269" cx="261" cy="135" r="3"/><circle id="Oval-2-Copy-337" cx="261" cy="159" r="3"/></g><g id="logo/doughnuts" transform="translate(86 76)"><g id="Krispy_Kreme_logo"><path d="M61.64 7.263C34.18 4.007 21.377 2.63 1.59.286.918.286.32.176.417 1.278 4.684 15.929 5.303 18.348 10.85 37.33c1.19 3.432 3.133 4.342 5.015 4.342h45.63l45.617.002c1.88 0 3.826-.91 5.015-4.343 5.548-18.982 6.166-21.401 10.432-36.052.097-1.102-.5-.993-1.171-.993C101.6 2.632 89.102 4.007 61.64 7.263" id="green" fill="#007550" fill-rule="nonzero"/><path d="M61.483 9.31c24.772-2.786 39.524-4.676 57.279-6.726.638-.064 1.213-.417.915.622-2.448 8.666-3.21 11.367-7.648 26.71-.863 2.787-2.128 2.44-4.102 2.449-16.675 0-28.331-.006-46.444-.01-18.113.004-29.758.009-46.432.009-1.974-.01-3.24.337-4.102-2.448-4.44-15.345-5.201-18.045-7.65-26.71-.296-1.04.278-.688.917-.624C21.97 4.632 36.71 6.522 61.483 9.31" id="white" fill="#FFF" fill-rule="nonzero"/><path d="M38.88 11.42c9.445-.001 20.944-.002 21.438.004 1.496.014 2.175-.667 2.448-.91.273-.245.585-.232.576.052-.002.123-1.62 3.883-3.858 3.878-1.372-.003-11.683-.004-20.62-.004.342-.411.549-.942.549-1.519 0-.569-.2-1.092-.533-1.5zm8.146 8.941c-.174.351-1.537 3.745-1.537 3.745-.365.938.17 1.414.564 1.514.88.226 1.729-.426 2.645-2.842 1.453-3.836-1.23-3.304-1.672-2.417zm-9.623 3.14c1.304.582.78 2.399-.13 2.62-.421.33 1.339 1.195 2.113-.584.788-1.812-.217-3.575-.336-4.003-.316.264-.866.945-1.647 1.966zm10.983 2.946c2.2-.685 4.067-3.575 4.45-4.534.847-2.27 1.569-4.029 1.569-4.029l2.634-.006s-1.884 4.52-2.694 6.814c-.776 2.192 1.41.35 2.295-2.082.775-2.094 1.766-4.651 1.766-4.651l2.732-.005s-3.17 7.94-3.497 8.628c1.02-.279 2.3.51 2.176.891-.447 1.367-.72-.676-2.6-.086-1.035 2.515-3.338 4.712-5.146 4.44-2.342-.35-.976-3.554 2.974-4.713l.343-.957c-2.03 1.691-3.985.665-3.523-1.326-1.703 2.078-3.705 2.374-4.978 2.281-.957.144-1.774-.27-2.2-.904-.648 1.705-1.533 3.893-1.533 3.893h-2.617l1.338-3.427c-1.122.662-2.224.79-3.082.759-1.731.476-2.796-.685-3.102-1.533-1.932 2.568-4.067 1.647-4.358.07-.825.86-1.728 1.505-2.547 1.475-1.992-.074-1.504-3.065-1.159-4.067.902-2.608 1.88-3.652.052-3.71-.304-.009-2.495 8.521-6.48 8.892-3.692.341-2.27-2.607-1.657-4.293.979-2.7 2.018-4.049 1.497-5.055-.404-.781-2.644.836-3.331 2.56-.888 2.22-2.68 6.86-2.68 6.86l-3.456.075s2.85-7.23 5.62-14.505c.904-2.37-.474-2.44-1.552-2.376-.889.053-.54-.737.112-.787 3.318-.253 4.522-.203 4.922.058.681.446.65 1.366.527 1.58-.61 1.592-1.73 4.411-1.882 4.855-.484 1.425.52.057.815-.313.294-.37 2.386-2.729 2.802-3.287.433-.58 2.35-2.51 3.635-2.51h8.65a2.367 2.367 0 0 0-.533 1.5c0 .577.207 1.107.55 1.518-5.374.001-9.586.002-9.888.004-.669.004-2.167.83-3.301 2.2-.977 1.182.296.754.296.754 1.905-.184 3.678-.614.638 6.055-2.907 6.38 1.433 3.392 3.971-4.327.092-.281-.652-.647-.676-1.176-.034-.676-.235-1.454.946-1.454 1.18 0 .79 1.2 1.789 1.507 2.021.62 3.121-.016 2.06 2.563-1.017 2.472-2.14 5.547-.811 5.177.638-.178 1.006-.646 1.242-1.077a235.312 235.312 0 0 1 2.605-6.795h2.609l-2.848 7.208c-.658 1.664.654.73 1.627-.34.113-.877.765-1.207.962-1.239 1.033-1.497 4.346-6.195 4.346-6.195s.253.184.041.52c-.284.447.244 2.664.476 3.367.368 1.12.959 3.887-.59 5.157-.312.256-.611.465-.896.631a5.44 5.44 0 0 0 2.327-1.043l3.145-8.06H47.9s-.112.246-.26.627c.746-.572 1.67-.877 2.38-.687.725.191 3.12.378.427 5.913-.641 1.315-1.356 2.184-2.062 2.717zm4.265 3.771c.85-.559 1.44-1.163 1.959-2.122-.634.135-1.72.732-2.284 1.263-.737.693-.376 1.32.325.86zm-17.02-17.296a1.42 1.42 0 0 1 1.419-1.423 1.42 1.42 0 0 1 1.418 1.423 1.42 1.42 0 0 1-1.418 1.421 1.42 1.42 0 0 1-1.419-1.421zm47.956 9.846c1.33.029 2.931-.78 3.28-1.385.349-.604.307-1.787-.58-1.831-.751-.036-2.24.652-2.7 3.216zm26.453 2.244c-2.575 3.493-6.38 3.053-7.282-.17-.627 1.276-1.538 2.533-3.21 2.68-2.006.177-2.213-1.812-1.991-2.922.22-1.11.566-1.555 1.375-3.849.571-1.617-1.108-.79-2.063.769-.687 1.86-2.242 6.011-2.242 6.011s-.804-.06-2.597-.083c.221-1.11 1.703-4.369 2.515-6.663.58-1.64-1.16-.767-2.105.838-.03.053-.06.102-.09.15l-2.32 5.759h-2.71l.85-2.152c-.27.296-.581.58-.946.839-3.475 2.463-5.128.681-5.668-1.066-.994 1.229-2.2 2.332-3.265 2.293-1.992-.075-1.503-3.065-1.158-4.066.9-2.61 1.879-3.653.052-3.71-.305-.01-2.497 8.519-6.48 8.89-3.692.341-2.271-2.605-1.66-4.293.98-2.7 2.02-4.049 1.499-5.055-.405-.78-2.644.836-3.332 2.56-.887 2.22-2.68 6.863-2.68 6.863l-3.455.072s2.85-7.229 5.621-14.504c.904-2.371-.474-2.44-1.552-2.376-.89.052-.54-.738.11-.788 3.32-.252 4.523-.203 4.922.058.681.447.65 1.367.528 1.58-.61 1.593-1.73 4.412-1.882 4.855-.483 1.426.52.057.815-.313.296-.37 2.385-2.728 2.801-3.286.434-.58 2.352-2.509 3.638-2.509 1.128 0 32.917-.009 33.748 0 1.495.015 2.174-.665 2.447-.91.273-.243.585-.232.577.053-.002.122-1.62 3.882-3.86 3.878-2.445-.005-33.297-.006-34.136 0-.666.003-2.166.83-3.3 2.2-.978 1.182.296.753.296.753 1.905-.183 3.677-.612.639 6.055-2.909 6.38 1.432 3.392 3.97-4.327.093-.281-.65-.647-.676-1.175-.033-.677-.235-1.454.945-1.454 1.182 0 .791 1.2 1.79 1.507 2.023.62 3.122-.016 2.06 2.563-1.016 2.471-2.138 5.547-.81 5.176 1.075-.3 1.385-1.425 1.582-1.802a2.862 2.862 0 0 1 .005-.297c.184-2.555 1.677-4.753 2.948-5.31 3.046-1.334 4.22.367 4.12 1.99-.123 1.988-2.345 3.32-4.855 3.392-.044-.035-.051-.009 0 .371.394 2.852 3.632 1.299 5.36-.624l2.225-5.626 2.788-.015-.677 1.685c2.06-2.476 4.283-1.78 4.095.338l.08-.108c2.362-3.108 5.058-1.918 4.132.89-.136.412-1.477 4.238-1.477 4.238s-.416 1.285.396 1.285c.7 0 1.658-1.24 2.086-2.406l-.006-.1c-.127-2.537 1.439-4.726 2.702-5.279 3.03-1.326 4.325.366 4.316 1.977-.01 1.978-2.2 3.302-4.756 3.376-.049-.037-.055-.01.021.367.677 3.39 4.062 1.165 4.56.555 1.26-1.543 1.217-.427.627.372zm-5.244-2.237c1.357.027 2.946-.777 3.266-1.378.321-.601.21-1.777-.697-1.821-.767-.035-2.248.649-2.57 3.199z" id="Shape" fill="#CE1041" fill-rule="nonzero"/><path d="M52.027 36.507v.971h.896c-.05.55-.46.827-.994.827-.811 0-1.252-.75-1.252-1.489 0-.726.422-1.501 1.233-1.501.498 0 .857.302 1.025.757l1.17-.494c-.409-.89-1.163-1.33-2.138-1.33-1.528 0-2.572 1.015-2.572 2.561 0 1.495 1.037 2.51 2.528 2.51.793 0 1.491-.283 1.956-.932.422-.594.472-1.186.484-1.88h-2.336" id="g" fill="#FFF" fill-rule="nonzero"/><path id="t" fill="#FFF" fill-rule="nonzero" d="M95.896 35.453h1.386v-1.048h-4.041v1.048h1.386v3.711h1.269v-3.711"/><path d="M17.966 35.452h.29c.792 0 1.353.48 1.353 1.332 0 .928-.63 1.331-1.366 1.331h-.277v-2.663zm-1.233 3.71h1.749c1.314 0 2.41-1.04 2.41-2.378 0-1.337-1.089-2.379-2.409-2.379h-1.75v4.757z" id="d" fill="#FFF"/><path d="M29.71 35.447c.736 0 1.34.599 1.34 1.255 0 .82-.604 1.42-1.34 1.42-.736 0-1.34-.6-1.34-1.42 0-.656.604-1.255 1.34-1.255zm0-1.2c-1.365 0-2.623 1.01-2.623 2.448 0 1.54 1.1 2.625 2.623 2.625 1.523 0 2.623-1.084 2.623-2.625 0-1.438-1.258-2.447-2.623-2.447z" id="o" fill="#FFF"/><path d="M41.722 34.34v2.505c0 .619-.045 1.294-.836 1.294-.792 0-.837-.675-.837-1.294V34.34h-1.233v2.676c0 .612.026 1.217.497 1.677.397.392 1.019.53 1.573.53s1.176-.139 1.573-.53c.47-.46.496-1.065.496-1.677V34.34h-1.233" id="u" fill="#FFF"/><path id="h" fill="#FFF" d="M62.06 36.241v-1.836h-1.233v4.76h1.233v-1.95h1.78v1.95h1.233v-4.76H63.84v1.836h-1.78"/><path id="n" fill="#FFF" d="M71.777 39.164h1.233V36.25h.013l2.258 2.915h1.233v-4.759h-1.233v2.91h-.013l-2.258-2.91h-1.233v4.76"/><path d="M86.098 34.405v2.506c0 .618-.043 1.294-.836 1.294-.792 0-.837-.676-.837-1.294v-2.506h-1.233v2.676c0 .612.025 1.218.497 1.679.397.391 1.02.53 1.573.53.554 0 1.176-.139 1.573-.53.47-.461.496-1.067.496-1.679v-2.676h-1.233" id="u" fill="#FFF"/><path d="M106.354 34.67a3.228 3.228 0 0 0-1.483-.39c-.95 0-1.635.631-1.635 1.595 0 .921.508 1.123 1.283 1.344.263.076.748.196.748.545 0 .332-.31.477-.597.477-.422 0-.786-.22-1.094-.491l-.529.996c.483.341 1.069.543 1.667.543.478 0 .975-.133 1.346-.448.378-.322.491-.807.491-1.281 0-.77-.511-1.104-1.17-1.3l-.315-.095c-.214-.07-.548-.177-.548-.454 0-.265.302-.397.528-.397.302 0 .591.126.817.315l.491-.958" id="s" fill="#FFF"/></g></g></g><g id="post-it" stroke-width="1" fill-rule="evenodd" transform="translate(283 158)"><path id="Fill-1" fill-opacity=".1" fill="#000" d="M2.15.008L0 44l44.845-2.436z"/><path id="Fill-4" fill="#F9EB77" d="M2.785 42H44L43.994.096 2 0z"/><text id="Help-yourself" transform="rotate(-15 22.01 17.445)" font-family="BrushScriptMT, Brush Script MT" font-size="14" font-style="italic" font-weight="normal" line-spacing="12" fill="#CF3922"><tspan x="8.947" y="16.566">Help</tspan> <tspan x="2.675" y="28.566">yourself</tspan></text></g><g id="sharpie/small" transform="translate(429 232)" stroke-width="1" fill-rule="evenodd"><g id="sharpie"><path id="Barrel" fill="#DBDEDF" fill-rule="nonzero" d="M0 18h9v37.963H0z"/><path d="M0 55.963h9c-.155 0 0 .167 0 0V76.05c0 1.079-.775 1.913-1.8 1.913H1.8c-1.025 0-1.8-.834-1.8-1.913V55.963c0 .167.155 0 0 0z" id="Cap" fill="#4F575A" fill-rule="nonzero"/><rect id="Cap-thing" fill="#393F41" fill-rule="nonzero" x="3" y="61" width="3" height="19" rx="1"/><path d="M0 19v-2C0 15.815 1.402 5.699 2 6h1V3h3v3h1c.598-.301 2 9.815 2 11v2H0z" id="Top" fill="#4F575A"/><path d="M3 1c0-.167 1.29-1 2-1h1v3H3V1z" id="Nib" fill="#393F41" fill-rule="nonzero"/></g><g id="Group-2" transform="translate(0 19)"><mask id="mask-3" fill="#fff"><use xlink:href="#path-2"/></mask><g mask="url(#mask-3)" id="Shape" fill-rule="nonzero" fill="#0C0E0F"><path d="M5.95.014c.758-.065 2.187.086 2.23.8.066 1.062-1.364 1.712-1.819 1.907-.411.108-.78-.152-.498-.52 1.278-.845 1.95-.996 1.581-1.3-.888-.693-4.331.347-4.461 1.018-.065.39.498.672 1.646 1.105 1.56.585 3.162 1.343 2.469 2.75-.628 1.3-2.556 1.668-3.834 1.863C2.29 7.81.275 7.594.08 7.226c-.13-.152-.108-.499.109-.542.433-.065 1.386.585 3.66.13.628-.13 2.252-.758 2.469-1.45.325-1.192-3.769-1.517-4.093-2.86C1.813.772 4.867.1 5.95.014z" transform="rotate(90 -.348 5.652)"/><path d="M9.586.122c.195.26-.325 2.599-.325 2.599.672-.043 1.365-.303 1.582.281.26.737-.802 2.426-.52 2.99 1.256-.13.736-1.907 1.71-3.011.672-.78 1.603-.78 1.863.216.758.152-.693 2.361-.151 2.6.411.194.693-.326.888-.824.108-.325.346-1.04.281-1.386-.346-.065-.563-.282-.433-.606.043-.13.433-.217.672-.217.346-.606.281-.758.693-.801.238-.022.108.476.108.714.715-.13 1.104-.281 1.213.39.108 1.192-.975 2.166-.563 2.773.086-.022.887-.174 1.299-1.755.325-1.32.65-2.924 1.083-2.079.151.282-.152.563-.087.845.022 0 1.061-1.04 1.581-.217.087.174.304 1.3-.13 2.426-.108.325-.498 1.364-1.018 1.516-.65.195-1.191-.672-.455-1.408.347-.173.044.368.13.585.412.996 1.408-2.404.867-2.6-.455-.064-.693.326-.91.716-.91 1.516-.693 4.245-1.04 4.31-.671.151-.671-.282-.39-2.123-.26.065-1.126 1.061-1.624.173-.498-.823 1.04-2.772.498-2.924-.151-.043-.346.044-.476.109-.26.086-.347 1.386-.996 2.447-.455.845-1.386 1.126-1.755.26-.758.628-1.646.996-1.819 0-.52.13-1.105 1.126-1.754.455-.563-.585.281-1.625.498-3.14-.217-.13-.996 0-1.126.26-.13.26-.238 2.902-.65 3.14-.975.563-.325-1.603-.152-2.837-.368-.217-.8-.26-.563-.737.065-.13.585-.065.737-.281.368-.563.39-2.296.758-2.859.065-.173.368-.152.476 0zm2.578 5.761c.714-.108.693-1.018 1.32-2.642-.15-.065-.237-.13-.367-.087-.715.195-1.408 2.1-.953 2.73zm9.789-4.44c.13-.346.433-.541.671-.476.239.086.325.411.173.758-.13.324-.433.541-.67.455-.24-.066-.326-.412-.174-.737zm1.69.888c.78-.217 1.234.758.78 2.036-.477 1.213-1.495 1.408-1.192 1.84.281.412.974.542 1.386.217.281-.216.281-.563.585-1.104.606-.152.216 1.43-.433 1.754-.693.347-1.776.087-2.123-.671-.455 0-1.408.476-1.82-.195-.324-.477-.259-.931.087-1.993.282-.823.802-1.754 1.127-1.71.714.064-.455 1.234-.672 2.598-.108.672.282.715.932.65-.087-.325-.173-.693-.109-1.213.109-.823.563-1.97 1.451-2.209zm-.65 2.816c.93-.867.91-1.798.8-1.971-.086-.022-.13-.022-.194 0-.39.151-.845 1.516-.606 1.97z" transform="rotate(90 -.348 5.652)"/></g></g></g><g id="sharpie/small" transform="rotate(-105 90.862 -42.395)" stroke-width="1" fill-rule="evenodd"><g id="sharpie"><path id="Barrel" fill="#DBDEDF" fill-rule="nonzero" d="M0 18h9v37.963H0z"/><path d="M0 55.963h9c-.155 0 0 .167 0 0V76.05c0 1.079-.775 1.913-1.8 1.913H1.8c-1.025 0-1.8-.834-1.8-1.913V55.963c0 .167.155 0 0 0z" id="Cap" fill="#4F575A" fill-rule="nonzero"/><rect id="Cap-thing" fill="#393F41" fill-rule="nonzero" x="3" y="61" width="3" height="19" rx="1"/><path d="M0 19v-2C0 15.815 1.402 5.699 2 6h1V3h3v3h1c.598-.301 2 9.815 2 11v2H0z" id="Top" fill="#4F575A"/><path d="M3 1c0-.167 1.29-1 2-1h1v3H3V1z" id="Nib" fill="#393F41" fill-rule="nonzero"/></g><g id="Group-2" transform="translate(0 19)"><mask id="mask-5" fill="#fff"><use xlink:href="#path-4"/></mask><g mask="url(#mask-5)" id="Shape" fill-rule="nonzero" fill="#0C0E0F"><path d="M5.95.014c.758-.065 2.187.086 2.23.8.066 1.062-1.364 1.712-1.819 1.907-.411.108-.78-.152-.498-.52 1.278-.845 1.95-.996 1.581-1.3-.888-.693-4.331.347-4.461 1.018-.065.39.498.672 1.646 1.105 1.56.585 3.162 1.343 2.469 2.75-.628 1.3-2.556 1.668-3.834 1.863C2.29 7.81.275 7.594.08 7.226c-.13-.152-.108-.499.109-.542.433-.065 1.386.585 3.66.13.628-.13 2.252-.758 2.469-1.45.325-1.192-3.769-1.517-4.093-2.86C1.813.772 4.867.1 5.95.014z" transform="rotate(90 -.348 5.652)"/><path d="M9.586.122c.195.26-.325 2.599-.325 2.599.672-.043 1.365-.303 1.582.281.26.737-.802 2.426-.52 2.99 1.256-.13.736-1.907 1.71-3.011.672-.78 1.603-.78 1.863.216.758.152-.693 2.361-.151 2.6.411.194.693-.326.888-.824.108-.325.346-1.04.281-1.386-.346-.065-.563-.282-.433-.606.043-.13.433-.217.672-.217.346-.606.281-.758.693-.801.238-.022.108.476.108.714.715-.13 1.104-.281 1.213.39.108 1.192-.975 2.166-.563 2.773.086-.022.887-.174 1.299-1.755.325-1.32.65-2.924 1.083-2.079.151.282-.152.563-.087.845.022 0 1.061-1.04 1.581-.217.087.174.304 1.3-.13 2.426-.108.325-.498 1.364-1.018 1.516-.65.195-1.191-.672-.455-1.408.347-.173.044.368.13.585.412.996 1.408-2.404.867-2.6-.455-.064-.693.326-.91.716-.91 1.516-.693 4.245-1.04 4.31-.671.151-.671-.282-.39-2.123-.26.065-1.126 1.061-1.624.173-.498-.823 1.04-2.772.498-2.924-.151-.043-.346.044-.476.109-.26.086-.347 1.386-.996 2.447-.455.845-1.386 1.126-1.755.26-.758.628-1.646.996-1.819 0-.52.13-1.105 1.126-1.754.455-.563-.585.281-1.625.498-3.14-.217-.13-.996 0-1.126.26-.13.26-.238 2.902-.65 3.14-.975.563-.325-1.603-.152-2.837-.368-.217-.8-.26-.563-.737.065-.13.585-.065.737-.281.368-.563.39-2.296.758-2.859.065-.173.368-.152.476 0zm2.578 5.761c.714-.108.693-1.018 1.32-2.642-.15-.065-.237-.13-.367-.087-.715.195-1.408 2.1-.953 2.73zm9.789-4.44c.13-.346.433-.541.671-.476.239.086.325.411.173.758-.13.324-.433.541-.67.455-.24-.066-.326-.412-.174-.737zm1.69.888c.78-.217 1.234.758.78 2.036-.477 1.213-1.495 1.408-1.192 1.84.281.412.974.542 1.386.217.281-.216.281-.563.585-1.104.606-.152.216 1.43-.433 1.754-.693.347-1.776.087-2.123-.671-.455 0-1.408.476-1.82-.195-.324-.477-.259-.931.087-1.993.282-.823.802-1.754 1.127-1.71.714.064-.455 1.234-.672 2.598-.108.672.282.715.932.65-.087-.325-.173-.693-.109-1.213.109-.823.563-1.97 1.451-2.209zm-.65 2.816c.93-.867.91-1.798.8-1.971-.086-.022-.13-.022-.194 0-.39.151-.845 1.516-.606 1.97z" transform="rotate(90 -.348 5.652)"/></g></g></g><g id="sharpie/small" transform="translate(410 232)" stroke-width="1" fill-rule="evenodd"><g id="sharpie"><path id="Barrel" fill="#DBDEDF" fill-rule="nonzero" d="M0 18h9v37.963H0z"/><path d="M0 55.963h9c-.155 0 0 .167 0 0V76.05c0 1.079-.775 1.913-1.8 1.913H1.8c-1.025 0-1.8-.834-1.8-1.913V55.963c0 .167.155 0 0 0z" id="Cap" fill="#4F575A" fill-rule="nonzero"/><rect id="Cap-thing" fill="#393F41" fill-rule="nonzero" x="3" y="61" width="3" height="19" rx="1"/><path d="M0 19v-2C0 15.815 1.402 5.699 2 6h1V3h3v3h1c.598-.301 2 9.815 2 11v2H0z" id="Top" fill="#4F575A"/><path d="M3 1c0-.167 1.29-1 2-1h1v3H3V1z" id="Nib" fill="#393F41" fill-rule="nonzero"/></g><g id="Group-2" transform="translate(0 19)"><mask id="mask-7" fill="#fff"><use xlink:href="#path-6"/></mask><g mask="url(#mask-7)" id="Shape" fill-rule="nonzero" fill="#0C0E0F"><path d="M5.95.014c.758-.065 2.187.086 2.23.8.066 1.062-1.364 1.712-1.819 1.907-.411.108-.78-.152-.498-.52 1.278-.845 1.95-.996 1.581-1.3-.888-.693-4.331.347-4.461 1.018-.065.39.498.672 1.646 1.105 1.56.585 3.162 1.343 2.469 2.75-.628 1.3-2.556 1.668-3.834 1.863C2.29 7.81.275 7.594.08 7.226c-.13-.152-.108-.499.109-.542.433-.065 1.386.585 3.66.13.628-.13 2.252-.758 2.469-1.45.325-1.192-3.769-1.517-4.093-2.86C1.813.772 4.867.1 5.95.014z" transform="rotate(90 -.348 5.652)"/><path d="M9.586.122c.195.26-.325 2.599-.325 2.599.672-.043 1.365-.303 1.582.281.26.737-.802 2.426-.52 2.99 1.256-.13.736-1.907 1.71-3.011.672-.78 1.603-.78 1.863.216.758.152-.693 2.361-.151 2.6.411.194.693-.326.888-.824.108-.325.346-1.04.281-1.386-.346-.065-.563-.282-.433-.606.043-.13.433-.217.672-.217.346-.606.281-.758.693-.801.238-.022.108.476.108.714.715-.13 1.104-.281 1.213.39.108 1.192-.975 2.166-.563 2.773.086-.022.887-.174 1.299-1.755.325-1.32.65-2.924 1.083-2.079.151.282-.152.563-.087.845.022 0 1.061-1.04 1.581-.217.087.174.304 1.3-.13 2.426-.108.325-.498 1.364-1.018 1.516-.65.195-1.191-.672-.455-1.408.347-.173.044.368.13.585.412.996 1.408-2.404.867-2.6-.455-.064-.693.326-.91.716-.91 1.516-.693 4.245-1.04 4.31-.671.151-.671-.282-.39-2.123-.26.065-1.126 1.061-1.624.173-.498-.823 1.04-2.772.498-2.924-.151-.043-.346.044-.476.109-.26.086-.347 1.386-.996 2.447-.455.845-1.386 1.126-1.755.26-.758.628-1.646.996-1.819 0-.52.13-1.105 1.126-1.754.455-.563-.585.281-1.625.498-3.14-.217-.13-.996 0-1.126.26-.13.26-.238 2.902-.65 3.14-.975.563-.325-1.603-.152-2.837-.368-.217-.8-.26-.563-.737.065-.13.585-.065.737-.281.368-.563.39-2.296.758-2.859.065-.173.368-.152.476 0zm2.578 5.761c.714-.108.693-1.018 1.32-2.642-.15-.065-.237-.13-.367-.087-.715.195-1.408 2.1-.953 2.73zm9.789-4.44c.13-.346.433-.541.671-.476.239.086.325.411.173.758-.13.324-.433.541-.67.455-.24-.066-.326-.412-.174-.737zm1.69.888c.78-.217 1.234.758.78 2.036-.477 1.213-1.495 1.408-1.192 1.84.281.412.974.542 1.386.217.281-.216.281-.563.585-1.104.606-.152.216 1.43-.433 1.754-.693.347-1.776.087-2.123-.671-.455 0-1.408.476-1.82-.195-.324-.477-.259-.931.087-1.993.282-.823.802-1.754 1.127-1.71.714.064-.455 1.234-.672 2.598-.108.672.282.715.932.65-.087-.325-.173-.693-.109-1.213.109-.823.563-1.97 1.451-2.209zm-.65 2.816c.93-.867.91-1.798.8-1.971-.086-.022-.13-.022-.194 0-.39.151-.845 1.516-.606 1.97z" transform="rotate(90 -.348 5.652)"/></g></g></g><g id="sharpie/small-red" transform="translate(391 232)" stroke-width="1" fill-rule="evenodd"><g id="sharpie"><path id="Barrel" fill="#DBDEDF" fill-rule="nonzero" d="M0 18h9v37.963H0z"/><path d="M0 55.963h9c-.155 0 0 .167 0 0V76.05c0 1.079-.775 1.913-1.8 1.913H1.8c-1.025 0-1.8-.834-1.8-1.913V55.963c0 .167.155 0 0 0z" id="Cap" fill="#CF3922" fill-rule="nonzero"/><rect id="Cap-thing" fill="#80281B" fill-rule="nonzero" x="3" y="61" width="3" height="19" rx="1"/><path d="M0 19v-2C0 15.815 1.402 5.699 2 6h1V3h3v3h1c.598-.301 2 9.815 2 11v2H0z" id="Top" fill="#CF3922"/><path d="M3 1c0-.167 1.29-1 2-1h1v3H3V1z" id="Nib" fill="#80281B" fill-rule="nonzero"/></g><g id="Group-2" transform="translate(0 19)"><mask id="mask-9" fill="#fff"><use xlink:href="#path-8"/></mask><g mask="url(#mask-9)" id="Shape" fill-rule="nonzero" fill="#0C0E0F"><path d="M5.95.014c.758-.065 2.187.086 2.23.8.066 1.062-1.364 1.712-1.819 1.907-.411.108-.78-.152-.498-.52 1.278-.845 1.95-.996 1.581-1.3-.888-.693-4.331.347-4.461 1.018-.065.39.498.672 1.646 1.105 1.56.585 3.162 1.343 2.469 2.75-.628 1.3-2.556 1.668-3.834 1.863C2.29 7.81.275 7.594.08 7.226c-.13-.152-.108-.499.109-.542.433-.065 1.386.585 3.66.13.628-.13 2.252-.758 2.469-1.45.325-1.192-3.769-1.517-4.093-2.86C1.813.772 4.867.1 5.95.014z" transform="rotate(90 1.152 7.152)"/><path d="M9.586.122c.195.26-.325 2.599-.325 2.599.672-.043 1.365-.303 1.582.281.26.737-.802 2.426-.52 2.99 1.256-.13.736-1.907 1.71-3.011.672-.78 1.603-.78 1.863.216.758.152-.693 2.361-.151 2.6.411.194.693-.326.888-.824.108-.325.346-1.04.281-1.386-.346-.065-.563-.282-.433-.606.043-.13.433-.217.672-.217.346-.606.281-.758.693-.801.238-.022.108.476.108.714.715-.13 1.104-.281 1.213.39.108 1.192-.975 2.166-.563 2.773.086-.022.887-.174 1.299-1.755.325-1.32.65-2.924 1.083-2.079.151.282-.152.563-.087.845.022 0 1.061-1.04 1.581-.217.087.174.304 1.3-.13 2.426-.108.325-.498 1.364-1.018 1.516-.65.195-1.191-.672-.455-1.408.347-.173.044.368.13.585.412.996 1.408-2.404.867-2.6-.455-.064-.693.326-.91.716-.91 1.516-.693 4.245-1.04 4.31-.671.151-.671-.282-.39-2.123-.26.065-1.126 1.061-1.624.173-.498-.823 1.04-2.772.498-2.924-.151-.043-.346.044-.476.109-.26.086-.347 1.386-.996 2.447-.455.845-1.386 1.126-1.755.26-.758.628-1.646.996-1.819 0-.52.13-1.105 1.126-1.754.455-.563-.585.281-1.625.498-3.14-.217-.13-.996 0-1.126.26-.13.26-.238 2.902-.65 3.14-.975.563-.325-1.603-.152-2.837-.368-.217-.8-.26-.563-.737.065-.13.585-.065.737-.281.368-.563.39-2.296.758-2.859.065-.173.368-.152.476 0zm2.578 5.761c.714-.108.693-1.018 1.32-2.642-.15-.065-.237-.13-.367-.087-.715.195-1.408 2.1-.953 2.73zm9.789-4.44c.13-.346.433-.541.671-.476.239.086.325.411.173.758-.13.324-.433.541-.67.455-.24-.066-.326-.412-.174-.737zm1.69.888c.78-.217 1.234.758.78 2.036-.477 1.213-1.495 1.408-1.192 1.84.281.412.974.542 1.386.217.281-.216.281-.563.585-1.104.606-.152.216 1.43-.433 1.754-.693.347-1.776.087-2.123-.671-.455 0-1.408.476-1.82-.195-.324-.477-.259-.931.087-1.993.282-.823.802-1.754 1.127-1.71.714.064-.455 1.234-.672 2.598-.108.672.282.715.932.65-.087-.325-.173-.693-.109-1.213.109-.823.563-1.97 1.451-2.209zm-.65 2.816c.93-.867.91-1.798.8-1.971-.086-.022-.13-.022-.194 0-.39.151-.845 1.516-.606 1.97z" transform="rotate(90 1.152 7.152)"/></g></g></g><g id="coffee/mug/dark" transform="translate(379 132)" stroke-width="1" fill-rule="evenodd"><g id="Group" transform="translate(11.429 11.429)"><g id="Group-2" transform="rotate(45 -28.879 85.058)"><path d="M0 9.524V0h7.959c1.162 0 3.5.818 3.5.818.404.133.731.67.731 1.193v5.501c0 .527-.33 1.065-.736 1.196 0 0-2.321.816-3.495.816H0z" id="handle" fill="#4D4D4D"/><path d="M6.646 0H0v9.524h6.646-1.313V0h1.313zm4.02.562c.469.142.794.256.794.256.403.133.73.67.73 1.193v5.501c0 .527-.33 1.065-.736 1.196 0 0-.322.114-.787.256V.562z" id="hadle-shadow" fill="#393F41"/></g><g id="cup"><circle id="outer-cup" fill="#4D4D4D" cx="28.571" cy="28.571" r="28.571"/><circle id="inner-rim" fill="#393F41" cx="28.571" cy="28.571" r="25.524"/><circle id="coffee" fill="#B27738" cx="28.571" cy="28.571" r="24"/><path d="M27.359 9.905c8.344.043 13.863.77 18.093 8.505 4.625 8.46 1.795 16.962-7.998 19.61-17.98 4.865-24.773-23.18-6.44-23.262 21.702-.096 2.121 31.535-6.697 14.236-2.591-5.08 1.737-12.797 7.945-10.145 10.564 4.511-2.244 12.694-3.547 9.388.102.258 6.718-2.505 5.597-4.713-1.064-2.095-7.115-.696-7.802 1.64-2.178 7.412 10.742 8.388 11.663.187 1.116-9.941-13.18-10.929-16.607-2.993-2.921 6.766 2.695 13.24 9.263 14.416 20.283 3.629 18.104-25.641-.464-24.736-9.408.458-15.259 7.624-14.203 16.719 1.114 9.602 5.386 12.576 12.812 18.862-11.68-5.238-20.231-7.914-18.94-20.234 1.008-9.623 7.02-16.856 17.325-17.48" id="coffee-swirl" fill-opacity=".1" fill="#FFF"/><path d="M15.841 48.92c-6.769-4.243-11.27-11.77-11.27-20.349 0-13.254 10.746-24 24-24 8.579 0 16.106 4.501 20.35 11.27a23.888 23.888 0 0 0-12.73-3.65c-13.255 0-24 10.745-24 24 0 4.676 1.337 9.04 3.65 12.73z" id="coffee-shadow-deep" fill-opacity=".4" fill="#393F41"/></g></g></g><g id="coffee" transform="translate(39.275 3.275)"><circle id="saucer" stroke="#DBDEDF" stroke-width="1" fill="#FBFBFB" fill-rule="nonzero" cx="39" cy="39" r="39"/><path d="M21.948 19.972L17.172 9.959a.876.876 0 0 1 .321-1.197l6.26-3.615a.876.876 0 0 1 1.198.32l6.309 9.184c11.127-3.534 23.598.997 29.675 11.523 7.016 12.154 2.851 27.696-9.303 34.714-12.154 7.017-27.694 2.854-34.71-9.3-6.117-10.595-3.736-23.763 5.026-31.616z" id="mug" stroke="#DBDEDF" stroke-width="1" fill="#FBFBFB" fill-rule="evenodd"/><circle id="drink" fill="#B27738" fill-rule="nonzero" cx="39" cy="39" r="20.596"/><path d="M38.272 23c7.301.038 12.13.674 15.832 7.442 4.047 7.402 1.57 14.842-6.999 17.16-15.733 4.256-21.676-20.284-5.635-20.355 18.99-.084 1.857 27.593-5.86 12.456-2.266-4.444 1.52-11.198 6.953-8.877 9.243 3.948-1.964 11.108-3.104 8.215.09.225 5.878-2.192 4.897-4.124-.93-1.834-6.225-.609-6.826 1.435-1.906 6.486 9.4 7.339 10.204.163.977-8.698-11.532-9.562-14.53-2.619-2.557 5.921 2.357 11.586 8.105 12.615 17.748 3.175 15.84-22.437-.407-21.645-8.231.4-13.35 6.672-12.427 14.63C29.45 47.897 33.188 50.5 39.686 56c-10.22-4.583-17.703-6.925-16.573-17.705.882-8.42 6.143-14.749 15.16-15.295" id="swirl" fill-opacity=".1" fill="#FFF" fill-rule="evenodd"/><path d="M43.382 22.787c-11.375 0-20.595 9.22-20.595 20.595 0 4.57 1.49 8.79 4.008 12.205-5.088-3.75-8.39-9.782-8.39-16.587 0-11.375 9.22-20.596 20.595-20.596 6.805 0 12.837 3.303 16.587 8.39a20.499 20.499 0 0 0-12.205-4.007z" id="shadow" fill-opacity=".4" fill="#393F41" fill-rule="evenodd"/></g></g></g></g></g></svg>