<svg width="290" height="200" viewBox="0 0 290 200" version="1.1" xmlns="http://www.w3.org/2000/svg" xmlns:xlink="http://www.w3.org/1999/xlink"><defs><path d="M0 0h290v195a5 5 0 0 1-5 5H5a5 5 0 0 1-5-5V0z" id="path-1"/></defs><g id="Symbols" stroke="none" stroke-width="1" fill="none" fill-rule="evenodd"><g id="doughnuts"><g id="box"><use fill="#FFF" fill-rule="evenodd" xlink:href="#path-1"/><path stroke="#DBDEDF" stroke-width="1" d="M.5.5V195a4.5 4.5 0 0 0 4.5 4.5h280a4.5 4.5 0 0 0 4.5-4.5V.5H.5z"/></g><g id="dots" transform="translate(10 13)" fill="#007550"><circle cx="3" cy="3" r="3"/><circle cx="15" cy="3" r="3"/><circle cx="27" cy="3" r="3"/><circle cx="39" cy="3" r="3"/><circle cx="51" cy="3" r="3"/><circle cx="63" cy="3" r="3"/><circle cx="75" cy="3" r="3"/><circle cx="87" cy="3" r="3"/><circle cx="99" cy="3" r="3"/><circle cx="111" cy="3" r="3"/><circle cx="123" cy="3" r="3"/><circle cx="135" cy="3" r="3"/><circle cx="147" cy="3" r="3"/><circle cx="159" cy="3" r="3"/><circle cx="171" cy="3" r="3"/><circle cx="183" cy="3" r="3"/><circle cx="195" cy="3" r="3"/><circle cx="207" cy="3" r="3"/><circle cx="219" cy="3" r="3"/><circle cx="231" cy="3" r="3"/><circle cx="243" cy="3" r="3"/><circle cx="255" cy="3" r="3"/><circle cx="267" cy="3" r="3"/><circle cx="9" cy="15" r="3"/><circle cx="21" cy="15" r="3"/><circle cx="33" cy="15" r="3"/><circle cx="45" cy="15" r="3"/><circle cx="57" cy="15" r="3"/><circle cx="69" cy="15" r="3"/><circle cx="81" cy="15" r="3"/><circle cx="93" cy="15" r="3"/><circle cx="105" cy="15" r="3"/><circle cx="117" cy="15" r="3"/><circle cx="129" cy="15" r="3"/><circle cx="141" cy="15" r="3"/><circle cx="153" cy="15" r="3"/><circle cx="165" cy="15" r="3"/><circle cx="177" cy="15" r="3"/><circle cx="189" cy="15" r="3"/><circle cx="201" cy="15" r="3"/><circle cx="213" cy="15" r="3"/><circle cx="225" cy="15" r="3"/><circle cx="237" cy="15" r="3"/><circle cx="249" cy="15" r="3"/><circle cx="261" cy="15" r="3"/><circle cx="3" cy="27" r="3"/><circle cx="15" cy="27" r="3"/><circle cx="27" cy="27" r="3"/><circle cx="39" cy="27" r="3"/><circle cx="51" cy="27" r="3"/><circle cx="63" cy="27" r="3"/><circle cx="75" cy="27" r="3"/><circle cx="87" cy="27" r="3"/><circle cx="99" cy="27" r="3"/><circle cx="111" cy="27" r="3"/><circle cx="123" cy="27" r="3"/><circle cx="135" cy="27" r="3"/><circle cx="147" cy="27" r="3"/><circle cx="159" cy="27" r="3"/><circle cx="171" cy="27" r="3"/><circle cx="183" cy="27" r="3"/><circle cx="195" cy="27" r="3"/><circle cx="207" cy="27" r="3"/><circle cx="219" cy="27" r="3"/><circle cx="231" cy="27" r="3"/><circle cx="243" cy="27" r="3"/><circle cx="255" cy="27" r="3"/><circle cx="267" cy="27" r="3"/><circle cx="9" cy="39" r="3"/><circle cx="21" cy="39" r="3"/><circle cx="33" cy="39" r="3"/><circle cx="45" cy="39" r="3"/><circle cx="57" cy="39" r="3"/><circle cx="69" cy="39" r="3"/><circle cx="81" cy="39" r="3"/><circle cx="93" cy="39" r="3"/><circle cx="105" cy="39" r="3"/><circle cx="117" cy="39" r="3"/><circle cx="129" cy="39" r="3"/><circle cx="141" cy="39" r="3"/><circle cx="153" cy="39" r="3"/><circle cx="165" cy="39" r="3"/><circle cx="177" cy="39" r="3"/><circle cx="189" cy="39" r="3"/><circle cx="201" cy="39" r="3"/><circle cx="213" cy="39" r="3"/><circle cx="225" cy="39" r="3"/><circle cx="237" cy="39" r="3"/><circle cx="249" cy="39" r="3"/><circle cx="261" cy="39" r="3"/><circle cx="3" cy="51" r="3"/><circle cx="15" cy="51" r="3"/><circle cx="27" cy="51" r="3"/><circle cx="39" cy="51" r="3"/><circle cx="51" cy="51" r="3"/><circle cx="63" cy="51" r="3"/><circle cx="75" cy="51" r="3"/><circle cx="87" cy="51" r="3"/><circle cx="99" cy="51" r="3"/><circle cx="111" cy="51" r="3"/><circle cx="123" cy="51" r="3"/><circle cx="135" cy="51" r="3"/><circle cx="147" cy="51" r="3"/><circle cx="159" cy="51" r="3"/><circle cx="171" cy="51" r="3"/><circle cx="183" cy="51" r="3"/><circle cx="195" cy="51" r="3"/><circle cx="207" cy="51" r="3"/><circle cx="219" cy="51" r="3"/><circle cx="231" cy="51" r="3"/><circle cx="243" cy="51" r="3"/><circle cx="255" cy="51" r="3"/><circle cx="267" cy="51" r="3"/><circle cx="9" cy="63" r="3"/><circle cx="21" cy="63" r="3"/><circle cx="33" cy="63" r="3"/><circle cx="45" cy="63" r="3"/><circle cx="57" cy="63" r="3"/><circle cx="69" cy="63" r="3"/><circle cx="81" cy="63" r="3"/><circle cx="93" cy="63" r="3"/><circle cx="105" cy="63" r="3"/><circle cx="117" cy="63" r="3"/><circle cx="129" cy="63" r="3"/><circle cx="141" cy="63" r="3"/><circle cx="153" cy="63" r="3"/><circle cx="165" cy="63" r="3"/><circle cx="177" cy="63" r="3"/><circle cx="189" cy="63" r="3"/><circle cx="201" cy="63" r="3"/><circle cx="213" cy="63" r="3"/><circle cx="225" cy="63" r="3"/><circle cx="237" cy="63" r="3"/><circle cx="249" cy="63" r="3"/><circle cx="261" cy="63" r="3"/><circle cx="3" cy="75" r="3"/><circle cx="15" cy="75" r="3"/><circle cx="27" cy="75" r="3"/><circle cx="39" cy="75" r="3"/><circle cx="51" cy="75" r="3"/><circle cx="63" cy="75" r="3"/><circle cx="75" cy="75" r="3"/><circle cx="87" cy="75" r="3"/><circle cx="99" cy="75" r="3"/><circle cx="111" cy="75" r="3"/><circle cx="123" cy="75" r="3"/><circle cx="135" cy="75" r="3"/><circle cx="147" cy="75" r="3"/><circle cx="159" cy="75" r="3"/><circle cx="171" cy="75" r="3"/><circle cx="183" cy="75" r="3"/><circle cx="195" cy="75" r="3"/><circle cx="207" cy="75" r="3"/><circle cx="219" cy="75" r="3"/><circle cx="231" cy="75" r="3"/><circle cx="243" cy="75" r="3"/><circle cx="255" cy="75" r="3"/><circle cx="267" cy="75" r="3"/><circle cx="9" cy="87" r="3"/><circle cx="21" cy="87" r="3"/><circle cx="33" cy="87" r="3"/><circle cx="45" cy="87" r="3"/><circle cx="57" cy="87" r="3"/><circle cx="69" cy="87" r="3"/><circle cx="81" cy="87" r="3"/><circle cx="93" cy="87" r="3"/><circle cx="105" cy="87" r="3"/><circle cx="117" cy="87" r="3"/><circle cx="129" cy="87" r="3"/><circle cx="141" cy="87" r="3"/><circle cx="153" cy="87" r="3"/><circle cx="165" cy="87" r="3"/><circle cx="177" cy="87" r="3"/><circle cx="189" cy="87" r="3"/><circle cx="201" cy="87" r="3"/><circle cx="213" cy="87" r="3"/><circle cx="225" cy="87" r="3"/><circle cx="237" cy="87" r="3"/><circle cx="249" cy="87" r="3"/><circle cx="261" cy="87" r="3"/><circle cx="3" cy="99" r="3"/><circle cx="15" cy="99" r="3"/><circle cx="27" cy="99" r="3"/><circle cx="39" cy="99" r="3"/><circle cx="51" cy="99" r="3"/><circle cx="63" cy="99" r="3"/><circle cx="75" cy="99" r="3"/><circle cx="87" cy="99" r="3"/><circle cx="99" cy="99" r="3"/><circle cx="111" cy="99" r="3"/><circle cx="123" cy="99" r="3"/><circle cx="135" cy="99" r="3"/><circle cx="147" cy="99" r="3"/><circle cx="159" cy="99" r="3"/><circle cx="171" cy="99" r="3"/><circle cx="183" cy="99" r="3"/><circle cx="195" cy="99" r="3"/><circle cx="207" cy="99" r="3"/><circle cx="219" cy="99" r="3"/><circle cx="231" cy="99" r="3"/><circle cx="243" cy="99" r="3"/><circle cx="255" cy="99" r="3"/><circle cx="267" cy="99" r="3"/><circle cx="9" cy="111" r="3"/><circle cx="21" cy="111" r="3"/><circle cx="33" cy="111" r="3"/><circle cx="45" cy="111" r="3"/><circle cx="57" cy="111" r="3"/><circle cx="69" cy="111" r="3"/><circle cx="81" cy="111" r="3"/><circle cx="93" cy="111" r="3"/><circle cx="105" cy="111" r="3"/><circle cx="117" cy="111" r="3"/><circle cx="129" cy="111" r="3"/><circle cx="141" cy="111" r="3"/><circle cx="153" cy="111" r="3"/><circle cx="165" cy="111" r="3"/><circle cx="177" cy="111" r="3"/><circle cx="189" cy="111" r="3"/><circle cx="201" cy="111" r="3"/><circle cx="213" cy="111" r="3"/><circle cx="225" cy="111" r="3"/><circle cx="237" cy="111" r="3"/><circle cx="249" cy="111" r="3"/><circle cx="261" cy="111" r="3"/><circle cx="3" cy="123" r="3"/><circle cx="15" cy="123" r="3"/><circle cx="27" cy="123" r="3"/><circle cx="39" cy="123" r="3"/><circle cx="51" cy="123" r="3"/><circle cx="63" cy="123" r="3"/><circle cx="75" cy="123" r="3"/><circle cx="87" cy="123" r="3"/><circle cx="99" cy="123" r="3"/><circle cx="111" cy="123" r="3"/><circle cx="123" cy="123" r="3"/><circle cx="135" cy="123" r="3"/><circle cx="147" cy="123" r="3"/><circle cx="159" cy="123" r="3"/><circle cx="171" cy="123" r="3"/><circle cx="183" cy="123" r="3"/><circle cx="195" cy="123" r="3"/><circle cx="207" cy="123" r="3"/><circle cx="219" cy="123" r="3"/><circle cx="231" cy="123" r="3"/><circle cx="243" cy="123" r="3"/><circle cx="255" cy="123" r="3"/><circle cx="267" cy="123" r="3"/><circle cx="9" cy="135" r="3"/><circle cx="21" cy="135" r="3"/><circle cx="33" cy="135" r="3"/><circle cx="45" cy="135" r="3"/><circle cx="57" cy="135" r="3"/><circle cx="69" cy="135" r="3"/><circle cx="81" cy="135" r="3"/><circle cx="93" cy="135" r="3"/><circle cx="105" cy="135" r="3"/><circle cx="117" cy="135" r="3"/><circle cx="129" cy="135" r="3"/><circle cx="141" cy="135" r="3"/><circle cx="153" cy="135" r="3"/><circle cx="165" cy="135" r="3"/><circle cx="177" cy="135" r="3"/><circle cx="189" cy="135" r="3"/><circle cx="201" cy="135" r="3"/><circle cx="213" cy="135" r="3"/><circle cx="225" cy="135" r="3"/><circle cx="237" cy="135" r="3"/><circle cx="249" cy="135" r="3"/><circle cx="261" cy="135" r="3"/><circle cx="3" cy="147" r="3"/><circle cx="15" cy="147" r="3"/><circle cx="27" cy="147" r="3"/><circle cx="39" cy="147" r="3"/><circle cx="51" cy="147" r="3"/><circle cx="63" cy="147" r="3"/><circle cx="75" cy="147" r="3"/><circle cx="87" cy="147" r="3"/><circle cx="99" cy="147" r="3"/><circle cx="111" cy="147" r="3"/><circle cx="123" cy="147" r="3"/><circle cx="135" cy="147" r="3"/><circle cx="147" cy="147" r="3"/><circle cx="159" cy="147" r="3"/><circle cx="171" cy="147" r="3"/><circle cx="183" cy="147" r="3"/><circle cx="195" cy="147" r="3"/><circle cx="207" cy="147" r="3"/><circle cx="219" cy="147" r="3"/><circle cx="231" cy="147" r="3"/><circle cx="243" cy="147" r="3"/><circle cx="255" cy="147" r="3"/><circle cx="267" cy="147" r="3"/><circle cx="9" cy="159" r="3"/><circle cx="21" cy="159" r="3"/><circle cx="33" cy="159" r="3"/><circle cx="45" cy="159" r="3"/><circle cx="57" cy="159" r="3"/><circle cx="69" cy="159" r="3"/><circle cx="81" cy="159" r="3"/><circle cx="93" cy="159" r="3"/><circle cx="105" cy="159" r="3"/><circle cx="117" cy="159" r="3"/><circle cx="129" cy="159" r="3"/><circle cx="141" cy="159" r="3"/><circle cx="153" cy="159" r="3"/><circle cx="165" cy="159" r="3"/><circle cx="177" cy="159" r="3"/><circle cx="189" cy="159" r="3"/><circle cx="201" cy="159" r="3"/><circle cx="213" cy="159" r="3"/><circle cx="225" cy="159" r="3"/><circle cx="237" cy="159" r="3"/><circle cx="249" cy="159" r="3"/><circle cx="261" cy="159" r="3"/><circle cx="3" cy="171" r="3"/><circle cx="15" cy="171" r="3"/><circle cx="27" cy="171" r="3"/><circle cx="39" cy="171" r="3"/><circle cx="51" cy="171" r="3"/><circle cx="63" cy="171" r="3"/><circle cx="75" cy="171" r="3"/><circle cx="87" cy="171" r="3"/><circle cx="99" cy="171" r="3"/><circle cx="111" cy="171" r="3"/><circle cx="123" cy="171" r="3"/><circle cx="135" cy="171" r="3"/><circle cx="147" cy="171" r="3"/><circle cx="159" cy="171" r="3"/><circle cx="171" cy="171" r="3"/><circle cx="183" cy="171" r="3"/><circle cx="195" cy="171" r="3"/><circle cx="207" cy="171" r="3"/><circle cx="219" cy="171" r="3"/><circle cx="231" cy="171" r="3"/><circle cx="243" cy="171" r="3"/><circle cx="255" cy="171" r="3"/><circle cx="267" cy="171" r="3"/></g><g id="logo/doughnuts" transform="translate(84 79)"><g id="Krispy_Kreme_logo"><path d="M61.14 7.263C33.903 4.007 21.202 2.63 1.576.286.912.286.318.176.414 1.278 4.646 15.929 5.26 18.348 10.762 37.33c1.18 3.432 3.107 4.342 4.974 4.342h45.258l45.247.002c1.866 0 3.795-.91 4.975-4.343 5.503-18.982 6.116-21.401 10.347-36.052.096-1.102-.497-.993-1.162-.993-19.626 2.345-32.024 3.72-59.261 6.976" id="green" fill="#007550" fill-rule="nonzero"/><path d="M60.983 9.31c24.571-2.786 39.203-4.676 56.813-6.726.633-.064 1.203-.417.908.622-2.428 8.666-3.183 11.367-7.585 26.71-.857 2.787-2.111 2.44-4.07 2.449-16.539 0-28.1-.006-46.065-.01-17.966.004-29.517.009-46.055.009-1.958-.01-3.214.337-4.07-2.448C6.457 14.57 5.702 11.87 3.274 3.206c-.295-1.04.275-.688.91-.624 17.607 2.05 32.229 3.94 56.8 6.728" id="white" fill="#FFF" fill-rule="nonzero"/><path d="M38.564 11.42c9.369-.001 20.773-.002 21.264.004 1.484.014 2.157-.667 2.427-.91.272-.245.58-.232.572.052-.002.123-1.606 3.883-3.827 3.878-1.36-.003-11.587-.004-20.453-.004.34-.411.545-.942.545-1.519 0-.569-.197-1.092-.528-1.5zm8.08 8.941c-.173.351-1.524 3.745-1.524 3.745-.363.938.168 1.414.559 1.514.873.226 1.715-.426 2.623-2.842 1.441-3.836-1.22-3.304-1.658-2.417zm-9.545 3.14c1.293.582.774 2.399-.13 2.62-.417.33 1.329 1.195 2.097-.584.782-1.812-.216-3.575-.333-4.003-.314.264-.86.945-1.634 1.966zm10.893 2.946c2.183-.685 4.035-3.575 4.415-4.534.84-2.27 1.556-4.029 1.556-4.029l2.612-.006s-1.868 4.52-2.672 6.814c-.77 2.192 1.398.35 2.277-2.082a383.39 383.39 0 0 1 1.751-4.651l2.71-.005s-3.144 7.94-3.468 8.628c1.012-.279 2.28.51 2.158.891-.444 1.367-.715-.676-2.579-.086-1.027 2.515-3.31 4.712-5.104 4.44-2.324-.35-.968-3.554 2.95-4.713l.34-.957c-2.014 1.691-3.953.665-3.494-1.326-1.69 2.078-3.675 2.374-4.938 2.281-.95.144-1.76-.27-2.182-.904-.643 1.705-1.52 3.893-1.52 3.893h-2.596l1.326-3.427c-1.112.662-2.205.79-3.056.759-1.717.476-2.774-.685-3.077-1.533-1.917 2.568-4.034 1.647-4.323.07-.818.86-1.714 1.505-2.526 1.475-1.976-.074-1.492-3.065-1.15-4.067.895-2.608 1.865-3.652.052-3.71-.302-.009-2.475 8.521-6.427 8.892-3.662.341-2.252-2.607-1.644-4.293.971-2.7 2.002-4.049 1.485-5.055-.401-.781-2.623.836-3.304 2.56-.88 2.22-2.658 6.86-2.658 6.86l-3.428.075s2.828-7.23 5.575-14.505c.896-2.37-.471-2.44-1.54-2.376-.882.053-.535-.737.11-.787 3.292-.253 4.486-.203 4.883.058.676.446.645 1.366.523 1.58-.605 1.592-1.717 4.411-1.867 4.855-.48 1.425.515.057.808-.313.292-.37 2.367-2.729 2.78-3.287.429-.58 2.331-2.51 3.605-2.51h8.58c-.33.408-.529.93-.529 1.5 0 .577.206 1.107.545 1.518-5.33.001-9.508.002-9.807.004-.664.004-2.15.83-3.274 2.2-.97 1.182.294.754.294.754 1.889-.184 3.648-.614.632 6.055-2.884 6.38 1.421 3.392 3.94-4.327.09-.281-.647-.647-.672-1.176-.033-.676-.232-1.454.938-1.454 1.171 0 .785 1.2 1.775 1.507 2.005.62 3.096-.016 2.043 2.563-1.008 2.472-2.122 5.547-.804 5.177.632-.178.998-.646 1.232-1.077a236.494 236.494 0 0 1 2.583-6.795h2.588l-2.824 7.208c-.653 1.664.648.73 1.614-.34.112-.877.759-1.207.954-1.239 1.025-1.497 4.31-6.195 4.31-6.195s.252.184.041.52c-.282.447.242 2.664.472 3.367.365 1.12.951 3.887-.586 5.157a6.792 6.792 0 0 1-.888.631 5.376 5.376 0 0 0 2.308-1.043l3.12-8.06h2.572s-.112.246-.258.627c.74-.572 1.657-.877 2.361-.687.718.191 3.094.378.423 5.913-.636 1.315-1.345 2.184-2.046 2.717zm4.231 3.771c.844-.559 1.428-1.163 1.943-2.122-.63.135-1.706.732-2.265 1.263-.731.693-.373 1.32.322.86zM35.341 12.922c0-.787.63-1.423 1.407-1.423s1.407.637 1.407 1.423c0 .784-.63 1.421-1.407 1.421a1.415 1.415 0 0 1-1.407-1.421zm47.566 9.846c1.32.029 2.908-.78 3.254-1.385.346-.604.305-1.787-.576-1.831-.744-.036-2.222.652-2.678 3.216zm26.238 2.244c-2.554 3.493-6.328 3.053-7.223-.17-.622 1.276-1.525 2.533-3.183 2.68-1.99.177-2.195-1.812-1.975-2.922.219-1.11.56-1.555 1.364-3.849.566-1.617-1.1-.79-2.046.769-.682 1.86-2.225 6.011-2.225 6.011s-.797-.06-2.575-.083c.22-1.11 1.689-4.369 2.494-6.663.575-1.64-1.15-.767-2.087.838-.03.053-.06.102-.09.15l-2.301 5.759H86.61l.843-2.152c-.268.296-.576.58-.939.839-3.445 2.463-5.086.681-5.622-1.066-.985 1.229-2.18 2.332-3.238 2.293-1.975-.075-1.49-3.065-1.148-4.066.893-2.61 1.863-3.653.051-3.71-.302-.01-2.476 8.519-6.427 8.89-3.662.341-2.253-2.605-1.646-4.293.972-2.7 2.003-4.049 1.486-5.055-.401-.78-2.622.836-3.304 2.56a949.823 949.823 0 0 0-2.659 6.863l-3.426.072s2.827-7.229 5.575-14.504c.896-2.371-.47-2.44-1.54-2.376-.882.052-.535-.738.11-.788 3.292-.252 4.486-.203 4.882.058.675.447.645 1.367.523 1.58-.604 1.593-1.717 4.412-1.866 4.855-.48 1.426.515.057.808-.313.294-.37 2.365-2.728 2.779-3.286.43-.58 2.332-2.509 3.607-2.509 1.12 0 32.65-.009 33.474 0 1.483.015 2.156-.665 2.427-.91.27-.243.58-.232.573.053-.003.122-1.608 3.882-3.828 3.878-2.426-.005-33.027-.006-33.86 0-.66.003-2.148.83-3.273 2.2-.97 1.182.294.753.294.753 1.889-.183 3.647-.612.634 6.055-2.886 6.38 1.42 3.392 3.938-4.327.092-.281-.646-.647-.671-1.175-.033-.677-.233-1.454.938-1.454s.784 1.2 1.774 1.507c2.007.62 3.097-.016 2.044 2.563-1.008 2.471-2.121 5.547-.804 5.176 1.067-.3 1.374-1.425 1.57-1.802a2.886 2.886 0 0 1 .005-.297c.182-2.555 1.663-4.753 2.924-5.31 3.02-1.334 4.184.367 4.085 1.99-.12 1.988-2.325 3.32-4.814 3.392-.045-.035-.051-.009 0 .371.39 2.852 3.602 1.299 5.316-.624l2.207-5.626 2.766-.015-.673 1.685c2.044-2.476 4.25-1.78 4.062.338l.08-.108c2.343-3.108 5.017-1.918 4.099.89-.135.412-1.466 4.238-1.466 4.238s-.412 1.285.393 1.285c.694 0 1.645-1.24 2.069-2.406l-.006-.1c-.126-2.537 1.427-4.726 2.68-5.279 3.006-1.326 4.29.366 4.281 1.977-.01 1.978-2.183 3.302-4.718 3.376-.048-.037-.054-.01.022.367.67 3.39 4.028 1.165 4.523.555 1.249-1.543 1.207-.427.621.372zm-5.201-2.237c1.346.027 2.922-.777 3.24-1.378.318-.601.208-1.777-.692-1.821-.76-.035-2.23.649-2.548 3.199z" id="Shape" fill="#CE1041" fill-rule="nonzero"/><path d="M51.604 36.507v.971h.888c-.05.55-.455.827-.986.827-.804 0-1.241-.75-1.241-1.489 0-.726.418-1.501 1.223-1.501.494 0 .85.302 1.017.757l1.16-.494c-.405-.89-1.153-1.33-2.12-1.33-1.516 0-2.552 1.015-2.552 2.561 0 1.495 1.029 2.51 2.507 2.51.787 0 1.48-.283 1.941-.932.419-.594.468-1.186.48-1.88h-2.317" id="g" fill="#FFF" fill-rule="nonzero"/><path id="t" fill="#FFF" fill-rule="nonzero" d="M95.116 35.453h1.375v-1.048h-4.009v1.048h1.375v3.711h1.26v-3.711"/><path d="M17.82 35.452h.288c.786 0 1.341.48 1.341 1.332 0 .928-.624 1.331-1.354 1.331h-.275v-2.663zm-1.223 3.71h1.735a2.38 2.38 0 1 0 0-4.757h-1.735v4.757z" id="d" fill="#FFF"/><path d="M29.469 35.447c.73 0 1.329.599 1.329 1.255 0 .82-.6 1.42-1.33 1.42-.73 0-1.33-.6-1.33-1.42 0-.656.6-1.255 1.33-1.255zm0-1.2c-1.355 0-2.603 1.01-2.603 2.448 0 1.54 1.092 2.625 2.603 2.625 1.51 0 2.601-1.084 2.601-2.625 0-1.438-1.248-2.447-2.601-2.447z" fill="#FFF"/><path d="M41.383 34.34v2.505c0 .619-.044 1.294-.83 1.294-.785 0-.83-.675-.83-1.294V34.34h-1.222v2.676c0 .612.025 1.217.492 1.677.394.392 1.01.53 1.56.53s1.167-.139 1.56-.53c.468-.46.493-1.065.493-1.677V34.34h-1.223" id="u" fill="#FFF"/><path id="h" fill="#FFF" d="M61.556 36.241v-1.836h-1.223v4.76h1.223v-1.95h1.765v1.95h1.223v-4.76h-1.223v1.836h-1.765"/><path id="n" fill="#FFF" d="M71.193 39.164h1.223V36.25h.013l2.24 2.915h1.223v-4.759H74.67v2.91h-.013l-2.24-2.91h-1.223v4.76"/><path d="M85.398 34.405v2.506c0 .618-.043 1.294-.83 1.294-.785 0-.83-.676-.83-1.294v-2.506h-1.222v2.676c0 .612.025 1.218.493 1.679.394.391 1.01.53 1.56.53s1.166-.139 1.56-.53c.467-.461.492-1.067.492-1.679v-2.676h-1.223" id="u" fill="#FFF"/><path d="M105.49 34.67a3.182 3.182 0 0 0-1.471-.39c-.942 0-1.622.631-1.622 1.595 0 .921.504 1.123 1.272 1.344.261.076.742.196.742.545 0 .332-.306.477-.592.477-.419 0-.78-.22-1.085-.491l-.525.996c.48.341 1.06.543 1.653.543.475 0 .968-.133 1.335-.448.375-.322.488-.807.488-1.281 0-.77-.507-1.104-1.16-1.3l-.313-.095c-.213-.07-.544-.177-.544-.454 0-.265.3-.397.524-.397.3 0 .587.126.81.315l.488-.958" id="s" fill="#FFF"/></g></g></g></g></svg>