<svg width="60" height="60" viewBox="0 0 60 60" version="1.1" xmlns="http://www.w3.org/2000/svg" xmlns:xlink="http://www.w3.org/1999/xlink"><defs><path d="M43.01 51.354c-9.624 5.875-22.362 4.65-30.688-3.676-9.763-9.763-9.763-25.593 0-35.356 9.763-9.763 25.593-9.763 35.356 0 8.065 8.066 9.468 20.27 4.207 29.776l6.608 7.709a2 2 0 0 1-.104 2.716l-5.16 5.159a2 2 0 0 1-2.715.104l-7.503-6.432z" id="path-1"/></defs><g id="Symbols" stroke="none" stroke-width="1" fill="none" fill-rule="evenodd"><g id="illustration/design/tea"><g id="mug"><use fill="#393F41" fill-rule="evenodd" xlink:href="#path-1"/><path stroke="#2E3436" stroke-width="1" d="M42.75 50.928l.31-.19 7.78 6.668a1.5 1.5 0 0 0 2.036-.078l5.16-5.159a1.5 1.5 0 0 0 .078-2.037L51.28 42.16l.168-.304c5.245-9.478 3.65-21.405-4.124-29.18-9.568-9.568-25.08-9.568-34.648 0-9.568 9.568-9.568 25.08 0 34.648 8.042 8.042 20.498 9.448 30.074 3.604z"/></g><circle id="mug-inner" fill="#FFF" cx="30" cy="30" r="23"/><circle id="tea" fill="#B27738" cx="30" cy="30" r="20"/><path d="M19.178 46.822C13.656 43.262 10 37.058 10 30c0-11.046 8.954-20 20-20 7.058 0 13.262 3.656 16.822 9.178A19.906 19.906 0 0 0 36 16c-11.046 0-20 8.954-20 20 0 3.988 1.167 7.702 3.178 10.822z" id="shadow" fill-opacity=".4" fill="#000"/></g></g></svg>