<svg width="9" height="80" viewBox="0 0 9 80" version="1.1" xmlns="http://www.w3.org/2000/svg"><g id="Symbols" stroke="none" stroke-width="1" fill="none" fill-rule="evenodd"><g id="illustration/design/sharpie/red"><g id="pen"><path id="barrel" fill="#DBDEDF" fill-rule="nonzero" d="M0 18h9v37.963H0z"/><path d="M0 55.963h9c-.155 0 0 .167 0 0V76.05c0 1.079-.775 1.913-1.8 1.913H1.8c-1.025 0-1.8-.834-1.8-1.913V55.963c0 .167.155 0 0 0z" id="cap" fill="#CF3922" fill-rule="nonzero"/><rect id="cap-thing" fill="#80281B" fill-rule="nonzero" x="3" y="61" width="3" height="19" rx="1"/><path d="M0 19v-2C0 15.815 1.402 5.699 2 6h1V3h3v3h1c.598-.301 2 9.815 2 11v2H0z" id="top" fill="#CF3922"/><path d="M3 1c0-.167 1.29-1 2-1h1v3H3V1z" id="nib" fill="#80281B" fill-rule="nonzero"/></g><path d="M8.085 34.586c-.26.195-2.6-.325-2.6-.325.044.672.304 1.365-.28 1.582-.737.26-2.426-.802-2.99-.52.13 1.256 1.906.736 3.01 1.71.78.672.78 1.603-.216 1.863-.151.758-2.36-.693-2.599-.151-.195.411.325.693.823.888.325.108 1.04.346 1.386.281.065-.346.282-.563.607-.433.13.043.216.433.216.672.607.346.758.281.802.693.021.238-.477.108-.715.108.13.715.282 1.104-.39 1.213-1.191.108-2.166-.975-2.772-.563.021.086.173.887 1.754 1.299 1.321.325 2.924.65 2.08 1.083-.282.151-.564-.152-.845-.087 0 .022 1.04 1.061.216 1.581-.173.087-1.3.304-2.425-.13-.325-.108-1.365-.498-1.516-1.018-.195-.65.671-1.191 1.407-.455.174.347-.368.044-.584.13-.997.412 2.404 1.408 2.599.867.065-.455-.325-.693-.715-.91-1.516-.91-4.245-.693-4.31-1.04-.152-.671.282-.671 2.122-.39-.064-.26-1.06-1.126-.173-1.624.823-.498 2.773 1.04 2.924.498.043-.151-.043-.346-.108-.476-.087-.26-1.386-.347-2.448-.996-.844-.455-1.126-1.386-.26-1.755-.628-.758-.996-1.646 0-1.819-.13-.52-1.126-1.105-.454-1.754.584-.563 1.624.281 3.14.498.13-.217 0-.996-.26-1.126-.26-.13-2.902-.238-3.14-.65-.564-.975 1.602-.325 2.837-.152.216-.368.26-.8.736-.563.13.065.065.585.282.737.563.368 2.295.39 2.858.758.174.065.152.368 0 .476zm-5.762 2.578c.109.714 1.018.693 2.643 1.32.065-.15.13-.237.086-.367-.194-.715-2.1-1.408-2.729-.953zm4.44 9.789c.347.13.542.433.477.671-.087.239-.412.325-.758.173-.325-.13-.541-.433-.455-.67.065-.24.412-.326.736-.174zm-.888 1.69c.217.78-.758 1.234-2.035.78-1.213-.477-1.408-1.495-1.841-1.192-.412.281-.542.974-.217 1.386.217.281.563.281 1.105.585.151.606-1.43.216-1.755-.433-.346-.693-.086-1.776.672-2.123 0-.455-.477-1.408.195-1.82.476-.324.93-.259 1.992.087.823.282 1.755.802 1.711 1.127-.065.714-1.234-.455-2.599-.672-.671-.108-.715.282-.65.932.325-.087.694-.173 1.213-.109.823.109 1.971.563 2.21 1.451zm-2.815-.65c.866.93 1.798.91 1.97.8.023-.086.023-.13 0-.194-.15-.39-1.515-.845-1.97-.606zM8.193 30.95c.065.758-.087 2.187-.801 2.23-1.062.066-1.711-1.364-1.906-1.819-.109-.411.151-.78.52-.498.844 1.278.996 1.95 1.3 1.581.692-.888-.347-4.331-1.019-4.461-.39-.065-.671.498-1.104 1.646-.585 1.56-1.343 3.162-2.75 2.469-1.3-.628-1.669-2.556-1.864-3.834-.173-.974.044-2.989.412-3.184.152-.13.498-.108.541.109.065.433-.584 1.386-.13 3.66.13.628.759 2.252 1.451 2.469 1.192.325 1.516-3.769 2.86-4.093 1.732-.412 2.403 2.642 2.49 3.725z" id="logo" fill="#0C0E0F" fill-rule="nonzero"/></g></g></svg>