<svg width="60" height="60" viewBox="0 0 60 60" version="1.1" xmlns="http://www.w3.org/2000/svg"><g id="Symbols" stroke="none" stroke-width="1" fill="none" fill-rule="evenodd"><path d="M16.99 8.646c9.624-5.875 22.362-4.65 30.688 3.676 9.763 9.763 9.763 25.593 0 35.356-9.763 9.763-25.593 9.763-35.356 0-8.065-8.066-9.468-20.27-4.207-29.776l-6.608-7.709a2 2 0 0 1 .104-2.716l5.16-5.159a2 2 0 0 1 2.715-.104l7.503 6.432z" id="mug" stroke="#0097BA" fill="#00A9D0"/><circle id="mug-inner" fill="#FFF" cx="30" cy="30" r="23"/><circle id="coffee" fill="#694620" cx="30" cy="30" r="20"/><path d="M19.178 46.822C13.656 43.262 10 37.058 10 30c0-11.046 8.954-20 20-20 7.058 0 13.262 3.656 16.822 9.178A19.906 19.906 0 0 0 36 16c-11.046 0-20 8.954-20 20 0 3.988 1.167 7.702 3.178 10.822z" id="shadow" fill-opacity=".4" fill="#000"/></g></svg>