<svg width="460" height="277" viewBox="0 0 460 277" version="1.1" xmlns="http://www.w3.org/2000/svg" xmlns:xlink="http://www.w3.org/1999/xlink" preserveAspectRatio="xMidYMid slice"><defs><path d="M426.087 0C431.009 0 435 4.146 435 9.26V263H25V9.26C25 4.147 28.99 0 33.913 0h392.174z" id="path-1"/></defs><g id="Ill" stroke="none" stroke-width="1" fill="none" fill-rule="evenodd"><g id="Develop" transform="translate(-25 -11)"><g id="macbook" transform="translate(25 11)"><g id="case"><use fill="#393F41" fill-rule="evenodd" xlink:href="#path-1"/><path stroke="#959EA2" stroke-width="4" d="M27 261h406V9.26c0-4.026-3.113-7.26-6.913-7.26H33.913C30.113 2 27 5.234 27 9.26V261z"/></g><path d="M460 259v12.375c0 3.107-3.678 5.625-8.214 5.625H8.214C3.678 277 0 274.482 0 271.375V259h460z" id="bottom" fill="#959EA2"/><path d="M275 259.026c0 4.404-5.037 7.974-11.25 7.974h-67.5c-6.213 0-11.25-3.57-11.25-7.974 0-.018 90-.048 90 0z" id="indent" fill="#A9B0B4"/><circle id="camera" fill="#303537" fill-rule="nonzero" cx="254" cy="12" r="2"/></g><g id="directory-structure" transform="translate(65 33)"><path id="Rectangle" fill="#142D3F" d="M0 0h100v226H0z"/><path id="file" fill="#344154" d="M30 42.83h-4v9.114h7v-6.38z"/><path id="file" fill="#DBDEDF" d="M30 59.234h-4v9.113h7v-6.38z"/><path id="file" fill="#344154" d="M30 75.637h-4v9.113h7v-6.379zM30 92.04h-4v9.113h7v-6.379zM20 141.25h-4v9.113h7v-6.38zM20 156.742h-4v9.113h7v-6.38z"/><path d="M14 10.935h-4v8.202h10V13.67c0-.5-.45-.91-1-.91h-4l-1-1.824zM20 27.339h-4v8.201h10v-5.467c0-.502-.45-.912-1-.912h-4l-1-1.822zM20 109.355h-4v8.201h10v-5.467c0-.501-.45-.912-1-.912h-4l-1-1.822zM20 126.67h-4v8.201h10v-5.468c0-.501-.45-.911-1-.911h-4l-1-1.823z" id="folder" fill="#344154"/><rect id="Rectangle" fill="#344154" x="25" y="15.492" width="34" height="3.645" rx="1.823"/><rect id="Rectangle" fill="#344154" x="30" y="146.718" width="34" height="3.645" rx="1.823"/><rect id="Rectangle" fill="#344154" x="30" y="162.21" width="34" height="3.645" rx="1.823"/><rect id="Rectangle" fill="#344154" x="31" y="31.895" width="34" height="3.645" rx="1.823"/><rect id="Rectangle" fill="#344154" x="40" y="48.298" width="34" height="3.645" rx="1.823"/><rect id="Rectangle" fill="#DBDEDF" x="40" y="64.702" width="34" height="3.645" rx="1.823"/><rect id="Rectangle" fill="#344154" x="40" y="81.105" width="34" height="3.645" rx="1.823"/><rect id="Rectangle" fill="#344154" x="40" y="97.508" width="34" height="3.645" rx="1.823"/><rect id="Rectangle" fill="#344154" x="31" y="113.911" width="34" height="3.645" rx="1.823"/><rect id="Rectangle" fill="#344154" x="31" y="130.315" width="34" height="3.645" rx="1.823"/></g><g id="editor" transform="translate(165 33)"><path id="Rectangle" fill="#18354A" d="M0 0h280v226H0z"/><g id="line-numbers" transform="translate(9 14)" fill="#637988"><circle id="Oval" cx="3.5" cy="3.5" r="3.5"/><circle id="Oval" cx="3.5" cy="21.5" r="3.5"/><circle id="Oval" cx="3.5" cy="39.5" r="3.5"/><circle id="Oval" cx="3.5" cy="57.5" r="3.5"/><circle id="Oval" cx="3.5" cy="75.5" r="3.5"/><circle id="Oval" cx="3.5" cy="93.5" r="3.5"/><circle id="Oval" cx="3.5" cy="111.5" r="3.5"/><circle id="Oval" cx="3.5" cy="165.5" r="3.5"/><circle id="Oval" cx="3.5" cy="129.5" r="3.5"/><circle id="Oval" cx="3.5" cy="183.5" r="3.5"/><circle id="Oval" cx="3.5" cy="147.5" r="3.5"/><circle id="Oval" cx="3.5" cy="201.5" r="3.5"/></g><g id="code" transform="translate(36 15)" fill="#59BB67"><rect id="Rectangle" x="0" y="198" width="20" height="5" rx="2.5"/><rect id="Rectangle" x="10" y="18" width="70" height="5" rx="2.5"/><rect id="Rectangle" x="0" y="0" width="18" height="5" rx="2.5"/><rect id="Rectangle" x="10" y="180" width="20" height="5" rx="2.5"/><rect id="Rectangle" x="20" y="36" width="70" height="5" rx="2.5"/><rect id="Rectangle" x="20" y="162" width="20" height="5" rx="2.5"/><rect id="Rectangle" x="40" y="108" width="70" height="5" rx="2.5"/><rect id="Rectangle-Copy" x="40" y="54" width="70" height="5" rx="2.5"/><rect id="Rectangle" x="50" y="126" width="140" height="5" rx="2.5"/><rect id="Rectangle-Copy-2" x="50" y="72" width="140" height="5" rx="2.5"/><rect id="Rectangle" x="40" y="144" width="20" height="5" rx="2.5"/><rect id="Rectangle-Copy-3" x="40" y="90" width="20" height="5" rx="2.5"/></g></g></g></g></svg>