<svg width="129" height="246" viewBox="0 0 129 246" version="1.1" xmlns="http://www.w3.org/2000/svg"><g id="Symbols" stroke="none" stroke-width="1" fill="none" fill-rule="evenodd"><path d="M16 1h98c8.284 0 15 6.716 15 15v215c0 8.284-6.716 15-15 15H16c-8.284 0-15-6.716-15-15V16C1 7.716 7.716 1 16 1zm-6 32v180h110V33H10z" id="device" fill="#393F41"/><circle id="Front-camera" fill-opacity=".15" fill="#000" cx="65" cy="13" r="2"/><rect id="Speaker" fill-opacity=".15" fill="#000" x="52" y="18" width="26" height="3" rx="1.5"/><circle id="Home" stroke="#60696D" cx="65" cy="230" r="9"/><g id="buttons" fill="#393F41"><rect id="Rectangle-3" x="89" y="0" width="15" height="2" rx="1"/><rect id="Rectangle" x="0" y="36" width="2" height="14" rx="1"/><rect id="Rectangle-2" x="0" y="56" width="2" height="9" rx="1"/><rect id="Rectangle-20" x="0" y="71" width="2" height="9" rx="1"/></g></g></svg>