<svg width="465" height="300" viewBox="0 0 465 300" version="1.1" xmlns="http://www.w3.org/2000/svg" xmlns:xlink="http://www.w3.org/1999/xlink" preserveAspectRatio="xMidYMid slice"><defs><path d="M0 5.007A5.007 5.007 0 0 1 5.003 0h359.994A4.999 4.999 0 0 1 370 5.007V285H0V5.007z" id="path-1"/><filter x="-4.5%" y="-3.7%" width="108.9%" height="111.6%" filterUnits="objectBoundingBox" id="filter-2"><feOffset dx="0" dy="3" in="SourceAlpha" result="shadowOffsetOuter1"/><feGaussianBlur stdDeviation="3" in="shadowOffsetOuter1" result="shadowBlurOuter1"/><feColorMatrix values="0 0 0 0 0 0 0 0 0 0 0 0 0 0 0 0 0 0 0.16 0" type="matrix" in="shadowBlurOuter1" result="shadowMatrixOuter1"/><feOffset dx="0" dy="3" in="SourceAlpha" result="shadowOffsetOuter2"/><feGaussianBlur stdDeviation="3" in="shadowOffsetOuter2" result="shadowBlurOuter2"/><feColorMatrix values="0 0 0 0 0 0 0 0 0 0 0 0 0 0 0 0 0 0 0.23 0" type="matrix" in="shadowBlurOuter2" result="shadowMatrixOuter2"/><feMerge><feMergeNode in="shadowMatrixOuter1"/><feMergeNode in="shadowMatrixOuter2"/></feMerge></filter><circle id="path-3" cx="15" cy="15" r="5"/><circle id="path-4" cx="30" cy="15" r="5"/><circle id="path-5" cx="45" cy="15" r="5"/><path id="path-6" d="M100 50h270v25H100z"/><linearGradient x1="30.526%" y1="0%" x2="73.577%" y2="94.72%" id="linearGradient-7"><stop stop-color="#0089D2" offset="0%"/><stop stop-color="#0070D2" offset="100%"/></linearGradient><path d="M15 0h98c8.284 0 15 6.716 15 15v215c0 8.284-6.716 15-15 15H15c-8.284 0-15-6.716-15-15V15C0 6.716 6.716 0 15 0zM9 32v180h110V32H9z" id="path-8"/></defs><g id="Ill" stroke="none" stroke-width="1" fill="none" fill-rule="evenodd"><g id="Prototype" transform="translate(-26 -25)"><g id="Browser" transform="translate(115 28)"><g id="illustration/prototype"><g id="Browser"><g id="header"><g id="bar"><use fill="#000" fill-opacity="1" filter="url(#filter-2)" xlink:href="#path-1"/><use fill="#E4E8EC" fill-rule="evenodd" xlink:href="#path-1"/></g><g id="button-close"><use fill="#FF5F57" fill-rule="evenodd" xlink:href="#path-3"/><circle stroke="#E0443E" stroke-width=".5" cx="15" cy="15" r="4.75"/></g><g id="button-minimise"><use fill="#FFBD2E" fill-rule="evenodd" xlink:href="#path-4"/><circle stroke="#DF9F22" stroke-width=".5" cx="30" cy="15" r="4.75"/></g><g id="button-full"><use fill="#29C941" fill-rule="evenodd" xlink:href="#path-5"/><circle stroke="#1AAB2B" stroke-width=".5" cx="45" cy="15" r="4.75"/></g></g><path id="Rectangle" fill="#FFF" d="M0 30h370v50H0z"/></g></g><g id="screen/browser/initial" transform="translate(0 30)"><g id="side-navigation"><path id="Rectangle-5" fill="#42526A" d="M0 0h100v255H0z"/><path id="Rectangle-6" fill-opacity=".2" fill="#000" d="M0 38h100v17H0z"/><rect id="Rectangle-15" fill-opacity=".5" fill="#FFF" x="10" y="25" width="40" height="4" rx="2"/><rect id="Rectangle-15-Copy" fill="#FFF" x="10" y="44" width="35" height="4" rx="2"/><rect id="Rectangle-15-Copy" fill-opacity=".5" fill="#FFF" x="10" y="63" width="45" height="4" rx="2"/><rect id="Rectangle-15-Copy-2" fill-opacity=".5" fill="#FFF" x="10" y="82" width="65" height="4" rx="2"/><rect id="Rectangle-15-Copy-3" fill-opacity=".5" fill="#FFF" x="10" y="101" width="70" height="4" rx="2"/></g><g id="temp-row2" transform="translate(100 105)"><path id="Rectangle-7-Copy-2" fill="#E4E8EC" d="M0 29.032h270v1H0z"/><path id="Rectangle-8" fill="#FFF" d="M0 0h270v30H0z"/><rect id="Rectangle-17" fill="#9AA3AF" x="20" y="10" width="30" height="4" rx="2"/><path id="Rectangle-17-Copy" fill="#E4E8EC" d="M20 17h60v2H20z"/><rect id="Rectangle-9-Copy-2" fill="#9AA3AF" x="221" y="10" width="29" height="4" rx="2"/><path id="Rectangle-7" fill="#E4E8EC" d="M0 29h270v1H0z"/></g><g id="temp-row2" transform="translate(100 135)"><path id="Rectangle-7-Copy-2" fill="#E4E8EC" d="M0 29.032h270v1H0z"/><path id="Rectangle-8" fill="#FFF" d="M0 0h270v30H0z"/><rect id="Rectangle-17" fill="#9AA3AF" x="20" y="10" width="30" height="4" rx="2"/><path id="Rectangle-17-Copy" fill="#E4E8EC" d="M20 17h60v2H20z"/><rect id="Rectangle-9-Copy-2" fill="#9AA3AF" x="221" y="10" width="29" height="4" rx="2"/><path id="Rectangle-7" fill="#E4E8EC" d="M0 29h270v1H0z"/></g><g id="temp-row2" transform="translate(100 165)"><path id="Rectangle-7-Copy-2" fill="#E4E8EC" d="M0 29.032h270v1H0z"/><path id="Rectangle-8" fill="#FFF" d="M0 0h270v30H0z"/><rect id="Rectangle-17" fill="#9AA3AF" x="20" y="10" width="30" height="4" rx="2"/><path id="Rectangle-17-Copy" fill="#E4E8EC" d="M20 17h60v2H20z"/><rect id="Rectangle-9-Copy-2" fill="#9AA3AF" x="221" y="10" width="29" height="4" rx="2"/><path id="Rectangle-7" fill="#E4E8EC" d="M0 29h270v1H0z"/></g><g id="temp-row2" transform="translate(100 195)"><path id="Rectangle-7-Copy-2" fill="#E4E8EC" d="M0 29.032h270v1H0z"/><path id="Rectangle-8" fill="#FFF" d="M0 0h270v30H0z"/><rect id="Rectangle-17" fill="#9AA3AF" x="20" y="10" width="30" height="4" rx="2"/><path id="Rectangle-17-Copy" fill="#E4E8EC" d="M20 17h60v2H20z"/><rect id="Rectangle-9-Copy-2" fill="#9AA3AF" x="221" y="10" width="29" height="4" rx="2"/><path id="Rectangle-7" fill="#E4E8EC" d="M0 29h270v1H0z"/></g><g id="temp-row2" transform="translate(100 225)"><path id="Rectangle-7-Copy-2" fill="#E4E8EC" d="M0 29.032h270v1H0z"/><path id="Rectangle-8" fill="#FFF" d="M0 0h270v30H0z"/><rect id="Rectangle-17" fill="#9AA3AF" x="20" y="10" width="30" height="4" rx="2"/><path id="Rectangle-17-Copy" fill="#E4E8EC" d="M20 17h60v2H20z"/><rect id="Rectangle-9-Copy-2" fill="#9AA3AF" x="221" y="10" width="29" height="4" rx="2"/><path id="Rectangle-7" fill="#E4E8EC" d="M0 29h270v1H0z"/></g><g id="temp-row" transform="translate(100 75)"><path id="Rectangle-7-Copy" fill="#E4E8EC" d="M0 0h270v1H0z"/><path id="Rectangle-7-Copy-2" fill="#E4E8EC" d="M0 30h270v1H0z"/><path id="Rectangle-8" fill="#59BB67" d="M0 0h270v31H0z"/><rect id="Rectangle-17" fill="#FFF" x="20" y="11" width="30" height="4" rx="2"/><path id="Rectangle-17-Copy" fill-opacity=".5" fill="#FFF" d="M20 18h60v2H20z"/><rect id="Rectangle-9-Copy-2" fill="#FFF" x="221" y="11" width="29" height="4" rx="2"/></g><g id="Rectangle-7"><use fill="#E4E8EC" fill-rule="evenodd" xlink:href="#path-6"/><path stroke="#DBDEDF" stroke-width="1" d="M100.5 50.5h269v24h-269z"/></g><rect id="Rectangle-8" fill="#9AA3AF" x="120" y="60" width="43" height="4" rx="2"/><rect id="Rectangle-8-Copy" fill="#9AA3AF" x="310" y="60" width="40" height="5" rx="2"/><rect id="Rectangle-15" fill="#9AA3AF" x="120" y="10" width="110" height="12" rx="2"/></g></g><g id="Device" transform="translate(25 78)"><g id="screen/iPhone/initial" transform="translate(11 34)"><path id="background" fill="#E4E8EC" fill-rule="evenodd" d="M0 0h110v180H0z"/><g id="screen/iphone/ui/card-product" transform="translate(0 78)"><path id="Rectangle-12" fill="#FFF" fill-rule="evenodd" d="M0 0h110v35H0z"/><rect id="Rectangle-16" fill="#9AA3AF" fill-rule="evenodd" x="10" y="7" width="20" height="20" rx="2"/><rect id="Rectangle-17" fill="#9AA3AF" fill-rule="evenodd" x="40" y="7" width="19" height="3" rx="1.5"/><rect id="Rectangle-17-Copy" fill="#9AA3AF" fill-rule="evenodd" x="40" y="14" width="37" height="2" rx="1"/><rect id="Rectangle-17-Copy-2" fill="#9AA3AF" fill-rule="evenodd" x="40" y="18" width="37" height="2" rx="1"/><g id="favorite-outline" stroke-width="1" fill-rule="evenodd" transform="translate(90 12)" fill="#9AA3AF"><path d="M7.25 0C6.4 0 5.55.4 5 1.05 4.45.4 3.6 0 2.75 0 1.2 0 0 1.2 0 2.75 0 4.65 1.7 6.2 4.3 8.5l.7.65.7-.65C8.25 6.15 10 4.6 10 2.75 10 1.2 8.8 0 7.25 0zm-2.2 7.8H5l-.05-.05C2.55 5.6 1 4.2 1 2.75 1 1.75 1.75 1 2.75 1c.75 0 1.5.5 1.8 1.2h.95c.25-.7 1-1.2 1.75-1.2C8.25 1 9 1.75 9 2.75 9 4.2 7.45 5.6 5.05 7.8z" id="Shape"/></g><path id="Shape" fill="#FFF" fill-rule="nonzero" d="M12 23l4-4 2 .5 4-4.5 1.5 2 1-.5L29 23z"/><circle id="Oval" fill="#FFF" fill-rule="nonzero" cx="17.5" cy="13.5" r="1.5"/><path id="Rectangle-4" fill="#DBDEDF" fill-rule="evenodd" d="M5 34h100v1H5z"/></g><g id="screen/iphone/ui/card-product" transform="translate(0 113)"><path id="Rectangle-12" fill="#FFF" fill-rule="evenodd" d="M0 0h110v35H0z"/><rect id="Rectangle-16" fill="#9AA3AF" fill-rule="evenodd" x="10" y="7" width="20" height="20" rx="2"/><rect id="Rectangle-17" fill="#9AA3AF" fill-rule="evenodd" x="40" y="7" width="19" height="3" rx="1.5"/><rect id="Rectangle-17-Copy" fill="#9AA3AF" fill-rule="evenodd" x="40" y="14" width="37" height="2" rx="1"/><rect id="Rectangle-17-Copy-2" fill="#9AA3AF" fill-rule="evenodd" x="40" y="18" width="37" height="2" rx="1"/><g id="favorite-outline" stroke-width="1" fill-rule="evenodd" transform="translate(90 12)" fill="#9AA3AF"><path d="M7.25 0C6.4 0 5.55.4 5 1.05 4.45.4 3.6 0 2.75 0 1.2 0 0 1.2 0 2.75 0 4.65 1.7 6.2 4.3 8.5l.7.65.7-.65C8.25 6.15 10 4.6 10 2.75 10 1.2 8.8 0 7.25 0zm-2.2 7.8H5l-.05-.05C2.55 5.6 1 4.2 1 2.75 1 1.75 1.75 1 2.75 1c.75 0 1.5.5 1.8 1.2h.95c.25-.7 1-1.2 1.75-1.2C8.25 1 9 1.75 9 2.75 9 4.2 7.45 5.6 5.05 7.8z" id="Shape"/></g><path id="Shape" fill="#FFF" fill-rule="nonzero" d="M12 23l4-4 2 .5 4-4.5 1.5 2 1-.5L29 23z"/><circle id="Oval" fill="#FFF" fill-rule="nonzero" cx="17.5" cy="13.5" r="1.5"/><path id="Rectangle-4" fill="#DBDEDF" fill-rule="evenodd" d="M5 34h100v1H5z"/></g><g id="screen/iphone/ui/featured-product"><path id="Rectangle-10" fill="url(#linearGradient-7)" fill-rule="evenodd" d="M0 0h110v55H0z"/><g id="favorite-outline" stroke-width="1" fill-rule="evenodd" transform="translate(90 36)" fill="#FFF"><path d="M7.25 0C6.4 0 5.55.4 5 1.05 4.45.4 3.6 0 2.75 0 1.2 0 0 1.2 0 2.75 0 4.65 1.7 6.2 4.3 8.5l.7.65.7-.65C8.25 6.15 10 4.6 10 2.75 10 1.2 8.8 0 7.25 0zm-2.2 7.8H5l-.05-.05C2.55 5.6 1 4.2 1 2.75 1 1.75 1.75 1 2.75 1c.75 0 1.5.5 1.8 1.2h.95c.25-.7 1-1.2 1.75-1.2C8.25 1 9 1.75 9 2.75 9 4.2 7.45 5.6 5.05 7.8z" id="Shape"/></g><rect id="Rectangle-13" fill="#FFF" fill-rule="evenodd" x="10" y="10" width="35" height="35" rx="2"/><rect id="Rectangle-15" fill="#FFF" fill-rule="evenodd" x="55" y="10" width="26" height="3" rx="1.5"/><rect id="Rectangle-15" fill="#FFF" fill-rule="evenodd" x="55" y="19" width="45" height="2" rx="1"/><rect id="Rectangle-15-Copy" fill="#FFF" fill-rule="evenodd" x="55" y="25" width="45" height="2" rx="1"/><path id="Shape-Copy" fill="#9AA3AF" fill-rule="nonzero" d="M19 33l4-4 2 .5 4-4.5 1.5 2 1-.5L36 33z"/><circle id="Oval-Copy" fill="#9AA3AF" fill-rule="nonzero" cx="24.5" cy="23.5" r="1.5"/></g><g id="screen/iphone/ui/filter" transform="translate(0 55)" fill-rule="evenodd"><path id="Rectangle-7" fill="#F1F1F2" d="M0 0h110v25H0z"/><path id="Rectangle-2" fill="#DBDEDF" d="M0 24h110v1H0z"/><rect id="Rectangle" fill="#959EA2" x="10" y="10" width="45" height="5" rx="2"/><path id="Triangle" fill="#959EA2" transform="rotate(180 97.5 12.5)" d="M97.5 10l2.5 5h-5z"/></g><g id="screen/iphone/ui/card-product" transform="translate(0 148)"><path id="Rectangle-12" fill="#FFF" fill-rule="evenodd" d="M0 0h110v35H0z"/><rect id="Rectangle-16" fill="#9AA3AF" fill-rule="evenodd" x="10" y="7" width="20" height="20" rx="2"/><rect id="Rectangle-17" fill="#9AA3AF" fill-rule="evenodd" x="40" y="7" width="19" height="3" rx="1.5"/><rect id="Rectangle-17-Copy" fill="#9AA3AF" fill-rule="evenodd" x="40" y="14" width="37" height="2" rx="1"/><rect id="Rectangle-17-Copy-2" fill="#9AA3AF" fill-rule="evenodd" x="40" y="18" width="37" height="2" rx="1"/><g id="favorite-outline" stroke-width="1" fill-rule="evenodd" transform="translate(90 12)" fill="#9AA3AF"><path d="M7.25 0C6.4 0 5.55.4 5 1.05 4.45.4 3.6 0 2.75 0 1.2 0 0 1.2 0 2.75 0 4.65 1.7 6.2 4.3 8.5l.7.65.7-.65C8.25 6.15 10 4.6 10 2.75 10 1.2 8.8 0 7.25 0zm-2.2 7.8H5l-.05-.05C2.55 5.6 1 4.2 1 2.75 1 1.75 1.75 1 2.75 1c.75 0 1.5.5 1.8 1.2h.95c.25-.7 1-1.2 1.75-1.2C8.25 1 9 1.75 9 2.75 9 4.2 7.45 5.6 5.05 7.8z" id="Shape"/></g><path id="Shape" fill="#FFF" fill-rule="nonzero" d="M12 23l4-4 2 .5 4-4.5 1.5 2 1-.5L29 23z"/><circle id="Oval" fill="#FFF" fill-rule="nonzero" cx="17.5" cy="13.5" r="1.5"/><path id="Rectangle-4" fill="#DBDEDF" fill-rule="evenodd" d="M5 34h100v1H5z"/></g></g><g id="Devices/iPhone/dark"><g id="Screen" stroke-width="1" fill-rule="evenodd" transform="translate(2 2)"><mask id="mask-9" fill="#fff"><use xlink:href="#path-8"/></mask><use id="Combined-Shape" fill="#393F41" xlink:href="#path-8"/></g><circle id="Front-camera" fill-opacity=".15" fill="#000" fill-rule="evenodd" cx="66" cy="14" r="2"/><rect id="Speaker" fill-opacity=".15" fill="#000" fill-rule="evenodd" x="53" y="19" width="26" height="3" rx="1.5"/><circle id="Home" stroke="#60696D" stroke-width="1" cx="66" cy="231" r="8.5"/><rect id="Rectangle-3" fill="#393F41" fill-rule="evenodd" x="90" y="1" width="15" height="2" rx="1"/><rect id="Rectangle" fill="#393F41" fill-rule="evenodd" x="1" y="37" width="2" height="14" rx="1"/><rect id="Rectangle-2" fill="#393F41" fill-rule="evenodd" x="1" y="57" width="2" height="9" rx="1"/><rect id="Rectangle-20" fill="#393F41" fill-rule="evenodd" x="1" y="72" width="2" height="9" rx="1"/></g></g></g></g></svg>