<?xml version="1.0" encoding="iso-8859-1"?>
<!-- Generator: Adobe Illustrator 19.2.1, SVG Export Plug-In . SVG Version: 6.00 Build 0)  -->
<!DOCTYPE svg PUBLIC "-//W3C//DTD SVG 1.1//EN" "http://www.w3.org/Graphics/SVG/1.1/DTD/svg11.dtd">
<svg version="1.1" xmlns="http://www.w3.org/2000/svg" xmlns:xlink="http://www.w3.org/1999/xlink" x="0px" y="0px"
	 viewBox="0 0 398 90" style="enable-background:new 0 0 398 90;" xml:space="preserve">
<g id="tesco">
	<path id="path3996_1_" style="fill:#838997;stroke:#838997;stroke-width:0.0787;stroke-miterlimit:11.474;" d="M143.717,57.681
		c-2.61,0-4.724,1.494-5.745,2.553c0,0-2.483,2.461-4.165,3.313c-0.074,0.04-0.072,0.122,0.03,0.122h15.198
		c3.004,0,4.417-1.018,6.2-2.614c0,0,2.596-2.413,4.377-3.192c0.179-0.068,0.137-0.182,0-0.182L143.717,57.681z M169.826,57.681
		c-2.61,0-4.722,1.494-5.745,2.553c0,0-2.483,2.461-4.164,3.313c-0.074,0.04-0.073,0.122,0.03,0.122h15.228
		c3.004,0,4.418-1.018,6.2-2.614c0,0,2.567-2.413,4.347-3.192c0.179-0.068,0.166-0.182,0.03-0.182L169.826,57.681z M195.966,57.681
		c-2.61,0-4.723,1.494-5.745,2.553c0,0-2.483,2.461-4.165,3.313c-0.073,0.04-0.071,0.122,0.031,0.122h15.228
		c3.004,0,4.386-1.018,6.17-2.614c0,0,2.596-2.413,4.376-3.192c0.18-0.068,0.167-0.182,0.031-0.182L195.966,57.681z M222.075,57.681
		c-2.609,0-4.692,1.494-5.715,2.553c0,0-2.513,2.461-4.195,3.313c-0.073,0.04-0.071,0.122,0.031,0.122h15.227
		c3.004,0,4.418-1.018,6.201-2.614c0,0,2.598-2.413,4.377-3.192c0.181-0.068,0.136-0.182,0-0.182L222.075,57.681z M248.213,57.681
		c-2.61,0-4.724,1.494-5.745,2.553c0,0-2.484,2.461-4.165,3.313c-0.074,0.04-0.072,0.122,0.03,0.122h15.229
		c3.004,0,4.416-1.018,6.201-2.614c0,0,2.568-2.413,4.345-3.192c0.179-0.068,0.168-0.182,0.031-0.182L248.213,57.681z"/>
	<path id="path4006_1_" style="fill:#838997;stroke:#838997;stroke-width:0.03;stroke-miterlimit:3.864;" d="M196.908,28.776
		c-5.555,0-10.973,1.649-10.973,7.173c0,9.565,16.686,4.512,16.686,10.365c0,1.908-2.959,2.675-5.349,2.675
		c-4.293,0-7.252-0.639-11.003-2.888v4.802c2.796,0.922,6.601,1.368,10.729,1.368c5.763,0,11.155-1.488,11.155-7.143
		c0-9.988-16.687-5.5-16.687-10.395c0-1.971,2.678-2.644,5.016-2.644c3.935,0,8.183,1.152,10.517,3.312v-5.106
		C203.98,29.342,199.97,28.776,196.908,28.776z M226.391,28.837c-10.021,0-16.656,4.817-16.656,12.158
		c0,6.737,6.09,11.246,15.197,11.246c2.95,0,5.584-0.387,8.662-1.125v-5.684c-2.176,2.299-4.762,3.222-7.538,3.222
		c-5.379,0-9.058-3.351-9.058-8.176c0-4.76,3.814-8.237,9.148-8.237c2.907,0,5.236,1.057,7.112,2.888v-5.684
		C231.308,29.042,228.862,28.837,226.391,28.837z M249.763,28.837c-8.635,0-14.741,4.971-14.741,11.975
		c0,6.871,5.483,11.429,13.648,11.429c8.674,0,14.649-4.846,14.649-11.884C263.321,33.452,257.887,28.837,249.763,28.837
		L249.763,28.837z M134.66,29.536v5.38c1.877-1.455,5.803-2.004,10.091-2.036v14.68c0,2.135-0.189,2.743-1.094,3.86h8.48
		c-0.952-1.118-1.095-1.726-1.095-3.86V32.757c3.716,0.033,8.153,0.703,10.03,2.16v-5.38L134.66,29.536L134.66,29.536z
		 M163.352,29.536c0.887,1.117,1.063,1.754,1.063,3.89v14.133c0,2.135-0.16,2.776-1.003,3.86h20.486v-5.319
		c-2.811,2.001-8.16,2.008-10.334,1.975h-2.978v-6.109h2.188c1.483,0,4.159,0.176,5.714,0.639v-4.559
		c-1.533,0.493-4.236,0.639-5.714,0.639h-2.188v-5.804h2.978c2.661,0,7.29,0.551,9.027,2.006v-5.349h-19.24V29.536z M249.187,32.15
		c4.523,0,7.507,3.742,7.507,8.358s-2.984,8.359-7.507,8.359c-4.596,0-7.54-3.742-7.54-8.359
		C241.649,35.892,244.591,32.15,249.187,32.15z"/>
</g>
<g id="Layer_1">
</g>
</svg>
