<?xml version="1.0" encoding="iso-8859-1"?>
<!-- Generator: Adobe Illustrator 19.2.1, SVG Export Plug-In . SVG Version: 6.00 Build 0)  -->
<!DOCTYPE svg PUBLIC "-//W3C//DTD SVG 1.1//EN" "http://www.w3.org/Graphics/SVG/1.1/DTD/svg11.dtd">
<svg version="1.1" xmlns="http://www.w3.org/2000/svg" xmlns:xlink="http://www.w3.org/1999/xlink" x="0px" y="0px"
	 viewBox="0 0 398 90" style="enable-background:new 0 0 398 90;" xml:space="preserve">
<g id="volkswagen">
	<path style="fill-rule:evenodd;clip-rule:evenodd;fill:#838997;" d="M108.721,55.405h-6.534L92,27.76h6.611l5.25,15.593
		c0.661,1.947,1.166,3.74,1.633,5.571c0.466-1.909,0.973-3.583,1.594-5.376l5.445-15.787h6.534L108.721,55.405L108.721,55.405z"/>
	<path style="fill-rule:evenodd;clip-rule:evenodd;fill:#838997;" d="M131.468,46.837c0,2.295-1.625,4.357-4.062,4.357
		c-2.127,0-4.101-1.79-4.101-4.279c0-2.332,1.548-4.395,4.062-4.395C129.65,42.521,131.468,44.389,131.468,46.837L131.468,46.837z
		 M137.057,46.837c0-5.243-4.075-9.104-9.651-9.104c-5.781,0-9.689,4.018-9.689,9.067c0,5.366,4.142,9.181,9.418,9.181
		C133.486,55.981,137.057,51.464,137.057,46.837L137.057,46.837z"/>
	<polygon style="fill-rule:evenodd;clip-rule:evenodd;fill:#838997;" points="141.289,55.405 141.289,26.232 146.819,26.232
		146.819,55.405 141.289,55.405 	"/>
	<polygon style="fill-rule:evenodd;clip-rule:evenodd;fill:#838997;" points="162.667,55.405 157.293,47.41 157.293,55.405
		151.764,55.405 151.764,26.232 157.293,26.232 157.293,45.351 162.667,38.349 169.442,38.349 162.862,46.207 169.909,55.405
		162.667,55.405 	"/>
	<path style="fill-rule:evenodd;clip-rule:evenodd;fill:#838997;" d="M178.21,55.916c-3.921,0-5.951-1.285-7.004-4.047l4.683-1.824
		c0.43,1.125,1.331,1.94,2.48,1.94c1.109,0,1.782-0.426,1.782-1.166c0-2.485-8.36-1.398-8.36-7.344c0-3.109,2.537-5.676,6.894-5.676
		c3.213,0,5.467,1.167,6.593,4.006l-4.428,1.712c-0.544-1.36-1.492-1.79-2.403-1.79c-0.713,0-1.504,0.43-1.504,1.207
		c0,2.717,8.374,1.476,8.374,7.459C185.318,53.853,182.248,55.916,178.21,55.916L178.21,55.916z"/>
	<path style="fill-rule:evenodd;clip-rule:evenodd;fill:#838997;" d="M212.028,55.405h-5.22l-2.921-8.39
		c-0.273-0.781-0.506-1.483-0.702-2.571c-0.195,0.972-0.467,1.906-0.7,2.608l-2.921,8.353h-5.453L186.75,38.31h5.764l3.233,8.234
		c0.39,0.938,0.662,1.988,0.973,3c0.273-1.013,0.546-2.104,0.818-2.922l2.883-8.313h5.686l2.687,7.767
		c0.39,1.169,0.741,2.26,0.974,3.389c0.39-1.285,0.779-2.414,1.169-3.389l3.038-7.767h5.647L212.028,55.405L212.028,55.405z"/>
	<path style="fill-rule:evenodd;clip-rule:evenodd;fill:#838997;" d="M234.439,47.147c0,2.335-1.52,4.476-4.093,4.476
		c-2.652,0-4.25-2.141-4.25-4.671c0-2.608,1.754-4.357,4.055-4.357C232.764,42.596,234.439,44.696,234.439,47.147L234.439,47.147z
		 M239.703,55.401v-1.517V38.35h-5.457v1.986c-0.936-1.44-2.964-2.531-5.342-2.531c-5.295,0-8.483,3.932-8.483,9.305
		c0,5.179,3.032,8.878,7.975,8.878c2.652,0,4.446-0.938,5.85-2.339v1.752H239.703L239.703,55.401z"/>
	<path style="fill-rule:evenodd;clip-rule:evenodd;fill:#838997;" d="M257.588,46.653c0,2.298-1.437,4.32-3.888,4.32
		c-2.567,0-4.124-1.752-4.124-4.282c0-2.257,1.596-4.163,3.929-4.163C256.307,42.528,257.588,44.826,257.588,46.653L257.588,46.653z
		 M262.892,53.775V38.337h-5.456v1.941c-1.05-1.669-2.996-2.406-5.369-2.406c-4.627,0-8.164,3.804-8.164,8.938
		c0,4.514,2.565,8.445,8.009,8.445c2.139,0,4.007-0.621,5.524-2.295v2.414c0,2.775-1.246,4.258-3.812,4.258
		c-1.672,0-3.268-1.053-3.268-2.54h-5.481c0,3.75,3.07,6.675,8.399,6.675c3.113,0,5.479-0.743,7.374-2.574
		C262.35,59.475,262.892,57.563,262.892,53.775L262.892,53.775z"/>
	<path style="fill-rule:evenodd;clip-rule:evenodd;fill:#838997;" d="M279.333,44.931h-6.846c0.196-1.892,1.526-3.283,3.52-3.283
		C278.08,41.648,279.333,43.309,279.333,44.931L279.333,44.931z M284.79,46.643c0-5.659-3.561-8.91-8.743-8.91
		c-5.312,0-8.932,3.994-8.932,9.261c0,6.021,4.284,8.987,8.893,8.987c3.945,0,6.421-1.367,8.395-3.941l-3.561-2.342
		c-1.121,1.493-2.487,2.223-4.246,2.223c-2.387,0-4.03-1.609-4.146-3.72h12.301C284.79,47.539,284.79,46.957,284.79,46.643
		L284.79,46.643z"/>
	<path style="fill-rule:evenodd;clip-rule:evenodd;fill:#838997;" d="M300.472,55.405v-9.451c0-1.561-0.504-3.355-2.596-3.355
		c-1.086,0-3.372,0.624-3.372,3.822v8.983h-5.528V38.333h5.528v2.252c0.815-1.127,2.402-2.641,5.503-2.641
		c2.179,0,3.58,0.776,4.475,1.669c1.091,1.088,1.519,2.482,1.519,4.978v10.814H300.472L300.472,55.405z"/>
</g>
<g id="Layer_1">
</g>
</svg>
