<?xml version="1.0" encoding="iso-8859-1"?>
<!-- Generator: Adobe Illustrator 19.2.1, SVG Export Plug-In . SVG Version: 6.00 Build 0)  -->
<!DOCTYPE svg PUBLIC "-//W3C//DTD SVG 1.1//EN" "http://www.w3.org/Graphics/SVG/1.1/DTD/svg11.dtd">
<svg version="1.1" xmlns="http://www.w3.org/2000/svg" xmlns:xlink="http://www.w3.org/1999/xlink" x="0px" y="0px"
	 viewBox="0 0 398 90" style="enable-background:new 0 0 398 90;" xml:space="preserve">
<g id="manchester-united">
	<polygon style="fill:#ffffff;" points="30.579,32.853 22.472,50.675 15.533,32.853 8.55,32.853 8.55,56.895 13.064,56.895 
		13.064,39.254 20.562,56.791 24.002,56.791 31.421,40.785 31.421,56.895 36.928,56.895 36.928,32.853 	"/>
	<polygon style="fill:#ffffff;" points="84.577,32.853 84.577,49.164 71.269,32.922 71.252,32.853 71.215,32.853 71.193,32.826 
		71.193,32.853 66.297,32.853 66.297,56.895 71.806,56.895 71.806,40.867 84.577,56.895 90.087,56.895 90.087,32.853 	"/>
	<polygon style="fill:#ffffff;" points="305.054,32.853 305.054,49.164 291.746,32.922 291.728,32.853 291.691,32.853 
		291.67,32.826 291.67,32.853 286.774,32.853 286.774,56.895 292.283,56.895 292.283,40.867 305.054,56.895 310.563,56.895 
		310.563,32.853 	"/>
	<polygon style="fill:#ffffff;" points="135.977,32.853 135.977,43.024 125.039,43.024 125.039,32.853 119.532,32.853 
		119.532,56.895 125.039,56.895 125.039,45.781 135.977,45.781 135.977,56.895 141.484,56.895 141.484,32.853 	"/>
	<polygon style="fill:#ffffff;" points="205.39,32.853 185.348,32.853 185.348,36.089 192.612,36.089 192.612,56.895 
		198.126,56.895 198.126,36.089 205.39,36.089 	"/>
	<polygon style="fill:#ffffff;" points="344.426,32.853 324.389,32.853 324.389,36.089 331.653,36.089 331.653,56.895 
		337.162,56.895 337.162,36.089 344.426,36.089 	"/>
	<polygon style="fill:#ffffff;" points="152.651,53.658 152.651,45.958 160.755,45.958 160.755,42.721 152.651,42.721 
		152.651,36.089 160.755,36.089 160.755,32.853 147.143,32.853 147.143,56.895 162.672,56.895 162.672,53.658 	"/>
	<polygon style="fill:#ffffff;" points="213.839,53.658 213.839,45.958 221.944,45.958 221.944,42.721 213.839,42.721 
		213.839,36.089 221.944,36.089 221.944,32.853 208.33,32.853 208.33,56.895 223.86,56.895 223.86,53.658 	"/>
	<polygon style="fill:#ffffff;" points="352.459,53.658 352.459,45.958 360.563,45.958 360.563,42.721 352.459,42.721 
		352.459,36.089 360.563,36.089 360.563,32.853 346.952,32.853 346.952,56.895 362.48,56.895 362.48,53.658 	"/>
	<path style="fill:#ffffff;" d="M114.514,52.425c-1.451,0.896-3.196,1.419-5.07,1.419c-5.11,0-9.251-3.866-9.251-8.636
		c0-4.77,4.141-8.64,9.251-8.64c1.866,0,3.599,0.523,5.053,1.413l2.025-2.605c-2.353-1.527-5.258-2.445-8.423-2.445
		c-7.797,0-14.111,5.497-14.111,12.277c0,6.78,6.315,12.273,14.111,12.273c3.375,0,6.465-1.032,8.895-2.748L114.514,52.425z"/>
	<path style="fill:#ffffff;" d="M180.417,38.205l2.447-2.265c0,0-2.349-3.113-7.443-3.113c-5.103,0-10.097,2.924-10.097,6.795
		s4.894,6.136,6.524,6.797c1.631,0.661,3.673,2.168,3.673,2.168s2.371,1.633,0.819,3.968c-1.29,1.934-7.094,1.697-9.281-1.226
		c-1.637,2.077-2.043,2.924-2.043,2.924s1.936,2.645,8.508,2.645c6.574,0,9.571-4.202,9.571-6.75c0-2.546-1.072-4.459-3.525-5.946
		c-1.751-1.069-5.966-3.402-5.966-3.402s-2.674-1.624-1.452-3.538c0.917-1.414,4.44-1.487,6.048-0.634
		C179.653,37.394,180.417,38.205,180.417,38.205z"/>
	<path style="fill:#ffffff;" d="M54.615,32.853h-5.699l-9.617,24.043h4.758l2.251-6.579h8.353l2.443,6.579h6.675L54.615,32.853z
		 M47.202,47.702l3.11-9.087l3.377,9.087H47.202z"/>
	<path style="fill:#ffffff;" d="M242.169,47.056c1.884-0.258,4.992-2.552,4.992-7.087c0-7.037-8.563-7.116-8.563-7.116h-10.761
		v24.043h5.505v-9.181h3.671l3.829,9.181h7.583C248.425,56.895,244.461,50.162,242.169,47.056z M236.097,44.657h-2.755v-8.77h2.346
		c0.921,0,4.793,0.816,4.793,4.872C240.482,44.807,236.097,44.657,236.097,44.657z"/>
	<path style="fill:#ffffff;" d="M276.482,32.776v16.137h-0.033c0,3.215-2.538,5.164-5.477,5.164c-2.934,0-5.477-1.949-5.477-5.164
		h-0.031V32.776h-5.503v17.362h0.004c0.068,3.739,4.966,6.758,11.005,6.758c6.086,0,11.016-3.06,11.016-6.832V32.776H276.482z"/>
	<rect x="315.948" y="32.931" style="fill:#ffffff;" width="5.509" height="23.86"/>
	<path style="fill:#ffffff;" d="M378.971,32.931h-12.54v23.86c0,0,9.558,0,11.088,0c1.53,0,11.931-0.686,11.931-12.082
		C389.45,33.313,378.971,32.931,378.971,32.931z M376.22,53.124h-4.287V36.598h4.442c4.435,0,6.727,3.521,6.727,8.873
		C383.102,53.503,376.22,53.124,376.22,53.124z"/>
</g>
<g id="Layer_1">
</g>
</svg>
