<?xml version="1.0" encoding="iso-8859-1"?>
<!-- Generator: Adobe Illustrator 19.2.1, SVG Export Plug-In . SVG Version: 6.00 Build 0)  -->
<!DOCTYPE svg PUBLIC "-//W3C//DTD SVG 1.1//EN" "http://www.w3.org/Graphics/SVG/1.1/DTD/svg11.dtd">
<svg version="1.1" xmlns="http://www.w3.org/2000/svg" xmlns:xlink="http://www.w3.org/1999/xlink" x="0px" y="0px"
	 viewBox="0 0 398 90" style="enable-background:new 0 0 398 90;" xml:space="preserve">
<g id="toyota">
	<path style="fill-rule:evenodd;clip-rule:evenodd;fill:#727C81;" d="M122.126,59.882c-2.667-1.671-4.632-7.435-4.632-14.285
		c0-0.252,0.002-0.5,0.007-0.748l0,0l0.003,0.004l0,0c-7.418-1.166-12.778-4.36-12.915-8.136l0,0l-0.022,0.043l0,0
		c-1.815,2.256-2.851,4.864-2.851,7.642c0,8.177,8.976,14.877,20.361,15.469l0,0L122.126,59.882L122.126,59.882L122.126,59.882z
		 M98.287,45c0-9.149,11.386-16.568,25.432-16.568c14.046,0,25.432,7.418,25.432,16.568c0,9.15-11.387,16.568-25.432,16.568
		C109.674,61.568,98.287,54.149,98.287,45L98.287,45L98.287,45L98.287,45z M123.72,30.823c2.712,0,5.018,4.113,5.872,9.853l0,0
		l0.003-0.009l0,0c5.275-0.821,8.969-2.716,8.969-4.92c0-2.958-6.647-5.354-14.844-5.354c-8.198,0-14.844,2.396-14.844,5.354
		c0,2.204,3.693,4.098,8.969,4.92l0,0l0.003,0.009l0,0C118.702,34.936,121.009,30.823,123.72,30.823L123.72,30.823L123.72,30.823
		L123.72,30.823z M125.362,59.873c11.385-0.592,20.362-7.292,20.362-15.469c0-2.779-1.037-5.387-2.852-7.642l0,0l-0.022-0.043l0,0
		c-0.137,3.777-5.495,6.971-12.914,8.136l0,0l0.003-0.004l0,0c0.005,0.248,0.008,0.496,0.008,0.748
		c0,6.849-1.966,12.614-4.632,14.285l0,0L125.362,59.873L125.362,59.873L125.362,59.873z M123.72,41.102
		c1.215,0,2.396-0.052,3.526-0.151l0,0l-0.002,0.001l0,0c-0.562-3.679-1.928-6.275-3.524-6.275c-1.596,0-2.962,2.597-3.524,6.275
		l0,0l-0.002-0.001l0,0C121.324,41.05,122.505,41.102,123.72,41.102L123.72,41.102L123.72,41.102L123.72,41.102z M123.72,54.726
		c2.041,0,3.707-4.248,3.795-9.577l0,0l0.011,0.004l0,0c-1.23,0.114-2.503,0.174-3.806,0.174c-1.304,0-2.576-0.06-3.806-0.174l0,0
		l0.011-0.004l0,0C120.013,50.478,121.678,54.726,123.72,54.726L123.72,54.726L123.72,54.726L123.72,54.726z"/>
	<path style="fill-rule:evenodd;clip-rule:evenodd;fill:#727C81;" d="M228.061,45c0-6.993,5.669-12.663,12.663-12.663
		c6.995,0,12.665,5.669,12.665,12.663c0,6.994-5.669,12.663-12.665,12.663C233.73,57.662,228.061,51.994,228.061,45L228.061,45
		L228.061,45L228.061,45z M240.723,53.019c3.906,0,7.072-3.591,7.072-8.02c0-4.428-3.166-8.02-7.072-8.02
		c-3.904,0-7.069,3.591-7.069,8.02C233.655,49.428,236.82,53.019,240.723,53.019L240.723,53.019L240.723,53.019L240.723,53.019z"/>
	<polygon style="fill-rule:evenodd;clip-rule:evenodd;fill:#727C81;" points="267.756,37.613 267.756,57.088 262.421,57.088 
		262.421,37.613 262.438,37.613 254.977,37.613 254.977,33.21 275.198,33.21 275.198,37.613 267.774,37.613 267.756,37.613 
		267.756,37.613 	"/>
	<path style="fill-rule:evenodd;clip-rule:evenodd;fill:#727C81;" d="M281.653,51.715l-0.005,0.005l-2.046,5.367h-6.231
		l9.851-23.877h3.322h3.318l9.852,23.877h-6.232l-2.047-5.367l-0.005-0.005h-4.886H281.653L281.653,51.715L281.653,51.715z
		 M286.542,47.685h3.357l-0.002,0.001l-3.332-8.739h-0.047l-3.334,8.739l-0.001-0.001H286.542L286.542,47.685L286.542,47.685z"/>
	<polygon style="fill-rule:evenodd;clip-rule:evenodd;fill:#727C81;" points="169.406,37.613 169.406,57.088 164.071,57.088 
		164.071,37.613 164.089,37.613 156.627,37.613 156.627,33.21 176.849,33.21 176.849,37.613 169.425,37.613 169.406,37.613 
		169.406,37.613 	"/>
	<path style="fill-rule:evenodd;clip-rule:evenodd;fill:#727C81;" d="M178.214,45c0-6.993,5.67-12.663,12.664-12.663
		c6.994,0,12.663,5.669,12.663,12.663c0,6.994-5.669,12.663-12.663,12.663C183.884,57.662,178.214,51.994,178.214,45L178.214,45
		L178.214,45L178.214,45z M190.878,53.019c3.904,0,7.07-3.591,7.07-8.02c0-4.428-3.166-8.02-7.07-8.02
		c-3.905,0-7.071,3.591-7.071,8.02C183.807,49.428,186.974,53.019,190.878,53.019L190.878,53.019L190.878,53.019L190.878,53.019z"/>
	<polygon style="fill-rule:evenodd;clip-rule:evenodd;fill:#727C81;" points="215.801,57.088 218.506,57.088 218.506,48.133 
		218.506,48.021 227.814,33.21 221.584,33.21 215.801,43.246 210.019,33.21 203.787,33.21 213.096,48.021 213.096,48.133 
		213.096,57.088 215.801,57.088 215.801,57.088 	"/>
</g>
<g id="Layer_1">
</g>
</svg>
