<?xml version="1.0" encoding="utf-8"?>
<!-- Generator: Adobe Illustrator 19.2.1, SVG Export Plug-In . SVG Version: 6.00 Build 0)  -->
<!DOCTYPE svg PUBLIC "-//W3C//DTD SVG 1.1//EN" "http://www.w3.org/Graphics/SVG/1.1/DTD/svg11.dtd">
<svg version="1.1" id="Layer_2" xmlns="http://www.w3.org/2000/svg" xmlns:xlink="http://www.w3.org/1999/xlink" x="0px" y="0px"
	 viewBox="0 0 398 90" style="enable-background:new 0 0 398 90;" xml:space="preserve">
<style type="text/css">
	.st0{fill:#727C81;}
</style>
<g>
	<g>
		<polygon class="st0" points="233.1,51.1 251.1,51.1 251.1,55.9 238.6,55.9 238.6,60.2 250.8,60.2 250.8,64.4 238.6,64.4 
			238.6,68.9 251.1,68.9 251.1,73.6 233.1,73.6 		"/>
		<path class="st0" d="M285.9,59.9c6.8,0.3,7.3,3.7,7.3,7.3c0,4.2-3.5,6.5-7.1,6.5h-11.6v-4.8h9c1.5,0,3.8,0,3.8-2.2
			c0-1-0.4-1.7-2-1.8c-0.7-0.1-3.4-0.3-3.8-0.3c-6.1-0.2-7.5-3.2-7.5-6.9c0-4.2,3-6.5,6.6-6.5h11.6V56h-8.5c-1.9,0-4-0.2-4,2
			c0,1.4,1,1.7,2.3,1.8C282.5,59.7,285.5,59.9,285.9,59.9z"/>
		<path class="st0" d="M265.2,59.9c6.8,0.3,7.3,3.7,7.3,7.3c0,4.2-3.5,6.5-7.1,6.5h-11.6v-4.8h9c1.5,0,3.8,0,3.8-2.2
			c0-1-0.4-1.7-2-1.8c-0.7-0.1-3.4-0.3-3.8-0.3c-6.1-0.2-7.5-3.2-7.5-6.9c0-4.2,3-6.5,6.6-6.5h11.6V56H263c-1.9,0-4-0.2-4,2
			c0,1.4,1,1.7,2.3,1.8C261.8,59.7,264.8,59.9,265.2,59.9z"/>
		<path class="st0" d="M199.8,51.2h-19.4l-6.3,7l-6.1-7h-21.7v22.5h21l6.6-7.4l6.5,7.5H191V66h7.4c2.9,0,8.1-0.1,8.1-8
			C206.5,52.4,202.5,51.2,199.8,51.2z M164.4,68.9h-12.7v-4.4h12.2v-4.3h-12.2v-4.2l13.4,0l5.4,6.1L164.4,68.9z M185.5,71.5
			l-7.9-9.4l7.9-8.8V71.5z M197.9,61.4h-6.9V56h6.9c2.3,0,3,1.5,3,2.6C201,60.1,200.2,61.4,197.9,61.4z"/>
		<path class="st0" d="M226.4,63.4c3-1.5,3.8-3.5,3.8-6.2c0-4.8-3.9-6-6.6-6h-14.3v22.5h5.5v-7.9h7.2c1.9,0,2.7,1.9,2.7,3.8l0.2,4.1
			h5.4L230,69C230,65.4,229,63.7,226.4,63.4z M221.7,61.1h-6.9V56h6.9c2.3,0,3,1.5,3,2.6C224.7,60.1,223.9,61.1,221.7,61.1z"/>
		<rect x="211.5" y="16.3" class="st0" width="5.5" height="22.5"/>
		<polygon class="st0" points="166.3,16.4 184.4,16.4 184.4,21.2 171.9,21.2 171.9,25.4 184,25.4 184,29.7 171.9,29.7 171.9,34.1 
			184.4,34.1 184.4,38.8 166.3,38.8 		"/>
		<path class="st0" d="M204.8,28.6c3-1.5,3.8-3.5,3.8-6.2c0-4.8-3.9-6-6.6-6h-14.3v22.5h5.5v-7.9h7.2c1.9,0,2.7,1.9,2.7,3.8l0.2,4.1
			h5.4l-0.2-4.6C208.4,30.6,207.4,28.9,204.8,28.6z M200,26.3h-6.9v-5.1h6.9c2.3,0,3,1.5,3,2.6C203.1,25.3,202.3,26.3,200,26.3z"/>
		<path class="st0" d="M153.6,16.4l-6.8,15.1l-6.7-15.1h-8.6V38l-9.6-21.6h-7.3l-9.8,22.5h5.8l2.2-5h11l2.2,5H137V22.1l7.4,16.7h5
			l7.5-16.4v16.4h5.5V16.4H153.6z M114.8,29l3.3-7.9l3.4,7.9H114.8z"/>
		<path class="st0" d="M273.9,16.3v15.6l-9.3-15.6h-8.1v21.1l-9.4-21.1h-7.3l-7.6,17.4c0,0-3.2,0-3.5-0.1c-1.3-0.3-3.4-1.2-3.4-5.2
			v-1.6c0-5.3,2.9-5.6,6.5-5.6h3.4v-4.9h-7.2c-2.5,0-8,1.9-8.1,11.1c-0.1,6.2,2.6,11.3,8.7,11.3h7.3l2.2-5h11l2.2,5H262V22.4
			l9.9,16.4h7.5V16.3H273.9z M240,29l3.3-7.9l3.5,7.9H240z"/>
	</g>
</g>
</svg>
