<?xml version="1.0" encoding="iso-8859-1"?>
<!-- Generator: Adobe Illustrator 19.2.1, SVG Export Plug-In . SVG Version: 6.00 Build 0)  -->
<!DOCTYPE svg PUBLIC "-//W3C//DTD SVG 1.1//EN" "http://www.w3.org/Graphics/SVG/1.1/DTD/svg11.dtd">
<svg version="1.1" xmlns="http://www.w3.org/2000/svg" xmlns:xlink="http://www.w3.org/1999/xlink" x="0px" y="0px"
	 viewBox="0 0 398 90" style="enable-background:new 0 0 398 90;" xml:space="preserve">
<g id="johnlewis">
	<path id="path130_1_" style="fill:#838997;" d="M107.226,62.237h1.453c4.498,0,4.906-2.231,4.906-7.005V23.496l4.589,4.563v28.447
		c0,5.044-1.724,9.045-6.405,9.998L107.226,62.237"/>
	<path id="path134_1_" style="fill:#838997;" d="M132.557,39.279c3.908,0,6.727,2.774,6.727,6.596c0,4.266-2.588,6.906-6.727,6.906
		c-3.771,0-6.36-2.773-6.36-6.954C126.197,42.053,128.878,39.279,132.557,39.279z M132.603,56.644
		c6.544,0,11.045-4.364,11.045-10.816c0-6.047-4.635-10.411-11.045-10.411c-6.089,0-10.77,4.549-10.77,10.411
		C121.833,52.102,126.33,56.644,132.603,56.644"/>
	<path id="path138_1_" style="fill:#838997;" d="M160.231,43.551c0-2.906-1.459-4.768-3.776-4.768c-1.678,0-3.044,0.771-4.861,2.859
		v14.592h-4.272V26.008h4.272v12.228c1.498-1.817,3.725-2.912,5.91-2.912c4.042,0,6.998,2.773,6.998,8.366v12.545h-4.271V43.551"/>
	<path id="path142_1_" style="fill:#838997;" d="M182.353,43.643c0-2.951-1.453-4.773-3.776-4.773c-1.678,0-3.044,0.773-4.861,2.819
		v14.546h-4.271v-20.47h4.271v2.563c1.5-1.822,3.725-2.912,5.91-2.912c3.91,0,6.999,2.681,6.999,8.274v12.545h-4.272V43.643"/>
	<path id="path146_1_" style="fill:#838997;" d="M199.314,23.496l4.109,4.2v24.312h9.209l3.996,4.227h-17.314V23.496"/>
	<path id="path150_1_" style="fill:#838997;" d="M224.148,39.147c2.681,0,4.364,1.817,4.544,4.385h-9.813
		C219.467,40.824,221.238,39.147,224.148,39.147z M232.535,54.121c-0.681-0.593-2.661-2.567-2.661-2.567
		c-1.544,0.68-2.998,0.997-4.496,0.997c-3.73,0-5.956-1.954-6.589-5.515h14.136c0-7.889-3.459-11.619-8.867-11.619
		c-5.633,0-9.542,4.181-9.542,10.366c0,5.633,3.546,10.862,9.905,10.862C227.833,56.644,230.048,55.876,232.535,54.121"/>
	<path id="path154_1_" style="fill:#838997;" d="M256.223,56.644l-6.049-14.586l-6.005,14.586H242.9l-9.174-20.9h4.558l5.26,12.254
		l5.04-12.254h3.181l5.061,12.254l5.234-12.265h4.533l-9.098,20.911H256.223"/>
	<path id="path158_1_" style="fill:#838997;" d="M268.675,28.32c0-1.366,1.09-2.502,2.41-2.502c1.315,0,2.41,1.136,2.41,2.502
		c0,1.407-1.095,2.544-2.41,2.544C269.765,30.864,268.675,29.727,268.675,28.32z M269.04,35.733h4.276v20.502h-4.276V35.733z"/>
	<path id="path162_1_" style="fill:#838997;" d="M276.955,54.736v-4.641c2.773,1.954,5.229,2.783,6.779,2.783
		c1.483,0,2.639-0.578,2.69-1.914c0.031-0.706-0.516-1.458-1.38-2.046c-0.861-0.639-2.047-1.229-3.223-1.954
		c-2.324-1.366-4.728-3.137-4.728-5.956c0-3.5,2.477-5.593,6.723-5.593c1.908,0,3.822,0.547,6.001,1.73v4.271
		c-2.41-1.637-4.665-2.282-6.119-2.282c-1.591,0-2.338,0.701-2.287,1.734c0.046,1.039,1.248,1.847,4.912,3.924
		c3.443,1.955,4.452,3.669,4.452,5.802c0,3.637-2.866,6.047-6.728,6.047C281.544,56.644,279.636,56.142,276.955,54.736"/>
</g>
<g id="Layer_1">
</g>
</svg>
