<?xml version="1.0" encoding="utf-8"?>
<!-- Generator: Adobe Illustrator 19.2.1, SVG Export Plug-In . SVG Version: 6.00 Build 0)  -->
<!DOCTYPE svg PUBLIC "-//W3C//DTD SVG 1.1//EN" "http://www.w3.org/Graphics/SVG/1.1/DTD/svg11.dtd">
<svg version="1.1" id="Layer_1" xmlns="http://www.w3.org/2000/svg" xmlns:xlink="http://www.w3.org/1999/xlink" x="0px" y="0px"
	 viewBox="0 0 398 90" style="enable-background:new 0 0 398 90;" xml:space="preserve">
<style type="text/css">
	.st0{fill:#FFFFFF;}
</style>
<g id="gov.uk">
	<polygon class="st0" points="279.9,61.2 285.5,61.2 285.5,52.6 289.2,48.5 296.6,61.2 303.2,61.2 292.8,44.2 302.6,33 295.6,33 
		285.5,45.2 285.5,33 279.9,33 	"/>
	<path class="st0" d="M260.5,56c-0.7-0.2-1.3-0.6-1.8-1.1c-0.5-0.5-0.9-1.1-1.2-1.9c-0.3-0.8-0.5-1.6-0.5-2.7V33h-5.6v18.3
		c0,1.6,0.3,3,0.9,4.3c0.6,1.3,1.4,2.3,2.4,3.2c1,0.9,2.2,1.6,3.6,2.1c1.4,0.5,2.9,0.7,4.6,0.7s3.2-0.2,4.6-0.7
		c1.4-0.5,2.6-1.2,3.6-2.1c1-0.9,1.8-2,2.4-3.2c0.6-1.3,0.9-2.7,0.9-4.3V33h-5.6v17.4c0,1-0.2,1.9-0.5,2.7c-0.3,0.8-0.7,1.4-1.2,1.9
		c-0.5,0.5-1.1,0.9-1.8,1.1s-1.5,0.4-2.3,0.4S261.3,56.3,260.5,56"/>
	<path class="st0" d="M240,59.4c0.2,0.4,0.4,0.8,0.8,1.1s0.7,0.6,1.1,0.8c0.4,0.2,0.9,0.3,1.4,0.3c0.5,0,0.9-0.1,1.4-0.3
		c0.4-0.2,0.8-0.4,1.1-0.8s0.6-0.7,0.8-1.1c0.2-0.4,0.3-0.9,0.3-1.4c0-0.5-0.1-0.9-0.3-1.4c-0.2-0.4-0.4-0.8-0.8-1.1
		s-0.7-0.6-1.1-0.8s-0.9-0.3-1.4-0.3c-0.5,0-0.9,0.1-1.4,0.3c-0.4,0.2-0.8,0.4-1.1,0.8c-0.3,0.3-0.6,0.7-0.8,1.1s-0.3,0.9-0.3,1.4
		C239.7,58.5,239.8,58.9,240,59.4"/>
	<polygon class="st0" points="231,61.2 238.9,33 232.6,33 227.3,54.2 227.1,54.2 221.7,33 215.3,33 223.2,61.2 	"/>
	<path class="st0" d="M196.4,55.7c-0.9-0.5-1.7-1.1-2.4-1.9c-0.6-0.8-1.1-1.8-1.4-2.9s-0.5-2.4-0.5-3.7V47c0-1.3,0.2-2.5,0.5-3.7
		c0.3-1.1,0.8-2.1,1.4-2.9c0.6-0.8,1.4-1.5,2.4-1.9s2-0.7,3.3-0.7c1.2,0,2.3,0.2,3.2,0.7c0.9,0.5,1.7,1.1,2.4,1.9
		c0.6,0.8,1.1,1.8,1.5,2.9c0.3,1.1,0.5,2.4,0.5,3.7v0.2c0,1.3-0.2,2.6-0.5,3.7c-0.3,1.1-0.8,2.1-1.5,2.9c-0.6,0.8-1.4,1.5-2.4,1.9
		c-0.9,0.5-2,0.7-3.2,0.7C198.5,56.4,197.4,56.2,196.4,55.7 M194,33.8c-1.7,0.8-3.1,1.8-4.2,3.1c-1.2,1.3-2,2.8-2.6,4.6
		c-0.6,1.8-0.9,3.6-0.9,5.7c0,2,0.3,3.9,0.9,5.7c0.6,1.8,1.5,3.3,2.6,4.6c1.2,1.3,2.6,2.3,4.2,3.1c1.7,0.7,3.5,1.1,5.6,1.1
		c2.1,0,4-0.4,5.6-1.1c1.7-0.7,3.1-1.8,4.2-3.1c1.2-1.3,2-2.8,2.6-4.6c0.6-1.8,0.9-3.6,0.9-5.7c0-2-0.3-3.9-0.9-5.7
		c-0.6-1.8-1.5-3.3-2.6-4.6c-1.2-1.3-2.6-2.3-4.2-3.1c-1.7-0.8-3.5-1.1-5.6-1.1C197.6,32.6,195.7,33,194,33.8"/>
	<path class="st0" d="M163,47c0-1.2,0.1-2.3,0.5-3.5c0.3-1.1,0.8-2.1,1.4-3s1.4-1.5,2.4-2c1-0.5,2.1-0.8,3.4-0.8
		c0.8,0,1.6,0.1,2.3,0.3c0.7,0.2,1.3,0.5,1.8,0.9c0.5,0.4,1,0.8,1.4,1.3c0.4,0.5,0.8,1.1,1.1,1.7l5-2.8c-0.5-1-1.1-1.9-1.8-2.7
		c-0.8-0.8-1.6-1.5-2.6-2.1s-2.1-1-3.3-1.3s-2.5-0.5-3.8-0.5c-2.1,0-3.9,0.4-5.6,1.1c-1.7,0.8-3.1,1.8-4.2,3.1
		c-1.2,1.3-2.1,2.8-2.7,4.6c-0.6,1.8-1,3.6-1,5.7c0,2,0.3,3.9,0.9,5.7c0.6,1.8,1.4,3.3,2.5,4.6c1.1,1.3,2.4,2.3,4,3.1
		c1.6,0.7,3.4,1.1,5.5,1.1c0.9,0,1.7-0.1,2.5-0.3s1.5-0.4,2.1-0.8c0.7-0.3,1.2-0.7,1.8-1.2s1-1,1.3-1.5v3.3h5V45.7h-12.7v4.3h7.2
		v0.3c0,0.6-0.1,1.3-0.3,2c-0.2,0.7-0.6,1.4-1.1,2s-1.2,1.1-2,1.5c-0.8,0.4-1.9,0.6-3.2,0.6c-1.3,0-2.5-0.3-3.4-0.8
		c-1-0.5-1.7-1.2-2.4-2s-1.1-1.8-1.4-2.9c-0.3-1.1-0.5-2.3-0.5-3.5L163,47L163,47z"/>
	<path class="st0" d="M103.5,38.7c1.3,0.5,2.7-0.1,3.2-1.3c0.5-1.3-0.1-2.7-1.3-3.2c-1.2-0.5-2.7,0.1-3.2,1.4
		C101.7,36.8,102.3,38.2,103.5,38.7"/>
	<path class="st0" d="M97.9,42c1.3,0.5,2.7-0.1,3.2-1.3c0.5-1.3-0.1-2.7-1.3-3.2c-1.2-0.5-2.7,0.1-3.2,1.4
		C96.1,40.1,96.7,41.5,97.9,42"/>
	<path class="st0" d="M96.3,48.2c1.3,0.5,2.7-0.1,3.2-1.3c0.5-1.3-0.1-2.7-1.3-3.2c-1.2-0.5-2.7,0.1-3.2,1.4
		C94.4,46.3,95,47.7,96.3,48.2"/>
	<path class="st0" d="M109.8,40.7c1.3,0.5,2.7-0.1,3.2-1.3c0.5-1.3-0.1-2.7-1.3-3.2c-1.2-0.5-2.7,0.1-3.2,1.4
		C107.9,38.8,108.5,40.2,109.8,40.7"/>
	<path class="st0" d="M132.4,38.7c-1.3,0.5-2.7-0.1-3.2-1.3c-0.5-1.3,0.1-2.7,1.3-3.2c1.2-0.5,2.7,0.1,3.2,1.4
		C134.2,36.8,133.6,38.2,132.4,38.7"/>
	<path class="st0" d="M138,42c-1.3,0.5-2.7-0.1-3.2-1.3c-0.5-1.3,0.1-2.7,1.3-3.2c1.2-0.5,2.7,0.1,3.2,1.4
		C139.8,40.1,139.2,41.5,138,42"/>
	<path class="st0" d="M139.6,48.2c-1.3,0.5-2.7-0.1-3.2-1.3c-0.5-1.3,0.1-2.7,1.3-3.2c1.2-0.5,2.7,0.1,3.2,1.4
		C141.5,46.3,140.9,47.7,139.6,48.2"/>
	<path class="st0" d="M126.1,40.7c-1.3,0.5-2.7-0.1-3.2-1.3c-0.5-1.3,0.1-2.7,1.3-3.2c1.2-0.5,2.7,0.1,3.2,1.4
		C128,38.8,127.4,40.2,126.1,40.7"/>
	<path class="st0" d="M119.3,34.3L119.3,34.3l3.1,1.6v-4.6l-3.1,1l0,0c-0.1-0.1-0.2-0.2-0.3-0.3l0,0l1.3-4h-2.3h-2.3l1.3,4l0,0
		c-0.1,0.1-0.2,0.2-0.3,0.3l0,0l-3.1-1V36l3.1-1.6l0,0c0.1,0.1,0.2,0.2,0.3,0.3l-1.8,5.4c0,0,0,0,0,0l0,0h0
		c-0.1,0.3-0.1,0.6-0.1,0.9c0,1.5,1.1,2.7,2.5,2.9c0,0,0,0,0.1,0c0.1,0,0.2,0,0.4,0c0.1,0,0.2,0,0.4,0c0,0,0,0,0.1,0
		c1.4-0.2,2.5-1.4,2.5-2.9c0-0.3,0-0.6-0.1-0.9l0,0l0,0c0,0,0,0,0,0l-1.8-5.4C119.1,34.6,119.2,34.5,119.3,34.3"/>
	<path class="st0" d="M117.9,60.8c5.9,0,11.5,0.4,16.5,1.1c1.4-6,3.1-9.4,4.9-11.8l-3.4-1.2c0.3,1.7,0.4,2.5,0,3.6
		c-0.6-0.5-1.1-1.5-1.5-3.1l-1.6,5.4c1-0.7,1.8-1.1,2.6-1.1c-1.5,3.3-3.5,4.2-4.7,4c-1.5-0.3-2.2-1.6-2-2.8c0.4-1.6,2-2.1,2.8-0.2
		c1.5-3.1-1-4-2.7-3.1c2.5-2.5,2.8-4.8,0.8-7.5c-2.8,2.2-2.9,4.3-1.6,7.3c-1.7-1.9-4.2-0.9-3.3,2.2c1.2-1.8,2.8-0.7,2.5,1.1
		c-0.2,1.5-2.2,2.8-4.7,2.5c-3.6-0.3-3.8-2.8-3.9-4.9c0.9-0.2,2.5,0.7,3.8,2.6l0.5-5.7c-1.5,1.5-2.8,1.8-4.3,1.9
		c0.5-1.6,2.8-4.1,2.8-4.1h-3.3h0h0h-3.8c0,0,2.3,2.5,2.8,4.1c-1.5,0-2.8-0.3-4.3-1.9l0.5,5.7c1.4-1.9,3-2.7,3.8-2.6
		c-0.1,2.1-0.3,4.5-3.9,4.9c-2.5,0.2-4.5-1-4.7-2.5c-0.2-1.8,1.3-2.9,2.5-1.1c0.9-3.1-1.6-4.1-3.3-2.2c1.3-3,1.2-5.2-1.6-7.3
		c-2,2.7-1.7,4.9,0.8,7.5c-1.6-0.9-4.2,0-2.7,3.1c0.8-1.9,2.5-1.5,2.8,0.2c0.2,1.2-0.5,2.5-2,2.8c-1.3,0.2-3.2-0.6-4.7-4
		c0.9,0,1.6,0.5,2.6,1.1l-1.6-5.4c-0.4,1.5-0.9,2.5-1.5,3.1c-0.4-1.1-0.3-1.9,0-3.6l-3.4,1.2c1.8,2.4,3.5,5.9,4.9,11.8
		C106.4,61.2,112,60.8,117.9,60.8"/>
</g>
<g id="Layer_1_1_">
</g>
</svg>
