<?xml version="1.0" encoding="iso-8859-1"?>
<!-- Generator: Adobe Illustrator 19.2.1, SVG Export Plug-In . SVG Version: 6.00 Build 0)  -->
<!DOCTYPE svg PUBLIC "-//W3C//DTD SVG 1.1//EN" "http://www.w3.org/Graphics/SVG/1.1/DTD/svg11.dtd">
<svg version="1.1" xmlns="http://www.w3.org/2000/svg" xmlns:xlink="http://www.w3.org/1999/xlink" x="0px" y="0px"
	 viewBox="0 0 398 90" style="enable-background:new 0 0 398 90;" xml:space="preserve">
<g id="lexus">
	<path style="fill-rule:evenodd;clip-rule:evenodd;fill:#737373;" d="M290.613,42.787h-14.656l0,0
		c0.179-1.836,1.476-3.673,3.817-3.673c1.944,0,17.284,0,17.284,0l0,0v-3.529h-18.077l0,0c-7.202,0-10.154,5.474-10.154,10.731
		c0,0,19.481,0,20.164,0c0.684,0,2.305,0.143,2.305,1.8c0,1.657-1.404,1.801-3.816,1.873l0,0h-21.029V35.585h-6.193v14.403h-11.811
		l0,0c-3.565,0-3.961-2.628-3.961-4.033c0-1.548,0-10.37,0-10.37l0,0h-11.27l-9.182,6.121l-8.283-6.121h-24.161l0,0
		c-7.202,0-11.522,5.006-12.135,9.362l0,0h4.98l0,0c-1.991,1.343-3.402,3.162-4.168,5.035l0,0l-14.063,0.006l0,0
		c-3.565,0-3.961-2.628-3.961-4.033c0-1.548,0-10.37,0-10.37l0,0h-6.193v9.831l0,0c0,6.77,4.753,8.101,7.058,8.101
		c3.349,0,49.511,0,49.511,0l0,0l9.254-6.193l8.39,6.193h9.758l-12.998-9.577l10.693-7.166v9.47l0,0
		c0,6.122,5.978,7.274,7.634,7.274l0,0h45.19l0,0c2.233,0,8.39-0.288,8.39-5.185C298.93,43.436,294.394,42.787,290.613,42.787
		L290.613,42.787L290.613,42.787L290.613,42.787z M211.612,49.989h-23.297l0,0c0.18-1.836,2.196-3.672,4.537-3.672l0,0h13.755
		v-3.529h-18.796l0,0c0.18-1.836,2.197-3.673,4.537-3.673c1.944,0,15.699,0,15.699,0l0,0v-2.052l10.875,8.066L211.612,49.989
		L211.612,49.989L211.612,49.989z"/>
	<path style="fill-rule:evenodd;clip-rule:evenodd;fill:#737373;" d="M123.628,61.403c8.132,0,15.344-2.84,19.815-7.213l0,0
		l-4.028,0.018l0,0c-3.808,3.204-9.376,5.219-15.686,5.219c-11.772,0-20.961-7.016-20.961-15.67c0-9.98,9.19-15.668,20.961-15.668
		c0.749,0.002,1.347,0.347,0.898,0.996c-2.445,2.945-9.41,12.42-10.68,14.474c-2.506,4.048-2.445,9.033,3.694,9.382l0,0h25.816l0,0
		c1.319,0,1.654-0.62,2.13-1.264c1.729-2.337,2.606-5.071,2.604-7.919c-0.005-7.437-5.239-13.012-12.94-15.753l0,0l-1.192,1.78l0,0
		c6.399,2.36,10.63,7.132,10.63,13.972c0,1.188-0.173,2.346-0.502,3.458c-0.286,0.966-0.845,1.783-1.904,1.783l0,0h-20.607l0,0
		c-2.639,0-1.62-2.723-0.642-4.043c1.418-2.541,9.183-13.126,11.052-15.097c0.476-0.724,1.812-2.221-0.029-2.795
		c-2.628-0.624-5.467-0.951-8.428-0.951c-13.564,0-24.554,6.965-24.561,17.644C99.059,54.538,110.063,61.403,123.628,61.403
		L123.628,61.403L123.628,61.403L123.628,61.403z"/>
</g>
<g id="Layer_1">
</g>
</svg>
