<?xml version="1.0" encoding="iso-8859-1"?>
<!-- Generator: Adobe Illustrator 19.2.1, SVG Export Plug-In . SVG Version: 6.00 Build 0)  -->
<!DOCTYPE svg PUBLIC "-//W3C//DTD SVG 1.1//EN" "http://www.w3.org/Graphics/SVG/1.1/DTD/svg11.dtd">
<svg version="1.1" xmlns="http://www.w3.org/2000/svg" xmlns:xlink="http://www.w3.org/1999/xlink" x="0px" y="0px"
	 viewBox="0 0 398 90" style="enable-background:new 0 0 398 90;" xml:space="preserve">
<g id="vauxhall">
	<path id="path3311_1_" style="fill:#737373;" d="M107.771,51.081l6.811-17.627h6.102
		c1.43,0,1.929,0.798,1.435,2.102l-8.013,18.853c-0.729,1.716-1.856,1.834-3.313,1.834h-6.144c-1.457,0-2.625-0.149-3.31-1.834
		l-7.133-18.846c-0.512-1.346-0.029-2.109,1.459-2.109h6.104L107.771,51.081"/>
	<path id="path3313_1_" style="fill:#737373;" d="M162.63,56.802
		c11.046-0.062,12.15-6.927,12.15-11.397v-9.862c0-1.437-0.61-2.089-2.022-2.089h-5.78v12.323c0,2.55-1.098,5.031-4.348,5.031
		c-3.337,0-4.328-2.328-4.328-5.031V33.454h-5.441c-1.794,0-2.359,0.738-2.359,2.089v9.862
		C150.501,49.875,151.583,56.864,162.63,56.802"/>
	<path id="path3315_1_" style="fill:#737373;" d="M189.866,39.208l4.472-5.754h6.867
		c1.836,0,1.707,1.335,1.133,2.015l-7.851,8.585l7.865,10.139c0.532,0.652,0.692,2.053-1.242,2.053h-6.774l-4.674-6.57l-5.131,6.57
		h-6.809c-1.936,0-1.774-1.401-1.242-2.053l8.612-10.284l-7.14-8.441c-0.572-0.681-0.703-2.015,1.133-2.015h6.774L189.866,39.208"/>
	<path id="path3317_1_" style="fill:#737373;" d="M221.808,47.374v8.869h5.454
		c0.455,0,2.361,0.186,2.361-2.053V35.292c0-1.896-1.925-1.836-2.361-1.836h-5.454v7.902h-8.798v-7.902h-5.452
		c-0.439,0-2.364-0.06-2.364,1.836v19.039c0,2.015,1.942,1.916,2.364,1.916h5.452v-8.873L221.808,47.374"/>
	<path id="path3319_1_" style="fill:#737373;" d="M282.431,50.092h-11.397V33.459h-5.59
		c-0.927,0-2.304,0.082-2.304,2.073v18.66c0,1.991,1.299,2.055,2.053,2.055h14.92c0.898,0,2.317-0.14,2.317-2.004V50.092"/>
	<path id="path3321_1_" style="fill:#737373;" d="M303.992,50.092h-11.397V33.459h-5.59
		c-0.927,0-2.304,0.082-2.304,2.073v18.66c0,1.991,1.299,2.055,2.053,2.055h14.92c0.898,0,2.317-0.14,2.317-2.004V50.092"/>
	<path id="path3323_1_" style="fill:#737373;" d="M129.052,52.598l-1.47,3.645h-5.896
		c-0.605,0-2.357,0.033-1.452-2.337l7.869-18.534c0.379-0.814,0.783-1.918,3.162-1.918h7.337c2.268,0,2.765,0.716,3.399,2.235
		l6.991,18.235c0.898,2.355-0.971,2.319-1.53,2.319h-5.862l-1.319-3.645H129.052L129.052,52.598z M138.129,46.656l-3.162-8.738
		l-3.523,8.738H138.129"/>
	<path id="path3325_1_" style="fill:#737373;" d="M240.747,52.6l-1.47,3.645h-5.898
		c-0.603,0-2.355,0.031-1.45-2.339l7.869-18.534c0.379-0.814,0.783-1.918,3.162-1.918h7.339c2.266,0,2.763,0.716,3.397,2.237
		l6.991,18.232c0.898,2.355-0.971,2.321-1.53,2.321h-5.862l-1.319-3.645H240.747L240.747,52.6z M249.825,46.656l-3.162-8.738
		l-3.523,8.738H249.825"/>
</g>
<g id="Layer_1">
</g>
</svg>
