 <svg id="Group_1" data-name="Group 1" xmlns="http://www.w3.org/2000/svg" viewBox="0 0 1275 875">
    <defs>
        <linearGradient id="grad" x1="0%" x2="0%" y1="100%" y2="0%">
            <stop offset="0%" stop-color="rgb(92,61,95)" stop-opacity="1" />
            <stop offset="100%" stop-color="rgb(20,22,63)" stop-opacity="1" />
        </linearGradient>
        <style>
            .cls-1{fill:#fff;}
            .cls-1,.cls-2{fill-rule:evenodd;}
            .cls-2{fill:#1d00d8;}
            .cls-3{fill:#2a94d6;}
            .cls-4{fill:#fff;}
        </style>
    </defs>
    <title>graph</title>
    <g id="graph-white">
        <polygon class="cls-1" points="1200 32 1125 89 1050 81 975 113 900 97 825 128 750 163 675 152 600 172 525 163 450 215 375 205 300 221 225 195 150 223 75 230 0 238 0 255 1275 255 1275 0 1200 32"/>
    </g>
    <g id="graph-white-2" data-name="graph-white">
        <polygon fill="url(#grad)" points="1200 34.17 1125 91.17 1050 83.17 975 115.17 900 99.17 825 130.17 750 165.17 675 154.17 600 174.17 525 165.17 450 217.17 375 207.17 300 223.17 225 197.17 150 225.17 75 232.17 0 240.17 0 875 1275 875 1275 2.17 1200 34.17"/>
    </g>
    <g id="points">
        <g id="Ellipse_1" data-name="Ellipse 1">
            <circle class="cls-3" cx="525" cy="163" r="4.5"/>
            <path class="cls-4" d="M525,285a3,3,0,1,1-3,3,3,3,0,0,1,3-3m0-3a6,6,0,1,0,6,6,6,6,0,0,0-6-6Z" transform="translate(0 -125)"/>
        </g>
        <g id="Ellipse_1-2" data-name="Ellipse 1">
            <circle class="cls-3" cx="600" cy="172" r="4.5"/>
            <path class="cls-4" d="M600,294a3,3,0,1,1-3,3,3,3,0,0,1,3-3m0-3a6,6,0,1,0,6,6,6,6,0,0,0-6-6Z" transform="translate(0 -125)"/>
        </g>
        <g id="Ellipse_1-3" data-name="Ellipse 1">
            <circle class="cls-3" cx="675" cy="153" r="4.5"/>
            <path class="cls-4" d="M675,275a3,3,0,1,1-3,3,3,3,0,0,1,3-3m0-3a6,6,0,1,0,6,6,6,6,0,0,0-6-6Z" transform="translate(0 -125)"/>
        </g>
        <g id="Ellipse_1-4" data-name="Ellipse 1">
            <circle class="cls-3" cx="750" cy="165" r="4.5"/>
            <path class="cls-4" d="M750,287a3,3,0,1,1-3,3,3,3,0,0,1,3-3m0-3a6,6,0,1,0,6,6,6,6,0,0,0-6-6Z" transform="translate(0 -125)"/>
        </g>
        <g id="Ellipse_1-5" data-name="Ellipse 1">
            <circle class="cls-3" cx="825" cy="129" r="4.5"/>
            <path class="cls-4" d="M825,251a3,3,0,1,1-3,3,3,3,0,0,1,3-3m0-3a6,6,0,1,0,6,6,6,6,0,0,0-6-6Z" transform="translate(0 -125)"/>
        </g>
        <g id="Ellipse_1-6" data-name="Ellipse 1">
            <circle class="cls-3" cx="900" cy="99" r="4.5"/>
            <path class="cls-4" d="M900,221a3,3,0,1,1-3,3,3,3,0,0,1,3-3m0-3a6,6,0,1,0,6,6,6,6,0,0,0-6-6Z" transform="translate(0 -125)"/>
        </g>
        <g id="Ellipse_1-7" data-name="Ellipse 1">
            <circle class="cls-3" cx="975" cy="114" r="4.5"/>
            <path class="cls-4" d="M975,236a3,3,0,1,1-3,3,3,3,0,0,1,3-3m0-3a6,6,0,1,0,6,6,6,6,0,0,0-6-6Z" transform="translate(0 -125)"/>
        </g>
        <g id="Ellipse_1-8" data-name="Ellipse 1">
            <circle class="cls-3" cx="1050" cy="84" r="4.5"/>
            <path class="cls-4" d="M1050,206a3,3,0,1,1-3,3,3,3,0,0,1,3-3m0-3a6,6,0,1,0,6,6,6,6,0,0,0-6-6Z" transform="translate(0 -125)"/>
        </g>
        <g id="Ellipse_1-9" data-name="Ellipse 1">
            <circle class="cls-3" cx="1125" cy="90" r="4.5"/>
            <path class="cls-4" d="M1125,212a3,3,0,1,1-3,3,3,3,0,0,1,3-3m0-3a6,6,0,1,0,6,6,6,6,0,0,0-6-6Z" transform="translate(0 -125)"/>
        </g>
        <g id="Ellipse_1-10" data-name="Ellipse 1">
            <circle class="cls-3" cx="1200" cy="34" r="4.5"/>
            <path class="cls-4" d="M1200,156a3,3,0,1,1-3,3,3,3,0,0,1,3-3m0-3a6,6,0,1,0,6,6,6,6,0,0,0-6-6Z" transform="translate(0 -125)"/>
        </g>
        <g id="Ellipse_1-11" data-name="Ellipse 1">
            <circle class="cls-3" cx="450" cy="215" r="4.5"/>
            <path class="cls-4" d="M450,337a3,3,0,1,1-3,3,3,3,0,0,1,3-3m0-3a6,6,0,1,0,6,6,6,6,0,0,0-6-6Z" transform="translate(0 -125)"/>
        </g>
        <g id="Ellipse_1-12" data-name="Ellipse 1">
            <circle class="cls-3" cx="375" cy="207" r="4.5"/>
            <path class="cls-4" d="M375,329a3,3,0,1,1-3,3,3,3,0,0,1,3-3m0-3a6,6,0,1,0,6,6,6,6,0,0,0-6-6Z" transform="translate(0 -125)"/>
        </g>
        <g id="Ellipse_1-13" data-name="Ellipse 1">
            <circle class="cls-3" cx="300" cy="221" r="4.5"/>
            <path class="cls-4" d="M300,343a3,3,0,1,1-3,3,3,3,0,0,1,3-3m0-3a6,6,0,1,0,6,6,6,6,0,0,0-6-6Z" transform="translate(0 -125)"/>
        </g>
        <g id="Ellipse_1-14" data-name="Ellipse 1">
            <circle class="cls-3" cx="150" cy="223" r="4.5"/>
            <path class="cls-4" d="M150,345a3,3,0,1,1-3,3,3,3,0,0,1,3-3m0-3a6,6,0,1,0,6,6,6,6,0,0,0-6-6Z" transform="translate(0 -125)"/>
        </g>
        <g id="Ellipse_1-15" data-name="Ellipse 1">
            <circle class="cls-3" cx="225" cy="196" r="4.5"/>
            <path class="cls-4" d="M225,318a3,3,0,1,1-3,3,3,3,0,0,1,3-3m0-3a6,6,0,1,0,6,6,6,6,0,0,0-6-6Z" transform="translate(0 -125)"/>
        </g>
        <circle class="cls-3" cx="75.19" cy="230.97" r="4.5"/>
        <path class="cls-4" d="M75.19,353a3,3,0,1,1-3,3,3,3,0,0,1,3-3m0-3a6,6,0,1,0,6,6,6,6,0,0,0-6-6Z" transform="translate(0 -125)"/>
    </g>
</svg>