<?xml version="1.0" encoding="utf-8"?>
<!-- Generator: Adobe Illustrator 19.0.0, SVG Export Plug-In . SVG Version: 6.00 Build 0)  -->
<svg version="1.1" xmlns="http://www.w3.org/2000/svg" xmlns:xlink="http://www.w3.org/1999/xlink" x="0px" y="0px"
	 viewBox="0 0 60 60" enable-background="new 0 0 60 60" xml:space="preserve">
<g id="twitter">
	<path id="XMLID_14_" fill="#010202" d="M30,0C13.43,0,0,13.43,0,30s13.43,30,30,30s30-13.43,30-30S46.57,0,30,0z M45.1,21.7
		c-0.1,0.2-0.8,1-1.5,1.6c-1.2,1.2-1.2,1.3-1.2,2.3c0,1.5-0.7,4.6-1.4,6.3c-1.3,3.2-4.2,6.6-7,8.2c-4,2.4-9.3,3-13.8,1.6
		c-1.5-0.5-4-1.7-4-1.9c0-0.1,0.8-0.1,1.7-0.2c2,0,3.9-0.6,5.6-1.6l1.1-0.7l-1.3-0.4c-1.8-0.6-3.5-2.05-3.9-3.45
		c-0.1-0.4-0.1-0.45,1.1-0.45h1.2l-1-0.55c-1.2-0.6-2.3-1.625-2.9-2.725c-0.4-0.8-0.9-2.713-0.8-2.813c0-0.1,0.5,0.094,1,0.194
		c1.4,0.5,1.6,0.397,0.8-0.503c-1.6-1.6-2-4.002-1.3-6.302l0.4-1.001l1.4,1.4c2.8,2.8,6.2,4.4,10,4.9l1,0.1l-0.1-1
		c-0.2-2.7,1.5-5.2,4.1-6.1c1-0.3,2.6-0.4,3.7-0.1c0.4,0.1,1.2,0.5,1.8,0.9l1,0.7l1.1-0.4c0.6-0.2,1.5-0.5,1.8-0.7
		c0.4-0.2,0.7-0.3,0.7-0.2c0,0.4-0.8,1.6-1.4,2.3c-0.9,1-0.6,1,1.2,0.4C45.3,21.3,45.3,21.3,45.1,21.7z"/>
</g>
<g id="github">
	<path id="XMLID_16_" fill="#010202" d="M30,0C13.43,0,0,13.43,0,30s13.43,30,30,30s30-13.43,30-30S46.57,0,30,0z M42.204,30.9
		c-1.3,2.9-4.402,4-8.802,4.5c1.4,0.9,1.598,2,1.598,5.1v4.2c0,1.2,2.002,1.7,2.002,2.1c-0.1,0.4-1.249,0.3-1.949,0.1
		c-1.8-0.6-1.525-2.1-1.525-2.1l-0.464-4.1c0,0-0.064-2.2-1.064-2.2v6.7c0,1.5,1.402,1.9,1.402,2.5c0,0.9-1.951-0.1-2.551-0.7
		C29.951,46.1,30,44.2,30,42.8s0-4.8,0-4.8h-0.096c0,0,0.2,6.95-0.3,8.15c-0.7,1.6-2.9,2.175-2.9,1.475c0-0.5,0.5-0.263,0.8-1.363
		c0.2-0.9,0.198-7.881,0.198-7.881S27,38.8,27,40.1v5c0,1.3-1.798,2-2.698,2c-0.4,0-1.001,0-1.001-0.3c0-0.6,1.699-0.9,1.699-2.2
		c0-1.1,0-3.8,0-3.8S24.202,41,23.002,41c-3,0-3.999-1.9-4.399-3c-0.6-1.4-1.399-2-2.199-2.6c-0.5-0.3-0.6-0.7,0-0.8
		c2.7-0.5,3.3,3,5.1,3.6c1.3,0.4,2.9,0.2,3.7-0.3c0.1-1.1,0.9-2,1.5-2.5c-4.5-0.4-7.2-2-8.6-4.5c0,0-0.7-1.4-0.6-1.4
		c-0.4-1.3-0.6-2.7-0.6-4.4c0-2.9,0.9-4,2.1-5.5c-0.9-3.3,0.3-5.6,0.3-5.6s2-0.4,5.6,2.2c2-0.9,7.3-0.9,9.9-0.2
		c1.5-1,4.4-2.5,5.5-2.1c0.3,0.5,1,2,0.4,5.1c0.4,0.7,2.4,2.2,2.4,6.4c0,1.6-0.2,2.9-0.5,4C42.804,29.6,42.304,30.9,42.204,30.9z"/>
</g>
<g id="linkedin">
	<path id="XMLID_22_" fill="#010202" d="M30,0C13.43,0,0,13.43,0,30s13.43,30,30,30s30-13.43,30-30S46.57,0,30,0z M22,46h-7V26h7V46
		z M18.6,22.9c-2.3,0-3.7-1.6-3.7-3.5c0-2,1.5-3.5,3.8-3.5s3.7,1.5,3.7,3.5C22.4,21.3,21,22.9,18.6,22.9z M46,46h-7V35.2
		c0-2.8-0.8-4.6-3.2-4.6c-1.9,0-3.1,1.3-3.5,2.5c-0.2,0.4-0.3,1-0.3,1.7V46h-6.3c0,0,0.1-18,0-20H32v2.6c1-1.4,2.65-3.4,6.15-3.4
		c4.4,0,7.85,2.9,7.85,9.2V46z"/>
</g>
</svg>
