<svg xmlns="http://www.w3.org/2000/svg" viewBox="0 0 100 100">
    <title>callcenter</title>
    <g class="icon">
        <rect x="68.1" y="44.01" width="4.64" height="23.07" rx="1.44" ry="1.44"/>
        <rect x="27.3" y="44.01" width="4.64" height="23.07" rx="1.44" ry="1.44"/>
        <path d="M79.47,48.44V46.13a1.35,1.35,0,0,0-1.35-1.35H77a26.94,26.94,0,0,0-8.17-18.66l.56-.56a27.75,27.75,0,0,0-38.76,0l.56.56A26.94,26.94,0,0,0,23,44.78H21.87a1.35,1.35,0,0,0-1.35,1.35v2.31a9.54,9.54,0,0,0,0,14.81V65a1.35,1.35,0,0,0,1.35,1.35H27V44.78h0a23.05,23.05,0,0,1,7-15.91l.57.57.24-.22a22.28,22.28,0,0,1,30.52,0l.23.22.57-.57a23.05,23.05,0,0,1,7,15.91h0V66.3h.3a17.88,17.88,0,0,1-12.4,9.87,4.46,4.46,0,1,0,.29.86A18.38,18.38,0,0,0,74.34,66.3h3.79A1.35,1.35,0,0,0,79.47,65v-1.7a9.54,9.54,0,0,0,0-14.81Z"/>
    </g>
    <g class="shadow">
        <path d="M80.18,85.63a.42.42,0,0,1,0,.16.86.86,0,0,1-1,.38L73.51,85c-.44-.09-.74-.38-.74-.7a.84.84,0,0,1,.73-.71l3.17-.69-3.17-.67c-.44-.09-.74-.38-.74-.71h0c0-.33.29-.61.73-.71l3.17-.69-3.17-.67c-.45-.1-.74-.38-.74-.71h0c0-.33.3-.61.74-.71l3.16-.69-3.17-.67c-.44-.09-.74-.38-.74-.71s.3-.62.74-.71l3.17-.69-3.17-.67c-.44-.09-.74-.37-.74-.7a.84.84,0,0,1,.73-.71l2-.42c1.89-.41,3.15-1.63,3.15-3s-1.41-2.74-3.42-3.07c-.42-.07-.68-.37-.58-.67a.83.83,0,0,1,.94-.42c2.72.45,4.62,2.15,4.63,4.15s-1.71,3.55-4.25,4.1l-.29.06,3.17.67c.44.09.74.38.74.71s-.3.62-.74.71l-3.17.69,3.17.67c.44.09.74.38.74.71h0c0,.33-.3.62-.74.71l-3.17.69,3.17.67c.44.09.74.38.74.71s-.3.62-.74.71l-3.17.69,3.17.67c.44.09.74.38.74.71h0c0,.33-.3.61-.74.71l-3.17.69,4,.85c.34.07.56.29.56.53Z"/>
    </g>
</svg>
