<svg width="31px" height="32px" viewBox="0 0 31 32" version="1.1" xmlns="http://www.w3.org/2000/svg" xmlns:xlink="http://www.w3.org/1999/xlink">
    <!-- Generator: Sketch 43.2 (39069) - http://www.bohemiancoding.com/sketch -->
    <desc>Created with Sketch.</desc>
    <defs></defs>
    <g id="Page-1" stroke="none" stroke-width="1" fill="none" fill-rule="evenodd">
        <g id="Desktop" transform="translate(-585.000000, -304.000000)" fill="#4F575A">
            <g id="Hero">
                <g id="channels" transform="translate(115.000000, 48.000000)">
                    <path d="M499,274 L472,274 L472,260 C472,258.896 472.896,258 474,258 L497,258 C498.104,258 499,258.896 499,260 L499,274 L499,274 Z M499,278 C499,279.104 498.104,280 497,280 L474,280 C472.896,280 472,279.104 472,278 L472,276 L499,276 L499,278 L499,278 Z M484,282 L488,282 L488,286 L484,286 L484,282 Z M497,256 L474,256 C471.791,256 470,257.791 470,260 L470,278 C470,280.209 471.791,282 474,282 L482,282 L482,286 L480,286 C479.447,286 479,286.448 479,287 C479,287.553 479.447,288 480,288 L492,288 C492.553,288 493,287.553 493,287 C493,286.448 492.553,286 492,286 L490,286 L490,282 L497,282 C499.209,282 501,280.209 501,278 L501,260 C501,257.791 499.209,256 497,256 L497,256 Z" id="Fill-143"></path>
                </g>
            </g>
        </g>
    </g>
</svg>
