<?xml version="1.0" encoding="utf-8"?>
<!-- Generator: Adobe Illustrator 19.0.0, SVG Export Plug-In . SVG Version: 6.00 Build 0)  -->
<svg version="1.1" xmlns="http://www.w3.org/2000/svg" xmlns:xlink="http://www.w3.org/1999/xlink" x="0px" y="0px"
	 viewBox="0 0 60 60" xml:space="preserve" aria-labelledby="icn-github" role="img">
<title id="icn-github">Github</title>
<g>
<path d="M42.66,30c-1.3,2.9-4.4,4-8.8,4.5,1.4.9,1.6,2,1.6,5.1v4.2c0,1.2,2,1.7,2,2.1s-1.25.3-1.95.1A1.93,1.93,0,0,1,34,43.85l-.46-4.1s-.06-2.2-1.06-2.2v6.7c0,1.5,1.4,1.9,1.4,2.5,0,.9-2-.1-2.55-.7-.9-.9-.85-2.8-.85-4.2v-4.8h-.1s.2,7-.3,8.15c-.7,1.6-2.9,2.17-2.9,1.47,0-.5.5-.26.8-1.36.2-.9.2-7.88.2-7.88a1.93,1.93,0,0,0-.7,1.72v5c0,1.3-1.8,2-2.7,2-.4,0-1,0-1-.3,0-.6,1.7-.9,1.7-2.2v-3.8a9,9,0,0,1-2,.2,4.28,4.28,0,0,1-4.4-3,5.84,5.84,0,0,0-2.2-2.6c-.5-.3-.6-.7,0-.8,2.7-.5,3.3,3,5.1,3.6a5,5,0,0,0,3.7-.3,4,4,0,0,1,1.5-2.5c-4.5-.4-7.2-2-8.6-4.5a8.43,8.43,0,0,1-.6-1.4,14.63,14.63,0,0,1-.6-4.4,7.35,7.35,0,0,1,2.1-5.5,8.2,8.2,0,0,1,.3-5.6s2-.4,5.6,2.2c2-.9,7.3-.9,9.9-.2,1.5-1,4.4-2.5,5.5-2.1.3.5,1,2,.4,5.1a8.94,8.94,0,0,1,2.4,6.4,15,15,0,0,1-.5,4C43.26,28.65,42.76,30,42.66,30Z"/>
</g>
</svg>
