<?xml version="1.0" encoding="utf-8"?>
<!-- Generator: Adobe Illustrator 19.0.0, SVG Export Plug-In . SVG Version: 6.00 Build 0)  -->
<svg version="1.1" xmlns="http://www.w3.org/2000/svg" xmlns:xlink="http://www.w3.org/1999/xlink" x="0px" y="0px"
	 viewBox="0 0 60 60" xml:space="preserve">
<title>Github</title>
<g>
	<path d="M30,0C13.43,0,0,13.43,0,30s13.43,30,30,30s30-13.43,30-30S46.57,0,30,0z M42.204,30.9
		c-1.3,2.9-4.402,4-8.802,4.5c1.4,0.9,1.598,2,1.598,5.1v4.2c0,1.2,2.002,1.7,2.002,2.1c-0.1,0.4-1.249,0.3-1.949,0.1
		c-1.8-0.6-1.525-2.1-1.525-2.1l-0.464-4.1c0,0-0.064-2.2-1.064-2.2v6.7c0,1.5,1.402,1.9,1.402,2.5c0,0.9-1.951-0.1-2.551-0.7
		C29.951,46.1,30,44.2,30,42.8s0-4.8,0-4.8h-0.096c0,0,0.2,6.95-0.3,8.15c-0.7,1.6-2.9,2.175-2.9,1.475c0-0.5,0.5-0.263,0.8-1.363
		c0.2-0.9,0.198-7.881,0.198-7.881S27,38.8,27,40.1v5c0,1.3-1.798,2-2.698,2c-0.4,0-1.001,0-1.001-0.3c0-0.6,1.699-0.9,1.699-2.2
		c0-1.1,0-3.8,0-3.8S24.202,41,23.002,41c-3,0-3.999-1.9-4.399-3c-0.6-1.4-1.399-2-2.199-2.6c-0.5-0.3-0.6-0.7,0-0.8
		c2.7-0.5,3.3,3,5.1,3.6c1.3,0.4,2.9,0.2,3.7-0.3c0.1-1.1,0.9-2,1.5-2.5c-4.5-0.4-7.2-2-8.6-4.5c0,0-0.7-1.4-0.6-1.4
		c-0.4-1.3-0.6-2.7-0.6-4.4c0-2.9,0.9-4,2.1-5.5c-0.9-3.3,0.3-5.6,0.3-5.6s2-0.4,5.6,2.2c2-0.9,7.3-0.9,9.9-0.2
		c1.5-1,4.4-2.5,5.5-2.1c0.3,0.5,1,2,0.4,5.1c0.4,0.7,2.4,2.2,2.4,6.4c0,1.6-0.2,2.9-0.5,4C42.804,29.6,42.304,30.9,42.204,30.9z"/>
</g>
</svg>
