<svg xmlns="http://www.w3.org/2000/svg" viewBox="0 0 100 100">
    <title>imac</title>
    <g class="icon">
        <path d="M83,19.69H17a2.05,2.05,0,0,0-2,2V67.65a2.05,2.05,0,0,0,2,2H42.32c-.18,1.81-.38,3.76-.48,4.54-.21,1.61-.35,2.44-1.26,3.35a9,9,0,0,1-1.48,1.24c-.84.52-.85.6-.85.76s0,.72,1.38.72H60.37c1.37,0,1.38-.56,1.38-.72s0-.24-.85-.76a9,9,0,0,1-1.48-1.24c-.91-.91-1-1.75-1.26-3.35-.1-.77-.3-2.72-.48-4.54H83a2.05,2.05,0,0,0,2-2V21.74A2.05,2.05,0,0,0,83,19.69Zm-33,.79a.79.79,0,1,1-.79.79A.79.79,0,0,1,50,20.48ZM81.5,58.88h-63V22.81h63Z"/>
    </g>
    <g class="shadow">
        <polygon points="69.89 22.81 18.5 22.81 18.5 58.88 33.82 58.88 69.89 22.81"/>
        <circle cx="50" cy="21.28" r="0.79"/>
    </g>
</svg>