<svg xmlns="http://www.w3.org/2000/svg" viewBox="0 0 100 100">
    <title>iphone</title>
    <g class="icon">
        <path d="M62.87,15H37.13a6.91,6.91,0,0,0-6.89,6.89V78.11A6.91,6.91,0,0,0,37.13,85H62.87a6.91,6.91,0,0,0,6.89-6.89V21.89A6.91,6.91,0,0,0,62.87,15ZM50,17.81a.75.75,0,1,1-.75.75A.75.75,0,0,1,50,17.81Zm-2.73,3h5.47a.39.39,0,1,1,0,.75H47.27a.39.39,0,1,1,0-.75Zm-2.2,0a.38.38,0,1,1-.38.38A.38.38,0,0,1,45.06,20.82ZM50,82.75a3.37,3.37,0,1,1,3.37-3.37A3.37,3.37,0,0,1,50,82.75Zm17.35-8.83H32.65V26.09h34.7Z"/>
        <circle cx="50" cy="79.38" r="2.71"/>
    </g>
    <g class="shadow">
        <circle cx="50" cy="79.38" r="3.37"/>
        <polygon points="67.35 27.01 67.35 26.09 32.65 26.09 32.65 61.71 67.35 27.01"/>
        <path d="M53.21,21.2a.44.44,0,0,1-.48.38H47.27a.39.39,0,1,1,0-.75h5.47A.44.44,0,0,1,53.21,21.2Z"/>
        <circle cx="50" cy="18.56" r="0.75"/>
        <circle cx="45.06" cy="21.2" r="0.38"/>
    </g>
</svg>