<?xml version="1.0" encoding="UTF-8"?>
<svg viewBox="0 0 24 24" version="1.1" xmlns="http://www.w3.org/2000/svg" xmlns:xlink="http://www.w3.org/1999/xlink">
    <title>linkedin</title>
    <g>
        <path d="M3,8 L7,8 L7,22 L3,22 L3,8 Z M22,22 L18,22 L18,15 C17.6524021,12.9454817 16.972331,11.6646751 15,12 C14.3330071,11.6646751 13.6968861,12.5285661 13,13 C13.2897687,13.6616878 13.3071174,14.0786034 13,14 L13,22 L9,22 C9,22 9.05551601,9.28864824 9,8 L13,8 L13,10 C13.5615658,9.35791636 14.9379004,8 17,8 C19.8591637,8 22,9.99570575 22,14 L22,22 L22,22 Z M5,6 C6.1045695,6 7,5.1045695 7,4 C7,2.8954305 6.1045695,2 5,2 C3.8954305,2 3,2.8954305 3,4 C3,5.1045695 3.8954305,6 5,6 Z" id="Shape"></path>
    </g>
</svg>
