<?xml version="1.0" encoding="utf-8"?>
<!-- Generator: Adobe Illustrator 19.0.0, SVG Export Plug-In . SVG Version: 6.00 Build 0)  -->
<svg version="1.1" xmlns="http://www.w3.org/2000/svg" xmlns:xlink="http://www.w3.org/1999/xlink" x="0px" y="0px"
     viewBox="0 0 60 60" xml:space="preserve">
<title>LinkedIN</title>
<g>
    <path d="M30,0C13.43,0,0,13.43,0,30s13.43,30,30,30s30-13.43,30-30S46.57,0,30,0z M22,46h-7V26h7V46
        z M18.6,22.9c-2.3,0-3.7-1.6-3.7-3.5c0-2,1.5-3.5,3.8-3.5s3.7,1.5,3.7,3.5C22.4,21.3,21,22.9,18.6,22.9z M46,46h-7V35.2
        c0-2.8-0.8-4.6-3.2-4.6c-1.9,0-3.1,1.3-3.5,2.5c-0.2,0.4-0.3,1-0.3,1.7V46h-6.3c0,0,0.1-18,0-20H32v2.6c1-1.4,2.65-3.4,6.15-3.4
        c4.4,0,7.85,2.9,7.85,9.2V46z"/>
</g>
</svg>
