<?xml version="1.0" encoding="utf-8"?>
<svg viewBox="0 0 24 24" version="1.1" xmlns="http://www.w3.org/2000/svg" xmlns:xlink="http://www.w3.org/1999/xlink">
    <title>linkedin</title>
    <g>
        <path d="M2.10183443,8.41311307 L6,8.41311307 L6,21.9987194 L2.10183443,21.9987194 L2.10183443,8.41311307 Z M3.95155221,6.71379178 L3.9233302,6.71379178 C2.51222954,6.71379178 1.59736595,5.67524651 1.59736595,4.36009732 C1.59736595,3.01805609 2.53927563,2 3.97859831,2 C5.41674506,2 6.30103481,3.01549494 6.32925682,4.3562556 C6.32925682,5.67140479 5.41674506,6.71379178 3.95155221,6.71379178 L3.95155221,6.71379178 Z M17.1770931,22 L17.1770931,14.9683698 C17.1770931,13.1281854 16.4856538,11.8732232 14.9651929,11.8732232 C13.8022107,11.8732232 13.1554563,12.7196824 12.8544214,13.537969 C12.7415334,13.8299398 12.7591722,14.2384428 12.7591722,14.6482264 L12.7591722,22 L8.38005644,22 C8.38005644,22 8.43650047,9.54514022 8.38005644,8.41311307 L12.7591722,8.41311307 L12.7591722,10.5452683 C13.0178739,9.61301063 14.4172154,8.28249456 16.6502822,8.28249456 C19.4207432,8.28249456 21.5973659,10.2379306 21.5973659,14.4446152 L21.5973659,22 L17.1770931,22 Z"/>
    </g>
</svg>
