<?xml version="1.0" encoding="utf-8"?>
<!-- Generator: Adobe Illustrator 19.0.0, SVG Export Plug-In . SVG Version: 6.00 Build 0)  -->
<svg version="1.1" xmlns="http://www.w3.org/2000/svg" xmlns:xlink="http://www.w3.org/1999/xlink" x="0px" y="0px"
     viewBox="0 0 60 60" xml:space="preserve" aria-labelledby="icn-linkedin" role="img">
<title id="icn-linkedin">LinkedIN</title>
<g>
    <path d="M20.46,47h-7.9V24.41h7.9ZM16.62,20.91a4,4,0,1,1,.11-7.9,3.86,3.86,0,0,1,4.18,4A4,4,0,0,1,16.62,20.91ZM47.56,47h-7.9V34.8c0-3.16-.9-5.19-3.61-5.19a4.13,4.13,0,0,0-4,2.82,4.5,4.5,0,0,0-.34,1.92V47H24.64s.11-20.32,0-22.58h7.11v2.94a8,8,0,0,1,6.94-3.84c5,0,8.86,3.27,8.86,10.39Z"/>
</g>
</svg>
