<?xml version="1.0" encoding="utf-8"?>
<!-- Generator: Adobe Illustrator 19.0.0, SVG Export Plug-In . SVG Version: 6.00 Build 0)  -->
<svg version="1.1" xmlns="http://www.w3.org/2000/svg" xmlns:xlink="http://www.w3.org/1999/xlink" x="0px" y="0px"
     viewBox="0 0 60 60" xml:space="preserve" aria-labelledby="icn-heart" role="img">
<title id="icn-heart">Heart</title>
<g>
<path d="M5.178,24.609c-0.251,4.252,0.439,8.162,2.07,11.728c3.011,6.036,9.095,12.894,18.252,20.576
    c0.125,0.137,0.533,0.514,1.223,1.132c0.69,0.617,1.286,1.097,1.788,1.44C29.012,59.828,29.514,60,30.016,60
    c1.756-0.137,5.582-3.155,11.478-9.053c3.638-3.429,6.649-6.927,9.032-10.494c4.516-6.722,5.708-13.855,3.575-21.399
    c-1.254-2.881-3.073-5.11-5.457-6.687C46.261,10.789,43.627,10,40.742,10c-2.007,0-3.952,0.412-5.833,1.235
    c-1.882,1.097-3.512,2.606-4.892,4.527c-2.509-3.429-5.833-5.316-9.973-5.658c-4.14-0.343-7.778,1.063-10.914,4.218
    C6.746,16.927,5.429,20.357,5.178,24.609L5.178,24.609z"/>
</g>
</svg>