<?xml version="1.0" encoding="UTF-8"?>
<svg viewBox="0 0 24 24" version="1.1" xmlns="http://www.w3.org/2000/svg" xmlns:xlink="http://www.w3.org/1999/xlink">
    <title>medium</title>
    <g>
        <path d="M22.9327307,6.40697919 C22.9646836,6.43220517 22.9751945,6.47677107 22.9531217,6.51292832 L16.2837923,17.3504309 L11.4889636,9.55896573 L15.3096489,3.35001051 C15.4467101,3.12760143 15.6996006,3 15.9537524,3 C16.0151356,3 16.0763086,3.00945974 16.1362203,3.02480555 C16.1839395,3.03699811 16.231028,3.0521337 16.2758041,3.07462687 L22.9123397,6.39289468 L22.9199075,6.39667858 C22.9251629,6.39920118 22.9285264,6.40361572 22.9327307,6.40697919 Z M9.38448602,8.14462897 L15.6665966,18.353374 L9.38448602,15.2123187 L9.38448602,8.14462897 Z M16.6104688,18.8253101 L23,8.44229556 L23,20.8848013 C23,21.511667 22.4544881,21.7473197 21.781585,21.4107631 L16.6104688,18.8253101 Z M8.2938827,6.41706958 C8.3180576,6.42905192 8.33340341,6.45385747 8.33340341,6.48076519 L8.33340341,20.8848013 C8.33340341,21.345596 8.08450704,21.6201387 7.72966155,21.6201387 C7.60374185,21.6201387 7.4643683,21.585453 7.3180576,21.5122977 L1.60920748,18.6579777 C1.27412235,18.4904351 1,18.0468783 1,17.6722724 L1,3.6781585 C1,3.30964894 1.19907505,3.08997267 1.48286735,3.08997267 C1.58377128,3.08997267 1.69518604,3.11772125 1.81227664,3.17616145 L8.2938827,6.41706958 Z" id="Shape"></path>
    </g>
</svg>
