
<svg width="31px" height="32px" viewBox="0 0 31 32" version="1.1" xmlns="http://www.w3.org/2000/svg" xmlns:xlink="http://www.w3.org/1999/xlink">
    <!-- Generator: Sketch 43.2 (39069) - http://www.bohemiancoding.com/sketch -->
    <desc>Created with Sketch.</desc>
    <defs></defs>
    <g id="Page-1" stroke="none" stroke-width="1" fill="none" fill-rule="evenodd">
        <g id="Desktop" transform="translate(-168.000000, -392.000000)" fill="#4F575A">
            <g id="Hero">
                <g id="channels" transform="translate(115.000000, 48.000000)">
                    <path d="M55,355.5 C55,350.254 59.753,346 66,346 C70.973,346 76,350.254 76,355.5 C76,360.747 72.075,365 66,365 C65.107,365 63.244,364.898 62.413,364.725 L59,367 L59,363.456 C56.561,361.477 55,358.834 55,355.5 L55,355.5 Z M62.637,366.736 C63.414,366.863 65.181,367 66,367 C73.18,367 78,361.657 78,355.375 C78,349.093 71.977,344 66,344 C58.811,344 53,349.093 53,355.375 C53,359.015 54.387,362.104 57,364.329 L57,370 L62.637,366.736 L62.637,366.736 Z M79.949,353.139 C79.968,353.425 80,353.709 80,354 C80,354.636 79.938,355.259 79.849,355.874 C81.195,357.45 82,359.392 82,361.5 C82,364.834 80.008,367.761 77,369.456 L77,373 L73.587,370.725 C72.756,370.898 71.893,371 71,371 C68.41,371 67.034,370.222 65.154,368.929 C64.609,368.973 64.059,369 63.5,369 C63.102,369 62.712,368.972 62.32,368.949 C64.701,371.276 67.149,372.75 71,372.75 C71.819,372.75 72.618,372.676 73.395,372.549 L79,376 L79,370.329 C82.04,368.246 84,365.015 84,361.375 C84,358.131 82.439,355.211 79.949,353.139 L79.949,353.139 Z M71.5,357 C72.329,357 73,356.329 73,355.5 C73,354.672 72.329,354 71.5,354 C70.671,354 70,354.672 70,355.5 C70,356.329 70.671,357 71.5,357 L71.5,357 Z M59.5,357 C60.329,357 61,356.329 61,355.5 C61,354.672 60.329,354 59.5,354 C58.671,354 58,354.672 58,355.5 C58,356.329 58.671,357 59.5,357 L59.5,357 Z M65.5,357 C66.329,357 67,356.329 67,355.5 C67,354.672 66.329,354 65.5,354 C64.671,354 64,354.672 64,355.5 C64,356.329 64.671,357 65.5,357 L65.5,357 Z" id="Fill-189"></path>
                </g>
            </g>
        </g>
    </g>
</svg>