<svg width="32px" height="24px" viewBox="0 0 32 24" version="1.1" xmlns="http://www.w3.org/2000/svg" xmlns:xlink="http://www.w3.org/1999/xlink">
    <!-- Generator: Sketch 43.2 (39069) - http://www.bohemiancoding.com/sketch -->
    <desc>Created with Sketch.</desc>
    <defs></defs>
    <g id="Page-1" stroke="none" stroke-width="1" fill="none" fill-rule="evenodd">
        <g id="Desktop" transform="translate(-495.000000, -94.000000)" fill="#4F575A">
            <g id="Hero">
                <g id="channels" transform="translate(115.000000, 48.000000)">
                    <path d="M406,55 C406,55.553 405.553,56 405,56 L403,56 C402.447,56 402,55.553 402,55 L402,53 C402,52.448 402.447,52 403,52 L405,52 C405.553,52 406,52.448 406,53 L406,55 L406,55 Z M406,50 L402,50 C400.896,50 400,50.896 400,52 L400,56 C400,57.104 400.896,58 402,58 L406,58 C407.104,58 408,57.104 408,56 L408,52 C408,50.896 407.104,50 406,50 L406,50 Z M410,66 C410,67.104 409.104,68 408,68 L384,68 C382.896,68 382,67.104 382,66 L382,50 C382,48.896 382.896,48 384,48 L408,48 C409.104,48 410,48.896 410,50 L410,66 L410,66 Z M408,46 L384,46 C381.791,46 380,47.791 380,50 L380,66 C380,68.209 381.791,70 384,70 L408,70 C410.209,70 412,68.209 412,66 L412,50 C412,47.791 410.209,46 408,46 L408,46 Z M397,64 L385,64 C384.447,64 384,64.447 384,65 C384,65.553 384.447,66 385,66 L397,66 C397.553,66 398,65.553 398,65 C398,64.447 397.553,64 397,64 L397,64 Z M397,60 L385,60 C384.447,60 384,60.448 384,61 C384,61.553 384.447,62 385,62 L397,62 C397.553,62 398,61.553 398,61 C398,60.448 397.553,60 397,60 L397,60 Z" id="Fill-185"></path>
                </g>
            </g>
        </g>
    </g>
</svg>
