
<svg width="32px" height="31px" viewBox="0 0 32 31" version="1.1" xmlns="http://www.w3.org/2000/svg" xmlns:xlink="http://www.w3.org/1999/xlink">
    <!-- Generator: Sketch 43.2 (39069) - http://www.bohemiancoding.com/sketch -->
    <desc>Created with Sketch.</desc>
    <defs></defs>
    <g id="Page-1" stroke="none" stroke-width="1" fill="none" fill-rule="evenodd">
        <g id="Desktop" transform="translate(-115.000000, -48.000000)" fill="#4F575A">
            <g id="Hero">
                <g id="channels" transform="translate(115.000000, 48.000000)">
                    <path d="M28.7225323,7.76875 C27.0225323,10.99875 23.2475323,15.97075 20.0875323,19.24975 C16.4445323,23.18975 7.85653231,28.57775 7.85653231,28.57775 C7.19353231,28.92575 5.35353231,28.95175 4.84753231,28.44675 L3.01653231,26.62075 C2.63853231,25.98875 2.46853231,25.25675 3.01653231,24.79475 L6.67953231,22.05475 C7.29953231,21.63575 8.00453231,21.55075 8.51053231,22.05475 L10.7675323,24.30475 C11.2985323,23.93175 19.7765323,18.37575 24.4925323,10.72675 L22.1815323,8.42175 C21.6755323,7.91775 21.7615323,7.21375 22.1815323,6.59475 L24.9285323,2.94275 C25.4345323,2.26775 26.2545323,2.43775 26.7595323,2.94275 L28.5915323,4.76875 C29.3095323,5.44275 29.1015323,7.01375 28.7225323,7.76875 L28.7225323,7.76875 Z M30.1605323,3.46475 L27.2825323,0.59475 C26.4885323,-0.19825 25.1995323,-0.19825 24.4045323,0.59475 L20.0875323,6.33475 C19.4285323,7.30575 19.2935323,8.41175 20.0875323,9.20475 L21.8495323,10.96175 C20.5435323,12.71175 18.9755323,14.61975 17.2105323,16.37975 C15.2145323,18.36975 12.9945323,20.17875 10.9985323,21.66475 L9.29553231,19.96775 C8.50153231,19.17475 7.39253231,19.30875 6.41753231,19.96775 L0.661532311,24.27275 C-0.303467689,24.93775 -0.133467689,26.34975 0.661532311,27.14275 L3.53953231,30.01175 C5.12953231,31.59775 7.19653231,31.08975 9.29553231,30.01175 C9.29553231,30.01175 15.6485323,26.45575 21.0875323,21.03175 C26.2035323,15.92975 30.1605323,9.20475 30.1605323,9.20475 C30.9855323,6.94175 31.7505323,5.04975 30.1605323,3.46475 L30.1605323,3.46475 Z" id="Fill-179"></path>
                </g>
            </g>
        </g>
    </g>
</svg>