<?xml version="1.0" encoding="utf-8"?>
<svg viewBox="0 0 24 24" version="1.1" xmlns="http://www.w3.org/2000/svg" xmlns:xlink="http://www.w3.org/1999/xlink">
    <title>twitter</title>
    <g>
        <path d="M19.526149,6.84573162 C20.4160944,6.28412538 21.0989611,5.39361548 21.41944,4.3328037 C20.5861948,4.85410949 19.6654341,5.23111368 18.6830428,5.43521595 C17.899102,4.55120612 16.7786582,4 15.5386512,4 C13.1597112,4 11.231907,6.03452261 11.231907,8.54355048 C11.231907,8.89975444 11.2676528,9.2468583 11.3416094,9.57836198 C7.762106,9.38855987 4.58813171,7.58153979 2.46187709,4.83070923 C2.09086107,5.50411671 1.87885191,6.28412538 1.87885191,7.11613462 C1.87885191,8.69175213 2.63937313,10.0827676 3.7955626,10.8991767 C3.08927628,10.8757764 2.42489875,10.6690741 1.84310618,10.3310703 L1.84310618,10.386971 C1.84310618,12.5891954 3.32717028,14.4261158 5.30058109,14.8421205 C4.93819334,14.9487217 4.55854904,15.0020222 4.1641134,15.0020222 C3.88677584,15.0020222 3.61560134,14.9747219 3.35428773,14.9214213 C3.90156718,16.7258414 5.49286846,18.041456 7.37876387,18.0765564 C5.90332805,19.29597 4.04578271,20.021378 2.02799789,20.021378 C1.68040148,20.021378 1.33650291,20.0018778 1,19.9589773 C2.9068498,21.2472916 5.17115689,22 7.60433175,22 C15.5300229,22 19.8614193,15.0761231 19.8614193,9.07135635 C19.8614193,8.87375415 19.858954,8.67745197 19.8503258,8.48374982 C20.6921993,7.8428427 21.4243705,7.0420338 22,6.13072367 C21.2271527,6.49212769 20.3963726,6.73653041 19.526149,6.84573162 Z"/>
    </g>
</svg>
