<?xml version="1.0" encoding="utf-8"?>
<!-- Generator: Adobe Illustrator 19.0.0, SVG Export Plug-In . SVG Version: 6.00 Build 0)  -->
<svg version="1.1" xmlns="http://www.w3.org/2000/svg" xmlns:xlink="http://www.w3.org/1999/xlink" x="0px" y="0px"
     viewBox="0 0 60 60" xml:space="preserve" aria-labelledby="icn-twitter" role="img">
<title id="icn-twitter">Twitter</title>
<g>
    <path d="M47.67,19.34a11.34,11.34,0,0,1-1.84,2c-1.47,1.47-1.47,1.6-1.47,2.82a26.73,26.73,0,0,1-1.72,7.73A22.31,22.31,0,0,1,34,41.93a21.49,21.49,0,0,1-16.94,2c-1.84-.61-4.91-2.09-4.91-2.33a9.68,9.68,0,0,1,2.09-.25,13.53,13.53,0,0,0,6.87-2l1.35-.86L20.92,38c-2.21-.74-4.3-2.52-4.79-4.23-.12-.49-.12-.55,1.35-.55H19l-1.23-.68a8.53,8.53,0,0,1-3.56-3.34,11.64,11.64,0,0,1-1-3.45c0-.12.61.12,1.23.24,1.72.61,2,.49,1-.62a7.62,7.62,0,0,1-1.6-7.73l.49-1.23L16,18.12a20.83,20.83,0,0,0,12.27,6l1.23.12L29.39,23a7.41,7.41,0,0,1,5-7.49A9.44,9.44,0,0,1,39,15.42a9.18,9.18,0,0,1,2.21,1.1l1.23.86,1.35-.49A13.89,13.89,0,0,0,46,16c.49-.25.86-.37.86-.25a8.2,8.2,0,0,1-1.72,2.82c-1.1,1.23-.74,1.23,1.47.49C47.92,18.85,47.92,18.85,47.67,19.34Z"/>
</g>
</svg>
