<?xml version="1.0" encoding="utf-8"?>
<!-- Generator: Adobe Illustrator 19.0.0, SVG Export Plug-In . SVG Version: 6.00 Build 0)  -->
<svg version="1.1" xmlns="http://www.w3.org/2000/svg" xmlns:xlink="http://www.w3.org/1999/xlink" x="0px" y="0px"
     viewBox="0 0 60 60" xml:space="preserve">
<title>Twitter</title>
<g>
    <path d="M30,0C13.43,0,0,13.43,0,30s13.43,30,30,30s30-13.43,30-30S46.57,0,30,0z M45.1,21.7
        c-0.1,0.2-0.8,1-1.5,1.6c-1.2,1.2-1.2,1.3-1.2,2.3c0,1.5-0.7,4.6-1.4,6.3c-1.3,3.2-4.2,6.6-7,8.2c-4,2.4-9.3,3-13.8,1.6
        c-1.5-0.5-4-1.7-4-1.9c0-0.1,0.8-0.1,1.7-0.2c2,0,3.9-0.6,5.6-1.6l1.1-0.7l-1.3-0.4c-1.8-0.6-3.5-2.05-3.9-3.45
        c-0.1-0.4-0.1-0.45,1.1-0.45h1.2l-1-0.55c-1.2-0.6-2.3-1.625-2.9-2.725c-0.4-0.8-0.9-2.713-0.8-2.813c0-0.1,0.5,0.094,1,0.194
        c1.4,0.5,1.6,0.397,0.8-0.503c-1.6-1.6-2-4.002-1.3-6.302l0.4-1.001l1.4,1.4c2.8,2.8,6.2,4.4,10,4.9l1,0.1l-0.1-1
        c-0.2-2.7,1.5-5.2,4.1-6.1c1-0.3,2.6-0.4,3.7-0.1c0.4,0.1,1.2,0.5,1.8,0.9l1,0.7l1.1-0.4c0.6-0.2,1.5-0.5,1.8-0.7
        c0.4-0.2,0.7-0.3,0.7-0.2c0,0.4-0.8,1.6-1.4,2.3c-0.9,1-0.6,1,1.2,0.4C45.3,21.3,45.3,21.3,45.1,21.7z"/>
</g>
</svg>
