<svg width="370" height="304" viewBox="0 0 370 304" version="1.1" xmlns="http://www.w3.org/2000/svg" xmlns:xlink="http://www.w3.org/1999/xlink"><defs><path id="path-1" d="M0 0h215v25H0z"/><circle id="path-2" cx="16.5" cy="12.5" r="6.5"/><path id="path-3" d="M0 0h215v24H0z"/><circle id="path-4" cx="16.5" cy="12" r="6.5"/><path id="path-5" d="M0 0h215v25H0z"/><circle id="path-6" cx="16.5" cy="12.5" r="6.5"/><path id="path-7" d="M0 0h215v25H0z"/><circle id="path-8" cx="16.5" cy="12.5" r="6.5"/><path id="path-9" d="M0 0h215v25H0z"/><circle id="path-10" cx="16.5" cy="12.5" r="6.5"/><path id="path-11" d="M0 0h215v25H0z"/><circle id="path-12" cx="16.5" cy="12.5" r="6.5"/><path id="path-13" d="M0 0h215v25H0z"/><circle id="path-14" cx="16.5" cy="12.5" r="6.5"/><path id="path-15" d="M0 0h215v25H0z"/><circle id="path-16" cx="16.5" cy="12.5" r="6.5"/><path id="path-17" d="M0 0h215v25H0z"/><circle id="path-18" cx="16.5" cy="12.5" r="6.5"/><path id="path-19" d="M0 0h215v25H0z"/><circle id="path-20" cx="16.5" cy="12.5" r="6.5"/><path id="path-21" d="M0 0h215v25H0z"/><circle id="path-22" cx="16.5" cy="12.5" r="6.5"/><circle id="path-23" cx="9.5" cy="8.5" r="8.5"/><rect id="path-24" x="0" y="0" width="128" height="245" rx="20"/><path id="path-25" d="M8 30h112v184H8z"/><path id="path-26" d="M0 0h112v25H0z"/><circle id="path-27" cx="16.5" cy="12.5" r="6.5"/><path id="path-28" d="M0 0h112v25H0z"/><circle id="path-29" cx="16.5" cy="12.5" r="6.5"/><path id="path-30" d="M0 0h112v25H0z"/><circle id="path-31" cx="16.5" cy="12.5" r="6.5"/><path id="path-32" d="M0 0h112v25H0z"/><circle id="path-33" cx="16.5" cy="12.5" r="6.5"/><path id="path-34" d="M0 0h112v25H0z"/><circle id="path-35" cx="16.5" cy="12.5" r="6.5"/><path id="path-36" d="M0 0h112v25H0z"/><circle id="path-37" cx="16.5" cy="12.5" r="6.5"/><path id="path-38" d="M0 0h112v25H0z"/><circle id="path-39" cx="16.5" cy="12.5" r="6.5"/></defs><g id="Symbols" stroke="none" stroke-width="1" fill="none" fill-rule="evenodd"><g id="illustration/prototype"><g id="Browser"><path d="M.5 20.5h284" id="Line" stroke="#DBDEDF" stroke-linecap="square"/><path d="M284.5 283.5H.5V5.005A4.5 4.5 0 0 1 5.007.5h274.986a4.508 4.508 0 0 1 4.507 4.505V283.5z" id="Rectangle" stroke="#DBDEDF"/><circle id="Oval" fill="#D0011B" cx="13.5" cy="10.5" r="2.5"/><circle id="Oval-Copy" fill="#F6A623" cx="23.5" cy="10.5" r="2.5"/><circle id="Oval-Copy-2" fill="#417505" cx="33.5" cy="10.5" r="2.5"/><g id="data-rows" transform="translate(70 20)"><g id="UI/row"><g id="Rectangle-2"><use fill="#FBFBFB" fill-rule="evenodd" xlink:href="#path-1"/><path stroke="#DBDEDF" stroke-width="1" d="M.5.5h214v24H.5z"/></g><g id="Oval-3"><use fill="#F1F1F2" fill-rule="evenodd" xlink:href="#path-2"/><circle stroke="#DBDEDF" stroke-width="1" cx="16.5" cy="12.5" r="6"/></g><path id="Rectangle-5" stroke="#DBDEDF" stroke-width="1" d="M25.5 7.5h34v4h-34z"/><path id="Rectangle-5-Copy-2" stroke="#DBDEDF" stroke-width="1" d="M173.5 7.5h16v3h-16z"/><path id="Rectangle-5-Copy-3" fill="#FD5257" fill-rule="evenodd" d="M194 7h9v4h-9z"/><path id="Rectangle-5-Copy" stroke="#DBDEDF" stroke-width="1" d="M25.5 14.5h58v3h-58z"/></g><g id="UI/row" transform="translate(0 24)"><g id="Rectangle-2"><use fill="#FBFBFB" fill-rule="evenodd" xlink:href="#path-3"/><path stroke="#DBDEDF" stroke-width="1" d="M.5.5h214v23H.5z"/></g><g id="Oval-3"><use fill="#F1F1F2" fill-rule="evenodd" xlink:href="#path-4"/><circle stroke="#DBDEDF" stroke-width="1" cx="16.5" cy="12" r="6"/></g><path id="Rectangle-5" stroke="#DBDEDF" stroke-width="1" d="M25.5 7.5h34v4h-34z"/><path id="Rectangle-5-Copy-2" stroke="#DBDEDF" stroke-width="1" d="M173.5 7.5h16v3h-16z"/><path id="Rectangle-5-Copy-3" fill="#FD5257" fill-rule="evenodd" d="M194 7h9v4h-9z"/><path id="Rectangle-5-Copy" stroke="#DBDEDF" stroke-width="1" d="M25.5 13.5h58v3h-58z"/></g><g id="UI/row" transform="translate(0 47)"><g id="Rectangle-2"><use fill="#FBFBFB" fill-rule="evenodd" xlink:href="#path-5"/><path stroke="#DBDEDF" stroke-width="1" d="M.5.5h214v24H.5z"/></g><g id="Oval-3"><use fill="#F1F1F2" fill-rule="evenodd" xlink:href="#path-6"/><circle stroke="#DBDEDF" stroke-width="1" cx="16.5" cy="12.5" r="6"/></g><path id="Rectangle-5" stroke="#DBDEDF" stroke-width="1" d="M25.5 7.5h34v4h-34z"/><path id="Rectangle-5-Copy-2" stroke="#DBDEDF" stroke-width="1" d="M173.5 7.5h16v3h-16z"/><path id="Rectangle-5-Copy-3" fill="#FD5257" fill-rule="evenodd" d="M194 7h9v4h-9z"/><path id="Rectangle-5-Copy" stroke="#DBDEDF" stroke-width="1" d="M25.5 14.5h58v3h-58z"/></g><g id="UI/row" transform="translate(0 71)"><g id="Rectangle-2"><use fill="#FBFBFB" fill-rule="evenodd" xlink:href="#path-7"/><path stroke="#DBDEDF" stroke-width="1" d="M.5.5h214v24H.5z"/></g><g id="Oval-3"><use fill="#F1F1F2" fill-rule="evenodd" xlink:href="#path-8"/><circle stroke="#DBDEDF" stroke-width="1" cx="16.5" cy="12.5" r="6"/></g><path id="Rectangle-5" stroke="#DBDEDF" stroke-width="1" d="M25.5 7.5h34v4h-34z"/><path id="Rectangle-5-Copy-2" stroke="#DBDEDF" stroke-width="1" d="M173.5 7.5h16v3h-16z"/><path id="Rectangle-5-Copy-3" fill="#FD5257" fill-rule="evenodd" d="M194 7h9v4h-9z"/><path id="Rectangle-5-Copy" stroke="#DBDEDF" stroke-width="1" d="M25.5 14.5h58v3h-58z"/></g><g id="UI/row" transform="translate(0 95)"><g id="Rectangle-2"><use fill="#FBFBFB" fill-rule="evenodd" xlink:href="#path-9"/><path stroke="#DBDEDF" stroke-width="1" d="M.5.5h214v24H.5z"/></g><g id="Oval-3"><use fill="#F1F1F2" fill-rule="evenodd" xlink:href="#path-10"/><circle stroke="#DBDEDF" stroke-width="1" cx="16.5" cy="12.5" r="6"/></g><path id="Rectangle-5" stroke="#DBDEDF" stroke-width="1" d="M25.5 7.5h34v4h-34z"/><path id="Rectangle-5-Copy-2" stroke="#DBDEDF" stroke-width="1" d="M173.5 7.5h16v3h-16z"/><path id="Rectangle-5-Copy-3" fill="#FD5257" fill-rule="evenodd" d="M194 7h9v4h-9z"/><path id="Rectangle-5-Copy" stroke="#DBDEDF" stroke-width="1" d="M25.5 14.5h58v3h-58z"/></g><g id="UI/row" transform="translate(0 119)"><g id="Rectangle-2"><use fill="#FBFBFB" fill-rule="evenodd" xlink:href="#path-11"/><path stroke="#DBDEDF" stroke-width="1" d="M.5.5h214v24H.5z"/></g><g id="Oval-3"><use fill="#F1F1F2" fill-rule="evenodd" xlink:href="#path-12"/><circle stroke="#DBDEDF" stroke-width="1" cx="16.5" cy="12.5" r="6"/></g><path id="Rectangle-5" stroke="#DBDEDF" stroke-width="1" d="M25.5 7.5h34v4h-34z"/><path id="Rectangle-5-Copy-2" stroke="#DBDEDF" stroke-width="1" d="M173.5 7.5h16v3h-16z"/><path id="Rectangle-5-Copy-3" fill="#FD5257" fill-rule="evenodd" d="M194 7h9v4h-9z"/><path id="Rectangle-5-Copy" stroke="#DBDEDF" stroke-width="1" d="M25.5 14.5h58v3h-58z"/></g><g id="UI/row" transform="translate(0 143)"><g id="Rectangle-2"><use fill="#FBFBFB" fill-rule="evenodd" xlink:href="#path-13"/><path stroke="#DBDEDF" stroke-width="1" d="M.5.5h214v24H.5z"/></g><g id="Oval-3"><use fill="#F1F1F2" fill-rule="evenodd" xlink:href="#path-14"/><circle stroke="#DBDEDF" stroke-width="1" cx="16.5" cy="12.5" r="6"/></g><path id="Rectangle-5" stroke="#DBDEDF" stroke-width="1" d="M25.5 7.5h34v4h-34z"/><path id="Rectangle-5-Copy-2" stroke="#DBDEDF" stroke-width="1" d="M173.5 7.5h16v3h-16z"/><path id="Rectangle-5-Copy-3" fill="#FD5257" fill-rule="evenodd" d="M194 7h9v4h-9z"/><path id="Rectangle-5-Copy" stroke="#DBDEDF" stroke-width="1" d="M25.5 14.5h58v3h-58z"/></g><g id="UI/row" transform="translate(0 167)"><g id="Rectangle-2"><use fill="#FBFBFB" fill-rule="evenodd" xlink:href="#path-15"/><path stroke="#DBDEDF" stroke-width="1" d="M.5.5h214v24H.5z"/></g><g id="Oval-3"><use fill="#F1F1F2" fill-rule="evenodd" xlink:href="#path-16"/><circle stroke="#DBDEDF" stroke-width="1" cx="16.5" cy="12.5" r="6"/></g><path id="Rectangle-5" stroke="#DBDEDF" stroke-width="1" d="M25.5 7.5h34v4h-34z"/><path id="Rectangle-5-Copy-2" stroke="#DBDEDF" stroke-width="1" d="M173.5 7.5h16v3h-16z"/><path id="Rectangle-5-Copy-3" fill="#FD5257" fill-rule="evenodd" d="M194 7h9v4h-9z"/><path id="Rectangle-5-Copy" stroke="#DBDEDF" stroke-width="1" d="M25.5 14.5h58v3h-58z"/></g><g id="UI/row" transform="translate(0 191)"><g id="Rectangle-2"><use fill="#FBFBFB" fill-rule="evenodd" xlink:href="#path-17"/><path stroke="#DBDEDF" stroke-width="1" d="M.5.5h214v24H.5z"/></g><g id="Oval-3"><use fill="#F1F1F2" fill-rule="evenodd" xlink:href="#path-18"/><circle stroke="#DBDEDF" stroke-width="1" cx="16.5" cy="12.5" r="6"/></g><path id="Rectangle-5" stroke="#DBDEDF" stroke-width="1" d="M25.5 7.5h34v4h-34z"/><path id="Rectangle-5-Copy-2" stroke="#DBDEDF" stroke-width="1" d="M173.5 7.5h16v3h-16z"/><path id="Rectangle-5-Copy-3" fill="#FD5257" fill-rule="evenodd" d="M194 7h9v4h-9z"/><path id="Rectangle-5-Copy" stroke="#DBDEDF" stroke-width="1" d="M25.5 14.5h58v3h-58z"/></g><g id="UI/row" transform="translate(0 215)"><g id="Rectangle-2"><use fill="#FBFBFB" fill-rule="evenodd" xlink:href="#path-19"/><path stroke="#DBDEDF" stroke-width="1" d="M.5.5h214v24H.5z"/></g><g id="Oval-3"><use fill="#F1F1F2" fill-rule="evenodd" xlink:href="#path-20"/><circle stroke="#DBDEDF" stroke-width="1" cx="16.5" cy="12.5" r="6"/></g><path id="Rectangle-5" stroke="#DBDEDF" stroke-width="1" d="M25.5 7.5h34v4h-34z"/><path id="Rectangle-5-Copy-2" stroke="#DBDEDF" stroke-width="1" d="M173.5 7.5h16v3h-16z"/><path id="Rectangle-5-Copy-3" fill="#FD5257" fill-rule="evenodd" d="M194 7h9v4h-9z"/><path id="Rectangle-5-Copy" stroke="#DBDEDF" stroke-width="1" d="M25.5 14.5h58v3h-58z"/></g><g id="UI/row" transform="translate(0 239)"><g id="Rectangle-2"><use fill="#FBFBFB" fill-rule="evenodd" xlink:href="#path-21"/><path stroke="#DBDEDF" stroke-width="1" d="M.5.5h214v24H.5z"/></g><g id="Oval-3"><use fill="#F1F1F2" fill-rule="evenodd" xlink:href="#path-22"/><circle stroke="#DBDEDF" stroke-width="1" cx="16.5" cy="12.5" r="6"/></g><path id="Rectangle-5" stroke="#DBDEDF" stroke-width="1" d="M25.5 7.5h34v4h-34z"/><path id="Rectangle-5-Copy-2" stroke="#DBDEDF" stroke-width="1" d="M173.5 7.5h16v3h-16z"/><path id="Rectangle-5-Copy-3" fill="#FD5257" fill-rule="evenodd" d="M194 7h9v4h-9z"/><path id="Rectangle-5-Copy" stroke="#DBDEDF" stroke-width="1" d="M25.5 14.5h58v3h-58z"/></g></g><g id="Filters" transform="translate(7 29)"><path id="Rectangle-5" stroke="#DBDEDF" d="M5.5 31.5h5v4h-5z"/><path id="Rectangle-5-Copy-2" stroke="#DBDEDF" d="M23.5 31.5h7v4h-7z"/><path id="Rectangle-5-Copy-5" stroke="#DBDEDF" d="M39.5 31.5h7v4h-7z"/><path id="Rectangle-5-Copy" stroke="#DBDEDF" d="M5.5 38.5h11v3h-11z"/><path id="Rectangle-5-Copy-4" stroke="#DBDEDF" d="M23.5 38.5h10v3h-10z"/><path id="Rectangle-5-Copy-6" stroke="#DBDEDF" d="M39.5 38.5h11v3h-11z"/><g id="Oval-3"><use fill="#F1F1F2" fill-rule="evenodd" xlink:href="#path-23"/><circle stroke="#DBDEDF" stroke-width="1" cx="9.5" cy="8.5" r="8"/></g><path id="Rectangle-5" stroke="#DBDEDF" d="M21.5 2.5h31v6h-31z"/><rect id="Rectangle-5" stroke="#DBDEDF" x=".5" y="25.5" width="55" height="23" rx="3"/><rect id="Rectangle-5-Copy-3" fill="#FD5257" x="0" y="60" width="56" height="10" rx="5"/><path id="Rectangle-5" stroke="#DBDEDF" d="M21.5 11.5h26v3h-26z"/></g></g><g id="iPhone" transform="translate(242 59)"><g id="Devices/iPhone"><g id="body"><use fill="#FBFBFB" fill-rule="evenodd" xlink:href="#path-24"/><rect stroke="#DBDEDF" stroke-width="1" x=".5" y=".5" width="127" height="244" rx="20"/></g><g id="Screen"><use fill="#FBFBFB" fill-rule="evenodd" xlink:href="#path-25"/><path stroke="#DBDEDF" stroke-width="1" d="M8.5 30.5h111v183H8.5z"/></g><circle id="Front-camera" fill="#DBDEDF" fill-rule="evenodd" cx="64" cy="12" r="3"/><rect id="Speaker" fill="#DBDEDF" fill-rule="evenodd" x="51" y="18" width="26" height="4" rx="2"/><circle id="Home" stroke="#DBDEDF" stroke-width="2" cx="64" cy="229" r="8"/></g><g id="data-rows" transform="translate(8 45)"><g id="UI/row-small"><g id="Rectangle-2"><use fill="#FBFBFB" fill-rule="evenodd" xlink:href="#path-26"/><path stroke="#DBDEDF" stroke-width="1" d="M.5.5h111v24H.5z"/></g><g id="Oval-3"><use fill="#F1F1F2" fill-rule="evenodd" xlink:href="#path-27"/><circle stroke="#DBDEDF" stroke-width="1" cx="16.5" cy="12.5" r="6"/></g><path id="Rectangle-5" stroke="#DBDEDF" stroke-width="1" d="M25.5 7.5h26v4h-26z"/><path id="Rectangle-5-Copy-3" fill="#FD5257" fill-rule="evenodd" d="M91 7h9v4h-9z"/><path id="Rectangle-5-Copy" stroke="#DBDEDF" stroke-width="1" d="M25.5 14.5h42v3h-42z"/></g><g id="UI/row-small" transform="translate(0 24)"><g id="Rectangle-2"><use fill="#FBFBFB" fill-rule="evenodd" xlink:href="#path-28"/><path stroke="#DBDEDF" stroke-width="1" d="M.5.5h111v24H.5z"/></g><g id="Oval-3"><use fill="#F1F1F2" fill-rule="evenodd" xlink:href="#path-29"/><circle stroke="#DBDEDF" stroke-width="1" cx="16.5" cy="12.5" r="6"/></g><path id="Rectangle-5" stroke="#DBDEDF" stroke-width="1" d="M25.5 7.5h26v4h-26z"/><path id="Rectangle-5-Copy-3" fill="#FD5257" fill-rule="evenodd" d="M91 7h9v4h-9z"/><path id="Rectangle-5-Copy" stroke="#DBDEDF" stroke-width="1" d="M25.5 14.5h42v3h-42z"/></g><g id="UI/row-small" transform="translate(0 48)"><g id="Rectangle-2"><use fill="#FBFBFB" fill-rule="evenodd" xlink:href="#path-30"/><path stroke="#DBDEDF" stroke-width="1" d="M.5.5h111v24H.5z"/></g><g id="Oval-3"><use fill="#F1F1F2" fill-rule="evenodd" xlink:href="#path-31"/><circle stroke="#DBDEDF" stroke-width="1" cx="16.5" cy="12.5" r="6"/></g><path id="Rectangle-5" stroke="#DBDEDF" stroke-width="1" d="M25.5 7.5h26v4h-26z"/><path id="Rectangle-5-Copy-3" fill="#FD5257" fill-rule="evenodd" d="M91 7h9v4h-9z"/><path id="Rectangle-5-Copy" stroke="#DBDEDF" stroke-width="1" d="M25.5 14.5h42v3h-42z"/></g><g id="UI/row-small" transform="translate(0 72)"><g id="Rectangle-2"><use fill="#FBFBFB" fill-rule="evenodd" xlink:href="#path-32"/><path stroke="#DBDEDF" stroke-width="1" d="M.5.5h111v24H.5z"/></g><g id="Oval-3"><use fill="#F1F1F2" fill-rule="evenodd" xlink:href="#path-33"/><circle stroke="#DBDEDF" stroke-width="1" cx="16.5" cy="12.5" r="6"/></g><path id="Rectangle-5" stroke="#DBDEDF" stroke-width="1" d="M25.5 7.5h26v4h-26z"/><path id="Rectangle-5-Copy-3" fill="#FD5257" fill-rule="evenodd" d="M91 7h9v4h-9z"/><path id="Rectangle-5-Copy" stroke="#DBDEDF" stroke-width="1" d="M25.5 14.5h42v3h-42z"/></g><g id="UI/row-small" transform="translate(0 96)"><g id="Rectangle-2"><use fill="#FBFBFB" fill-rule="evenodd" xlink:href="#path-34"/><path stroke="#DBDEDF" stroke-width="1" d="M.5.5h111v24H.5z"/></g><g id="Oval-3"><use fill="#F1F1F2" fill-rule="evenodd" xlink:href="#path-35"/><circle stroke="#DBDEDF" stroke-width="1" cx="16.5" cy="12.5" r="6"/></g><path id="Rectangle-5" stroke="#DBDEDF" stroke-width="1" d="M25.5 7.5h26v4h-26z"/><path id="Rectangle-5-Copy-3" fill="#FD5257" fill-rule="evenodd" d="M91 7h9v4h-9z"/><path id="Rectangle-5-Copy" stroke="#DBDEDF" stroke-width="1" d="M25.5 14.5h42v3h-42z"/></g><g id="UI/row-small" transform="translate(0 120)"><g id="Rectangle-2"><use fill="#FBFBFB" fill-rule="evenodd" xlink:href="#path-36"/><path stroke="#DBDEDF" stroke-width="1" d="M.5.5h111v24H.5z"/></g><g id="Oval-3"><use fill="#F1F1F2" fill-rule="evenodd" xlink:href="#path-37"/><circle stroke="#DBDEDF" stroke-width="1" cx="16.5" cy="12.5" r="6"/></g><path id="Rectangle-5" stroke="#DBDEDF" stroke-width="1" d="M25.5 7.5h26v4h-26z"/><path id="Rectangle-5-Copy-3" fill="#FD5257" fill-rule="evenodd" d="M91 7h9v4h-9z"/><path id="Rectangle-5-Copy" stroke="#DBDEDF" stroke-width="1" d="M25.5 14.5h42v3h-42z"/></g><g id="UI/row-small" transform="translate(0 144)"><g id="Rectangle-2"><use fill="#FBFBFB" fill-rule="evenodd" xlink:href="#path-38"/><path stroke="#DBDEDF" stroke-width="1" d="M.5.5h111v24H.5z"/></g><g id="Oval-3"><use fill="#F1F1F2" fill-rule="evenodd" xlink:href="#path-39"/><circle stroke="#DBDEDF" stroke-width="1" cx="16.5" cy="12.5" r="6"/></g><path id="Rectangle-5" stroke="#DBDEDF" stroke-width="1" d="M25.5 7.5h26v4h-26z"/><path id="Rectangle-5-Copy-3" fill="#FD5257" fill-rule="evenodd" d="M91 7h9v4h-9z"/><path id="Rectangle-5-Copy" stroke="#DBDEDF" stroke-width="1" d="M25.5 14.5h42v3h-42z"/></g></g><path id="Rectangle-6" fill="#DBDEDF" d="M8 30h112v16H8z"/></g></g></g></svg>