
<svg width="460px" height="285px" viewBox="0 0 460 285" version="1.1" xmlns="http://www.w3.org/2000/svg" xmlns:xlink="http://www.w3.org/1999/xlink" preserveAspectRatio="xMidYMid slice">
    <!-- Generator: Sketch 47 (45396) - http://www.bohemiancoding.com/sketch -->
    <desc>Created with Sketch.</desc>
    <defs>
        <circle id="path-1" cx="15" cy="15" r="5"></circle>
        <circle id="path-2" cx="30" cy="15" r="5"></circle>
        <circle id="path-3" cx="45" cy="15" r="5"></circle>
        <linearGradient x1="30.5257161%" y1="0%" x2="73.577474%" y2="94.7200521%" id="linearGradient-4">
            <stop stop-color="#0089D2" offset="0%"></stop>
            <stop stop-color="#0070D2" offset="100%"></stop>
        </linearGradient>
    </defs>
    <g id="Ill" stroke="none" stroke-width="1" fill="none" fill-rule="evenodd">
        <g id="Data" transform="translate(-25.000000, -28.000000)">
            <g id="Browser" transform="translate(25.000000, 28.000000)">
                <g>
                    <g id="header">
                        <path d="M0,5.00701574 C0,2.2417173 2.23164023,0 5.00923958,0 L454.99076,0 C457.757287,0 460,2.23193808 460,5.00701574 L460,285 L0,285 L0,5.00701574 Z" id="bar" fill="#E4E8EC"></path>
                        <g id="button-close">
                            <use fill="#FF5F57" fill-rule="evenodd" xlink:href="#path-1"></use>
                            <circle stroke="#E0443E" stroke-width="0.5" cx="15" cy="15" r="4.75"></circle>
                        </g>
                        <g id="button-minimise">
                            <use fill="#FFBD2E" fill-rule="evenodd" xlink:href="#path-2"></use>
                            <circle stroke="#DF9F22" stroke-width="0.5" cx="30" cy="15" r="4.75"></circle>
                        </g>
                        <g id="button-full">
                            <use fill="#29C941" fill-rule="evenodd" xlink:href="#path-3"></use>
                            <circle stroke="#1AAB2B" stroke-width="0.5" cx="45" cy="15" r="4.75"></circle>
                        </g>
                    </g>
                    <rect id="Rectangle" fill="#FFFFFF" x="0" y="30" width="460" height="255"></rect>
                </g>
                <rect id="Rectangle-2" fill="url(#linearGradient-4)" x="120" y="30" width="340" height="118"></rect>
                <g id="illustration/prototype" transform="translate(140.000000, 44.000000)">
                    <g id="table" transform="translate(0.000000, 132.000000)">
                        <rect id="Rectangle-Copy-6" fill="#DBDEDF" x="110" y="0" width="140" height="10" rx="5"></rect>
                        <rect id="Rectangle-Copy-12" fill="#DBDEDF" x="110" y="22" width="140" height="10" rx="5"></rect>
                        <rect id="Rectangle-Copy-15" fill="#DBDEDF" x="110" y="44" width="140" height="10" rx="5"></rect>
                        <rect id="Rectangle-Copy-18" fill="#DBDEDF" x="110" y="66" width="140" height="10" rx="5"></rect>
                        <rect id="Rectangle-Copy-6" fill="#FD5257" x="110" y="0" width="15" height="10" rx="5"></rect>
                        <rect id="Rectangle-Copy-13" fill="#59BB67" x="110" y="22" width="90" height="10" rx="5"></rect>
                        <rect id="Rectangle-Copy-16" fill="#EF8C00" x="110" y="44" width="49" height="10" rx="5"></rect>
                        <rect id="Rectangle-Copy-19" fill="#59BB67" x="110" y="66" width="125" height="10" rx="5"></rect>
                        <rect id="Rectangle-Copy-11" fill="#A9B0B4" x="0" y="2" width="60" height="6" rx="2"></rect>
                        <rect id="Rectangle-Copy-25" fill="#A9B0B4" x="268" y="2" width="37" height="6" rx="2"></rect>
                        <rect id="Rectangle-Copy-14" fill="#A9B0B4" x="0" y="24" width="95" height="6" rx="2"></rect>
                        <rect id="Rectangle-Copy-26" fill="#A9B0B4" x="283" y="24" width="22" height="6" rx="2"></rect>
                        <rect id="Rectangle-Copy-17" fill="#A9B0B4" x="0" y="46" width="80" height="6" rx="2"></rect>
                        <rect id="Rectangle-Copy-27" fill="#A9B0B4" x="275" y="46" width="30" height="6" rx="2"></rect>
                        <rect id="Rectangle-Copy-20" fill="#A9B0B4" x="0" y="68" width="55" height="6" rx="2"></rect>
                        <rect id="Rectangle-Copy-28" fill="#A9B0B4" x="268" y="68" width="37" height="6" rx="2"></rect>
                    </g>
                    <g id="graph" transform="translate(110.000000, 0.000000)" fill="#FFFFFF">
                        <rect id="Rectangle-Copy-10" fill-opacity="0.5" opacity="0.399999976" x="32" y="0" width="10" height="80" rx="2"></rect>
                        <rect id="Rectangle-Copy-8" fill-opacity="0.5" opacity="0.399999976" x="0" y="0" width="10" height="80" rx="2"></rect>
                        <rect id="Rectangle-Copy-9" fill-opacity="0.5" opacity="0.399999976" x="16" y="0" width="10" height="80" rx="2"></rect>
                        <rect id="Rectangle-Copy-5" fill-opacity="0.5" opacity="0.399999976" x="48" y="0" width="10" height="80" rx="2"></rect>
                        <rect id="Rectangle-Copy-10" fill-opacity="0.5" opacity="0.399999976" x="128" y="0" width="10" height="80" rx="2"></rect>
                        <rect id="Rectangle-Copy-6" fill-opacity="0.5" opacity="0.399999976" x="64" y="0" width="10" height="80" rx="2"></rect>
                        <rect id="Rectangle-Copy-7" fill-opacity="0.5" opacity="0.399999976" x="80" y="0" width="10" height="80" rx="2"></rect>
                        <rect id="Rectangle-Copy-8" fill-opacity="0.5" opacity="0.399999976" x="96" y="0" width="10" height="80" rx="2"></rect>
                        <rect id="Rectangle-Copy-23" fill-opacity="0.5" opacity="0.399999976" x="160" y="0" width="10" height="80" rx="2"></rect>
                        <rect id="Rectangle-Copy-9" fill-opacity="0.5" opacity="0.399999976" x="112" y="0" width="10" height="80" rx="2"></rect>
                        <rect id="Rectangle-Copy-21" fill-opacity="0.5" opacity="0.399999976" x="144" y="0" width="10" height="80" rx="2"></rect>
                        <rect id="Rectangle-Copy-30" fill-opacity="0.5" opacity="0.399999976" x="176" y="0" width="10" height="80" rx="2"></rect>
                        <rect id="Rectangle-Copy-10" x="32" y="32" width="10" height="48" rx="2"></rect>
                        <rect id="Rectangle-Copy-8" x="0" y="53" width="10" height="27" rx="2"></rect>
                        <rect id="Rectangle-Copy-9" x="16" y="40" width="10" height="40" rx="2"></rect>
                        <rect id="Rectangle-Copy-5" x="48" y="40" width="10" height="40" rx="2"></rect>
                        <rect id="Rectangle-Copy-10" x="128" y="35" width="10" height="45" rx="2"></rect>
                        <rect id="Rectangle-Copy-6" x="64" y="60" width="10" height="20" rx="2"></rect>
                        <rect id="Rectangle-Copy-7" x="80" y="22" width="10" height="58" rx="2"></rect>
                        <rect id="Rectangle-Copy-8" x="96" y="35" width="10" height="45" rx="2"></rect>
                        <rect id="Rectangle-Copy-24" x="160" y="35" width="10" height="45" rx="2"></rect>
                        <rect id="Rectangle-Copy-9" x="112" y="45" width="10" height="36" rx="2"></rect>
                        <rect id="Rectangle-Copy-22" x="144" y="60" width="10" height="20" rx="2"></rect>
                        <rect id="Rectangle-Copy-31" x="176" y="22" width="10" height="58" rx="2"></rect>
                    </g>
                </g>
                <g id="side-navigation" transform="translate(0.000000, 30.000000)">
                    <rect id="Rectangle-5" fill="#42526A" x="0" y="0" width="120" height="255"></rect>
                    <rect id="Rectangle-6" fill-opacity="0.2" fill="#000000" x="0" y="57" width="120" height="17"></rect>
                    <rect id="Rectangle-15" fill-opacity="0.5" fill="#FFFFFF" x="10" y="25" width="40" height="4" rx="2"></rect>
                    <rect id="Rectangle-15-Copy" fill-opacity="0.5" fill="#FFFFFF" x="10" y="44" width="35" height="4" rx="2"></rect>
                    <rect id="Rectangle-15-Copy" fill="#FFFFFF" x="10" y="63" width="45" height="4" rx="2"></rect>
                    <rect id="Rectangle-15-Copy-2" fill-opacity="0.5" fill="#FFFFFF" x="10" y="82" width="65" height="4" rx="2"></rect>
                    <rect id="Rectangle-15-Copy-3" fill-opacity="0.5" fill="#FFFFFF" x="10" y="101" width="70" height="4" rx="2"></rect>
                </g>
            </g>
            <rect id="Rectangle-8-Copy" fill="#FFFFFF" x="182" y="72" width="78" height="12" rx="2"></rect>
            <rect id="Rectangle-Copy-11" fill="#FFFFFF" x="165" y="94" width="95" height="4" rx="2"></rect>
            <rect id="Rectangle-Copy-11" fill="#FFFFFF" x="165" y="104" width="95" height="4" rx="2"></rect>
            <rect id="Rectangle-Copy-29" fill="#FFFFFF" x="165" y="114" width="95" height="4" rx="2"></rect>
            <rect id="Rectangle-Copy-32" fill="#FFFFFF" x="165" y="124" width="30" height="4" rx="2"></rect>
            <g id="tabs" transform="translate(165.000000, 73.000000)">
                <path d="M2,85 L45,85 L45,85 C46.1045695,85 47,85.8954305 47,87 L47,103 L0,103 L0,87 L0,87 C-1.3527075e-16,85.8954305 0.8954305,85 2,85 Z" id="Rectangle-3" fill="#FFFFFF"></path>
                <rect id="Rectangle-4" fill="#0089D2" x="6" y="91" width="35" height="6" rx="2"></rect>
                <rect id="Rectangle-4-Copy" fill="#339BDB" x="60" y="91" width="35" height="6" rx="2"></rect>
                <path d="M11.7,2.64935155 C11.6,7.24935155 8.7,10.4493516 4.3,10.6493516 C2.5,10.7493516 1.2,10.1493516 0,9.44935155 C1.3,9.64935155 3,9.14935155 3.9,8.34935155 C2.6,8.24935155 1.8,7.54935155 1.4,6.44935155 C1.8,6.54935155 2.2,6.44935155 2.5,6.44935155 C1.3,6.04935155 0.5,5.34935155 0.4,3.74935155 C0.7,3.94935155 1.1,4.04935155 1.5,4.04935155 C0.6,3.54935155 -8.8817842e-16,1.64935155 0.7,0.449351551 C2,1.84935155 3.6,3.04935155 6.2,3.24935155 C5.5,0.449351551 9.3,-1.05064845 10.8,0.849351551 C11.5,0.749351551 12,0.449351551 12.5,0.249351551 C12.3,0.949351551 11.9,1.34935155 11.4,1.74935155 C11.9,1.64935155 12.4,1.54935155 12.8,1.34935155 C12.7,1.84935155 12.2,2.24935155 11.7,2.64935155 L11.7,2.64935155 Z" id="twitter" fill="#FFFFFF"></path>
            </g>
        </g>
    </g>
</svg>