<svg width="60px" height="60px" viewBox="0 0 60 60" version="1.1" xmlns="http://www.w3.org/2000/svg" xmlns:xlink="http://www.w3.org/1999/xlink">
    <defs>
        <path d="M43.0105843,51.3544701 C33.3858351,57.2292246 20.6482854,56.0036244 12.3223305,47.6776695 C2.55922318,37.9145622 2.55922318,22.0854378 12.3223305,12.3223305 C22.0854378,2.55922318 37.9145622,2.55922318 47.6776695,12.3223305 C55.7429963,20.3876572 57.1455369,32.5927085 51.8852915,42.0978112 L58.4931787,49.8070129 C59.1733029,50.6004912 59.1278569,51.7838313 58.388879,52.5228092 L53.229916,57.6817722 C52.4909381,58.4207502 51.307598,58.4661961 50.5141197,57.7860719 L43.0105843,51.3544701 Z" id="path-1"></path>
    </defs>
    <g id="Symbols" stroke="none" stroke-width="1" fill="none" fill-rule="evenodd">
        <g id="illustration/design/tea">
            <g id="mug">
                <use fill="#393F41" fill-rule="evenodd" xlink:href="#path-1"></use>
                <path stroke="#2E3436" stroke-width="1" d="M42.7500865,50.9276904 L43.0601621,50.7384264 L50.8395154,57.4064436 C51.4346241,57.9165368 52.3221292,57.8824523 52.8763626,57.3282188 L58.0353256,52.1692558 C58.5895591,51.6150224 58.6236435,50.7275173 58.1135504,50.1324086 L51.2796673,42.159545 L51.4478155,41.8557064 C56.6928399,32.3781077 55.0988881,20.4506558 47.3241161,12.6758839 C37.756271,3.10803871 22.243729,3.10803871 12.6758839,12.6758839 C3.10803871,22.243729 3.10803871,37.756271 12.6758839,47.3241161 C20.7179858,55.366218 33.1744797,56.7724494 42.7500865,50.9276904 Z"></path>
            </g>
            <circle id="mug-inner" fill="#FFFFFF" cx="30" cy="30" r="23"></circle>
            <circle id="tea" fill="#B27738" cx="30" cy="30" r="20"></circle>
            <path d="M19.1779733,46.8220267 C13.6562012,43.2623895 10,37.0581705 10,30 C10,18.954305 18.954305,10 30,10 C37.0581705,10 43.2623895,13.6562012 46.8220267,19.1779733 C43.702493,17.1669507 39.9875245,16 36,16 C24.954305,16 16,24.954305 16,36 C16,39.9875245 17.1669507,43.702493 19.1779733,46.8220267 L19.1779733,46.8220267 Z" id="shadow" fill-opacity="0.4" fill="#000000"></path>
        </g>
    </g>
</svg>
