<svg width="60px" height="60px" viewBox="0 0 60 60" version="1.1" xmlns="http://www.w3.org/2000/svg" xmlns:xlink="http://www.w3.org/1999/xlink">
    <g id="Symbols" stroke="none" stroke-width="1" fill="none" fill-rule="evenodd">
        <path d="M16.9894157,8.64552992 C26.6141649,2.7707754 39.3517146,3.99637558 47.6776695,12.3223305 C57.4407768,22.0854378 57.4407768,37.9145622 47.6776695,47.6776695 C37.9145622,57.4407768 22.0854378,57.4407768 12.3223305,47.6776695 C4.25700373,39.6123428 2.85446308,27.4072915 8.1147085,17.9021888 L1.50682134,10.1929871 C0.826697101,9.39950879 0.872143053,8.2161687 1.61112099,7.47719077 L6.77008399,2.31822777 C7.50906192,1.57924983 8.69240201,1.53380388 9.4858803,2.21392813 L16.9894157,8.64552992 L16.9894157,8.64552992 Z" id="mug" stroke="#0097BA" fill="#00A9D0"></path>
        <circle id="mug-inner" fill="#FFFFFF" cx="30" cy="30" r="23"></circle>
        <circle id="coffee" fill="#694620" cx="30" cy="30" r="20"></circle>
        <path d="M19.1779733,46.8220267 C13.6562012,43.2623895 10,37.0581705 10,30 C10,18.954305 18.954305,10 30,10 C37.0581705,10 43.2623895,13.6562012 46.8220267,19.1779733 C43.702493,17.1669507 39.9875245,16 36,16 C24.954305,16 16,24.954305 16,36 C16,39.9875245 17.1669507,43.702493 19.1779733,46.8220267 L19.1779733,46.8220267 Z" id="shadow" fill-opacity="0.4" fill="#000000"></path>
    </g>
</svg>
