<svg width="9px" height="80px" viewBox="0 0 9 80" version="1.1" xmlns="http://www.w3.org/2000/svg" xmlns:xlink="http://www.w3.org/1999/xlink">
    <defs>
        <rect id="path-1" x="0" y="19" width="9" height="37"></rect>
    </defs>
    <g id="Symbols" stroke="none" stroke-width="1" fill="none" fill-rule="evenodd">
        <g id="illustration/design/sharpie/black">
            <g id="pen">
                <rect id="barrel" fill="#DBDEDF" fill-rule="nonzero" x="2.62567745e-14" y="18" width="9" height="37.9634778"></rect>
                <path d="M0,55.9634778 L9,55.9634778 C8.84502164,55.9634778 9,56.1304225 9,55.9634778 L9,76.0504343 C9,77.1287545 8.22510822,77.9634778 7.2,77.9634778 L1.8,77.9634778 C0.774891779,77.9634778 1.17061226e-16,77.1287545 0,76.0504343 L0,55.9634778 C-2.34122452e-17,56.1304225 0.154978356,55.9634778 0,55.9634778 L0,55.9634778 Z" id="cap" fill="#4F575A" fill-rule="nonzero"></path>
                <rect id="cap-thing" fill="#393F41" fill-rule="nonzero" x="3" y="61" width="3" height="19" rx="1"></rect>
                <path d="M2.62567745e-14,19 L2.62567745e-14,17 C2.62567745e-14,15.8148434 1.4019375,5.69879518 2,6 L3,6 L3,3 L6,3 L6,6 L7,6 C7.5980625,5.69879518 9,15.8148434 9,17 L9,19 L2.62567745e-14,19 Z" id="top" fill="#4F575A"></path>
                <path d="M3,1 C3,0.833333333 4.28957143,0 5,0 L6,0 L6,3 L3,3 L3,1 Z" id="nib" fill="#393F41" fill-rule="nonzero"></path>
            </g>
            <mask id="mask-2" fill="white">
                <use xlink:href="#path-1"></use>
            </mask>
            <g id="mask"></g>
            <path d="M4.53627416,34.4375772 C4.27633636,34.6324942 1.93733157,34.1127638 1.93733157,34.1127638 C1.98058197,34.7841609 2.24051977,35.4771832 1.65576858,35.6938706 C0.919495849,35.9538084 -0.769737006,34.8925772 -1.33300814,35.1741402 C-1.20296667,36.4302885 0.573057253,35.9104129 1.67753891,36.8851434 C2.45720717,37.5565405 2.45720717,38.4877303 1.46099665,38.7476681 C1.30947512,39.5057111 -0.899778473,38.0546457 -1.13794594,38.5960014 C-1.33300814,39.0076059 -0.81313254,39.2890237 -0.315027277,39.4840859 C0.00978612013,39.5923571 0.724578784,39.8305245 1.07116252,39.7655038 C1.13618325,39.4190652 1.35272551,39.2025229 1.67753891,39.3324193 C1.80758038,39.3758148 1.89408118,39.7655038 1.89408118,40.0039615 C2.50060271,40.3504001 2.65212424,40.2853794 2.69537464,40.6969839 C2.71699984,40.9351513 2.21889457,40.805255 1.98072711,40.805255 C2.11062344,41.5199025 2.26229011,41.9095915 1.59089298,42.0178627 C0.399620251,42.1261338 -0.574965076,41.0432773 -1.18134147,41.4548818 C-1.15986141,41.5413826 -1.00819474,42.3426761 0.573057253,42.7542805 C1.89408118,43.0790939 3.49681323,43.4040524 2.65212424,43.837137 C2.37056124,43.9888036 2.08899824,43.6854703 1.80743524,43.7503459 C1.80743524,43.7721162 2.8470413,44.8115772 2.02397751,45.3315979 C1.85068564,45.418389 0.724433648,45.6349312 -0.401528074,45.2017016 C-0.726631743,45.0934304 -1.76609267,44.703306 -1.91775933,44.1837207 C-2.11253126,43.5336585 -1.24621707,42.9923028 -0.510089478,43.7287207 C-0.336652476,44.0754496 -0.878008138,43.7721162 -1.0945504,43.8587622 C-2.09090606,44.2700764 1.30932998,45.266432 1.50424705,44.7250764 C1.56926778,44.2700764 1.17943365,44.032054 0.789599517,43.8153666 C-0.726631743,42.9056569 -3.45532552,43.1223443 -3.52049139,42.7756154 C-3.67186779,42.1043635 -3.23878326,42.1043635 -1.39788374,42.3857813 C-1.46275933,42.1258435 -2.459115,41.2595293 -1.57103047,40.7615692 C-0.748111807,40.2634639 1.20120398,41.8010301 1.35272551,41.2596745 C1.39612105,41.1080078 1.30947512,40.9132359 1.24445438,40.7831944 C1.15780845,40.5232566 -0.141735411,40.4367558 -1.20282154,39.787129 C-2.04751053,39.332129 -2.32907353,38.4009392 -1.46275933,38.0327303 C-2.09090606,37.2746872 -2.459115,36.3867478 -1.46275933,36.213456 C-1.5928008,35.6935804 -2.58901133,35.1088292 -1.91775933,34.4592024 C-1.33300814,33.8960764 -0.293256942,34.7407654 1.22268405,34.9573076 C1.35272551,34.7407654 1.22268405,33.9610971 0.962746248,33.8312008 C0.702808449,33.7011593 -1.93938453,33.5928882 -2.17784227,33.1812837 C-2.74082313,32.2066984 -0.575110212,32.8564703 0.659412914,33.0297622 C0.875955179,32.6615532 0.919350713,32.2284687 1.39583078,32.4666362 C1.52572711,32.5315118 1.46070638,33.0513874 1.67724864,33.2029089 C2.24037464,33.5711178 3.97300303,33.5928882 4.53612902,33.960952 C4.70956602,34.0261178 4.68779569,34.329306 4.53627416,34.4375772 Z M-1.22488214,37.0148946 C-1.11661101,37.7295421 -0.20690128,37.7079169 1.41745598,38.3360636 C1.48247671,38.1845421 1.54749744,38.0978961 1.50410191,37.9678547 C1.30918484,37.2532072 -0.596590275,36.5600397 -1.22488214,37.0148946 Z M3.2151051,46.8041434 C3.56168883,46.9341848 3.7566059,47.2375182 3.69158516,47.4756856 C3.60493923,47.7138531 3.28012583,47.800499 2.9335421,47.6488324 C2.6087287,47.518936 2.39218644,47.2157478 2.47868724,46.9775804 C2.54370797,46.7392678 2.8902917,46.652767 3.2151051,46.8041434 L3.2151051,46.8041434 Z M2.32716571,48.4936665 C2.54370797,49.2734799 1.56912264,49.7281896 0.291494254,49.2734799 C-0.921403673,48.7969998 -1.11646587,47.779019 -1.54969554,48.082062 C-1.9613,48.3634799 -2.0910512,49.0566473 -1.7662378,49.4682518 C-1.54969554,49.7496697 -1.20296667,49.7496697 -0.661611009,50.053003 C-0.510234614,50.6593794 -2.09119634,50.2695453 -2.41600973,49.6199185 C-2.76244833,48.9268961 -2.5028008,47.8440397 -1.74446747,47.4973108 C-1.74446747,47.0426011 -2.22094753,46.089641 -1.54969554,45.6780365 C-1.07321547,45.3532231 -0.618505746,45.418389 0.44287065,45.7648276 C1.26593445,46.0462454 2.19726937,46.566121 2.15401897,46.8910796 C2.08899824,47.6057271 0.919495849,46.4363698 -0.444923609,46.2198276 C-1.11646587,46.1115564 -1.15986141,46.5012454 -1.09469554,47.1510174 C-0.769882141,47.0642263 -0.40167321,46.9778706 0.117912117,47.0427462 C0.941121048,47.1508722 2.08885311,47.605582 2.32716571,48.4936665 L2.32716571,48.4936665 Z M-0.488319143,47.8438946 C0.377995052,48.7750843 1.30932998,48.7536043 1.48262185,48.645188 C1.50424705,48.5583969 1.50424705,48.5151465 1.48262185,48.4501258 C1.33095518,48.0604368 -0.0337545497,47.605582 -0.488319143,47.8438946 Z M4.64460559,30.8011455 C4.70948119,31.5591885 4.55795965,32.9886287 3.84331213,33.0318791 C2.78208087,33.0968998 2.13230894,31.6674597 1.93739187,31.2126048 C1.82912074,30.8011455 2.0889134,30.4327914 2.45726747,30.7143544 C3.30195646,31.992273 3.453478,32.6636702 3.75681133,32.2954612 C4.44983366,31.4075219 3.4102276,27.9638903 2.73883047,27.8339939 C2.34899634,27.7689732 2.06743334,28.3320992 1.63434881,29.4799764 C1.04959761,31.0394581 0.291554551,32.642045 -1.11626044,31.9490226 C-2.41565917,31.3210211 -2.7838681,29.3934756 -2.9789303,28.1155569 C-3.15207703,27.1409716 -2.93553476,25.1267802 -2.56732583,24.931718 C-2.41565917,24.8018217 -2.06922057,24.8234469 -2.02597017,25.0401343 C-1.96109457,25.4732188 -2.61072137,26.4261789 -2.15601164,28.7003081 C-2.02597017,29.3284549 -1.3976783,30.9528121 -0.704946246,31.1693544 C0.486326481,31.4941678 0.811139878,27.4007643 2.15393414,27.0759509 C3.88656253,26.6644915 4.55795965,29.718289 4.64460559,30.8011455 Z" id="logo" fill="#0C0E0F" fill-rule="nonzero" mask="url(#mask-2)"></path>
        </g>
    </g>
</svg>
