<svg width="9px" height="80px" viewBox="0 0 9 80" version="1.1" xmlns="http://www.w3.org/2000/svg" xmlns:xlink="http://www.w3.org/1999/xlink">
    <g id="Symbols" stroke="none" stroke-width="1" fill="none" fill-rule="evenodd">
        <g id="illustration/design/sharpie/red">
            <g id="pen">
                <rect id="barrel" fill="#DBDEDF" fill-rule="nonzero" x="2.62567745e-14" y="18" width="9" height="37.9634778"></rect>
                <path d="M0,55.9634778 L9,55.9634778 C8.84502164,55.9634778 9,56.1304225 9,55.9634778 L9,76.0504343 C9,77.1287545 8.22510822,77.9634778 7.2,77.9634778 L1.8,77.9634778 C0.774891779,77.9634778 1.17061226e-16,77.1287545 0,76.0504343 L0,55.9634778 C-2.34122452e-17,56.1304225 0.154978356,55.9634778 0,55.9634778 L0,55.9634778 Z" id="cap" fill="#CF3922" fill-rule="nonzero"></path>
                <rect id="cap-thing" fill="#80281B" fill-rule="nonzero" x="3" y="61" width="3" height="19" rx="1"></rect>
                <path d="M2.62567745e-14,19 L2.62567745e-14,17 C2.62567745e-14,15.8148434 1.4019375,5.69879518 2,6 L3,6 L3,3 L6,3 L6,6 L7,6 C7.5980625,5.69879518 9,15.8148434 9,17 L9,19 L2.62567745e-14,19 Z" id="top" fill="#CF3922"></path>
                <path d="M3,1 C3,0.833333333 4.28957143,0 5,0 L6,0 L6,3 L3,3 L3,1 Z" id="nib" fill="#80281B" fill-rule="nonzero"></path>
            </g>
            <path d="M8.0845902,34.5862308 C7.8246524,34.7811479 5.48564762,34.2614174 5.48564762,34.2614174 C5.52889802,34.9328146 5.78883582,35.6258369 5.20408462,35.8425243 C4.46781189,36.1024621 2.77857904,35.0412308 2.21530791,35.3227938 C2.34534937,36.5789421 4.1213733,36.0590665 5.22585496,37.033797 C6.00552322,37.7051941 6.00552322,38.6363839 5.00931269,38.8963217 C4.85779116,39.6543648 2.64853757,38.2032994 2.41037011,38.7446551 C2.21530791,39.1562595 2.7351835,39.4376774 3.23328877,39.6327396 C3.55810217,39.7410107 4.27289483,39.9791782 4.61947856,39.9141575 C4.68449929,39.5677189 4.90104156,39.3511766 5.22585496,39.4810729 C5.35589642,39.5244685 5.44239722,39.9141575 5.44239722,40.1526152 C6.04891875,40.4990538 6.20044028,40.4340331 6.24369068,40.8456375 C6.26531588,41.083805 5.76721062,40.9539087 5.52904315,40.9539087 C5.65893949,41.6685562 5.81060615,42.0582452 5.13920902,42.1665163 C3.9479363,42.2747874 2.97335097,41.191931 2.36697457,41.6035354 C2.38845464,41.6900362 2.5401213,42.4913297 4.1213733,42.9029342 C5.44239722,43.2277476 7.04512928,43.5527061 6.20044028,43.9857906 C5.91887728,44.1374573 5.63731429,43.834124 5.35575129,43.8989996 C5.35575129,43.9207699 6.39535735,44.9602308 5.57229355,45.4802516 C5.39900169,45.5670426 4.27274969,45.7835849 3.14678797,45.3503552 C2.8216843,45.2420841 1.78222338,44.8519597 1.63055671,44.3323744 C1.43578478,43.6823122 2.30209898,43.1409565 3.03822657,43.8773744 C3.21166357,44.2241032 2.67030791,43.9207699 2.45376564,44.0074158 C1.45740998,44.41873 4.85764602,45.4150857 5.05256309,44.87373 C5.11758382,44.41873 4.72774969,44.1807077 4.33791556,43.9640203 C2.8216843,43.0543106 0.0929905223,43.270998 0.027824653,42.9242691 C-0.123551742,42.2530171 0.309532787,42.2530171 2.15043231,42.534435 C2.08555671,42.2744972 1.08920105,41.408183 1.97728558,40.9102228 C2.80020424,40.4121176 4.74952003,41.9496838 4.90104156,41.4083281 C4.94443709,41.2566614 4.85779116,41.0618895 4.79277043,40.931848 C4.70612449,40.6719102 3.40658063,40.5854094 2.34549451,39.9357827 C1.50080551,39.4807827 1.21924252,38.5495929 2.08555671,38.1813839 C1.45740998,37.4233409 1.08920105,36.5354015 2.08555671,36.3621096 C1.95551524,35.842234 0.959304717,35.2574828 1.63055671,34.607856 C2.21530791,34.04473 3.2550591,34.889419 4.77100009,35.1059613 C4.90104156,34.889419 4.77100009,34.1097508 4.51106229,33.9798544 C4.25112449,33.849813 1.60893151,33.7415418 1.37047378,33.3299374 C0.807492915,32.355352 2.97320583,33.005124 4.20772896,33.1784158 C4.42427122,32.8102069 4.46766676,32.3771224 4.94414682,32.6152898 C5.07404315,32.6801654 5.00902242,33.200041 5.22556468,33.3515626 C5.78869068,33.7197715 7.52131907,33.7415418 8.08444507,34.1096056 C8.25788207,34.1747715 8.23611173,34.4779597 8.0845902,34.5862308 Z M2.3234339,37.1635482 C2.43170504,37.8781957 3.34141476,37.8565705 4.96577202,38.4847173 C5.03079276,38.3331957 5.09581349,38.2465498 5.05241795,38.1165083 C4.85750089,37.4018608 2.95172577,36.7086933 2.3234339,37.1635482 L2.3234339,37.1635482 Z M6.76342114,46.952797 C7.11000488,47.0828385 7.30492194,47.3861718 7.23990121,47.6243393 C7.15325528,47.8625067 6.82844188,47.9491527 6.48185815,47.797486 C6.15704475,47.6675897 5.94050248,47.3644015 6.02700328,47.126234 C6.09202402,46.8879214 6.43860775,46.8014206 6.76342114,46.952797 L6.76342114,46.952797 Z M5.87548175,48.6423201 C6.09202402,49.4221335 5.11743869,49.8768433 3.8398103,49.4221335 C2.62691237,48.9456535 2.43185017,47.9276726 1.99862051,48.2307157 C1.58701604,48.5121335 1.45726484,49.205301 1.78207824,49.6169055 C1.99862051,49.8983233 2.34534937,49.8983233 2.88670504,50.2016567 C3.03808143,50.8080331 1.45711971,50.4181989 1.13230631,49.7685721 C0.785867715,49.0755498 1.04551524,47.9926933 1.80384858,47.6459645 C1.80384858,47.1912547 1.32736851,46.2382946 1.99862051,45.8266901 C2.47510057,45.5018768 2.9298103,45.5670426 3.99118669,45.9134812 C4.81425049,46.1948991 5.74558542,46.7147747 5.70233502,47.0397332 C5.63731429,47.7543807 4.46781189,46.5850235 3.10339244,46.3684812 C2.43185017,46.2602101 2.38845464,46.6498991 2.45362051,47.299671 C2.7784339,47.2128799 3.14664283,47.1265243 3.66622816,47.1913999 C4.48943709,47.2995259 5.63716915,47.7542356 5.87548175,48.6423201 L5.87548175,48.6423201 Z M3.0599969,47.9925482 C3.9263111,48.923738 4.85764602,48.9022579 5.03093789,48.7938417 C5.05256309,48.7070506 5.05256309,48.6638002 5.03093789,48.5987795 C4.87927122,48.2090905 3.5145615,47.7542356 3.0599969,47.9925482 Z M8.19292163,30.9497991 C8.25779723,31.7078422 8.1062757,33.1372824 7.39162817,33.1805328 C6.33039691,33.2455535 5.68062498,31.8161133 5.48570792,31.3612584 C5.37743678,30.9497991 5.63722945,30.581445 6.00558351,30.863008 C6.85027251,32.1409267 7.00179404,32.8123238 7.30512737,32.4441149 C7.9981497,31.5561755 6.95854364,28.1125439 6.28714651,27.9826476 C5.89731238,27.9176269 5.61574938,28.4807529 5.18266485,29.62863 C4.59791366,31.1881117 3.8398706,32.7906986 2.4320556,32.0976763 C1.13265688,31.4696747 0.764447948,29.5421293 0.569385747,28.2642106 C0.396239017,27.2896253 0.612781282,25.2754339 0.980990213,25.0803717 C1.13265688,24.9504753 1.47909548,24.9721005 1.52234588,25.1887879 C1.58722147,25.6218725 0.937594679,26.5748326 1.39230441,28.8489618 C1.52234588,29.4771085 2.15063774,31.1014658 2.8433698,31.318008 C4.03464253,31.6428214 4.35945592,27.5494179 5.70225018,27.2246045 C7.43487857,26.8131452 8.1062757,29.8669426 8.19292163,30.9497991 Z" id="logo" fill="#0C0E0F" fill-rule="nonzero"></path>
        </g>
    </g>
</svg>
