<svg width="60px" height="60px" viewBox="0 0 60 60" version="1.1" xmlns="http://www.w3.org/2000/svg" xmlns:xlink="http://www.w3.org/1999/xlink">
    <g id="Symbols" stroke="none" stroke-width="1" fill="none" fill-rule="evenodd">
        <g id="illustration/design/drink-swirl">
            <path d="M29,12 C36.6254134,12.041 41.8935951,12.735 46,20 C50.3466459,28.194 47.6450403,36.31 38,39 C21.1335683,43.481 14.650121,16.711 32,17 C52.8655048,16.541 34.174577,46.734 26,30 C23.283888,25.373 27.414979,18.006 33,21 C43.4246065,24.844 31.1988513,32.655 30,29 C30.0526233,29.745 36.3675375,27.108 35,25 C34.2821945,23 28.506383,24.336 28,27 C25.7712739,33.641 38.1046466,34.572 39,27 C40.0488686,17.255 26.40175,16.312 23,24 C20.3426812,30.346 25.7032515,36.526 32,38 C51.3344934,41.112 49.2542267,13.172 32,14 C22.5498554,14.473 16.9649127,21.314 18,30 C19.0360422,39.161 23.1143397,42 30,48 C19.0533016,43 10.890615,40.446 12,29 C13.0856061,19.5 18.8248682,12.596 29,12" id="swirl" fill-opacity="0.1" fill="#FFFFFF"></path>
        </g>
    </g>
</svg>
