
<svg width="290px" height="200px" viewBox="0 0 290 200" version="1.1" xmlns="http://www.w3.org/2000/svg" xmlns:xlink="http://www.w3.org/1999/xlink">
    <!-- Generator: Sketch 47 (45396) - http://www.bohemiancoding.com/sketch -->
    <desc>Created with Sketch.</desc>
    <defs>
        <path d="M0,0 L290,0 L290,195 L290,195 C290,197.761424 287.761424,200 285,200 L5,200 L5,200 C2.23857625,200 3.38176876e-16,197.761424 0,195 L0,0 Z" id="path-1"></path>
    </defs>
    <g id="Symbols" stroke="none" stroke-width="1" fill="none" fill-rule="evenodd">
        <g id="doughnuts">
            <g>
                <g id="box">
                    <use fill="#FFFFFF" fill-rule="evenodd" xlink:href="#path-1"></use>
                    <path stroke="#DBDEDF" stroke-width="1" d="M0.5,0.5 L0.5,195 C0.5,197.485281 2.51471863,199.5 5,199.5 L285,199.5 C287.485281,199.5 289.5,197.485281 289.5,195 L289.5,0.5 L0.5,0.5 Z"></path>
                </g>
                <g id="dots" transform="translate(10.000000, 13.000000)" fill="#007550">
                    <circle cx="3" cy="3" r="3"></circle>
                    <circle cx="15" cy="3" r="3"></circle>
                    <circle cx="27" cy="3" r="3"></circle>
                    <circle cx="39" cy="3" r="3"></circle>
                    <circle cx="51" cy="3" r="3"></circle>
                    <circle cx="63" cy="3" r="3"></circle>
                    <circle cx="75" cy="3" r="3"></circle>
                    <circle cx="87" cy="3" r="3"></circle>
                    <circle cx="99" cy="3" r="3"></circle>
                    <circle cx="111" cy="3" r="3"></circle>
                    <circle cx="123" cy="3" r="3"></circle>
                    <circle cx="135" cy="3" r="3"></circle>
                    <circle cx="147" cy="3" r="3"></circle>
                    <circle cx="159" cy="3" r="3"></circle>
                    <circle cx="171" cy="3" r="3"></circle>
                    <circle cx="183" cy="3" r="3"></circle>
                    <circle cx="195" cy="3" r="3"></circle>
                    <circle cx="207" cy="3" r="3"></circle>
                    <circle cx="219" cy="3" r="3"></circle>
                    <circle cx="231" cy="3" r="3"></circle>
                    <circle cx="243" cy="3" r="3"></circle>
                    <circle cx="255" cy="3" r="3"></circle>
                    <circle cx="267" cy="3" r="3"></circle>
                    <circle cx="9" cy="15" r="3"></circle>
                    <circle cx="21" cy="15" r="3"></circle>
                    <circle cx="33" cy="15" r="3"></circle>
                    <circle cx="45" cy="15" r="3"></circle>
                    <circle cx="57" cy="15" r="3"></circle>
                    <circle cx="69" cy="15" r="3"></circle>
                    <circle cx="81" cy="15" r="3"></circle>
                    <circle cx="93" cy="15" r="3"></circle>
                    <circle cx="105" cy="15" r="3"></circle>
                    <circle cx="117" cy="15" r="3"></circle>
                    <circle cx="129" cy="15" r="3"></circle>
                    <circle cx="141" cy="15" r="3"></circle>
                    <circle cx="153" cy="15" r="3"></circle>
                    <circle cx="165" cy="15" r="3"></circle>
                    <circle cx="177" cy="15" r="3"></circle>
                    <circle cx="189" cy="15" r="3"></circle>
                    <circle cx="201" cy="15" r="3"></circle>
                    <circle cx="213" cy="15" r="3"></circle>
                    <circle cx="225" cy="15" r="3"></circle>
                    <circle cx="237" cy="15" r="3"></circle>
                    <circle cx="249" cy="15" r="3"></circle>
                    <circle cx="261" cy="15" r="3"></circle>
                    <circle cx="3" cy="27" r="3"></circle>
                    <circle cx="15" cy="27" r="3"></circle>
                    <circle cx="27" cy="27" r="3"></circle>
                    <circle cx="39" cy="27" r="3"></circle>
                    <circle cx="51" cy="27" r="3"></circle>
                    <circle cx="63" cy="27" r="3"></circle>
                    <circle cx="75" cy="27" r="3"></circle>
                    <circle cx="87" cy="27" r="3"></circle>
                    <circle cx="99" cy="27" r="3"></circle>
                    <circle cx="111" cy="27" r="3"></circle>
                    <circle cx="123" cy="27" r="3"></circle>
                    <circle cx="135" cy="27" r="3"></circle>
                    <circle cx="147" cy="27" r="3"></circle>
                    <circle cx="159" cy="27" r="3"></circle>
                    <circle cx="171" cy="27" r="3"></circle>
                    <circle cx="183" cy="27" r="3"></circle>
                    <circle cx="195" cy="27" r="3"></circle>
                    <circle cx="207" cy="27" r="3"></circle>
                    <circle cx="219" cy="27" r="3"></circle>
                    <circle cx="231" cy="27" r="3"></circle>
                    <circle cx="243" cy="27" r="3"></circle>
                    <circle cx="255" cy="27" r="3"></circle>
                    <circle cx="267" cy="27" r="3"></circle>
                    <circle cx="9" cy="39" r="3"></circle>
                    <circle cx="21" cy="39" r="3"></circle>
                    <circle cx="33" cy="39" r="3"></circle>
                    <circle cx="45" cy="39" r="3"></circle>
                    <circle cx="57" cy="39" r="3"></circle>
                    <circle cx="69" cy="39" r="3"></circle>
                    <circle cx="81" cy="39" r="3"></circle>
                    <circle cx="93" cy="39" r="3"></circle>
                    <circle cx="105" cy="39" r="3"></circle>
                    <circle cx="117" cy="39" r="3"></circle>
                    <circle cx="129" cy="39" r="3"></circle>
                    <circle cx="141" cy="39" r="3"></circle>
                    <circle cx="153" cy="39" r="3"></circle>
                    <circle cx="165" cy="39" r="3"></circle>
                    <circle cx="177" cy="39" r="3"></circle>
                    <circle cx="189" cy="39" r="3"></circle>
                    <circle cx="201" cy="39" r="3"></circle>
                    <circle cx="213" cy="39" r="3"></circle>
                    <circle cx="225" cy="39" r="3"></circle>
                    <circle cx="237" cy="39" r="3"></circle>
                    <circle cx="249" cy="39" r="3"></circle>
                    <circle cx="261" cy="39" r="3"></circle>
                    <circle cx="3" cy="51" r="3"></circle>
                    <circle cx="15" cy="51" r="3"></circle>
                    <circle cx="27" cy="51" r="3"></circle>
                    <circle cx="39" cy="51" r="3"></circle>
                    <circle cx="51" cy="51" r="3"></circle>
                    <circle cx="63" cy="51" r="3"></circle>
                    <circle cx="75" cy="51" r="3"></circle>
                    <circle cx="87" cy="51" r="3"></circle>
                    <circle cx="99" cy="51" r="3"></circle>
                    <circle cx="111" cy="51" r="3"></circle>
                    <circle cx="123" cy="51" r="3"></circle>
                    <circle cx="135" cy="51" r="3"></circle>
                    <circle cx="147" cy="51" r="3"></circle>
                    <circle cx="159" cy="51" r="3"></circle>
                    <circle cx="171" cy="51" r="3"></circle>
                    <circle cx="183" cy="51" r="3"></circle>
                    <circle cx="195" cy="51" r="3"></circle>
                    <circle cx="207" cy="51" r="3"></circle>
                    <circle cx="219" cy="51" r="3"></circle>
                    <circle cx="231" cy="51" r="3"></circle>
                    <circle cx="243" cy="51" r="3"></circle>
                    <circle cx="255" cy="51" r="3"></circle>
                    <circle cx="267" cy="51" r="3"></circle>
                    <circle cx="9" cy="63" r="3"></circle>
                    <circle cx="21" cy="63" r="3"></circle>
                    <circle cx="33" cy="63" r="3"></circle>
                    <circle cx="45" cy="63" r="3"></circle>
                    <circle cx="57" cy="63" r="3"></circle>
                    <circle cx="69" cy="63" r="3"></circle>
                    <circle cx="81" cy="63" r="3"></circle>
                    <circle cx="93" cy="63" r="3"></circle>
                    <circle cx="105" cy="63" r="3"></circle>
                    <circle cx="117" cy="63" r="3"></circle>
                    <circle cx="129" cy="63" r="3"></circle>
                    <circle cx="141" cy="63" r="3"></circle>
                    <circle cx="153" cy="63" r="3"></circle>
                    <circle cx="165" cy="63" r="3"></circle>
                    <circle cx="177" cy="63" r="3"></circle>
                    <circle cx="189" cy="63" r="3"></circle>
                    <circle cx="201" cy="63" r="3"></circle>
                    <circle cx="213" cy="63" r="3"></circle>
                    <circle cx="225" cy="63" r="3"></circle>
                    <circle cx="237" cy="63" r="3"></circle>
                    <circle cx="249" cy="63" r="3"></circle>
                    <circle cx="261" cy="63" r="3"></circle>
                    <circle cx="3" cy="75" r="3"></circle>
                    <circle cx="15" cy="75" r="3"></circle>
                    <circle cx="27" cy="75" r="3"></circle>
                    <circle cx="39" cy="75" r="3"></circle>
                    <circle cx="51" cy="75" r="3"></circle>
                    <circle cx="63" cy="75" r="3"></circle>
                    <circle cx="75" cy="75" r="3"></circle>
                    <circle cx="87" cy="75" r="3"></circle>
                    <circle cx="99" cy="75" r="3"></circle>
                    <circle cx="111" cy="75" r="3"></circle>
                    <circle cx="123" cy="75" r="3"></circle>
                    <circle cx="135" cy="75" r="3"></circle>
                    <circle cx="147" cy="75" r="3"></circle>
                    <circle cx="159" cy="75" r="3"></circle>
                    <circle cx="171" cy="75" r="3"></circle>
                    <circle cx="183" cy="75" r="3"></circle>
                    <circle cx="195" cy="75" r="3"></circle>
                    <circle cx="207" cy="75" r="3"></circle>
                    <circle cx="219" cy="75" r="3"></circle>
                    <circle cx="231" cy="75" r="3"></circle>
                    <circle cx="243" cy="75" r="3"></circle>
                    <circle cx="255" cy="75" r="3"></circle>
                    <circle cx="267" cy="75" r="3"></circle>
                    <circle cx="9" cy="87" r="3"></circle>
                    <circle cx="21" cy="87" r="3"></circle>
                    <circle cx="33" cy="87" r="3"></circle>
                    <circle cx="45" cy="87" r="3"></circle>
                    <circle cx="57" cy="87" r="3"></circle>
                    <circle cx="69" cy="87" r="3"></circle>
                    <circle cx="81" cy="87" r="3"></circle>
                    <circle cx="93" cy="87" r="3"></circle>
                    <circle cx="105" cy="87" r="3"></circle>
                    <circle cx="117" cy="87" r="3"></circle>
                    <circle cx="129" cy="87" r="3"></circle>
                    <circle cx="141" cy="87" r="3"></circle>
                    <circle cx="153" cy="87" r="3"></circle>
                    <circle cx="165" cy="87" r="3"></circle>
                    <circle cx="177" cy="87" r="3"></circle>
                    <circle cx="189" cy="87" r="3"></circle>
                    <circle cx="201" cy="87" r="3"></circle>
                    <circle cx="213" cy="87" r="3"></circle>
                    <circle cx="225" cy="87" r="3"></circle>
                    <circle cx="237" cy="87" r="3"></circle>
                    <circle cx="249" cy="87" r="3"></circle>
                    <circle cx="261" cy="87" r="3"></circle>
                    <circle cx="3" cy="99" r="3"></circle>
                    <circle cx="15" cy="99" r="3"></circle>
                    <circle cx="27" cy="99" r="3"></circle>
                    <circle cx="39" cy="99" r="3"></circle>
                    <circle cx="51" cy="99" r="3"></circle>
                    <circle cx="63" cy="99" r="3"></circle>
                    <circle cx="75" cy="99" r="3"></circle>
                    <circle cx="87" cy="99" r="3"></circle>
                    <circle cx="99" cy="99" r="3"></circle>
                    <circle cx="111" cy="99" r="3"></circle>
                    <circle cx="123" cy="99" r="3"></circle>
                    <circle cx="135" cy="99" r="3"></circle>
                    <circle cx="147" cy="99" r="3"></circle>
                    <circle cx="159" cy="99" r="3"></circle>
                    <circle cx="171" cy="99" r="3"></circle>
                    <circle cx="183" cy="99" r="3"></circle>
                    <circle cx="195" cy="99" r="3"></circle>
                    <circle cx="207" cy="99" r="3"></circle>
                    <circle cx="219" cy="99" r="3"></circle>
                    <circle cx="231" cy="99" r="3"></circle>
                    <circle cx="243" cy="99" r="3"></circle>
                    <circle cx="255" cy="99" r="3"></circle>
                    <circle cx="267" cy="99" r="3"></circle>
                    <circle cx="9" cy="111" r="3"></circle>
                    <circle cx="21" cy="111" r="3"></circle>
                    <circle cx="33" cy="111" r="3"></circle>
                    <circle cx="45" cy="111" r="3"></circle>
                    <circle cx="57" cy="111" r="3"></circle>
                    <circle cx="69" cy="111" r="3"></circle>
                    <circle cx="81" cy="111" r="3"></circle>
                    <circle cx="93" cy="111" r="3"></circle>
                    <circle cx="105" cy="111" r="3"></circle>
                    <circle cx="117" cy="111" r="3"></circle>
                    <circle cx="129" cy="111" r="3"></circle>
                    <circle cx="141" cy="111" r="3"></circle>
                    <circle cx="153" cy="111" r="3"></circle>
                    <circle cx="165" cy="111" r="3"></circle>
                    <circle cx="177" cy="111" r="3"></circle>
                    <circle cx="189" cy="111" r="3"></circle>
                    <circle cx="201" cy="111" r="3"></circle>
                    <circle cx="213" cy="111" r="3"></circle>
                    <circle cx="225" cy="111" r="3"></circle>
                    <circle cx="237" cy="111" r="3"></circle>
                    <circle cx="249" cy="111" r="3"></circle>
                    <circle cx="261" cy="111" r="3"></circle>
                    <circle cx="3" cy="123" r="3"></circle>
                    <circle cx="15" cy="123" r="3"></circle>
                    <circle cx="27" cy="123" r="3"></circle>
                    <circle cx="39" cy="123" r="3"></circle>
                    <circle cx="51" cy="123" r="3"></circle>
                    <circle cx="63" cy="123" r="3"></circle>
                    <circle cx="75" cy="123" r="3"></circle>
                    <circle cx="87" cy="123" r="3"></circle>
                    <circle cx="99" cy="123" r="3"></circle>
                    <circle cx="111" cy="123" r="3"></circle>
                    <circle cx="123" cy="123" r="3"></circle>
                    <circle cx="135" cy="123" r="3"></circle>
                    <circle cx="147" cy="123" r="3"></circle>
                    <circle cx="159" cy="123" r="3"></circle>
                    <circle cx="171" cy="123" r="3"></circle>
                    <circle cx="183" cy="123" r="3"></circle>
                    <circle cx="195" cy="123" r="3"></circle>
                    <circle cx="207" cy="123" r="3"></circle>
                    <circle cx="219" cy="123" r="3"></circle>
                    <circle cx="231" cy="123" r="3"></circle>
                    <circle cx="243" cy="123" r="3"></circle>
                    <circle cx="255" cy="123" r="3"></circle>
                    <circle cx="267" cy="123" r="3"></circle>
                    <circle cx="9" cy="135" r="3"></circle>
                    <circle cx="21" cy="135" r="3"></circle>
                    <circle cx="33" cy="135" r="3"></circle>
                    <circle cx="45" cy="135" r="3"></circle>
                    <circle cx="57" cy="135" r="3"></circle>
                    <circle cx="69" cy="135" r="3"></circle>
                    <circle cx="81" cy="135" r="3"></circle>
                    <circle cx="93" cy="135" r="3"></circle>
                    <circle cx="105" cy="135" r="3"></circle>
                    <circle cx="117" cy="135" r="3"></circle>
                    <circle cx="129" cy="135" r="3"></circle>
                    <circle cx="141" cy="135" r="3"></circle>
                    <circle cx="153" cy="135" r="3"></circle>
                    <circle cx="165" cy="135" r="3"></circle>
                    <circle cx="177" cy="135" r="3"></circle>
                    <circle cx="189" cy="135" r="3"></circle>
                    <circle cx="201" cy="135" r="3"></circle>
                    <circle cx="213" cy="135" r="3"></circle>
                    <circle cx="225" cy="135" r="3"></circle>
                    <circle cx="237" cy="135" r="3"></circle>
                    <circle cx="249" cy="135" r="3"></circle>
                    <circle cx="261" cy="135" r="3"></circle>
                    <circle cx="3" cy="147" r="3"></circle>
                    <circle cx="15" cy="147" r="3"></circle>
                    <circle cx="27" cy="147" r="3"></circle>
                    <circle cx="39" cy="147" r="3"></circle>
                    <circle cx="51" cy="147" r="3"></circle>
                    <circle cx="63" cy="147" r="3"></circle>
                    <circle cx="75" cy="147" r="3"></circle>
                    <circle cx="87" cy="147" r="3"></circle>
                    <circle cx="99" cy="147" r="3"></circle>
                    <circle cx="111" cy="147" r="3"></circle>
                    <circle cx="123" cy="147" r="3"></circle>
                    <circle cx="135" cy="147" r="3"></circle>
                    <circle cx="147" cy="147" r="3"></circle>
                    <circle cx="159" cy="147" r="3"></circle>
                    <circle cx="171" cy="147" r="3"></circle>
                    <circle cx="183" cy="147" r="3"></circle>
                    <circle cx="195" cy="147" r="3"></circle>
                    <circle cx="207" cy="147" r="3"></circle>
                    <circle cx="219" cy="147" r="3"></circle>
                    <circle cx="231" cy="147" r="3"></circle>
                    <circle cx="243" cy="147" r="3"></circle>
                    <circle cx="255" cy="147" r="3"></circle>
                    <circle cx="267" cy="147" r="3"></circle>
                    <circle cx="9" cy="159" r="3"></circle>
                    <circle cx="21" cy="159" r="3"></circle>
                    <circle cx="33" cy="159" r="3"></circle>
                    <circle cx="45" cy="159" r="3"></circle>
                    <circle cx="57" cy="159" r="3"></circle>
                    <circle cx="69" cy="159" r="3"></circle>
                    <circle cx="81" cy="159" r="3"></circle>
                    <circle cx="93" cy="159" r="3"></circle>
                    <circle cx="105" cy="159" r="3"></circle>
                    <circle cx="117" cy="159" r="3"></circle>
                    <circle cx="129" cy="159" r="3"></circle>
                    <circle cx="141" cy="159" r="3"></circle>
                    <circle cx="153" cy="159" r="3"></circle>
                    <circle cx="165" cy="159" r="3"></circle>
                    <circle cx="177" cy="159" r="3"></circle>
                    <circle cx="189" cy="159" r="3"></circle>
                    <circle cx="201" cy="159" r="3"></circle>
                    <circle cx="213" cy="159" r="3"></circle>
                    <circle cx="225" cy="159" r="3"></circle>
                    <circle cx="237" cy="159" r="3"></circle>
                    <circle cx="249" cy="159" r="3"></circle>
                    <circle cx="261" cy="159" r="3"></circle>
                    <circle cx="3" cy="171" r="3"></circle>
                    <circle cx="15" cy="171" r="3"></circle>
                    <circle cx="27" cy="171" r="3"></circle>
                    <circle cx="39" cy="171" r="3"></circle>
                    <circle cx="51" cy="171" r="3"></circle>
                    <circle cx="63" cy="171" r="3"></circle>
                    <circle cx="75" cy="171" r="3"></circle>
                    <circle cx="87" cy="171" r="3"></circle>
                    <circle cx="99" cy="171" r="3"></circle>
                    <circle cx="111" cy="171" r="3"></circle>
                    <circle cx="123" cy="171" r="3"></circle>
                    <circle cx="135" cy="171" r="3"></circle>
                    <circle cx="147" cy="171" r="3"></circle>
                    <circle cx="159" cy="171" r="3"></circle>
                    <circle cx="171" cy="171" r="3"></circle>
                    <circle cx="183" cy="171" r="3"></circle>
                    <circle cx="195" cy="171" r="3"></circle>
                    <circle cx="207" cy="171" r="3"></circle>
                    <circle cx="219" cy="171" r="3"></circle>
                    <circle cx="231" cy="171" r="3"></circle>
                    <circle cx="243" cy="171" r="3"></circle>
                    <circle cx="255" cy="171" r="3"></circle>
                    <circle cx="267" cy="171" r="3"></circle>
                </g>
                <g id="logo/doughnuts" transform="translate(84.000000, 79.000000)">
                    <g id="Krispy_Kreme_logo">
                        <path d="M61.1397376,7.2629375 C33.9030213,4.006625 21.2024752,2.631125 1.57648227,0.286125 C0.911539007,0.286125 0.318411348,0.1763125 0.414453901,1.2779375 C4.64595035,15.929375 5.25941135,18.34875 10.7619574,37.3305625 C11.9417234,40.7631875 13.8690638,41.67275 15.7362695,41.67275 C34.1137092,41.67275 43.3437447,41.67275 60.9943759,41.673625 C78.6437092,41.673625 87.8624965,41.6745 106.241234,41.6745 C108.106709,41.6745 110.03578,40.7640625 111.215546,37.3323125 C116.718525,18.349625 117.331553,15.9306875 121.56305,1.2796875 C121.65866,0.1780625 121.066397,0.287 120.401021,0.287 C100.775028,2.632 88.3773191,4.0075 61.1397376,7.2629375" id="green" fill="#007550" fill-rule="nonzero"></path>
                        <path d="M60.9831277,9.31 C85.5540142,6.5235625 100.186227,4.6335625 117.796191,2.583875 C118.429121,2.52 118.999319,2.1669375 118.703837,3.2064375 C116.27595,11.8724375 115.520589,14.573125 111.118638,29.915375 C110.262475,32.7026875 109.007865,32.35575 107.049809,32.3649375 C90.510156,32.3649375 78.9487092,32.3588125 60.9835603,32.3553125 C43.0175461,32.35925 31.4673475,32.363625 14.9285603,32.363625 C12.9705035,32.3544375 11.7145957,32.701375 10.8597305,29.9158125 C6.45648227,14.571375 5.70112057,11.871125 3.27280142,3.2055625 C2.9781844,2.1665 3.54838298,2.5178125 4.1821773,2.582125 C21.7904113,4.6326875 36.4118085,6.5226875 60.9831277,9.31" id="white" fill="#FFFFFF" fill-rule="nonzero"></path>
                        <path d="M38.5641135,11.4205 C47.9325887,11.41875 59.3374255,11.417875 59.8280213,11.4235625 C61.311922,11.4375625 61.9850851,10.75725 62.2554752,10.5135625 C62.5267305,10.2694375 62.8356241,10.2816875 62.8274043,10.5660625 C62.8248085,10.6885625 61.2210709,14.448875 58.9999787,14.443625 C57.6393759,14.4414375 47.4125745,14.4396875 38.5472411,14.4396875 C38.8877163,14.028875 39.0923475,13.4981875 39.0923475,12.921125 C39.0927801,12.352375 38.8946383,11.8286875 38.5641135,11.4205 L38.5641135,11.4205 Z M46.6438014,20.36125 C46.4707518,20.712125 45.1196667,24.1058125 45.1196667,24.1058125 C44.756695,25.0438125 45.2883901,25.52025 45.678617,25.6204375 C46.5520851,25.84575 47.393539,25.193875 48.301617,22.7784375 C49.7431206,18.9424375 47.0829149,19.4735625 46.6438014,20.36125 Z M37.0992482,23.5003125 C38.3923617,24.082625 37.8727801,25.9 36.9690284,26.1205 C36.5524113,26.45125 38.2980496,27.31575 39.0655248,25.5373125 C39.8477092,23.72475 38.850078,21.9625 38.7328369,21.5341875 C38.4187518,21.7975625 37.8736454,22.4791875 37.0992482,23.5003125 Z M47.9922908,26.446875 C50.1753121,25.7621875 52.0269433,22.8720625 52.4067872,21.9130625 C53.2469433,19.64375 53.9625035,17.884125 53.9625035,17.884125 L56.5751206,17.8775625 C56.5751206,17.8775625 54.7070496,22.39825 53.9028014,24.6925 C53.1335957,26.8835 55.3010426,25.0420625 56.1797021,22.6095625 C56.9480426,20.516125 57.9313972,17.9585 57.9313972,17.9585 L60.6404894,17.9536875 C60.6404894,17.9536875 57.4966099,25.8934375 57.1725745,26.581625 C58.1849149,26.303375 59.4538014,27.0913125 59.3305035,27.47325 C58.8870638,28.8395625 58.6158085,26.7973125 56.7520638,27.386625 C55.7254468,29.90225 53.4411915,32.099375 51.6475319,31.8276875 C49.3243404,31.47725 50.6797518,28.2734375 54.5971631,27.1140625 L54.9376383,26.1568125 C52.9242057,27.8481875 50.9851844,26.82225 51.443766,24.8311875 C49.7539362,26.908875 47.7686241,27.204625 46.506227,27.1123125 C45.556617,27.2558125 44.7458794,26.8428125 44.3240709,26.2084375 C43.6811915,27.9129375 42.8033972,30.1013125 42.8033972,30.1013125 L40.2076525,30.1013125 L41.534078,26.6735 C40.4218014,27.3363125 39.3289929,27.4649375 38.4780213,27.4325625 C36.7605035,27.9085625 35.7040355,26.747875 35.400766,25.9 C33.4842411,28.4676875 31.3669787,27.54675 31.0784184,25.970875 C30.2603262,26.830125 29.3643617,27.4754375 28.5523262,27.4448125 C26.5756667,27.3713125 27.059773,24.3796875 27.402844,23.3778125 C28.297078,20.769875 29.2665887,19.7264375 27.4543262,19.6686875 C27.1523546,19.6590625 24.9788511,28.189 21.0268298,28.56 C17.3650993,28.90125 18.7754539,25.9529375 19.3828582,24.2668125 C20.3540993,21.566125 21.3846099,20.2181875 20.8676241,19.212375 C20.4670142,18.4305625 18.2450567,20.0475625 17.5636738,21.7713125 C16.6832837,23.9925 14.9056312,28.632625 14.9056312,28.632625 L11.478383,28.707 C11.478383,28.707 14.3055816,21.4773125 17.0527447,14.202125 C17.9487092,11.83175 16.5820496,11.762625 15.5126028,11.8260625 C14.6313475,11.879 14.9778794,11.0893125 15.6237872,11.0394375 C18.9147589,10.7856875 20.109234,10.8355625 20.5055177,11.0971875 C21.1817092,11.5434375 21.1505603,12.4630625 21.0285603,12.6765625 C20.4241844,14.268625 19.3119078,17.0883125 19.1622199,17.532375 C18.6820071,18.956875 19.6774752,17.58925 19.9699291,17.2186875 C20.262383,16.8494375 22.3368156,14.49 22.7491064,13.93175 C23.1787021,13.3511875 25.0809504,11.4226875 26.355461,11.4226875 L34.9348298,11.4218125 C34.6047376,11.83 34.4061631,12.3528125 34.4061631,12.9215625 C34.4061631,13.4995 34.6116596,14.028875 34.9512695,14.440125 C29.6209078,14.441 25.4434894,14.441875 25.1436809,14.4440625 C24.4804681,14.4475625 22.9948369,15.274875 21.8695816,16.6438125 C20.9009362,17.826375 22.163766,17.397625 22.163766,17.397625 C24.0526028,17.213875 25.8116525,16.78425 22.7962624,23.452625 C19.9123901,29.8326875 24.2174326,26.8454375 26.735305,19.12575 C26.826156,18.844875 26.0885319,18.479125 26.064305,17.9501875 C26.0309929,17.27425 25.8315532,16.4959375 27.002234,16.4959375 C28.1733475,16.4959375 27.7865816,17.696875 28.7768582,18.0026875 C30.7820709,18.6235 31.8727163,17.987375 30.8201418,20.566 C29.8121277,23.0383125 28.6981206,26.1130625 30.0158936,25.7429375 C30.6483901,25.5653125 31.0135248,25.09675 31.2480071,24.66625 C32.6393262,20.83375 33.8312057,17.871 33.8312057,17.871 L36.4191631,17.871 C36.4191631,17.871 35.4574397,20.3258125 33.5945603,25.0788125 C32.9417305,26.742625 34.2430638,25.808125 35.2086809,24.7393125 C35.3207305,23.862125 35.9675035,23.53225 36.162617,23.5003125 C37.1875035,22.0031875 40.4737163,17.304875 40.4737163,17.304875 C40.4737163,17.304875 40.7246383,17.4890625 40.5139504,17.8250625 C40.2323121,18.2721875 40.7562199,20.489 40.9863759,21.1920625 C41.351078,22.3129375 41.9372837,25.0788125 40.4001702,26.3493125 C40.0912766,26.60525 39.7944965,26.814375 39.5119929,26.9801875 C40.432617,26.8060625 41.1949007,26.4193125 41.8200426,25.93675 L44.9392624,17.877125 L47.5116454,17.877125 C47.5116454,17.877125 47.400461,18.1234375 47.254234,18.503625 C47.9935887,17.93225 48.9107518,17.6273125 49.6150638,17.81675 C50.3332199,18.008375 52.7087589,18.1951875 50.0377376,23.7304375 C49.4017801,25.045125 48.6931418,25.914 47.9922908,26.446875 Z M52.2233546,30.218125 C53.0669716,29.659 53.6514468,29.05525 54.1658369,28.0958125 C53.5368014,28.2314375 52.4604326,28.82775 51.900617,29.358875 C51.1699149,30.0523125 51.527695,30.67925 52.2233546,30.218125 Z M35.3414965,12.9215625 C35.3414965,12.1349375 35.9718298,11.49925 36.7483901,11.49925 C37.5249504,11.49925 38.1552837,12.1358125 38.1552837,12.9215625 C38.1552837,13.706 37.525383,14.3434375 36.7483901,14.3434375 C35.9713972,14.3434375 35.3414965,13.706 35.3414965,12.9215625 Z M82.9072199,22.768375 C84.2267234,22.7968125 85.8148865,21.9874375 86.1609858,21.38325 C86.5066525,20.7790625 86.4655532,19.595625 85.5851631,19.551875 C84.840617,19.5155625 83.362773,20.20375 82.9072199,22.768375 Z M109.14544,25.011875 C106.591227,28.504875 102.817447,28.06475 101.922348,24.8425625 C101.300234,26.1183125 100.397348,27.3748125 98.7390993,27.5226875 C96.7485957,27.6994375 96.5439645,25.7096875 96.7637376,24.6001875 C96.9826454,23.489375 97.3248511,23.0453125 98.1278014,20.7510625 C98.6941064,19.1345 97.0289362,19.9600625 96.081922,21.51975 C95.4001064,23.38 93.8573688,27.5314375 93.8573688,27.5314375 C93.8573688,27.5314375 93.0600426,27.4710625 91.2815248,27.4483125 C91.5012979,26.3388125 92.970922,23.079 93.7760355,20.7851875 C94.3509929,19.1445625 92.6265532,20.01825 91.6886241,21.6234375 C91.6596383,21.6759375 91.628922,21.725375 91.5986383,21.7721875 L89.2979433,27.531875 L86.6104823,27.531875 L87.453234,25.3798125 C87.1845745,25.6764375 86.8765461,25.960375 86.5144397,26.2189375 C83.0685887,28.6820625 81.428078,26.900125 80.8924894,25.1531875 C79.9074043,26.3816875 78.7111986,27.4855 77.6542979,27.4456875 C75.6789362,27.3713125 76.1634752,24.3805625 76.5056809,23.38 C77.398617,20.769875 78.3694255,19.7273125 76.5571631,19.6695625 C76.2551915,19.6599375 74.0808227,28.189 70.1296667,28.56 C66.4679362,28.90125 67.8774255,25.9546875 68.4843972,24.2668125 C69.4556383,21.567875 70.4874468,20.2181875 69.970461,19.212375 C69.5685532,18.4314375 67.3478936,20.0484375 66.6656454,21.7713125 C65.7861206,23.9925 64.0071702,28.6348125 64.0071702,28.6348125 L60.5807872,28.707 C60.5807872,28.707 63.4079858,21.4781875 66.1560142,14.203 C67.0519787,11.83175 65.6853191,11.7639375 64.6158723,11.8269375 C63.7341844,11.879 64.0807163,11.0893125 64.7261915,11.0394375 C68.0175957,10.7865625 69.2120709,10.8364375 69.607922,11.0971875 C70.2832482,11.543875 70.2525319,12.4639375 70.1309645,12.6774375 C69.5265887,14.2695 68.4143121,17.0891875 68.2646241,17.532375 C67.7857092,18.95775 68.7798794,17.58925 69.0731986,17.2186875 C69.3665177,16.8494375 71.4383546,14.490875 71.8515106,13.932625 C72.2811064,13.3520625 74.1842199,11.424 75.4591631,11.424 C76.5783617,11.424 108.109305,11.41525 108.933454,11.424 C110.416057,11.438875 111.08922,10.7585625 111.360475,10.514875 C111.630865,10.2711875 111.940191,10.282125 111.932837,10.567375 C111.930241,10.689 110.325206,14.4493125 108.104546,14.4449375 C105.679255,14.440125 75.0780213,14.43925 74.2456525,14.4449375 C73.5846028,14.4484375 72.0968085,15.27575 70.9724184,16.6446875 C70.0024752,17.82725 71.2657376,17.397625 71.2657376,17.397625 C73.1550071,17.21475 74.9127589,16.7855625 71.8995319,23.452625 C69.0143617,29.8326875 73.3202695,26.8454375 75.8381418,19.12575 C75.9298582,18.844875 75.192234,18.479125 75.1667092,17.9510625 C75.1342624,17.27425 74.9339574,16.4968125 76.1046383,16.4968125 C77.2761844,16.4968125 76.8889858,17.6973125 77.8792624,18.0035625 C79.885773,18.6239375 80.9759858,17.9878125 79.9234113,20.566875 C78.9153972,23.0383125 77.8018227,26.1139375 79.1187305,25.743375 C80.1855816,25.44325 80.4927447,24.318 80.6882908,23.9413125 C80.685695,23.835 80.6865603,23.7356875 80.6939149,23.6438125 C80.8760496,21.08925 82.3573546,18.8908125 83.6180213,18.33475 C86.6386028,16.9999375 87.8023617,18.701375 87.7032908,20.3231875 C87.5825887,22.3120625 85.3783688,23.6438125 82.8890496,23.7164375 C82.8444894,23.681 82.8375674,23.70725 82.8890496,24.087 C83.2792766,26.9390625 86.4906454,25.3855 88.2047021,23.463125 L90.4115177,17.836875 L93.1777163,17.822 L92.5054184,19.5068125 C94.5487021,17.0314375 96.7542199,17.7261875 96.5673262,19.8445625 L96.6469291,19.737375 C98.9895887,16.629375 101.663638,17.8189375 100.74561,20.626375 C100.610631,21.0385 99.2798794,24.8653125 99.2798794,24.8653125 C99.2798794,24.8653125 98.8680213,26.15025 99.6727021,26.15025 C100.367496,26.15025 101.317972,24.910375 101.741943,23.7444375 L101.735887,23.6438125 C101.609993,21.10675 103.163113,18.9175 104.416426,18.365375 C107.422298,17.038875 108.705894,18.7306875 108.697241,20.3424375 C108.686858,22.3199375 106.51422,23.6438125 103.979475,23.7181875 C103.931454,23.681 103.925397,23.7085625 104.000674,24.08525 C104.671674,27.475875 108.02927,25.249875 108.524191,24.6404375 C109.772745,23.0969375 109.73078,24.2134375 109.14544,25.011875 Z M103.943567,22.7749375 C105.289894,22.8025 106.865943,21.998375 107.183489,21.39725 C107.501901,20.7956875 107.392447,19.6196875 106.492156,19.5759375 C105.731603,19.5405 104.261979,20.22475 103.943567,22.7749375 Z" id="Shape" fill="#CE1041" fill-rule="nonzero"></path>
                        <path d="M51.6042695,36.50675 L51.6042695,37.4784375 L52.4924468,37.4784375 C52.442695,38.0279375 52.0373262,38.304875 51.5064965,38.304875 C50.7022482,38.304875 50.2648652,37.5545625 50.2648652,36.8160625 C50.2648652,36.09025 50.6832128,35.315 51.4883262,35.315 C51.9819504,35.315 52.338,35.6173125 52.5049929,36.0723125 L53.6652908,35.578375 C53.259922,34.6885 52.5119149,34.2475 51.5441348,34.2475 C50.0286525,34.2475 48.9929504,35.263375 48.9929504,36.8090625 C48.9929504,38.3044375 50.0217305,39.3194375 51.5004397,39.3194375 C52.2869504,39.3194375 52.9800142,39.036375 53.4411915,38.3866875 C53.859539,37.793 53.9092908,37.2010625 53.9214043,36.5063125 L51.6042695,36.5063125" id="g" fill="#FFFFFF" fill-rule="nonzero"></path>
                        <polyline id="t" fill="#FFFFFF" fill-rule="nonzero" points="95.116305 35.4528125 96.4911844 35.4528125 96.4911844 34.4054375 92.4824894 34.4054375 92.4824894 35.4528125 93.8573688 35.4528125 93.8573688 39.164125 95.116305 39.164125 95.116305 35.4528125"></polyline>
                        <path d="M17.8197872,35.4519375 L18.1079149,35.4519375 C18.8935603,35.4519375 19.4494823,35.93275 19.4494823,36.7836875 C19.4494823,37.7120625 18.824773,38.1154375 18.0949362,38.1154375 L17.8197872,38.1154375 L17.8197872,35.4519375 L17.8197872,35.4519375 Z M16.5967589,39.162375 L18.3315816,39.162375 C19.6355106,39.162375 20.7222624,38.1215625 20.7222624,36.7836875 C20.7222624,35.4466875 19.6424326,34.405 18.3328794,34.405 L16.5967589,34.405 L16.5967589,39.162375 L16.5967589,39.162375 Z" id="d" fill="#FFFFFF"></path>
                        <path d="M29.4686241,35.4466875 C30.198461,35.4466875 30.7976454,36.045625 30.7976454,36.701875 C30.7976454,37.5221875 30.198461,38.121125 29.4686241,38.121125 C28.7387872,38.121125 28.1387376,37.5221875 28.1387376,36.701875 C28.1387376,36.0460625 28.7387872,35.4466875 29.4686241,35.4466875 L29.4686241,35.4466875 Z M29.4686241,34.2475 C28.114078,34.2475 26.8663901,35.25725 26.8663901,36.6953125 C26.8663901,38.23575 27.9583333,39.319875 29.4686241,39.319875 C30.9789149,39.319875 32.0699929,38.23575 32.0699929,36.6953125 C32.0708582,35.25725 30.822305,34.2475 29.4686241,34.2475 Z" fill="#FFFFFF"></path>
                        <path d="M41.3826596,34.3398125 L41.3826596,36.8449375 C41.3826596,37.4635625 41.3385319,38.1395 40.5533191,38.1395 C39.7676738,38.1395 39.7231135,37.4635625 39.7231135,36.8449375 L39.7231135,34.3398125 L38.5005177,34.3398125 L38.5005177,37.0155625 C38.5005177,37.627625 38.5260426,38.2326875 38.9932766,38.6929375 C39.3869645,39.0845 40.0038865,39.2231875 40.5533191,39.2231875 C41.1027518,39.2231875 41.7196738,39.0845 42.1133617,38.6938125 C42.5805957,38.2326875 42.6061206,37.627625 42.6061206,37.0155625 L42.6061206,34.3398125 L41.3826596,34.3398125" id="u" fill="#FFFFFF"></path>
                        <polyline id="h" fill="#FFFFFF" points="61.555922 36.2411875 61.555922 34.4054375 60.3328936 34.4054375 60.3328936 39.164125 61.555922 39.164125 61.555922 37.2141875 63.3210284 37.2141875 63.3210284 39.164125 64.5440567 39.164125 64.5440567 34.4054375 63.3210284 34.4054375 63.3210284 36.2411875 61.555922 36.2411875"></polyline>
                        <polyline id="n" fill="#FFFFFF" points="71.1934894 39.164125 72.4160851 39.164125 72.4160851 36.2490625 72.4290638 36.2490625 74.6691915 39.164125 75.8922199 39.164125 75.8922199 34.4054375 74.6691915 34.4054375 74.6691915 37.3148125 74.6557801 37.3148125 72.4160851 34.4054375 71.1934894 34.4054375 71.1934894 39.164125"></polyline>
                        <path d="M85.3982695,34.4054375 L85.3982695,36.9114375 C85.3982695,37.5291875 85.3550071,38.205125 84.5689291,38.205125 C83.7832837,38.205125 83.7382908,37.5291875 83.7382908,36.9114375 L83.7382908,34.4054375 L82.5161277,34.4054375 L82.5161277,37.0811875 C82.5161277,37.69325 82.5407872,38.29875 83.0088865,38.759875 C83.4025745,39.151 84.0194965,39.2896875 84.5689291,39.2896875 C85.1183617,39.2896875 85.7348511,39.151 86.128539,38.759875 C86.595773,38.29875 86.6212979,37.69325 86.6212979,37.0811875 L86.6212979,34.4054375 L85.3982695,34.4054375" id="u" fill="#FFFFFF"></path>
                        <path d="M105.489766,34.6705625 C105.073149,34.4308125 104.492135,34.2794375 104.018844,34.2794375 C103.076589,34.2794375 102.396504,34.9111875 102.396504,35.8754375 C102.396504,36.796375 102.900511,36.9980625 103.668851,37.2194375 C103.930156,37.2946875 104.410801,37.415 104.410801,37.7636875 C104.410801,38.0961875 104.104504,38.2414375 103.818539,38.2414375 C103.400191,38.2414375 103.03895,38.0209375 102.733518,37.7496875 L102.209177,38.745875 C102.688525,39.087125 103.269539,39.2888125 103.862234,39.2888125 C104.337255,39.2888125 104.829582,39.15625 105.197312,38.84125 C105.572397,38.51925 105.684879,38.0340625 105.684879,37.5598125 C105.684879,36.79025 105.177844,36.456 104.524149,36.260875 L104.211794,36.1650625 C103.999376,36.0955 103.668418,35.9883125 103.668418,35.711375 C103.668418,35.44625 103.967362,35.314125 104.192326,35.314125 C104.491702,35.314125 104.778532,35.4396875 105.002631,35.629125 L105.489766,34.6705625" id="s" fill="#FFFFFF"></path>
                    </g>
                </g>
            </g>
        </g>
    </g>
</svg>
