<svg width="465px" height="300px" viewBox="0 0 465 300" version="1.1" xmlns="http://www.w3.org/2000/svg" xmlns:xlink="http://www.w3.org/1999/xlink" preserveAspectRatio="xMidYMid slice">
    <!-- Generator: Sketch 47 (45396) - http://www.bohemiancoding.com/sketch -->
    <desc>Created with Sketch.</desc>
    <defs>
        <path d="M0,5.00701574 C0,2.2417173 2.24317259,0 5.00255106,0 L364.997449,0 C367.760282,0 370,2.23193808 370,5.00701574 L370,285 L0,285 L0,5.00701574 Z" id="path-1"></path>
        <filter x="-4.5%" y="-3.7%" width="108.9%" height="111.6%" filterUnits="objectBoundingBox" id="filter-2">
            <feOffset dx="0" dy="3" in="SourceAlpha" result="shadowOffsetOuter1"></feOffset>
            <feGaussianBlur stdDeviation="3" in="shadowOffsetOuter1" result="shadowBlurOuter1"></feGaussianBlur>
            <feColorMatrix values="0 0 0 0 0   0 0 0 0 0   0 0 0 0 0  0 0 0 0.16 0" type="matrix" in="shadowBlurOuter1" result="shadowMatrixOuter1"></feColorMatrix>
            <feOffset dx="0" dy="3" in="SourceAlpha" result="shadowOffsetOuter2"></feOffset>
            <feGaussianBlur stdDeviation="3" in="shadowOffsetOuter2" result="shadowBlurOuter2"></feGaussianBlur>
            <feColorMatrix values="0 0 0 0 0   0 0 0 0 0   0 0 0 0 0  0 0 0 0.23 0" type="matrix" in="shadowBlurOuter2" result="shadowMatrixOuter2"></feColorMatrix>
            <feMerge>
                <feMergeNode in="shadowMatrixOuter1"></feMergeNode>
                <feMergeNode in="shadowMatrixOuter2"></feMergeNode>
            </feMerge>
        </filter>
        <circle id="path-3" cx="15" cy="15" r="5"></circle>
        <circle id="path-4" cx="30" cy="15" r="5"></circle>
        <circle id="path-5" cx="45" cy="15" r="5"></circle>
        <rect id="path-6" x="100" y="50" width="270" height="25"></rect>
        <linearGradient x1="30.5257161%" y1="0%" x2="73.577474%" y2="94.7200521%" id="linearGradient-7">
            <stop stop-color="#0089D2" offset="0%"></stop>
            <stop stop-color="#0070D2" offset="100%"></stop>
        </linearGradient>
        <path d="M15,0 L113,0 L113,1.77635684e-15 C121.284271,-7.10335005e-15 128,6.71572875 128,15 L128,230 C128,238.284271 121.284271,245 113,245 L15,245 L15,245 C6.71572875,245 2.79088747e-15,238.284271 1.77635684e-15,230 L0,15 L1.77635684e-15,15 C7.61826213e-16,6.71572875 6.71572875,3.29815278e-15 15,1.77635684e-15 L15,0 Z M9,32 L9,212 L119,212 L119,32 L9,32 Z" id="path-8"></path>
    </defs>
    <g id="Ill" stroke="none" stroke-width="1" fill="none" fill-rule="evenodd">
        <g id="Prototype" transform="translate(-26.000000, -25.000000)">
            <g id="Browser" transform="translate(115.000000, 28.000000)">
                <g id="illustration/prototype">
                    <g id="Browser">
                        <g id="header">
                            <g id="bar">
                                <use fill="black" fill-opacity="1" filter="url(#filter-2)" xlink:href="#path-1"></use>
                                <use fill="#E4E8EC" fill-rule="evenodd" xlink:href="#path-1"></use>
                            </g>
                            <g id="button-close">
                                <use fill="#FF5F57" fill-rule="evenodd" xlink:href="#path-3"></use>
                                <circle stroke="#E0443E" stroke-width="0.5" cx="15" cy="15" r="4.75"></circle>
                            </g>
                            <g id="button-minimise">
                                <use fill="#FFBD2E" fill-rule="evenodd" xlink:href="#path-4"></use>
                                <circle stroke="#DF9F22" stroke-width="0.5" cx="30" cy="15" r="4.75"></circle>
                            </g>
                            <g id="button-full">
                                <use fill="#29C941" fill-rule="evenodd" xlink:href="#path-5"></use>
                                <circle stroke="#1AAB2B" stroke-width="0.5" cx="45" cy="15" r="4.75"></circle>
                            </g>
                        </g>
                        <rect id="Rectangle" fill="#FFFFFF" x="0" y="30" width="370" height="50"></rect>
                    </g>
                </g>
                <g id="screen/browser/initial" transform="translate(0.000000, 30.000000)">
                    <g id="side-navigation">
                        <rect id="Rectangle-5" fill="#42526A" x="0" y="0" width="100" height="255"></rect>
                        <rect id="Rectangle-6" fill-opacity="0.2" fill="#000000" x="0" y="38" width="100" height="17"></rect>
                        <rect id="Rectangle-15" fill-opacity="0.5" fill="#FFFFFF" x="10" y="25" width="40" height="4" rx="2"></rect>
                        <rect id="Rectangle-15-Copy" fill="#FFFFFF" x="10" y="44" width="35" height="4" rx="2"></rect>
                        <rect id="Rectangle-15-Copy" fill-opacity="0.5" fill="#FFFFFF" x="10" y="63" width="45" height="4" rx="2"></rect>
                        <rect id="Rectangle-15-Copy-2" fill-opacity="0.5" fill="#FFFFFF" x="10" y="82" width="65" height="4" rx="2"></rect>
                        <rect id="Rectangle-15-Copy-3" fill-opacity="0.5" fill="#FFFFFF" x="10" y="101" width="70" height="4" rx="2"></rect>
                    </g>
                    <g id="temp-row2" transform="translate(100.000000, 105.000000)">
                        <rect id="Rectangle-7-Copy-2" fill="#E4E8EC" x="0" y="29.0322581" width="270" height="1"></rect>
                        <rect id="Rectangle-8" fill="#FFFFFF" x="0" y="0" width="270" height="30"></rect>
                        <rect id="Rectangle-17" fill="#9AA3AF" x="20" y="10" width="30" height="4" rx="2"></rect>
                        <rect id="Rectangle-17-Copy" fill="#E4E8EC" x="20" y="17" width="60" height="2"></rect>
                        <rect id="Rectangle-9-Copy-2" fill="#9AA3AF" x="221" y="10" width="29" height="4" rx="2"></rect>
                        <rect id="Rectangle-7" fill="#E4E8EC" x="0" y="29" width="270" height="1"></rect>
                    </g>
                    <g id="temp-row2" transform="translate(100.000000, 135.000000)">
                        <rect id="Rectangle-7-Copy-2" fill="#E4E8EC" x="0" y="29.0322581" width="270" height="1"></rect>
                        <rect id="Rectangle-8" fill="#FFFFFF" x="0" y="0" width="270" height="30"></rect>
                        <rect id="Rectangle-17" fill="#9AA3AF" x="20" y="10" width="30" height="4" rx="2"></rect>
                        <rect id="Rectangle-17-Copy" fill="#E4E8EC" x="20" y="17" width="60" height="2"></rect>
                        <rect id="Rectangle-9-Copy-2" fill="#9AA3AF" x="221" y="10" width="29" height="4" rx="2"></rect>
                        <rect id="Rectangle-7" fill="#E4E8EC" x="0" y="29" width="270" height="1"></rect>
                    </g>
                    <g id="temp-row2" transform="translate(100.000000, 165.000000)">
                        <rect id="Rectangle-7-Copy-2" fill="#E4E8EC" x="0" y="29.0322581" width="270" height="1"></rect>
                        <rect id="Rectangle-8" fill="#FFFFFF" x="0" y="0" width="270" height="30"></rect>
                        <rect id="Rectangle-17" fill="#9AA3AF" x="20" y="10" width="30" height="4" rx="2"></rect>
                        <rect id="Rectangle-17-Copy" fill="#E4E8EC" x="20" y="17" width="60" height="2"></rect>
                        <rect id="Rectangle-9-Copy-2" fill="#9AA3AF" x="221" y="10" width="29" height="4" rx="2"></rect>
                        <rect id="Rectangle-7" fill="#E4E8EC" x="0" y="29" width="270" height="1"></rect>
                    </g>
                    <g id="temp-row2" transform="translate(100.000000, 195.000000)">
                        <rect id="Rectangle-7-Copy-2" fill="#E4E8EC" x="0" y="29.0322581" width="270" height="1"></rect>
                        <rect id="Rectangle-8" fill="#FFFFFF" x="0" y="0" width="270" height="30"></rect>
                        <rect id="Rectangle-17" fill="#9AA3AF" x="20" y="10" width="30" height="4" rx="2"></rect>
                        <rect id="Rectangle-17-Copy" fill="#E4E8EC" x="20" y="17" width="60" height="2"></rect>
                        <rect id="Rectangle-9-Copy-2" fill="#9AA3AF" x="221" y="10" width="29" height="4" rx="2"></rect>
                        <rect id="Rectangle-7" fill="#E4E8EC" x="0" y="29" width="270" height="1"></rect>
                    </g>
                    <g id="temp-row2" transform="translate(100.000000, 225.000000)">
                        <rect id="Rectangle-7-Copy-2" fill="#E4E8EC" x="0" y="29.0322581" width="270" height="1"></rect>
                        <rect id="Rectangle-8" fill="#FFFFFF" x="0" y="0" width="270" height="30"></rect>
                        <rect id="Rectangle-17" fill="#9AA3AF" x="20" y="10" width="30" height="4" rx="2"></rect>
                        <rect id="Rectangle-17-Copy" fill="#E4E8EC" x="20" y="17" width="60" height="2"></rect>
                        <rect id="Rectangle-9-Copy-2" fill="#9AA3AF" x="221" y="10" width="29" height="4" rx="2"></rect>
                        <rect id="Rectangle-7" fill="#E4E8EC" x="0" y="29" width="270" height="1"></rect>
                    </g>
                    <g id="temp-row" transform="translate(100.000000, 75.000000)">
                        <rect id="Rectangle-7-Copy" fill="#E4E8EC" x="0" y="0" width="270" height="1"></rect>
                        <rect id="Rectangle-7-Copy-2" fill="#E4E8EC" x="0" y="30" width="270" height="1"></rect>
                        <rect id="Rectangle-8" fill="#59BB67" x="0" y="0" width="270" height="31"></rect>
                        <rect id="Rectangle-17" fill="#FFFFFF" x="20" y="11" width="30" height="4" rx="2"></rect>
                        <rect id="Rectangle-17-Copy" fill-opacity="0.5" fill="#FFFFFF" x="20" y="18" width="60" height="2"></rect>
                        <rect id="Rectangle-9-Copy-2" fill="#FFFFFF" x="221" y="11" width="29" height="4" rx="2"></rect>
                    </g>
                    <g id="Rectangle-7">
                        <use fill="#E4E8EC" fill-rule="evenodd" xlink:href="#path-6"></use>
                        <rect stroke="#DBDEDF" stroke-width="1" x="100.5" y="50.5" width="269" height="24"></rect>
                    </g>
                    <rect id="Rectangle-8" fill="#9AA3AF" x="120" y="60" width="43" height="4" rx="2"></rect>
                    <rect id="Rectangle-8-Copy" fill="#9AA3AF" x="310" y="60" width="40" height="5" rx="2"></rect>
                    <rect id="Rectangle-15" fill="#9AA3AF" x="120" y="10" width="110" height="12" rx="2"></rect>
                </g>
            </g>
            <g id="Device" transform="translate(25.000000, 78.000000)">
                <g id="screen/iPhone/initial" transform="translate(11.000000, 34.000000)">
                    <rect id="background" fill="#E4E8EC" fill-rule="evenodd" x="0" y="0" width="110" height="180"></rect>
                    <g id="screen/iphone/ui/card-product" transform="translate(0.000000, 78.000000)">
                        <rect id="Rectangle-12" fill="#FFFFFF" fill-rule="evenodd" x="0" y="0" width="110" height="35"></rect>
                        <rect id="Rectangle-16" fill="#9AA3AF" fill-rule="evenodd" x="10" y="7" width="20" height="20" rx="2"></rect>
                        <rect id="Rectangle-17" fill="#9AA3AF" fill-rule="evenodd" x="40" y="7" width="19" height="3" rx="1.5"></rect>
                        <rect id="Rectangle-17-Copy" fill="#9AA3AF" fill-rule="evenodd" x="40" y="14" width="37" height="2" rx="1"></rect>
                        <rect id="Rectangle-17-Copy-2" fill="#9AA3AF" fill-rule="evenodd" x="40" y="18" width="37" height="2" rx="1"></rect>
                        <g id="favorite-outline" stroke-width="1" fill-rule="evenodd" transform="translate(90.000000, 12.000000)" fill="#9AA3AF">
                            <path d="M7.25,0 C6.4,0 5.55,0.4 5,1.05 C4.45,0.4 3.6,0 2.75,0 C1.2,0 0,1.2 0,2.75 C0,4.65 1.7,6.2 4.3,8.5 L5,9.15 L5.7,8.5 C8.25,6.15 10,4.6 10,2.75 C10,1.2 8.8,0 7.25,0 L7.25,0 Z M5.05,7.8 L5,7.8 L4.95,7.75 C2.55,5.6 1,4.2 1,2.75 C1,1.75 1.75,1 2.75,1 C3.5,1 4.25,1.5 4.55,2.2 L5.5,2.2 C5.75,1.5 6.5,1 7.25,1 C8.25,1 9,1.75 9,2.75 C9,4.2 7.45,5.6 5.05,7.8 L5.05,7.8 Z" id="Shape"></path>
                        </g>
                        <polygon id="Shape" fill="#FFFFFF" fill-rule="nonzero" points="12 23 16 19 18 19.5 22 15 23.5 17 24.5 16.5 29 23"></polygon>
                        <circle id="Oval" fill="#FFFFFF" fill-rule="nonzero" cx="17.5" cy="13.5" r="1.5"></circle>
                        <rect id="Rectangle-4" fill="#DBDEDF" fill-rule="evenodd" x="5" y="34" width="100" height="1"></rect>
                    </g>
                    <g id="screen/iphone/ui/card-product" transform="translate(0.000000, 113.000000)">
                        <rect id="Rectangle-12" fill="#FFFFFF" fill-rule="evenodd" x="0" y="0" width="110" height="35"></rect>
                        <rect id="Rectangle-16" fill="#9AA3AF" fill-rule="evenodd" x="10" y="7" width="20" height="20" rx="2"></rect>
                        <rect id="Rectangle-17" fill="#9AA3AF" fill-rule="evenodd" x="40" y="7" width="19" height="3" rx="1.5"></rect>
                        <rect id="Rectangle-17-Copy" fill="#9AA3AF" fill-rule="evenodd" x="40" y="14" width="37" height="2" rx="1"></rect>
                        <rect id="Rectangle-17-Copy-2" fill="#9AA3AF" fill-rule="evenodd" x="40" y="18" width="37" height="2" rx="1"></rect>
                        <g id="favorite-outline" stroke-width="1" fill-rule="evenodd" transform="translate(90.000000, 12.000000)" fill="#9AA3AF">
                            <path d="M7.25,0 C6.4,0 5.55,0.4 5,1.05 C4.45,0.4 3.6,0 2.75,0 C1.2,0 0,1.2 0,2.75 C0,4.65 1.7,6.2 4.3,8.5 L5,9.15 L5.7,8.5 C8.25,6.15 10,4.6 10,2.75 C10,1.2 8.8,0 7.25,0 L7.25,0 Z M5.05,7.8 L5,7.8 L4.95,7.75 C2.55,5.6 1,4.2 1,2.75 C1,1.75 1.75,1 2.75,1 C3.5,1 4.25,1.5 4.55,2.2 L5.5,2.2 C5.75,1.5 6.5,1 7.25,1 C8.25,1 9,1.75 9,2.75 C9,4.2 7.45,5.6 5.05,7.8 L5.05,7.8 Z" id="Shape"></path>
                        </g>
                        <polygon id="Shape" fill="#FFFFFF" fill-rule="nonzero" points="12 23 16 19 18 19.5 22 15 23.5 17 24.5 16.5 29 23"></polygon>
                        <circle id="Oval" fill="#FFFFFF" fill-rule="nonzero" cx="17.5" cy="13.5" r="1.5"></circle>
                        <rect id="Rectangle-4" fill="#DBDEDF" fill-rule="evenodd" x="5" y="34" width="100" height="1"></rect>
                    </g>
                    <g id="screen/iphone/ui/featured-product">
                        <rect id="Rectangle-10" fill="url(#linearGradient-7)" fill-rule="evenodd" x="0" y="0" width="110" height="55"></rect>
                        <g id="favorite-outline" stroke-width="1" fill-rule="evenodd" transform="translate(90.000000, 36.000000)" fill="#FFFFFF">
                            <path d="M7.25,0 C6.4,0 5.55,0.4 5,1.05 C4.45,0.4 3.6,0 2.75,0 C1.2,0 0,1.2 0,2.75 C0,4.65 1.7,6.2 4.3,8.5 L5,9.15 L5.7,8.5 C8.25,6.15 10,4.6 10,2.75 C10,1.2 8.8,0 7.25,0 L7.25,0 Z M5.05,7.8 L5,7.8 L4.95,7.75 C2.55,5.6 1,4.2 1,2.75 C1,1.75 1.75,1 2.75,1 C3.5,1 4.25,1.5 4.55,2.2 L5.5,2.2 C5.75,1.5 6.5,1 7.25,1 C8.25,1 9,1.75 9,2.75 C9,4.2 7.45,5.6 5.05,7.8 L5.05,7.8 Z" id="Shape"></path>
                        </g>
                        <rect id="Rectangle-13" fill="#FFFFFF" fill-rule="evenodd" x="10" y="10" width="35" height="35" rx="2"></rect>
                        <rect id="Rectangle-15" fill="#FFFFFF" fill-rule="evenodd" x="55" y="10" width="26" height="3" rx="1.5"></rect>
                        <rect id="Rectangle-15" fill="#FFFFFF" fill-rule="evenodd" x="55" y="19" width="45" height="2" rx="1"></rect>
                        <rect id="Rectangle-15-Copy" fill="#FFFFFF" fill-rule="evenodd" x="55" y="25" width="45" height="2" rx="1"></rect>
                        <polygon id="Shape-Copy" fill="#9AA3AF" fill-rule="nonzero" points="19 33 23 29 25 29.5 29 25 30.5 27 31.5 26.5 36 33"></polygon>
                        <circle id="Oval-Copy" fill="#9AA3AF" fill-rule="nonzero" cx="24.5" cy="23.5" r="1.5"></circle>
                    </g>
                    <g id="screen/iphone/ui/filter" transform="translate(0.000000, 55.000000)" fill-rule="evenodd">
                        <rect id="Rectangle-7" fill="#F1F1F2" x="0" y="0" width="110" height="25"></rect>
                        <rect id="Rectangle-2" fill="#DBDEDF" x="0" y="24" width="110" height="1"></rect>
                        <rect id="Rectangle" fill="#959EA2" x="10" y="10" width="45" height="5" rx="2"></rect>
                        <polygon id="Triangle" fill="#959EA2" transform="translate(97.500000, 12.500000) rotate(180.000000) translate(-97.500000, -12.500000) " points="97.5 10 100 15 95 15"></polygon>
                    </g>
                    <g id="screen/iphone/ui/card-product" transform="translate(0.000000, 148.000000)">
                        <rect id="Rectangle-12" fill="#FFFFFF" fill-rule="evenodd" x="0" y="0" width="110" height="35"></rect>
                        <rect id="Rectangle-16" fill="#9AA3AF" fill-rule="evenodd" x="10" y="7" width="20" height="20" rx="2"></rect>
                        <rect id="Rectangle-17" fill="#9AA3AF" fill-rule="evenodd" x="40" y="7" width="19" height="3" rx="1.5"></rect>
                        <rect id="Rectangle-17-Copy" fill="#9AA3AF" fill-rule="evenodd" x="40" y="14" width="37" height="2" rx="1"></rect>
                        <rect id="Rectangle-17-Copy-2" fill="#9AA3AF" fill-rule="evenodd" x="40" y="18" width="37" height="2" rx="1"></rect>
                        <g id="favorite-outline" stroke-width="1" fill-rule="evenodd" transform="translate(90.000000, 12.000000)" fill="#9AA3AF">
                            <path d="M7.25,0 C6.4,0 5.55,0.4 5,1.05 C4.45,0.4 3.6,0 2.75,0 C1.2,0 0,1.2 0,2.75 C0,4.65 1.7,6.2 4.3,8.5 L5,9.15 L5.7,8.5 C8.25,6.15 10,4.6 10,2.75 C10,1.2 8.8,0 7.25,0 L7.25,0 Z M5.05,7.8 L5,7.8 L4.95,7.75 C2.55,5.6 1,4.2 1,2.75 C1,1.75 1.75,1 2.75,1 C3.5,1 4.25,1.5 4.55,2.2 L5.5,2.2 C5.75,1.5 6.5,1 7.25,1 C8.25,1 9,1.75 9,2.75 C9,4.2 7.45,5.6 5.05,7.8 L5.05,7.8 Z" id="Shape"></path>
                        </g>
                        <polygon id="Shape" fill="#FFFFFF" fill-rule="nonzero" points="12 23 16 19 18 19.5 22 15 23.5 17 24.5 16.5 29 23"></polygon>
                        <circle id="Oval" fill="#FFFFFF" fill-rule="nonzero" cx="17.5" cy="13.5" r="1.5"></circle>
                        <rect id="Rectangle-4" fill="#DBDEDF" fill-rule="evenodd" x="5" y="34" width="100" height="1"></rect>
                    </g>
                </g>
                <g id="Devices/iPhone/dark">
                    <g id="Screen" stroke-width="1" fill-rule="evenodd" transform="translate(2.000000, 2.000000)">
                        <mask id="mask-9" fill="white">
                            <use xlink:href="#path-8"></use>
                        </mask>
                        <use id="Combined-Shape" fill="#393F41" xlink:href="#path-8"></use>
                    </g>
                    <circle id="Front-camera" fill-opacity="0.15" fill="#000000" fill-rule="evenodd" cx="66" cy="14" r="2"></circle>
                    <rect id="Speaker" fill-opacity="0.15" fill="#000000" fill-rule="evenodd" x="53" y="19" width="26" height="3" rx="1.5"></rect>
                    <circle id="Home" stroke="#60696D" stroke-width="1" cx="66" cy="231" r="8.5"></circle>
                    <rect id="Rectangle-3" fill="#393F41" fill-rule="evenodd" x="90" y="1" width="15" height="2" rx="1"></rect>
                    <rect id="Rectangle" fill="#393F41" fill-rule="evenodd" x="1" y="37" width="2" height="14" rx="1"></rect>
                    <rect id="Rectangle-2" fill="#393F41" fill-rule="evenodd" x="1" y="57" width="2" height="9" rx="1"></rect>
                    <rect id="Rectangle-20" fill="#393F41" fill-rule="evenodd" x="1" y="72" width="2" height="9" rx="1"></rect>
                </g>
            </g>
        </g>
    </g>
</svg>