<svg width="31" height="32" viewBox="0 0 31 32" version="1.1" xmlns="http://www.w3.org/2000/svg"><g id="Page-1" stroke="none" stroke-width="1" fill="none" fill-rule="evenodd"><g id="Desktop" transform="translate(-585 -304)" fill="#4F575A"><g id="Hero"><g id="channels" transform="translate(115 48)"><path d="M499 274h-27v-14a2 2 0 0 1 2-2h23a2 2 0 0 1 2 2v14zm0 4a2 2 0 0 1-2 2h-23a2 2 0 0 1-2-2v-2h27v2zm-15 4h4v4h-4v-4zm13-26h-23a4 4 0 0 0-4 4v18a4 4 0 0 0 4 4h8v4h-2a1 1 0 1 0 0 2h12a1 1 0 1 0 0-2h-2v-4h7a4 4 0 0 0 4-4v-18a4 4 0 0 0-4-4z" id="Fill-143"/></g></g></g></g></svg>