<svg width="32" height="24" viewBox="0 0 32 24" version="1.1" xmlns="http://www.w3.org/2000/svg"><g id="Page-1" stroke="none" stroke-width="1" fill="none" fill-rule="evenodd"><g id="Desktop" transform="translate(-495 -94)" fill="#4F575A"><g id="Hero"><g id="channels" transform="translate(115 48)"><path d="M406 55a1 1 0 0 1-1 1h-2a1 1 0 0 1-1-1v-2a1 1 0 0 1 1-1h2a1 1 0 0 1 1 1v2zm0-5h-4a2 2 0 0 0-2 2v4a2 2 0 0 0 2 2h4a2 2 0 0 0 2-2v-4a2 2 0 0 0-2-2zm4 16a2 2 0 0 1-2 2h-24a2 2 0 0 1-2-2V50a2 2 0 0 1 2-2h24a2 2 0 0 1 2 2v16zm-2-20h-24a4 4 0 0 0-4 4v16a4 4 0 0 0 4 4h24a4 4 0 0 0 4-4V50a4 4 0 0 0-4-4zm-11 18h-12a1 1 0 1 0 0 2h12a1 1 0 1 0 0-2zm0-4h-12a1 1 0 1 0 0 2h12a1 1 0 1 0 0-2z" id="Fill-185"/></g></g></g></g></svg>